G75*
%MOIN*%
%OFA0B0*%
%FSLAX25Y25*%
%IPPOS*%
%LPD*%
%AMOC8*
5,1,8,0,0,1.08239X$1,22.5*
%
%ADD10C,0.03575*%
%ADD11R,0.08465X0.12795*%
%ADD12R,0.08465X0.03740*%
%ADD13R,0.04134X0.03543*%
%ADD14R,0.03543X0.04134*%
%ADD15R,0.02362X0.02362*%
%ADD16R,0.05315X0.04724*%
%ADD17C,0.07087*%
%ADD18C,0.51181*%
%ADD19C,0.11811*%
%ADD20R,0.06299X0.06299*%
%ADD21C,0.06299*%
%ADD22C,0.03175*%
%ADD23C,0.00787*%
%ADD24C,0.01181*%
%ADD25C,0.02362*%
%ADD26C,0.01575*%
%ADD27C,0.01600*%
D10*
X0143669Y0039189D03*
X0148394Y0039189D03*
X0153118Y0039189D03*
X0157843Y0039189D03*
X0157843Y0043913D03*
X0153118Y0043913D03*
X0148394Y0043913D03*
X0143669Y0043913D03*
X0143669Y0048638D03*
X0148394Y0048638D03*
X0153118Y0048638D03*
X0157843Y0048638D03*
X0157843Y0053362D03*
X0153118Y0053362D03*
X0148394Y0053362D03*
X0143669Y0053362D03*
D11*
X0090362Y0046276D03*
D12*
X0113197Y0046276D03*
X0113197Y0037220D03*
X0113197Y0055331D03*
D13*
X0115559Y0024622D03*
X0109260Y0024622D03*
D14*
X0122252Y0046276D03*
X0122252Y0052575D03*
D15*
X0114575Y0029740D03*
X0110244Y0029740D03*
D16*
X0080520Y0046276D03*
X0080520Y0054543D03*
D17*
X0009004Y0059386D03*
X0009004Y0033402D03*
D18*
X0038748Y0046394D03*
D19*
X0038748Y0079602D03*
X0038748Y0013185D03*
D20*
X0048748Y0006394D03*
X0008748Y0006394D03*
X0028748Y0086394D03*
X0198748Y0086394D03*
D21*
X0188748Y0086394D03*
X0178748Y0086394D03*
X0168748Y0086394D03*
X0158748Y0086394D03*
X0148748Y0086394D03*
X0138748Y0086394D03*
X0128748Y0086394D03*
X0118748Y0086394D03*
X0108748Y0086394D03*
X0098748Y0086394D03*
X0088748Y0086394D03*
X0078748Y0086394D03*
X0068748Y0086394D03*
X0058748Y0086394D03*
X0048748Y0086394D03*
X0018748Y0086394D03*
X0008748Y0086394D03*
X0018748Y0006394D03*
X0028748Y0006394D03*
X0058748Y0006394D03*
X0068748Y0006394D03*
X0078748Y0006394D03*
X0088748Y0006394D03*
X0098748Y0006394D03*
X0108748Y0006394D03*
X0118748Y0006394D03*
X0128748Y0006394D03*
X0138748Y0006394D03*
X0148748Y0006394D03*
X0158748Y0006394D03*
X0168748Y0006394D03*
X0178748Y0006394D03*
X0188748Y0006394D03*
X0198748Y0006394D03*
D22*
X0195638Y0013992D03*
X0200756Y0015173D03*
X0190913Y0017142D03*
X0185008Y0017142D03*
X0179102Y0017142D03*
X0174772Y0020685D03*
X0173197Y0025803D03*
X0162961Y0025016D03*
X0162567Y0030134D03*
X0162606Y0034268D03*
X0173197Y0037220D03*
X0179102Y0037220D03*
X0183827Y0035646D03*
X0188945Y0036039D03*
X0196819Y0036039D03*
X0200756Y0032890D03*
X0200756Y0026984D03*
X0190913Y0026984D03*
X0183039Y0026984D03*
X0173197Y0031315D03*
X0200756Y0021079D03*
X0167685Y0012417D03*
X0162409Y0012811D03*
X0162961Y0017142D03*
X0152567Y0015961D03*
X0134417Y0023441D03*
X0123197Y0025409D03*
X0138000Y0031118D03*
X0123197Y0033677D03*
X0122409Y0038008D03*
X0104535Y0029740D03*
X0093906Y0024622D03*
X0086425Y0024622D03*
X0093512Y0020685D03*
X0079496Y0012024D03*
X0070441Y0012811D03*
X0061386Y0013992D03*
X0050992Y0017535D03*
X0047449Y0015173D03*
X0045480Y0018323D03*
X0048787Y0012024D03*
X0042724Y0005331D03*
X0034850Y0005331D03*
X0020283Y0012811D03*
X0028157Y0014780D03*
X0027913Y0018717D03*
X0027370Y0022654D03*
X0019102Y0025803D03*
X0007685Y0026197D03*
X0007685Y0019110D03*
X0015953Y0019110D03*
X0007685Y0012417D03*
X0040362Y0027378D03*
X0032882Y0028165D03*
X0037606Y0031709D03*
X0027764Y0031709D03*
X0014378Y0041157D03*
X0014378Y0046276D03*
X0014378Y0051394D03*
X0030520Y0060843D03*
X0036031Y0060843D03*
X0027764Y0065567D03*
X0020677Y0064386D03*
X0013591Y0063598D03*
X0020677Y0073441D03*
X0029339Y0080134D03*
X0035244Y0087614D03*
X0042724Y0087614D03*
X0059417Y0080134D03*
X0063197Y0081945D03*
X0069260Y0080921D03*
X0074220Y0080921D03*
X0075795Y0073835D03*
X0063197Y0073835D03*
X0050992Y0075213D03*
X0050205Y0063598D03*
X0074614Y0060449D03*
X0086031Y0067929D03*
X0113748Y0069898D03*
X0123433Y0066748D03*
X0123591Y0060843D03*
X0113748Y0060449D03*
X0126740Y0056118D03*
X0139181Y0058087D03*
X0162213Y0061039D03*
X0179496Y0059268D03*
X0184850Y0056512D03*
X0179496Y0055331D03*
X0188945Y0052181D03*
X0196819Y0052181D03*
X0201937Y0051787D03*
X0200756Y0056512D03*
X0190913Y0060449D03*
X0185008Y0064386D03*
X0190913Y0068323D03*
X0200756Y0068323D03*
X0200756Y0074228D03*
X0194850Y0078165D03*
X0200756Y0080134D03*
X0187370Y0080134D03*
X0178315Y0080921D03*
X0183039Y0073835D03*
X0190913Y0074228D03*
X0173197Y0073835D03*
X0162173Y0072654D03*
X0148394Y0080921D03*
X0138551Y0080528D03*
X0133669Y0076197D03*
X0128315Y0080528D03*
X0117685Y0080528D03*
X0113354Y0075409D03*
X0121858Y0074622D03*
X0107449Y0080921D03*
X0143669Y0074622D03*
X0200756Y0062417D03*
X0182252Y0048244D03*
X0080520Y0034071D03*
X0071858Y0033283D03*
X0064772Y0037614D03*
X0075402Y0046276D03*
X0071465Y0027378D03*
D23*
X0012882Y0008004D02*
X0012882Y0003362D01*
X0015933Y0003362D01*
X0015244Y0004052D01*
X0014614Y0005571D01*
X0014614Y0007216D01*
X0015244Y0008735D01*
X0016406Y0009898D01*
X0017926Y0010528D01*
X0019570Y0010528D01*
X0021090Y0009898D01*
X0022253Y0008735D01*
X0022882Y0007216D01*
X0022882Y0005571D01*
X0022253Y0004052D01*
X0021563Y0003362D01*
X0025655Y0003362D01*
X0025445Y0003572D01*
X0025044Y0004124D01*
X0024735Y0004731D01*
X0024524Y0005380D01*
X0024426Y0006000D01*
X0028354Y0006000D01*
X0028354Y0006787D01*
X0024426Y0006787D01*
X0024524Y0007408D01*
X0024735Y0008056D01*
X0025044Y0008663D01*
X0025445Y0009215D01*
X0025927Y0009697D01*
X0026478Y0010098D01*
X0027086Y0010407D01*
X0027734Y0010618D01*
X0028354Y0010716D01*
X0028354Y0006787D01*
X0029142Y0006787D01*
X0033070Y0006787D01*
X0032972Y0007408D01*
X0032761Y0008056D01*
X0032452Y0008663D01*
X0032051Y0009215D01*
X0031569Y0009697D01*
X0031018Y0010098D01*
X0030410Y0010407D01*
X0029762Y0010618D01*
X0029142Y0010716D01*
X0029142Y0006787D01*
X0029142Y0006000D01*
X0033070Y0006000D01*
X0032972Y0005380D01*
X0032761Y0004731D01*
X0032452Y0004124D01*
X0032051Y0003572D01*
X0031841Y0003362D01*
X0044614Y0003362D01*
X0044614Y0009343D01*
X0044589Y0009282D01*
X0042651Y0007344D01*
X0040118Y0006295D01*
X0037378Y0006295D01*
X0034845Y0007344D01*
X0032907Y0009282D01*
X0031858Y0011815D01*
X0031858Y0014555D01*
X0032907Y0017088D01*
X0034845Y0019026D01*
X0036507Y0019714D01*
X0035884Y0019758D01*
X0033992Y0020031D01*
X0032123Y0020437D01*
X0030288Y0020976D01*
X0028496Y0021644D01*
X0026757Y0022439D01*
X0025079Y0023355D01*
X0023470Y0024389D01*
X0021939Y0025535D01*
X0020494Y0026787D01*
X0019142Y0028139D01*
X0017889Y0029585D01*
X0016743Y0031115D01*
X0015709Y0032724D01*
X0014793Y0034403D01*
X0013998Y0036142D01*
X0013330Y0037934D01*
X0012791Y0039769D01*
X0012385Y0041637D01*
X0012113Y0043530D01*
X0011976Y0045438D01*
X0011976Y0046000D01*
X0038354Y0046000D01*
X0038354Y0046787D01*
X0011976Y0046787D01*
X0011976Y0047350D01*
X0012113Y0049257D01*
X0012385Y0051150D01*
X0012791Y0053019D01*
X0013330Y0054854D01*
X0013998Y0056645D01*
X0014793Y0058385D01*
X0015709Y0060063D01*
X0016743Y0061672D01*
X0017889Y0063203D01*
X0019142Y0064648D01*
X0020494Y0066000D01*
X0021939Y0067252D01*
X0023470Y0068398D01*
X0025079Y0069432D01*
X0026757Y0070349D01*
X0028496Y0071143D01*
X0030288Y0071812D01*
X0032123Y0072350D01*
X0033992Y0072757D01*
X0035884Y0073029D01*
X0036507Y0073073D01*
X0034845Y0073762D01*
X0032907Y0075700D01*
X0031858Y0078232D01*
X0031858Y0080973D01*
X0032342Y0082140D01*
X0032053Y0082063D01*
X0029142Y0082063D01*
X0029142Y0086000D01*
X0029142Y0086787D01*
X0033079Y0086787D01*
X0033079Y0089425D01*
X0045933Y0089425D01*
X0045244Y0088735D01*
X0044614Y0087216D01*
X0044614Y0085571D01*
X0045244Y0084052D01*
X0046406Y0082889D01*
X0047926Y0082260D01*
X0049570Y0082260D01*
X0051090Y0082889D01*
X0052253Y0084052D01*
X0052882Y0085571D01*
X0052882Y0087216D01*
X0052253Y0088735D01*
X0051563Y0089425D01*
X0055933Y0089425D01*
X0055244Y0088735D01*
X0054614Y0087216D01*
X0054614Y0085571D01*
X0055244Y0084052D01*
X0056406Y0082889D01*
X0057926Y0082260D01*
X0059570Y0082260D01*
X0060745Y0082747D01*
X0060625Y0082456D01*
X0060625Y0081433D01*
X0061017Y0080488D01*
X0061740Y0079765D01*
X0061819Y0079732D01*
X0061819Y0076047D01*
X0061740Y0076015D01*
X0061017Y0075291D01*
X0060625Y0074346D01*
X0060625Y0073323D01*
X0061017Y0072378D01*
X0061740Y0071655D01*
X0062685Y0071263D01*
X0063708Y0071263D01*
X0064654Y0071655D01*
X0065377Y0072378D01*
X0065768Y0073323D01*
X0065768Y0074346D01*
X0065377Y0075291D01*
X0064654Y0076015D01*
X0064575Y0076047D01*
X0064575Y0079732D01*
X0064654Y0079765D01*
X0065377Y0080488D01*
X0065768Y0081433D01*
X0065768Y0082456D01*
X0065377Y0083402D01*
X0064654Y0084125D01*
X0063708Y0084517D01*
X0062685Y0084517D01*
X0062395Y0084396D01*
X0062882Y0085571D01*
X0062882Y0087216D01*
X0062253Y0088735D01*
X0061563Y0089425D01*
X0065933Y0089425D01*
X0065244Y0088735D01*
X0064614Y0087216D01*
X0064614Y0085571D01*
X0065244Y0084052D01*
X0066406Y0082889D01*
X0067926Y0082260D01*
X0069570Y0082260D01*
X0071090Y0082889D01*
X0072253Y0084052D01*
X0072882Y0085571D01*
X0072882Y0087216D01*
X0072253Y0088735D01*
X0071563Y0089425D01*
X0075933Y0089425D01*
X0075244Y0088735D01*
X0074614Y0087216D01*
X0074614Y0085571D01*
X0075244Y0084052D01*
X0076406Y0082889D01*
X0077926Y0082260D01*
X0079570Y0082260D01*
X0081090Y0082889D01*
X0082253Y0084052D01*
X0082882Y0085571D01*
X0082882Y0087216D01*
X0082253Y0088735D01*
X0081563Y0089425D01*
X0085933Y0089425D01*
X0085244Y0088735D01*
X0084614Y0087216D01*
X0084614Y0085571D01*
X0085244Y0084052D01*
X0086406Y0082889D01*
X0087926Y0082260D01*
X0089570Y0082260D01*
X0091090Y0082889D01*
X0092253Y0084052D01*
X0092882Y0085571D01*
X0092882Y0087216D01*
X0092253Y0088735D01*
X0091563Y0089425D01*
X0095933Y0089425D01*
X0095244Y0088735D01*
X0094614Y0087216D01*
X0094614Y0085571D01*
X0095244Y0084052D01*
X0096406Y0082889D01*
X0097926Y0082260D01*
X0099570Y0082260D01*
X0101090Y0082889D01*
X0102253Y0084052D01*
X0102882Y0085571D01*
X0102882Y0087216D01*
X0102253Y0088735D01*
X0101563Y0089425D01*
X0105933Y0089425D01*
X0105244Y0088735D01*
X0104614Y0087216D01*
X0104614Y0085571D01*
X0105244Y0084052D01*
X0106406Y0082889D01*
X0107926Y0082260D01*
X0109570Y0082260D01*
X0111090Y0082889D01*
X0112253Y0084052D01*
X0112882Y0085571D01*
X0112882Y0087216D01*
X0112253Y0088735D01*
X0111563Y0089425D01*
X0115933Y0089425D01*
X0115244Y0088735D01*
X0114614Y0087216D01*
X0114614Y0085571D01*
X0115244Y0084052D01*
X0116406Y0082889D01*
X0117926Y0082260D01*
X0119570Y0082260D01*
X0121090Y0082889D01*
X0122253Y0084052D01*
X0122882Y0085571D01*
X0122882Y0087216D01*
X0122253Y0088735D01*
X0121563Y0089425D01*
X0125933Y0089425D01*
X0125244Y0088735D01*
X0124614Y0087216D01*
X0124614Y0085571D01*
X0125244Y0084052D01*
X0126406Y0082889D01*
X0127926Y0082260D01*
X0129570Y0082260D01*
X0131090Y0082889D01*
X0132253Y0084052D01*
X0132882Y0085571D01*
X0132882Y0087216D01*
X0132253Y0088735D01*
X0131563Y0089425D01*
X0135933Y0089425D01*
X0135244Y0088735D01*
X0134614Y0087216D01*
X0134614Y0085571D01*
X0135244Y0084052D01*
X0136406Y0082889D01*
X0137926Y0082260D01*
X0139570Y0082260D01*
X0141090Y0082889D01*
X0142253Y0084052D01*
X0142882Y0085571D01*
X0142882Y0087216D01*
X0142253Y0088735D01*
X0141563Y0089425D01*
X0145933Y0089425D01*
X0145244Y0088735D01*
X0144614Y0087216D01*
X0144614Y0085571D01*
X0145244Y0084052D01*
X0146406Y0082889D01*
X0147926Y0082260D01*
X0149570Y0082260D01*
X0151090Y0082889D01*
X0152253Y0084052D01*
X0152882Y0085571D01*
X0152882Y0087216D01*
X0152253Y0088735D01*
X0151563Y0089425D01*
X0155933Y0089425D01*
X0155244Y0088735D01*
X0154614Y0087216D01*
X0154614Y0085571D01*
X0155244Y0084052D01*
X0156406Y0082889D01*
X0157926Y0082260D01*
X0159570Y0082260D01*
X0161090Y0082889D01*
X0162253Y0084052D01*
X0162882Y0085571D01*
X0162882Y0087216D01*
X0162253Y0088735D01*
X0161563Y0089425D01*
X0165933Y0089425D01*
X0165244Y0088735D01*
X0164614Y0087216D01*
X0164614Y0085571D01*
X0165244Y0084052D01*
X0166406Y0082889D01*
X0167926Y0082260D01*
X0169570Y0082260D01*
X0171090Y0082889D01*
X0172253Y0084052D01*
X0172882Y0085571D01*
X0172882Y0087216D01*
X0172253Y0088735D01*
X0171563Y0089425D01*
X0175933Y0089425D01*
X0175244Y0088735D01*
X0174614Y0087216D01*
X0174614Y0085571D01*
X0175244Y0084052D01*
X0176406Y0082889D01*
X0177926Y0082260D01*
X0179570Y0082260D01*
X0181090Y0082889D01*
X0182253Y0084052D01*
X0182882Y0085571D01*
X0182882Y0087216D01*
X0182253Y0088735D01*
X0181563Y0089425D01*
X0185933Y0089425D01*
X0185244Y0088735D01*
X0184614Y0087216D01*
X0184614Y0085571D01*
X0185244Y0084052D01*
X0186406Y0082889D01*
X0187926Y0082260D01*
X0189570Y0082260D01*
X0191090Y0082889D01*
X0192253Y0084052D01*
X0192882Y0085571D01*
X0192882Y0087216D01*
X0192253Y0088735D01*
X0191563Y0089425D01*
X0194614Y0089425D01*
X0194614Y0082836D01*
X0195191Y0082260D01*
X0202305Y0082260D01*
X0202882Y0082836D01*
X0202882Y0089425D01*
X0203748Y0089425D01*
X0203748Y0003362D01*
X0201563Y0003362D01*
X0202253Y0004052D01*
X0202882Y0005571D01*
X0202882Y0007216D01*
X0202253Y0008735D01*
X0201090Y0009898D01*
X0199570Y0010528D01*
X0197926Y0010528D01*
X0196406Y0009898D01*
X0195244Y0008735D01*
X0194614Y0007216D01*
X0194614Y0005571D01*
X0195244Y0004052D01*
X0195933Y0003362D01*
X0191563Y0003362D01*
X0192253Y0004052D01*
X0192882Y0005571D01*
X0192882Y0007216D01*
X0192253Y0008735D01*
X0191090Y0009898D01*
X0189570Y0010528D01*
X0187926Y0010528D01*
X0186406Y0009898D01*
X0185244Y0008735D01*
X0184614Y0007216D01*
X0184614Y0005571D01*
X0185244Y0004052D01*
X0185933Y0003362D01*
X0181563Y0003362D01*
X0182253Y0004052D01*
X0182882Y0005571D01*
X0182882Y0007216D01*
X0182253Y0008735D01*
X0181090Y0009898D01*
X0179570Y0010528D01*
X0177926Y0010528D01*
X0176406Y0009898D01*
X0175244Y0008735D01*
X0174614Y0007216D01*
X0174614Y0005571D01*
X0175244Y0004052D01*
X0175933Y0003362D01*
X0171563Y0003362D01*
X0172253Y0004052D01*
X0172882Y0005571D01*
X0172882Y0007216D01*
X0172253Y0008735D01*
X0171090Y0009898D01*
X0169570Y0010528D01*
X0167926Y0010528D01*
X0166406Y0009898D01*
X0165244Y0008735D01*
X0164614Y0007216D01*
X0164614Y0005571D01*
X0165244Y0004052D01*
X0165933Y0003362D01*
X0161563Y0003362D01*
X0162253Y0004052D01*
X0162882Y0005571D01*
X0162882Y0007216D01*
X0162253Y0008735D01*
X0161090Y0009898D01*
X0159570Y0010528D01*
X0157926Y0010528D01*
X0156406Y0009898D01*
X0155244Y0008735D01*
X0154614Y0007216D01*
X0154614Y0005571D01*
X0155244Y0004052D01*
X0155933Y0003362D01*
X0151563Y0003362D01*
X0152253Y0004052D01*
X0152882Y0005571D01*
X0152882Y0007216D01*
X0152253Y0008735D01*
X0151090Y0009898D01*
X0149570Y0010528D01*
X0147926Y0010528D01*
X0146406Y0009898D01*
X0145244Y0008735D01*
X0144614Y0007216D01*
X0144614Y0005571D01*
X0145244Y0004052D01*
X0145933Y0003362D01*
X0141563Y0003362D01*
X0142253Y0004052D01*
X0142882Y0005571D01*
X0142882Y0007216D01*
X0142253Y0008735D01*
X0141090Y0009898D01*
X0139570Y0010528D01*
X0137926Y0010528D01*
X0136962Y0010128D01*
X0135657Y0011433D01*
X0160197Y0011433D01*
X0160229Y0011354D01*
X0160953Y0010631D01*
X0161898Y0010239D01*
X0162921Y0010239D01*
X0163866Y0010631D01*
X0164590Y0011354D01*
X0164981Y0012299D01*
X0164981Y0013323D01*
X0164590Y0014268D01*
X0163866Y0014991D01*
X0162921Y0015383D01*
X0161898Y0015383D01*
X0160953Y0014991D01*
X0160229Y0014268D01*
X0160197Y0014189D01*
X0148571Y0014189D01*
X0161977Y0027595D01*
X0162055Y0027562D01*
X0163078Y0027562D01*
X0164024Y0027954D01*
X0164747Y0028677D01*
X0165139Y0029622D01*
X0165139Y0030645D01*
X0164747Y0031591D01*
X0164157Y0032181D01*
X0164786Y0032811D01*
X0165178Y0033756D01*
X0165178Y0034779D01*
X0164786Y0035724D01*
X0164063Y0036448D01*
X0163118Y0036839D01*
X0162095Y0036839D01*
X0161150Y0036448D01*
X0160426Y0035724D01*
X0160035Y0034779D01*
X0160035Y0033756D01*
X0160061Y0033692D01*
X0143497Y0017339D01*
X0103138Y0017339D01*
X0096465Y0024012D01*
X0096445Y0024032D01*
X0096477Y0024111D01*
X0096477Y0025134D01*
X0096086Y0026079D01*
X0095362Y0026802D01*
X0094417Y0027194D01*
X0093394Y0027194D01*
X0092449Y0026802D01*
X0091725Y0026079D01*
X0091334Y0025134D01*
X0091334Y0024111D01*
X0091725Y0023165D01*
X0092040Y0022850D01*
X0091332Y0022142D01*
X0090940Y0021197D01*
X0090940Y0020173D01*
X0091332Y0019228D01*
X0092055Y0018505D01*
X0093000Y0018113D01*
X0094023Y0018113D01*
X0094156Y0018168D01*
X0098400Y0014189D01*
X0092901Y0014189D01*
X0074397Y0032693D01*
X0074430Y0032772D01*
X0074430Y0033795D01*
X0074038Y0034740D01*
X0073330Y0035449D01*
X0107980Y0035449D01*
X0107980Y0034943D01*
X0108557Y0034366D01*
X0112409Y0034366D01*
X0112409Y0031579D01*
X0112370Y0031646D01*
X0112150Y0031866D01*
X0111881Y0032022D01*
X0111581Y0032102D01*
X0110441Y0032102D01*
X0110441Y0029937D01*
X0110047Y0029937D01*
X0110047Y0029543D01*
X0107882Y0029543D01*
X0107882Y0028404D01*
X0107962Y0028103D01*
X0108118Y0027834D01*
X0108338Y0027614D01*
X0108406Y0027575D01*
X0107037Y0027575D01*
X0106737Y0027494D01*
X0106468Y0027339D01*
X0106248Y0027119D01*
X0106092Y0026850D01*
X0106012Y0026549D01*
X0106012Y0025016D01*
X0108866Y0025016D01*
X0108866Y0024228D01*
X0109654Y0024228D01*
X0109654Y0025016D01*
X0112409Y0025016D01*
X0112409Y0024709D01*
X0112482Y0024637D01*
X0112508Y0024592D01*
X0112508Y0022443D01*
X0113084Y0021866D01*
X0118034Y0021866D01*
X0118610Y0022443D01*
X0118610Y0026801D01*
X0118034Y0027378D01*
X0116740Y0027378D01*
X0116740Y0034366D01*
X0117837Y0034366D01*
X0118413Y0034943D01*
X0118413Y0039498D01*
X0117837Y0040075D01*
X0108557Y0040075D01*
X0107980Y0039498D01*
X0107980Y0038992D01*
X0095101Y0038992D01*
X0095579Y0039470D01*
X0095579Y0044110D01*
X0107980Y0044110D01*
X0107980Y0043998D01*
X0108557Y0043421D01*
X0117837Y0043421D01*
X0118413Y0043998D01*
X0118413Y0044110D01*
X0119496Y0044110D01*
X0119496Y0043801D01*
X0120073Y0043224D01*
X0124431Y0043224D01*
X0125008Y0043801D01*
X0125008Y0044110D01*
X0137016Y0044110D01*
X0137016Y0033494D01*
X0136543Y0033298D01*
X0135820Y0032575D01*
X0135428Y0031630D01*
X0135428Y0030607D01*
X0135820Y0029661D01*
X0136543Y0028938D01*
X0137488Y0028546D01*
X0138512Y0028546D01*
X0139457Y0028938D01*
X0140180Y0029661D01*
X0140572Y0030607D01*
X0140572Y0030627D01*
X0141346Y0031402D01*
X0141346Y0056615D01*
X0141361Y0056630D01*
X0141753Y0057575D01*
X0141753Y0057596D01*
X0143031Y0058874D01*
X0160741Y0058874D01*
X0160756Y0058859D01*
X0161701Y0058468D01*
X0162724Y0058468D01*
X0163669Y0058859D01*
X0164393Y0059583D01*
X0164784Y0060528D01*
X0164784Y0061551D01*
X0164393Y0062496D01*
X0163669Y0063220D01*
X0162724Y0063611D01*
X0161701Y0063611D01*
X0160756Y0063220D01*
X0160741Y0063205D01*
X0141237Y0063205D01*
X0138690Y0060658D01*
X0138670Y0060658D01*
X0137724Y0060267D01*
X0137001Y0059543D01*
X0136609Y0058598D01*
X0136609Y0057575D01*
X0137001Y0056630D01*
X0137016Y0056615D01*
X0137016Y0048441D01*
X0125008Y0048441D01*
X0125008Y0048750D01*
X0124431Y0049327D01*
X0120073Y0049327D01*
X0119496Y0048750D01*
X0119496Y0048441D01*
X0118413Y0048441D01*
X0118413Y0048553D01*
X0117837Y0049130D01*
X0108557Y0049130D01*
X0107980Y0048553D01*
X0107980Y0048441D01*
X0095579Y0048441D01*
X0095579Y0053081D01*
X0095002Y0053657D01*
X0085722Y0053657D01*
X0085146Y0053081D01*
X0085146Y0048441D01*
X0084161Y0048441D01*
X0084161Y0049045D01*
X0083585Y0049622D01*
X0077455Y0049622D01*
X0076878Y0049045D01*
X0076878Y0048436D01*
X0076858Y0048456D01*
X0075913Y0048847D01*
X0074890Y0048847D01*
X0073945Y0048456D01*
X0073221Y0047732D01*
X0072830Y0046787D01*
X0072830Y0045764D01*
X0073221Y0044819D01*
X0073945Y0044095D01*
X0074890Y0043704D01*
X0075913Y0043704D01*
X0076858Y0044095D01*
X0076878Y0044115D01*
X0076878Y0043506D01*
X0077455Y0042929D01*
X0083585Y0042929D01*
X0084161Y0043506D01*
X0084161Y0044110D01*
X0085146Y0044110D01*
X0085146Y0039470D01*
X0085624Y0038992D01*
X0072055Y0038992D01*
X0072055Y0045572D01*
X0072076Y0045594D01*
X0072056Y0046273D01*
X0072078Y0046951D01*
X0072055Y0046976D01*
X0072055Y0047009D01*
X0072034Y0047031D01*
X0071959Y0049555D01*
X0070577Y0055863D01*
X0068052Y0061806D01*
X0064470Y0067179D01*
X0064470Y0067179D01*
X0059955Y0071796D01*
X0059955Y0071796D01*
X0054664Y0075498D01*
X0054664Y0075498D01*
X0053426Y0076057D01*
X0053172Y0076669D01*
X0052449Y0077393D01*
X0051504Y0077784D01*
X0050481Y0077784D01*
X0049535Y0077393D01*
X0048812Y0076669D01*
X0048420Y0075724D01*
X0048420Y0074701D01*
X0048812Y0073756D01*
X0049535Y0073032D01*
X0050481Y0072641D01*
X0051504Y0072641D01*
X0051856Y0072787D01*
X0052837Y0072288D01*
X0057566Y0068980D01*
X0061600Y0064853D01*
X0064801Y0060052D01*
X0067058Y0054741D01*
X0068293Y0049104D01*
X0068508Y0046278D01*
X0068285Y0043468D01*
X0067132Y0038284D01*
X0066976Y0038128D01*
X0066976Y0037717D01*
X0064776Y0032585D01*
X0061576Y0027818D01*
X0057549Y0023725D01*
X0052833Y0020448D01*
X0051863Y0019958D01*
X0051504Y0020107D01*
X0050481Y0020107D01*
X0049535Y0019716D01*
X0048812Y0018992D01*
X0048420Y0018047D01*
X0048420Y0017024D01*
X0048812Y0016079D01*
X0049535Y0015355D01*
X0050481Y0014964D01*
X0051504Y0014964D01*
X0052449Y0015355D01*
X0053172Y0016079D01*
X0053422Y0016683D01*
X0054650Y0017233D01*
X0059929Y0020901D01*
X0064438Y0025483D01*
X0064438Y0025483D01*
X0068021Y0030821D01*
X0069287Y0033774D01*
X0069287Y0032772D01*
X0069678Y0031827D01*
X0070402Y0031103D01*
X0071347Y0030712D01*
X0072370Y0030712D01*
X0072449Y0030744D01*
X0090579Y0012614D01*
X0087793Y0012614D01*
X0073992Y0026760D01*
X0074036Y0026866D01*
X0074036Y0027889D01*
X0073645Y0028835D01*
X0072921Y0029558D01*
X0071976Y0029950D01*
X0070953Y0029950D01*
X0070008Y0029558D01*
X0069284Y0028835D01*
X0068893Y0027889D01*
X0068893Y0026866D01*
X0069284Y0025921D01*
X0070008Y0025198D01*
X0070953Y0024806D01*
X0071976Y0024806D01*
X0072028Y0024828D01*
X0085835Y0010675D01*
X0085835Y0010665D01*
X0086232Y0010268D01*
X0086539Y0009953D01*
X0086406Y0009898D01*
X0085244Y0008735D01*
X0084614Y0007216D01*
X0084614Y0005571D01*
X0085244Y0004052D01*
X0085933Y0003362D01*
X0081563Y0003362D01*
X0082253Y0004052D01*
X0082882Y0005571D01*
X0082882Y0007216D01*
X0082253Y0008735D01*
X0081090Y0009898D01*
X0079570Y0010528D01*
X0077926Y0010528D01*
X0076406Y0009898D01*
X0075244Y0008735D01*
X0074614Y0007216D01*
X0074614Y0005571D01*
X0075244Y0004052D01*
X0075933Y0003362D01*
X0071563Y0003362D01*
X0072253Y0004052D01*
X0072882Y0005571D01*
X0072882Y0007216D01*
X0072253Y0008735D01*
X0071090Y0009898D01*
X0069570Y0010528D01*
X0067926Y0010528D01*
X0066406Y0009898D01*
X0065244Y0008735D01*
X0064614Y0007216D01*
X0064614Y0005571D01*
X0065244Y0004052D01*
X0065933Y0003362D01*
X0061563Y0003362D01*
X0062253Y0004052D01*
X0062882Y0005571D01*
X0062882Y0007216D01*
X0062253Y0008735D01*
X0061090Y0009898D01*
X0059570Y0010528D01*
X0057926Y0010528D01*
X0056406Y0009898D01*
X0055244Y0008735D01*
X0054614Y0007216D01*
X0054614Y0005571D01*
X0055244Y0004052D01*
X0055933Y0003362D01*
X0052882Y0003362D01*
X0052882Y0009951D01*
X0052305Y0010528D01*
X0045191Y0010528D01*
X0045044Y0010381D01*
X0045638Y0011815D01*
X0045638Y0014555D01*
X0044589Y0017088D01*
X0042651Y0019026D01*
X0040990Y0019714D01*
X0041612Y0019758D01*
X0043504Y0020031D01*
X0045373Y0020437D01*
X0047208Y0020976D01*
X0049000Y0021644D01*
X0050739Y0022439D01*
X0052418Y0023355D01*
X0054026Y0024389D01*
X0055557Y0025535D01*
X0057002Y0026787D01*
X0058355Y0028139D01*
X0059607Y0029585D01*
X0060753Y0031115D01*
X0061787Y0032724D01*
X0062703Y0034403D01*
X0063498Y0036142D01*
X0064166Y0037934D01*
X0064705Y0039769D01*
X0065111Y0041637D01*
X0065383Y0043530D01*
X0065520Y0045438D01*
X0065520Y0046000D01*
X0039142Y0046000D01*
X0039142Y0046787D01*
X0065520Y0046787D01*
X0065520Y0047350D01*
X0065383Y0049257D01*
X0065111Y0051150D01*
X0064705Y0053019D01*
X0064166Y0054854D01*
X0063498Y0056645D01*
X0062703Y0058385D01*
X0061787Y0060063D01*
X0060753Y0061672D01*
X0059607Y0063203D01*
X0058355Y0064648D01*
X0057002Y0066000D01*
X0055557Y0067252D01*
X0054026Y0068398D01*
X0052418Y0069432D01*
X0050739Y0070349D01*
X0049000Y0071143D01*
X0047208Y0071812D01*
X0045373Y0072350D01*
X0043504Y0072757D01*
X0041612Y0073029D01*
X0040990Y0073073D01*
X0042651Y0073762D01*
X0044589Y0075700D01*
X0045638Y0078232D01*
X0045638Y0080973D01*
X0044589Y0083505D01*
X0042651Y0085443D01*
X0040118Y0086492D01*
X0037378Y0086492D01*
X0034845Y0085443D01*
X0033079Y0083677D01*
X0033079Y0086000D01*
X0029142Y0086000D01*
X0028354Y0086000D01*
X0024417Y0086000D01*
X0024417Y0083089D01*
X0024498Y0082788D01*
X0024653Y0082519D01*
X0024873Y0082299D01*
X0025143Y0082143D01*
X0025443Y0082063D01*
X0028354Y0082063D01*
X0028354Y0086000D01*
X0028354Y0086787D01*
X0024417Y0086787D01*
X0024417Y0089425D01*
X0021563Y0089425D01*
X0022253Y0088735D01*
X0022882Y0087216D01*
X0022882Y0085571D01*
X0022253Y0084052D01*
X0021090Y0082889D01*
X0019570Y0082260D01*
X0017926Y0082260D01*
X0016406Y0082889D01*
X0015244Y0084052D01*
X0014614Y0085571D01*
X0014614Y0087216D01*
X0015244Y0088735D01*
X0015933Y0089425D01*
X0011563Y0089425D01*
X0012253Y0088735D01*
X0012882Y0087216D01*
X0012882Y0085571D01*
X0012253Y0084052D01*
X0011090Y0082889D01*
X0009570Y0082260D01*
X0007926Y0082260D01*
X0006406Y0082889D01*
X0005717Y0083579D01*
X0005717Y0062501D01*
X0006439Y0063224D01*
X0008103Y0063913D01*
X0009905Y0063913D01*
X0011569Y0063224D01*
X0012842Y0061950D01*
X0013531Y0060286D01*
X0013531Y0058485D01*
X0012842Y0056821D01*
X0011569Y0055548D01*
X0009905Y0054858D01*
X0008103Y0054858D01*
X0006439Y0055548D01*
X0005717Y0056270D01*
X0005717Y0036517D01*
X0006439Y0037240D01*
X0008103Y0037929D01*
X0009905Y0037929D01*
X0011569Y0037240D01*
X0012842Y0035966D01*
X0013531Y0034302D01*
X0013531Y0032501D01*
X0012842Y0030837D01*
X0011569Y0029563D01*
X0009905Y0028874D01*
X0008103Y0028874D01*
X0006439Y0029563D01*
X0005717Y0030286D01*
X0005717Y0010528D01*
X0010359Y0010528D01*
X0019287Y0019456D01*
X0019287Y0019456D01*
X0020332Y0020501D01*
X0026061Y0020501D01*
X0026457Y0020897D01*
X0027402Y0021288D01*
X0028425Y0021288D01*
X0029370Y0020897D01*
X0030094Y0020173D01*
X0030485Y0019228D01*
X0030485Y0018205D01*
X0030094Y0017260D01*
X0029370Y0016536D01*
X0028425Y0016145D01*
X0027402Y0016145D01*
X0026457Y0016536D01*
X0026061Y0016932D01*
X0021810Y0016932D01*
X0012882Y0008004D01*
X0012882Y0007681D02*
X0014807Y0007681D01*
X0014614Y0006895D02*
X0012882Y0006895D01*
X0012882Y0006109D02*
X0014614Y0006109D01*
X0014717Y0005323D02*
X0012882Y0005323D01*
X0012882Y0004537D02*
X0015042Y0004537D01*
X0015544Y0003751D02*
X0012882Y0003751D01*
X0021952Y0003751D02*
X0025315Y0003751D01*
X0024833Y0004537D02*
X0022454Y0004537D01*
X0022779Y0005323D02*
X0024542Y0005323D01*
X0022882Y0006109D02*
X0028354Y0006109D01*
X0028354Y0006895D02*
X0029142Y0006895D01*
X0029142Y0006109D02*
X0044614Y0006109D01*
X0044614Y0005323D02*
X0032954Y0005323D01*
X0032663Y0004537D02*
X0044614Y0004537D01*
X0044614Y0003751D02*
X0032181Y0003751D01*
X0033053Y0006895D02*
X0035929Y0006895D01*
X0034508Y0007681D02*
X0032883Y0007681D01*
X0032552Y0008467D02*
X0033723Y0008467D01*
X0032937Y0009253D02*
X0032013Y0009253D01*
X0032594Y0010039D02*
X0031099Y0010039D01*
X0032268Y0010825D02*
X0015702Y0010825D01*
X0016488Y0011611D02*
X0031943Y0011611D01*
X0031858Y0012396D02*
X0017274Y0012396D01*
X0018060Y0013182D02*
X0031858Y0013182D01*
X0031858Y0013968D02*
X0018846Y0013968D01*
X0019632Y0014754D02*
X0031941Y0014754D01*
X0032266Y0015540D02*
X0020418Y0015540D01*
X0021204Y0016326D02*
X0026964Y0016326D01*
X0028862Y0016326D02*
X0032592Y0016326D01*
X0032931Y0017112D02*
X0029946Y0017112D01*
X0030358Y0017898D02*
X0033717Y0017898D01*
X0034503Y0018684D02*
X0030485Y0018684D01*
X0030385Y0019470D02*
X0035917Y0019470D01*
X0032957Y0020256D02*
X0030011Y0020256D01*
X0030112Y0021042D02*
X0029020Y0021042D01*
X0028095Y0021827D02*
X0005717Y0021827D01*
X0005717Y0021042D02*
X0026806Y0021042D01*
X0026437Y0022613D02*
X0005717Y0022613D01*
X0005717Y0023399D02*
X0025010Y0023399D01*
X0023787Y0024185D02*
X0005717Y0024185D01*
X0005717Y0024971D02*
X0022692Y0024971D01*
X0021683Y0025757D02*
X0005717Y0025757D01*
X0005717Y0026543D02*
X0020776Y0026543D01*
X0019952Y0027329D02*
X0005717Y0027329D01*
X0005717Y0028115D02*
X0019166Y0028115D01*
X0018482Y0028901D02*
X0009969Y0028901D01*
X0011692Y0029687D02*
X0017813Y0029687D01*
X0017225Y0030472D02*
X0012478Y0030472D01*
X0013017Y0031258D02*
X0016651Y0031258D01*
X0016146Y0032044D02*
X0013342Y0032044D01*
X0013531Y0032830D02*
X0015651Y0032830D01*
X0015222Y0033616D02*
X0013531Y0033616D01*
X0013490Y0034402D02*
X0014793Y0034402D01*
X0014434Y0035188D02*
X0013165Y0035188D01*
X0012835Y0035974D02*
X0014075Y0035974D01*
X0013768Y0036760D02*
X0012049Y0036760D01*
X0010830Y0037546D02*
X0013475Y0037546D01*
X0013213Y0038332D02*
X0005717Y0038332D01*
X0005717Y0039118D02*
X0012983Y0039118D01*
X0012762Y0039903D02*
X0005717Y0039903D01*
X0005717Y0040689D02*
X0012591Y0040689D01*
X0012420Y0041475D02*
X0005717Y0041475D01*
X0005717Y0042261D02*
X0012295Y0042261D01*
X0012182Y0043047D02*
X0005717Y0043047D01*
X0005717Y0043833D02*
X0012091Y0043833D01*
X0012035Y0044619D02*
X0005717Y0044619D01*
X0005717Y0045405D02*
X0011979Y0045405D01*
X0011976Y0046977D02*
X0005717Y0046977D01*
X0005717Y0047763D02*
X0012006Y0047763D01*
X0012062Y0048548D02*
X0005717Y0048548D01*
X0005717Y0049334D02*
X0012124Y0049334D01*
X0012237Y0050120D02*
X0005717Y0050120D01*
X0005717Y0050906D02*
X0012350Y0050906D01*
X0012503Y0051692D02*
X0005717Y0051692D01*
X0005717Y0052478D02*
X0012674Y0052478D01*
X0012863Y0053264D02*
X0005717Y0053264D01*
X0005717Y0054050D02*
X0013094Y0054050D01*
X0013325Y0054836D02*
X0005717Y0054836D01*
X0005717Y0055622D02*
X0006365Y0055622D01*
X0011643Y0055622D02*
X0013617Y0055622D01*
X0013910Y0056408D02*
X0012429Y0056408D01*
X0012996Y0057194D02*
X0014249Y0057194D01*
X0014608Y0057979D02*
X0013322Y0057979D01*
X0013531Y0058765D02*
X0015001Y0058765D01*
X0015430Y0059551D02*
X0013531Y0059551D01*
X0013510Y0060337D02*
X0015885Y0060337D01*
X0016391Y0061123D02*
X0013185Y0061123D01*
X0012859Y0061909D02*
X0016921Y0061909D01*
X0017509Y0062695D02*
X0012098Y0062695D01*
X0010949Y0063481D02*
X0018130Y0063481D01*
X0018811Y0064267D02*
X0005717Y0064267D01*
X0005717Y0065053D02*
X0019546Y0065053D01*
X0020332Y0065839D02*
X0005717Y0065839D01*
X0005717Y0066624D02*
X0021214Y0066624D01*
X0022150Y0067410D02*
X0005717Y0067410D01*
X0005717Y0068196D02*
X0023200Y0068196D01*
X0024378Y0068982D02*
X0005717Y0068982D01*
X0005717Y0069768D02*
X0025693Y0069768D01*
X0027206Y0070554D02*
X0005717Y0070554D01*
X0005717Y0071340D02*
X0029024Y0071340D01*
X0031359Y0072126D02*
X0005717Y0072126D01*
X0005717Y0072912D02*
X0035070Y0072912D01*
X0034999Y0073698D02*
X0005717Y0073698D01*
X0005717Y0074484D02*
X0034123Y0074484D01*
X0033337Y0075270D02*
X0005717Y0075270D01*
X0005717Y0076055D02*
X0032760Y0076055D01*
X0032434Y0076841D02*
X0005717Y0076841D01*
X0005717Y0077627D02*
X0032109Y0077627D01*
X0031858Y0078413D02*
X0005717Y0078413D01*
X0005717Y0079199D02*
X0031858Y0079199D01*
X0031858Y0079985D02*
X0005717Y0079985D01*
X0005717Y0080771D02*
X0031858Y0080771D01*
X0032100Y0081557D02*
X0005717Y0081557D01*
X0005717Y0082343D02*
X0007726Y0082343D01*
X0006167Y0083129D02*
X0005717Y0083129D01*
X0009770Y0082343D02*
X0017726Y0082343D01*
X0016167Y0083129D02*
X0011329Y0083129D01*
X0012115Y0083915D02*
X0015381Y0083915D01*
X0014975Y0084700D02*
X0012521Y0084700D01*
X0012847Y0085486D02*
X0014649Y0085486D01*
X0014614Y0086272D02*
X0012882Y0086272D01*
X0012882Y0087058D02*
X0014614Y0087058D01*
X0014874Y0087844D02*
X0012622Y0087844D01*
X0012296Y0088630D02*
X0015200Y0088630D01*
X0015924Y0089416D02*
X0011572Y0089416D01*
X0021572Y0089416D02*
X0024417Y0089416D01*
X0024417Y0088630D02*
X0022296Y0088630D01*
X0022622Y0087844D02*
X0024417Y0087844D01*
X0024417Y0087058D02*
X0022882Y0087058D01*
X0022882Y0086272D02*
X0028354Y0086272D01*
X0028354Y0085486D02*
X0029142Y0085486D01*
X0029142Y0084700D02*
X0028354Y0084700D01*
X0028354Y0083915D02*
X0029142Y0083915D01*
X0029142Y0083129D02*
X0028354Y0083129D01*
X0028354Y0082343D02*
X0029142Y0082343D01*
X0024829Y0082343D02*
X0019770Y0082343D01*
X0021329Y0083129D02*
X0024417Y0083129D01*
X0024417Y0083915D02*
X0022115Y0083915D01*
X0022521Y0084700D02*
X0024417Y0084700D01*
X0024417Y0085486D02*
X0022847Y0085486D01*
X0029142Y0086272D02*
X0036847Y0086272D01*
X0034950Y0085486D02*
X0033079Y0085486D01*
X0033079Y0084700D02*
X0034103Y0084700D01*
X0033317Y0083915D02*
X0033079Y0083915D01*
X0033079Y0087058D02*
X0044614Y0087058D01*
X0044614Y0086272D02*
X0040649Y0086272D01*
X0042547Y0085486D02*
X0044649Y0085486D01*
X0044975Y0084700D02*
X0043394Y0084700D01*
X0044179Y0083915D02*
X0045381Y0083915D01*
X0044745Y0083129D02*
X0046167Y0083129D01*
X0045070Y0082343D02*
X0047726Y0082343D01*
X0049770Y0082343D02*
X0057726Y0082343D01*
X0056167Y0083129D02*
X0051329Y0083129D01*
X0052115Y0083915D02*
X0055381Y0083915D01*
X0054975Y0084700D02*
X0052521Y0084700D01*
X0052847Y0085486D02*
X0054649Y0085486D01*
X0054614Y0086272D02*
X0052882Y0086272D01*
X0052882Y0087058D02*
X0054614Y0087058D01*
X0054874Y0087844D02*
X0052622Y0087844D01*
X0052296Y0088630D02*
X0055200Y0088630D01*
X0055924Y0089416D02*
X0051572Y0089416D01*
X0045924Y0089416D02*
X0033079Y0089416D01*
X0033079Y0088630D02*
X0045200Y0088630D01*
X0044874Y0087844D02*
X0033079Y0087844D01*
X0045396Y0081557D02*
X0060625Y0081557D01*
X0060625Y0082343D02*
X0059770Y0082343D01*
X0060900Y0080771D02*
X0045638Y0080771D01*
X0045638Y0079985D02*
X0061520Y0079985D01*
X0061819Y0079199D02*
X0045638Y0079199D01*
X0045638Y0078413D02*
X0061819Y0078413D01*
X0061819Y0077627D02*
X0051883Y0077627D01*
X0053000Y0076841D02*
X0061819Y0076841D01*
X0061819Y0076055D02*
X0053430Y0076055D01*
X0054990Y0075270D02*
X0061008Y0075270D01*
X0060682Y0074484D02*
X0056114Y0074484D01*
X0057237Y0073698D02*
X0060625Y0073698D01*
X0060796Y0072912D02*
X0058361Y0072912D01*
X0059484Y0072126D02*
X0061269Y0072126D01*
X0060401Y0071340D02*
X0062500Y0071340D01*
X0063894Y0071340D02*
X0075098Y0071340D01*
X0075284Y0071263D02*
X0076307Y0071263D01*
X0077252Y0071655D01*
X0077975Y0072378D01*
X0078367Y0073323D01*
X0078367Y0074346D01*
X0077975Y0075291D01*
X0077252Y0076015D01*
X0077173Y0076047D01*
X0077173Y0079917D01*
X0076759Y0080331D01*
X0076792Y0080410D01*
X0076792Y0081433D01*
X0076401Y0082378D01*
X0075677Y0083101D01*
X0074732Y0083493D01*
X0073709Y0083493D01*
X0072764Y0083101D01*
X0072040Y0082378D01*
X0071649Y0081433D01*
X0071649Y0080410D01*
X0072040Y0079465D01*
X0072764Y0078741D01*
X0073709Y0078350D01*
X0074417Y0078350D01*
X0074417Y0076047D01*
X0074339Y0076015D01*
X0073615Y0075291D01*
X0073224Y0074346D01*
X0073224Y0073323D01*
X0073615Y0072378D01*
X0074339Y0071655D01*
X0075284Y0071263D01*
X0076493Y0071340D02*
X0203748Y0071340D01*
X0203748Y0072126D02*
X0077723Y0072126D01*
X0078197Y0072912D02*
X0203748Y0072912D01*
X0203748Y0073698D02*
X0078367Y0073698D01*
X0078310Y0074484D02*
X0203748Y0074484D01*
X0203748Y0075270D02*
X0077984Y0075270D01*
X0077173Y0076055D02*
X0203748Y0076055D01*
X0203748Y0076841D02*
X0077173Y0076841D01*
X0077173Y0077627D02*
X0203748Y0077627D01*
X0203748Y0078413D02*
X0077173Y0078413D01*
X0077173Y0079199D02*
X0203748Y0079199D01*
X0203748Y0079985D02*
X0077105Y0079985D01*
X0076792Y0080771D02*
X0203748Y0080771D01*
X0203748Y0081557D02*
X0076741Y0081557D01*
X0076415Y0082343D02*
X0077726Y0082343D01*
X0076167Y0083129D02*
X0075611Y0083129D01*
X0075381Y0083915D02*
X0072115Y0083915D01*
X0072521Y0084700D02*
X0074975Y0084700D01*
X0074649Y0085486D02*
X0072847Y0085486D01*
X0072882Y0086272D02*
X0074614Y0086272D01*
X0074614Y0087058D02*
X0072882Y0087058D01*
X0072622Y0087844D02*
X0074874Y0087844D01*
X0075200Y0088630D02*
X0072296Y0088630D01*
X0071572Y0089416D02*
X0075924Y0089416D01*
X0081572Y0089416D02*
X0085924Y0089416D01*
X0085200Y0088630D02*
X0082296Y0088630D01*
X0082622Y0087844D02*
X0084874Y0087844D01*
X0084614Y0087058D02*
X0082882Y0087058D01*
X0082882Y0086272D02*
X0084614Y0086272D01*
X0084649Y0085486D02*
X0082847Y0085486D01*
X0082521Y0084700D02*
X0084975Y0084700D01*
X0085381Y0083915D02*
X0082115Y0083915D01*
X0081329Y0083129D02*
X0086167Y0083129D01*
X0087726Y0082343D02*
X0079770Y0082343D01*
X0075795Y0079346D02*
X0074220Y0080921D01*
X0071825Y0079985D02*
X0064874Y0079985D01*
X0064575Y0079199D02*
X0072306Y0079199D01*
X0073555Y0078413D02*
X0064575Y0078413D01*
X0064575Y0077627D02*
X0074417Y0077627D01*
X0074417Y0076841D02*
X0064575Y0076841D01*
X0064575Y0076055D02*
X0074417Y0076055D01*
X0073606Y0075270D02*
X0065386Y0075270D01*
X0065712Y0074484D02*
X0073281Y0074484D01*
X0073224Y0073698D02*
X0065768Y0073698D01*
X0065598Y0072912D02*
X0073394Y0072912D01*
X0073867Y0072126D02*
X0065125Y0072126D01*
X0061170Y0070554D02*
X0203748Y0070554D01*
X0203748Y0069768D02*
X0061938Y0069768D01*
X0062707Y0068982D02*
X0203748Y0068982D01*
X0203748Y0068196D02*
X0063475Y0068196D01*
X0064244Y0067410D02*
X0203748Y0067410D01*
X0203748Y0066624D02*
X0064839Y0066624D01*
X0065363Y0065839D02*
X0203748Y0065839D01*
X0203748Y0065053D02*
X0065887Y0065053D01*
X0066411Y0064267D02*
X0203748Y0064267D01*
X0203748Y0063481D02*
X0163038Y0063481D01*
X0164194Y0062695D02*
X0203748Y0062695D01*
X0203748Y0061909D02*
X0164636Y0061909D01*
X0164784Y0061123D02*
X0203748Y0061123D01*
X0203748Y0060337D02*
X0164705Y0060337D01*
X0164361Y0059551D02*
X0203748Y0059551D01*
X0203748Y0058765D02*
X0163443Y0058765D01*
X0160983Y0058765D02*
X0142922Y0058765D01*
X0142136Y0057979D02*
X0203748Y0057979D01*
X0203748Y0057194D02*
X0141595Y0057194D01*
X0141346Y0056408D02*
X0203748Y0056408D01*
X0203748Y0055622D02*
X0141346Y0055622D01*
X0141346Y0054836D02*
X0203748Y0054836D01*
X0203748Y0054050D02*
X0141346Y0054050D01*
X0141346Y0053264D02*
X0203748Y0053264D01*
X0203748Y0052478D02*
X0141346Y0052478D01*
X0141346Y0051692D02*
X0203748Y0051692D01*
X0203748Y0050906D02*
X0141346Y0050906D01*
X0141346Y0050120D02*
X0203748Y0050120D01*
X0203748Y0049334D02*
X0141346Y0049334D01*
X0141346Y0048548D02*
X0203748Y0048548D01*
X0203748Y0047763D02*
X0141346Y0047763D01*
X0141346Y0046977D02*
X0203748Y0046977D01*
X0203748Y0046191D02*
X0141346Y0046191D01*
X0141346Y0045405D02*
X0203748Y0045405D01*
X0203748Y0044619D02*
X0141346Y0044619D01*
X0141346Y0043833D02*
X0203748Y0043833D01*
X0203748Y0043047D02*
X0141346Y0043047D01*
X0141346Y0042261D02*
X0203748Y0042261D01*
X0203748Y0041475D02*
X0141346Y0041475D01*
X0141346Y0040689D02*
X0203748Y0040689D01*
X0203748Y0039903D02*
X0141346Y0039903D01*
X0141346Y0039118D02*
X0203748Y0039118D01*
X0203748Y0038332D02*
X0141346Y0038332D01*
X0141346Y0037546D02*
X0203748Y0037546D01*
X0203748Y0036760D02*
X0163310Y0036760D01*
X0161903Y0036760D02*
X0141346Y0036760D01*
X0141346Y0035974D02*
X0160676Y0035974D01*
X0160204Y0035188D02*
X0141346Y0035188D01*
X0141346Y0034402D02*
X0160035Y0034402D01*
X0159985Y0033616D02*
X0141346Y0033616D01*
X0141346Y0032830D02*
X0159189Y0032830D01*
X0158393Y0032044D02*
X0141346Y0032044D01*
X0141203Y0031258D02*
X0157597Y0031258D01*
X0156801Y0030472D02*
X0140516Y0030472D01*
X0140191Y0029687D02*
X0156005Y0029687D01*
X0155209Y0028901D02*
X0139367Y0028901D01*
X0136633Y0028901D02*
X0124575Y0028901D01*
X0124575Y0029687D02*
X0135809Y0029687D01*
X0135484Y0030472D02*
X0124575Y0030472D01*
X0124575Y0031258D02*
X0135428Y0031258D01*
X0135600Y0032044D02*
X0125201Y0032044D01*
X0125377Y0032220D02*
X0125768Y0033166D01*
X0125768Y0034189D01*
X0125377Y0035134D01*
X0124654Y0035857D01*
X0123708Y0036249D01*
X0122685Y0036249D01*
X0121740Y0035857D01*
X0121017Y0035134D01*
X0120625Y0034189D01*
X0120625Y0033166D01*
X0121017Y0032220D01*
X0121740Y0031497D01*
X0121819Y0031464D01*
X0121819Y0027622D01*
X0121740Y0027590D01*
X0121017Y0026866D01*
X0120625Y0025921D01*
X0120625Y0024898D01*
X0121017Y0023953D01*
X0121740Y0023229D01*
X0122685Y0022838D01*
X0123708Y0022838D01*
X0124654Y0023229D01*
X0125377Y0023953D01*
X0125768Y0024898D01*
X0125768Y0025921D01*
X0125377Y0026866D01*
X0124654Y0027590D01*
X0124575Y0027622D01*
X0124575Y0031464D01*
X0124654Y0031497D01*
X0125377Y0032220D01*
X0125630Y0032830D02*
X0136075Y0032830D01*
X0137016Y0033616D02*
X0125768Y0033616D01*
X0125680Y0034402D02*
X0137016Y0034402D01*
X0137016Y0035188D02*
X0125323Y0035188D01*
X0124372Y0035974D02*
X0137016Y0035974D01*
X0137016Y0036760D02*
X0118413Y0036760D01*
X0118413Y0037546D02*
X0137016Y0037546D01*
X0137016Y0038332D02*
X0118413Y0038332D01*
X0118413Y0039118D02*
X0137016Y0039118D01*
X0137016Y0039903D02*
X0118008Y0039903D01*
X0118249Y0043833D02*
X0119496Y0043833D01*
X0125008Y0043833D02*
X0137016Y0043833D01*
X0137016Y0043047D02*
X0095579Y0043047D01*
X0095579Y0042261D02*
X0137016Y0042261D01*
X0137016Y0041475D02*
X0095579Y0041475D01*
X0095579Y0040689D02*
X0137016Y0040689D01*
X0122022Y0035974D02*
X0118413Y0035974D01*
X0118413Y0035188D02*
X0121071Y0035188D01*
X0120714Y0034402D02*
X0117873Y0034402D01*
X0116740Y0033616D02*
X0120625Y0033616D01*
X0120764Y0032830D02*
X0116740Y0032830D01*
X0116740Y0032044D02*
X0121193Y0032044D01*
X0121819Y0031258D02*
X0116740Y0031258D01*
X0116740Y0030472D02*
X0121819Y0030472D01*
X0121819Y0029687D02*
X0116740Y0029687D01*
X0116740Y0028901D02*
X0121819Y0028901D01*
X0121819Y0028115D02*
X0116740Y0028115D01*
X0118083Y0027329D02*
X0121479Y0027329D01*
X0120883Y0026543D02*
X0118610Y0026543D01*
X0118610Y0025757D02*
X0120625Y0025757D01*
X0120625Y0024971D02*
X0118610Y0024971D01*
X0118610Y0024185D02*
X0120920Y0024185D01*
X0121570Y0023399D02*
X0118610Y0023399D01*
X0118610Y0022613D02*
X0148840Y0022613D01*
X0148044Y0021827D02*
X0111917Y0021827D01*
X0111783Y0021750D02*
X0112052Y0021905D01*
X0112272Y0022125D01*
X0112427Y0022395D01*
X0112508Y0022695D01*
X0112508Y0024228D01*
X0109654Y0024228D01*
X0109654Y0021669D01*
X0111482Y0021669D01*
X0111783Y0021750D01*
X0112486Y0022613D02*
X0112508Y0022613D01*
X0112508Y0023399D02*
X0112508Y0023399D01*
X0112508Y0024185D02*
X0112508Y0024185D01*
X0112409Y0024971D02*
X0109654Y0024971D01*
X0109654Y0024185D02*
X0108866Y0024185D01*
X0108866Y0024228D02*
X0108866Y0021669D01*
X0107037Y0021669D01*
X0106737Y0021750D01*
X0106468Y0021905D01*
X0106248Y0022125D01*
X0106092Y0022395D01*
X0106012Y0022695D01*
X0106012Y0024228D01*
X0108866Y0024228D01*
X0108866Y0024971D02*
X0096477Y0024971D01*
X0096477Y0024185D02*
X0106012Y0024185D01*
X0106012Y0023399D02*
X0097077Y0023399D01*
X0097863Y0022613D02*
X0106034Y0022613D01*
X0106603Y0021827D02*
X0098649Y0021827D01*
X0099435Y0021042D02*
X0147248Y0021042D01*
X0146452Y0020256D02*
X0100221Y0020256D01*
X0101007Y0019470D02*
X0145656Y0019470D01*
X0144860Y0018684D02*
X0101792Y0018684D01*
X0102578Y0017898D02*
X0144064Y0017898D01*
X0144063Y0015961D02*
X0140362Y0015961D01*
X0102567Y0015961D01*
X0095087Y0023441D01*
X0093906Y0024622D01*
X0096219Y0025757D02*
X0106012Y0025757D01*
X0106012Y0026543D02*
X0095621Y0026543D01*
X0092190Y0026543D02*
X0080548Y0026543D01*
X0081333Y0025757D02*
X0091592Y0025757D01*
X0091334Y0024971D02*
X0082119Y0024971D01*
X0082905Y0024185D02*
X0091334Y0024185D01*
X0091628Y0023399D02*
X0083691Y0023399D01*
X0084477Y0022613D02*
X0091803Y0022613D01*
X0091201Y0021827D02*
X0085263Y0021827D01*
X0086049Y0021042D02*
X0090940Y0021042D01*
X0090940Y0020256D02*
X0086835Y0020256D01*
X0087621Y0019470D02*
X0091232Y0019470D01*
X0091876Y0018684D02*
X0088407Y0018684D01*
X0089193Y0017898D02*
X0094444Y0017898D01*
X0095282Y0017112D02*
X0089978Y0017112D01*
X0090764Y0016326D02*
X0096120Y0016326D01*
X0096959Y0015540D02*
X0091550Y0015540D01*
X0092336Y0014754D02*
X0097797Y0014754D01*
X0100205Y0014386D02*
X0144063Y0014386D01*
X0146819Y0014386D01*
X0162567Y0030134D01*
X0164885Y0031258D02*
X0203748Y0031258D01*
X0203748Y0030472D02*
X0165139Y0030472D01*
X0165139Y0029687D02*
X0203748Y0029687D01*
X0203748Y0028901D02*
X0164840Y0028901D01*
X0164185Y0028115D02*
X0203748Y0028115D01*
X0203748Y0027329D02*
X0161711Y0027329D01*
X0160925Y0026543D02*
X0203748Y0026543D01*
X0203748Y0025757D02*
X0160139Y0025757D01*
X0159353Y0024971D02*
X0203748Y0024971D01*
X0203748Y0024185D02*
X0158567Y0024185D01*
X0157781Y0023399D02*
X0203748Y0023399D01*
X0203748Y0022613D02*
X0156995Y0022613D01*
X0156209Y0021827D02*
X0203748Y0021827D01*
X0203748Y0021042D02*
X0155423Y0021042D01*
X0154637Y0020256D02*
X0203748Y0020256D01*
X0203748Y0019470D02*
X0153851Y0019470D01*
X0153066Y0018684D02*
X0203748Y0018684D01*
X0203748Y0017898D02*
X0152280Y0017898D01*
X0151494Y0017112D02*
X0203748Y0017112D01*
X0203748Y0016326D02*
X0150708Y0016326D01*
X0149922Y0015540D02*
X0203748Y0015540D01*
X0203748Y0014754D02*
X0164103Y0014754D01*
X0164714Y0013968D02*
X0203748Y0013968D01*
X0203748Y0013182D02*
X0164981Y0013182D01*
X0164981Y0012396D02*
X0203748Y0012396D01*
X0203748Y0011611D02*
X0164696Y0011611D01*
X0164060Y0010825D02*
X0203748Y0010825D01*
X0203748Y0010039D02*
X0200750Y0010039D01*
X0201735Y0009253D02*
X0203748Y0009253D01*
X0203748Y0008467D02*
X0202364Y0008467D01*
X0202689Y0007681D02*
X0203748Y0007681D01*
X0203748Y0006895D02*
X0202882Y0006895D01*
X0202882Y0006109D02*
X0203748Y0006109D01*
X0203748Y0005323D02*
X0202779Y0005323D01*
X0202454Y0004537D02*
X0203748Y0004537D01*
X0203748Y0003751D02*
X0201952Y0003751D01*
X0195544Y0003751D02*
X0191952Y0003751D01*
X0192454Y0004537D02*
X0195042Y0004537D01*
X0194717Y0005323D02*
X0192779Y0005323D01*
X0192882Y0006109D02*
X0194614Y0006109D01*
X0194614Y0006895D02*
X0192882Y0006895D01*
X0192689Y0007681D02*
X0194807Y0007681D01*
X0195132Y0008467D02*
X0192364Y0008467D01*
X0191735Y0009253D02*
X0195761Y0009253D01*
X0196746Y0010039D02*
X0190750Y0010039D01*
X0186746Y0010039D02*
X0180750Y0010039D01*
X0181735Y0009253D02*
X0185761Y0009253D01*
X0185132Y0008467D02*
X0182364Y0008467D01*
X0182689Y0007681D02*
X0184807Y0007681D01*
X0184614Y0006895D02*
X0182882Y0006895D01*
X0182882Y0006109D02*
X0184614Y0006109D01*
X0184717Y0005323D02*
X0182779Y0005323D01*
X0182454Y0004537D02*
X0185042Y0004537D01*
X0185544Y0003751D02*
X0181952Y0003751D01*
X0175544Y0003751D02*
X0171952Y0003751D01*
X0172454Y0004537D02*
X0175042Y0004537D01*
X0174717Y0005323D02*
X0172779Y0005323D01*
X0172882Y0006109D02*
X0174614Y0006109D01*
X0174614Y0006895D02*
X0172882Y0006895D01*
X0172689Y0007681D02*
X0174807Y0007681D01*
X0175132Y0008467D02*
X0172364Y0008467D01*
X0171735Y0009253D02*
X0175761Y0009253D01*
X0176746Y0010039D02*
X0170750Y0010039D01*
X0166746Y0010039D02*
X0160750Y0010039D01*
X0160759Y0010825D02*
X0136266Y0010825D01*
X0133906Y0011236D02*
X0138748Y0006394D01*
X0142882Y0006109D02*
X0144614Y0006109D01*
X0144614Y0006895D02*
X0142882Y0006895D01*
X0142689Y0007681D02*
X0144807Y0007681D01*
X0145132Y0008467D02*
X0142364Y0008467D01*
X0141735Y0009253D02*
X0145761Y0009253D01*
X0146746Y0010039D02*
X0140750Y0010039D01*
X0133906Y0011236D02*
X0119890Y0011236D01*
X0087213Y0011236D01*
X0071465Y0027378D01*
X0074036Y0027329D02*
X0075864Y0027329D01*
X0075078Y0028115D02*
X0073943Y0028115D01*
X0074292Y0028901D02*
X0073579Y0028901D01*
X0073506Y0029687D02*
X0072611Y0029687D01*
X0072721Y0030472D02*
X0067787Y0030472D01*
X0068021Y0030821D02*
X0068021Y0030821D01*
X0068208Y0031258D02*
X0070246Y0031258D01*
X0069588Y0032044D02*
X0068545Y0032044D01*
X0068882Y0032830D02*
X0069287Y0032830D01*
X0069287Y0033616D02*
X0069219Y0033616D01*
X0071858Y0033283D02*
X0092331Y0012811D01*
X0116346Y0012811D01*
X0150205Y0012811D01*
X0162409Y0012811D01*
X0160716Y0014754D02*
X0149136Y0014754D01*
X0144063Y0015961D02*
X0162606Y0034268D01*
X0165009Y0035188D02*
X0203748Y0035188D01*
X0203748Y0035974D02*
X0164537Y0035974D01*
X0165178Y0034402D02*
X0203748Y0034402D01*
X0203748Y0033616D02*
X0165120Y0033616D01*
X0164794Y0032830D02*
X0203748Y0032830D01*
X0203748Y0032044D02*
X0164293Y0032044D01*
X0154413Y0028115D02*
X0124575Y0028115D01*
X0124914Y0027329D02*
X0153617Y0027329D01*
X0152821Y0026543D02*
X0125511Y0026543D01*
X0125768Y0025757D02*
X0152024Y0025757D01*
X0151228Y0024971D02*
X0125768Y0024971D01*
X0125473Y0024185D02*
X0150432Y0024185D01*
X0149636Y0023399D02*
X0124824Y0023399D01*
X0123197Y0025409D02*
X0123197Y0033677D01*
X0112409Y0033616D02*
X0074430Y0033616D01*
X0074430Y0032830D02*
X0112409Y0032830D01*
X0112409Y0032044D02*
X0111797Y0032044D01*
X0110441Y0032044D02*
X0110047Y0032044D01*
X0110047Y0032102D02*
X0108907Y0032102D01*
X0108607Y0032022D01*
X0108338Y0031866D01*
X0108118Y0031646D01*
X0107962Y0031377D01*
X0107882Y0031077D01*
X0107882Y0029937D01*
X0110047Y0029937D01*
X0110047Y0032102D01*
X0110047Y0031258D02*
X0110441Y0031258D01*
X0110441Y0030472D02*
X0110047Y0030472D01*
X0110047Y0029687D02*
X0077404Y0029687D01*
X0076618Y0030472D02*
X0107882Y0030472D01*
X0107931Y0031258D02*
X0075832Y0031258D01*
X0075046Y0032044D02*
X0108691Y0032044D01*
X0108521Y0034402D02*
X0074178Y0034402D01*
X0073591Y0035188D02*
X0107980Y0035188D01*
X0107980Y0039118D02*
X0095226Y0039118D01*
X0095579Y0039903D02*
X0108386Y0039903D01*
X0108145Y0043833D02*
X0095579Y0043833D01*
X0095579Y0048548D02*
X0107980Y0048548D01*
X0108809Y0052280D02*
X0112803Y0052280D01*
X0112803Y0054937D01*
X0107783Y0054937D01*
X0107783Y0053305D01*
X0107864Y0053005D01*
X0108019Y0052735D01*
X0108239Y0052516D01*
X0108509Y0052360D01*
X0108809Y0052280D01*
X0108304Y0052478D02*
X0095579Y0052478D01*
X0095579Y0051692D02*
X0119299Y0051692D01*
X0119299Y0052181D02*
X0119299Y0050352D01*
X0119380Y0050052D01*
X0119535Y0049783D01*
X0119755Y0049563D01*
X0120024Y0049407D01*
X0120325Y0049327D01*
X0121858Y0049327D01*
X0121858Y0052181D01*
X0119299Y0052181D01*
X0119299Y0052968D02*
X0119299Y0054797D01*
X0119380Y0055098D01*
X0119535Y0055367D01*
X0119755Y0055587D01*
X0120024Y0055742D01*
X0120325Y0055823D01*
X0121858Y0055823D01*
X0121858Y0052969D01*
X0122646Y0052969D01*
X0122646Y0055823D01*
X0124179Y0055823D01*
X0124480Y0055742D01*
X0124749Y0055587D01*
X0124969Y0055367D01*
X0125124Y0055098D01*
X0125205Y0054797D01*
X0125205Y0052968D01*
X0122646Y0052968D01*
X0122646Y0052181D01*
X0125205Y0052181D01*
X0125205Y0050352D01*
X0125124Y0050052D01*
X0124969Y0049783D01*
X0124749Y0049563D01*
X0124480Y0049407D01*
X0124179Y0049327D01*
X0122646Y0049327D01*
X0122646Y0052181D01*
X0121858Y0052181D01*
X0121858Y0052968D01*
X0119299Y0052968D01*
X0119299Y0053264D02*
X0118599Y0053264D01*
X0118610Y0053305D02*
X0118610Y0054937D01*
X0113591Y0054937D01*
X0113591Y0055724D01*
X0118610Y0055724D01*
X0118610Y0057356D01*
X0118530Y0057657D01*
X0118374Y0057926D01*
X0118154Y0058146D01*
X0117885Y0058301D01*
X0117585Y0058382D01*
X0113591Y0058382D01*
X0113591Y0055724D01*
X0112803Y0055724D01*
X0112803Y0054937D01*
X0113591Y0054937D01*
X0113591Y0052280D01*
X0117585Y0052280D01*
X0117885Y0052360D01*
X0118154Y0052516D01*
X0118374Y0052735D01*
X0118530Y0053005D01*
X0118610Y0053305D01*
X0118610Y0054050D02*
X0119299Y0054050D01*
X0119310Y0054836D02*
X0118610Y0054836D01*
X0119815Y0055622D02*
X0113591Y0055622D01*
X0113591Y0056408D02*
X0112803Y0056408D01*
X0112803Y0055724D02*
X0112803Y0058382D01*
X0108809Y0058382D01*
X0108509Y0058301D01*
X0108239Y0058146D01*
X0108019Y0057926D01*
X0107864Y0057657D01*
X0107783Y0057356D01*
X0107783Y0055724D01*
X0112803Y0055724D01*
X0112803Y0055622D02*
X0084358Y0055622D01*
X0084358Y0054937D02*
X0084358Y0057061D01*
X0084278Y0057361D01*
X0084122Y0057631D01*
X0083902Y0057851D01*
X0083633Y0058006D01*
X0083333Y0058087D01*
X0080913Y0058087D01*
X0080913Y0054937D01*
X0080126Y0054937D01*
X0080126Y0058087D01*
X0077707Y0058087D01*
X0077406Y0058006D01*
X0077137Y0057851D01*
X0076917Y0057631D01*
X0076762Y0057361D01*
X0076681Y0057061D01*
X0076681Y0054937D01*
X0080126Y0054937D01*
X0080126Y0054150D01*
X0076681Y0054150D01*
X0076681Y0052026D01*
X0076762Y0051725D01*
X0076917Y0051456D01*
X0077137Y0051236D01*
X0077406Y0051080D01*
X0077707Y0051000D01*
X0080126Y0051000D01*
X0080126Y0054150D01*
X0080913Y0054150D01*
X0080913Y0051000D01*
X0083333Y0051000D01*
X0083633Y0051080D01*
X0083902Y0051236D01*
X0084122Y0051456D01*
X0084278Y0051725D01*
X0084358Y0052026D01*
X0084358Y0054150D01*
X0080913Y0054150D01*
X0080913Y0054937D01*
X0084358Y0054937D01*
X0084358Y0054050D02*
X0107783Y0054050D01*
X0107783Y0054836D02*
X0080913Y0054836D01*
X0080913Y0055622D02*
X0080126Y0055622D01*
X0080126Y0056408D02*
X0080913Y0056408D01*
X0080913Y0057194D02*
X0080126Y0057194D01*
X0080126Y0057979D02*
X0080913Y0057979D01*
X0077360Y0057979D02*
X0069678Y0057979D01*
X0070012Y0057194D02*
X0076717Y0057194D01*
X0076681Y0056408D02*
X0070346Y0056408D01*
X0070630Y0055622D02*
X0076681Y0055622D01*
X0076681Y0054050D02*
X0070974Y0054050D01*
X0070802Y0054836D02*
X0080126Y0054836D01*
X0080126Y0054050D02*
X0080913Y0054050D01*
X0080913Y0053264D02*
X0080126Y0053264D01*
X0080126Y0052478D02*
X0080913Y0052478D01*
X0080913Y0051692D02*
X0080126Y0051692D01*
X0076781Y0051692D02*
X0071491Y0051692D01*
X0071663Y0050906D02*
X0085146Y0050906D01*
X0085146Y0050120D02*
X0071835Y0050120D01*
X0071966Y0049334D02*
X0077167Y0049334D01*
X0076878Y0048548D02*
X0076634Y0048548D01*
X0074169Y0048548D02*
X0071989Y0048548D01*
X0072012Y0047763D02*
X0073252Y0047763D01*
X0072908Y0046977D02*
X0072055Y0046977D01*
X0072058Y0046191D02*
X0072830Y0046191D01*
X0072979Y0045405D02*
X0072055Y0045405D01*
X0072055Y0044619D02*
X0073421Y0044619D01*
X0074578Y0043833D02*
X0072055Y0043833D01*
X0072055Y0043047D02*
X0077337Y0043047D01*
X0076878Y0043833D02*
X0076225Y0043833D01*
X0072055Y0042261D02*
X0085146Y0042261D01*
X0085146Y0041475D02*
X0072055Y0041475D01*
X0072055Y0040689D02*
X0085146Y0040689D01*
X0085146Y0039903D02*
X0072055Y0039903D01*
X0072055Y0039118D02*
X0085498Y0039118D01*
X0085146Y0043047D02*
X0083703Y0043047D01*
X0084161Y0043833D02*
X0085146Y0043833D01*
X0085146Y0048548D02*
X0084161Y0048548D01*
X0083873Y0049334D02*
X0085146Y0049334D01*
X0085146Y0051692D02*
X0084259Y0051692D01*
X0084358Y0052478D02*
X0085146Y0052478D01*
X0085329Y0053264D02*
X0084358Y0053264D01*
X0084358Y0056408D02*
X0107783Y0056408D01*
X0107783Y0057194D02*
X0084323Y0057194D01*
X0083679Y0057979D02*
X0108073Y0057979D01*
X0112803Y0057979D02*
X0113591Y0057979D01*
X0113591Y0057194D02*
X0112803Y0057194D01*
X0112803Y0054836D02*
X0113591Y0054836D01*
X0113591Y0054050D02*
X0112803Y0054050D01*
X0112803Y0053264D02*
X0113591Y0053264D01*
X0113591Y0052478D02*
X0112803Y0052478D01*
X0118089Y0052478D02*
X0121858Y0052478D01*
X0121858Y0051692D02*
X0122646Y0051692D01*
X0122646Y0050906D02*
X0121858Y0050906D01*
X0121858Y0050120D02*
X0122646Y0050120D01*
X0122646Y0049334D02*
X0121858Y0049334D01*
X0120296Y0049334D02*
X0095579Y0049334D01*
X0095579Y0050120D02*
X0119361Y0050120D01*
X0119299Y0050906D02*
X0095579Y0050906D01*
X0095396Y0053264D02*
X0107794Y0053264D01*
X0118610Y0056408D02*
X0137016Y0056408D01*
X0137016Y0055622D02*
X0124688Y0055622D01*
X0125194Y0054836D02*
X0137016Y0054836D01*
X0137016Y0054050D02*
X0125205Y0054050D01*
X0125205Y0053264D02*
X0137016Y0053264D01*
X0137016Y0052478D02*
X0122646Y0052478D01*
X0122646Y0053264D02*
X0121858Y0053264D01*
X0121858Y0054050D02*
X0122646Y0054050D01*
X0122646Y0054836D02*
X0121858Y0054836D01*
X0121858Y0055622D02*
X0122646Y0055622D01*
X0118610Y0057194D02*
X0136767Y0057194D01*
X0136609Y0057979D02*
X0118321Y0057979D01*
X0125205Y0051692D02*
X0137016Y0051692D01*
X0137016Y0050906D02*
X0125205Y0050906D01*
X0125143Y0050120D02*
X0137016Y0050120D01*
X0137016Y0049334D02*
X0124208Y0049334D01*
X0125008Y0048548D02*
X0137016Y0048548D01*
X0119496Y0048548D02*
X0118413Y0048548D01*
X0136679Y0058765D02*
X0069344Y0058765D01*
X0069010Y0059551D02*
X0137009Y0059551D01*
X0137894Y0060337D02*
X0068676Y0060337D01*
X0068342Y0061123D02*
X0139155Y0061123D01*
X0139941Y0061909D02*
X0067983Y0061909D01*
X0067459Y0062695D02*
X0140727Y0062695D01*
X0161387Y0063481D02*
X0066935Y0063481D01*
X0063039Y0062695D02*
X0059987Y0062695D01*
X0060575Y0061909D02*
X0063563Y0061909D01*
X0064087Y0061123D02*
X0061106Y0061123D01*
X0061611Y0060337D02*
X0064611Y0060337D01*
X0065014Y0059551D02*
X0062066Y0059551D01*
X0062495Y0058765D02*
X0065348Y0058765D01*
X0065682Y0057979D02*
X0062888Y0057979D01*
X0063247Y0057194D02*
X0066016Y0057194D01*
X0066350Y0056408D02*
X0063586Y0056408D01*
X0063879Y0055622D02*
X0066684Y0055622D01*
X0067018Y0054836D02*
X0064171Y0054836D01*
X0064402Y0054050D02*
X0067210Y0054050D01*
X0067382Y0053264D02*
X0064633Y0053264D01*
X0064822Y0052478D02*
X0067554Y0052478D01*
X0067726Y0051692D02*
X0064993Y0051692D01*
X0065146Y0050906D02*
X0067898Y0050906D01*
X0068070Y0050120D02*
X0065259Y0050120D01*
X0065372Y0049334D02*
X0068243Y0049334D01*
X0068335Y0048548D02*
X0065434Y0048548D01*
X0065490Y0047763D02*
X0068395Y0047763D01*
X0068455Y0046977D02*
X0065520Y0046977D01*
X0068501Y0046191D02*
X0039142Y0046191D01*
X0039142Y0046000D02*
X0039142Y0020075D01*
X0038354Y0020075D01*
X0038354Y0046000D01*
X0039142Y0046000D01*
X0039142Y0045405D02*
X0038354Y0045405D01*
X0038354Y0046191D02*
X0005717Y0046191D01*
X0005717Y0037546D02*
X0007178Y0037546D01*
X0005959Y0036760D02*
X0005717Y0036760D01*
X0005717Y0029687D02*
X0006316Y0029687D01*
X0005717Y0028901D02*
X0008039Y0028901D01*
X0005717Y0020256D02*
X0020087Y0020256D01*
X0019301Y0019470D02*
X0005717Y0019470D01*
X0005717Y0018684D02*
X0018515Y0018684D01*
X0017729Y0017898D02*
X0005717Y0017898D01*
X0005717Y0017112D02*
X0016943Y0017112D01*
X0016157Y0016326D02*
X0005717Y0016326D01*
X0005717Y0015540D02*
X0015371Y0015540D01*
X0014585Y0014754D02*
X0005717Y0014754D01*
X0005717Y0013968D02*
X0013799Y0013968D01*
X0013013Y0013182D02*
X0005717Y0013182D01*
X0005717Y0012396D02*
X0012228Y0012396D01*
X0011442Y0011611D02*
X0005717Y0011611D01*
X0005717Y0010825D02*
X0010656Y0010825D01*
X0013345Y0008467D02*
X0015132Y0008467D01*
X0015761Y0009253D02*
X0014130Y0009253D01*
X0014916Y0010039D02*
X0016746Y0010039D01*
X0020750Y0010039D02*
X0026397Y0010039D01*
X0025483Y0009253D02*
X0021735Y0009253D01*
X0022364Y0008467D02*
X0024944Y0008467D01*
X0024613Y0007681D02*
X0022689Y0007681D01*
X0022882Y0006895D02*
X0024443Y0006895D01*
X0028354Y0007681D02*
X0029142Y0007681D01*
X0029142Y0008467D02*
X0028354Y0008467D01*
X0028354Y0009253D02*
X0029142Y0009253D01*
X0029142Y0010039D02*
X0028354Y0010039D01*
X0041567Y0006895D02*
X0044614Y0006895D01*
X0044614Y0007681D02*
X0042988Y0007681D01*
X0043773Y0008467D02*
X0044614Y0008467D01*
X0044614Y0009253D02*
X0044559Y0009253D01*
X0045228Y0010825D02*
X0085689Y0010825D01*
X0084922Y0011611D02*
X0045553Y0011611D01*
X0045638Y0012396D02*
X0084156Y0012396D01*
X0083389Y0013182D02*
X0045638Y0013182D01*
X0045638Y0013968D02*
X0082622Y0013968D01*
X0081855Y0014754D02*
X0045555Y0014754D01*
X0045230Y0015540D02*
X0049351Y0015540D01*
X0048710Y0016326D02*
X0044904Y0016326D01*
X0044565Y0017112D02*
X0048420Y0017112D01*
X0048420Y0017898D02*
X0043779Y0017898D01*
X0042993Y0018684D02*
X0048684Y0018684D01*
X0049290Y0019470D02*
X0041579Y0019470D01*
X0039142Y0020256D02*
X0038354Y0020256D01*
X0038354Y0021042D02*
X0039142Y0021042D01*
X0039142Y0021827D02*
X0038354Y0021827D01*
X0038354Y0022613D02*
X0039142Y0022613D01*
X0039142Y0023399D02*
X0038354Y0023399D01*
X0038354Y0024185D02*
X0039142Y0024185D01*
X0039142Y0024971D02*
X0038354Y0024971D01*
X0038354Y0025757D02*
X0039142Y0025757D01*
X0039142Y0026543D02*
X0038354Y0026543D01*
X0038354Y0027329D02*
X0039142Y0027329D01*
X0039142Y0028115D02*
X0038354Y0028115D01*
X0038354Y0028901D02*
X0039142Y0028901D01*
X0039142Y0029687D02*
X0038354Y0029687D01*
X0038354Y0030472D02*
X0039142Y0030472D01*
X0039142Y0031258D02*
X0038354Y0031258D01*
X0038354Y0032044D02*
X0039142Y0032044D01*
X0039142Y0032830D02*
X0038354Y0032830D01*
X0038354Y0033616D02*
X0039142Y0033616D01*
X0039142Y0034402D02*
X0038354Y0034402D01*
X0038354Y0035188D02*
X0039142Y0035188D01*
X0039142Y0035974D02*
X0038354Y0035974D01*
X0038354Y0036760D02*
X0039142Y0036760D01*
X0039142Y0037546D02*
X0038354Y0037546D01*
X0038354Y0038332D02*
X0039142Y0038332D01*
X0039142Y0039118D02*
X0038354Y0039118D01*
X0038354Y0039903D02*
X0039142Y0039903D01*
X0039142Y0040689D02*
X0038354Y0040689D01*
X0038354Y0041475D02*
X0039142Y0041475D01*
X0039142Y0042261D02*
X0038354Y0042261D01*
X0038354Y0043047D02*
X0039142Y0043047D01*
X0039142Y0043833D02*
X0038354Y0043833D01*
X0038354Y0044619D02*
X0039142Y0044619D01*
X0039142Y0046787D02*
X0039142Y0072713D01*
X0038354Y0072713D01*
X0038354Y0046787D01*
X0039142Y0046787D01*
X0039142Y0046977D02*
X0038354Y0046977D01*
X0038354Y0047763D02*
X0039142Y0047763D01*
X0039142Y0048548D02*
X0038354Y0048548D01*
X0038354Y0049334D02*
X0039142Y0049334D01*
X0039142Y0050120D02*
X0038354Y0050120D01*
X0038354Y0050906D02*
X0039142Y0050906D01*
X0039142Y0051692D02*
X0038354Y0051692D01*
X0038354Y0052478D02*
X0039142Y0052478D01*
X0039142Y0053264D02*
X0038354Y0053264D01*
X0038354Y0054050D02*
X0039142Y0054050D01*
X0039142Y0054836D02*
X0038354Y0054836D01*
X0038354Y0055622D02*
X0039142Y0055622D01*
X0039142Y0056408D02*
X0038354Y0056408D01*
X0038354Y0057194D02*
X0039142Y0057194D01*
X0039142Y0057979D02*
X0038354Y0057979D01*
X0038354Y0058765D02*
X0039142Y0058765D01*
X0039142Y0059551D02*
X0038354Y0059551D01*
X0038354Y0060337D02*
X0039142Y0060337D01*
X0039142Y0061123D02*
X0038354Y0061123D01*
X0038354Y0061909D02*
X0039142Y0061909D01*
X0039142Y0062695D02*
X0038354Y0062695D01*
X0038354Y0063481D02*
X0039142Y0063481D01*
X0039142Y0064267D02*
X0038354Y0064267D01*
X0038354Y0065053D02*
X0039142Y0065053D01*
X0039142Y0065839D02*
X0038354Y0065839D01*
X0038354Y0066624D02*
X0039142Y0066624D01*
X0039142Y0067410D02*
X0038354Y0067410D01*
X0038354Y0068196D02*
X0039142Y0068196D01*
X0039142Y0068982D02*
X0038354Y0068982D01*
X0038354Y0069768D02*
X0039142Y0069768D01*
X0039142Y0070554D02*
X0038354Y0070554D01*
X0038354Y0071340D02*
X0039142Y0071340D01*
X0039142Y0072126D02*
X0038354Y0072126D01*
X0042426Y0072912D02*
X0049827Y0072912D01*
X0048870Y0073698D02*
X0042497Y0073698D01*
X0043373Y0074484D02*
X0048511Y0074484D01*
X0048420Y0075270D02*
X0044159Y0075270D01*
X0044736Y0076055D02*
X0048558Y0076055D01*
X0048984Y0076841D02*
X0045062Y0076841D01*
X0045387Y0077627D02*
X0050102Y0077627D01*
X0053068Y0072126D02*
X0046137Y0072126D01*
X0048472Y0071340D02*
X0054192Y0071340D01*
X0055315Y0070554D02*
X0050290Y0070554D01*
X0051803Y0069768D02*
X0056439Y0069768D01*
X0057562Y0068982D02*
X0053118Y0068982D01*
X0054296Y0068196D02*
X0058332Y0068196D01*
X0059100Y0067410D02*
X0055346Y0067410D01*
X0056282Y0066624D02*
X0059868Y0066624D01*
X0060637Y0065839D02*
X0057164Y0065839D01*
X0057950Y0065053D02*
X0061405Y0065053D01*
X0061991Y0064267D02*
X0058685Y0064267D01*
X0059366Y0063481D02*
X0062515Y0063481D01*
X0059955Y0071796D02*
X0059955Y0071796D01*
X0063197Y0073835D02*
X0063197Y0081945D01*
X0063197Y0073835D01*
X0075795Y0073835D02*
X0075795Y0079346D01*
X0071649Y0080771D02*
X0065494Y0080771D01*
X0065768Y0081557D02*
X0071700Y0081557D01*
X0072026Y0082343D02*
X0069770Y0082343D01*
X0071329Y0083129D02*
X0072830Y0083129D01*
X0067726Y0082343D02*
X0065768Y0082343D01*
X0065490Y0083129D02*
X0066167Y0083129D01*
X0065381Y0083915D02*
X0064864Y0083915D01*
X0064975Y0084700D02*
X0062521Y0084700D01*
X0062847Y0085486D02*
X0064649Y0085486D01*
X0064614Y0086272D02*
X0062882Y0086272D01*
X0062882Y0087058D02*
X0064614Y0087058D01*
X0064874Y0087844D02*
X0062622Y0087844D01*
X0062296Y0088630D02*
X0065200Y0088630D01*
X0065924Y0089416D02*
X0061572Y0089416D01*
X0089770Y0082343D02*
X0097726Y0082343D01*
X0096167Y0083129D02*
X0091329Y0083129D01*
X0092115Y0083915D02*
X0095381Y0083915D01*
X0094975Y0084700D02*
X0092521Y0084700D01*
X0092847Y0085486D02*
X0094649Y0085486D01*
X0094614Y0086272D02*
X0092882Y0086272D01*
X0092882Y0087058D02*
X0094614Y0087058D01*
X0094874Y0087844D02*
X0092622Y0087844D01*
X0092296Y0088630D02*
X0095200Y0088630D01*
X0095924Y0089416D02*
X0091572Y0089416D01*
X0101572Y0089416D02*
X0105924Y0089416D01*
X0105200Y0088630D02*
X0102296Y0088630D01*
X0102622Y0087844D02*
X0104874Y0087844D01*
X0104614Y0087058D02*
X0102882Y0087058D01*
X0102882Y0086272D02*
X0104614Y0086272D01*
X0104649Y0085486D02*
X0102847Y0085486D01*
X0102521Y0084700D02*
X0104975Y0084700D01*
X0105381Y0083915D02*
X0102115Y0083915D01*
X0101329Y0083129D02*
X0106167Y0083129D01*
X0107726Y0082343D02*
X0099770Y0082343D01*
X0109770Y0082343D02*
X0117726Y0082343D01*
X0116167Y0083129D02*
X0111329Y0083129D01*
X0112115Y0083915D02*
X0115381Y0083915D01*
X0114975Y0084700D02*
X0112521Y0084700D01*
X0112847Y0085486D02*
X0114649Y0085486D01*
X0114614Y0086272D02*
X0112882Y0086272D01*
X0112882Y0087058D02*
X0114614Y0087058D01*
X0114874Y0087844D02*
X0112622Y0087844D01*
X0112296Y0088630D02*
X0115200Y0088630D01*
X0115924Y0089416D02*
X0111572Y0089416D01*
X0121572Y0089416D02*
X0125924Y0089416D01*
X0125200Y0088630D02*
X0122296Y0088630D01*
X0122622Y0087844D02*
X0124874Y0087844D01*
X0124614Y0087058D02*
X0122882Y0087058D01*
X0122882Y0086272D02*
X0124614Y0086272D01*
X0124649Y0085486D02*
X0122847Y0085486D01*
X0122521Y0084700D02*
X0124975Y0084700D01*
X0125381Y0083915D02*
X0122115Y0083915D01*
X0121329Y0083129D02*
X0126167Y0083129D01*
X0127726Y0082343D02*
X0119770Y0082343D01*
X0129770Y0082343D02*
X0137726Y0082343D01*
X0136167Y0083129D02*
X0131329Y0083129D01*
X0132115Y0083915D02*
X0135381Y0083915D01*
X0134975Y0084700D02*
X0132521Y0084700D01*
X0132847Y0085486D02*
X0134649Y0085486D01*
X0134614Y0086272D02*
X0132882Y0086272D01*
X0132882Y0087058D02*
X0134614Y0087058D01*
X0134874Y0087844D02*
X0132622Y0087844D01*
X0132296Y0088630D02*
X0135200Y0088630D01*
X0135924Y0089416D02*
X0131572Y0089416D01*
X0141572Y0089416D02*
X0145924Y0089416D01*
X0145200Y0088630D02*
X0142296Y0088630D01*
X0142622Y0087844D02*
X0144874Y0087844D01*
X0144614Y0087058D02*
X0142882Y0087058D01*
X0142882Y0086272D02*
X0144614Y0086272D01*
X0144649Y0085486D02*
X0142847Y0085486D01*
X0142521Y0084700D02*
X0144975Y0084700D01*
X0145381Y0083915D02*
X0142115Y0083915D01*
X0141329Y0083129D02*
X0146167Y0083129D01*
X0147726Y0082343D02*
X0139770Y0082343D01*
X0149770Y0082343D02*
X0157726Y0082343D01*
X0156167Y0083129D02*
X0151329Y0083129D01*
X0152115Y0083915D02*
X0155381Y0083915D01*
X0154975Y0084700D02*
X0152521Y0084700D01*
X0152847Y0085486D02*
X0154649Y0085486D01*
X0154614Y0086272D02*
X0152882Y0086272D01*
X0152882Y0087058D02*
X0154614Y0087058D01*
X0154874Y0087844D02*
X0152622Y0087844D01*
X0152296Y0088630D02*
X0155200Y0088630D01*
X0155924Y0089416D02*
X0151572Y0089416D01*
X0161572Y0089416D02*
X0165924Y0089416D01*
X0165200Y0088630D02*
X0162296Y0088630D01*
X0162622Y0087844D02*
X0164874Y0087844D01*
X0164614Y0087058D02*
X0162882Y0087058D01*
X0162882Y0086272D02*
X0164614Y0086272D01*
X0164649Y0085486D02*
X0162847Y0085486D01*
X0162521Y0084700D02*
X0164975Y0084700D01*
X0165381Y0083915D02*
X0162115Y0083915D01*
X0161329Y0083129D02*
X0166167Y0083129D01*
X0167726Y0082343D02*
X0159770Y0082343D01*
X0169770Y0082343D02*
X0177726Y0082343D01*
X0176167Y0083129D02*
X0171329Y0083129D01*
X0172115Y0083915D02*
X0175381Y0083915D01*
X0174975Y0084700D02*
X0172521Y0084700D01*
X0172847Y0085486D02*
X0174649Y0085486D01*
X0174614Y0086272D02*
X0172882Y0086272D01*
X0172882Y0087058D02*
X0174614Y0087058D01*
X0174874Y0087844D02*
X0172622Y0087844D01*
X0172296Y0088630D02*
X0175200Y0088630D01*
X0175924Y0089416D02*
X0171572Y0089416D01*
X0181572Y0089416D02*
X0185924Y0089416D01*
X0185200Y0088630D02*
X0182296Y0088630D01*
X0182622Y0087844D02*
X0184874Y0087844D01*
X0184614Y0087058D02*
X0182882Y0087058D01*
X0182882Y0086272D02*
X0184614Y0086272D01*
X0184649Y0085486D02*
X0182847Y0085486D01*
X0182521Y0084700D02*
X0184975Y0084700D01*
X0185381Y0083915D02*
X0182115Y0083915D01*
X0181329Y0083129D02*
X0186167Y0083129D01*
X0187726Y0082343D02*
X0179770Y0082343D01*
X0189770Y0082343D02*
X0195108Y0082343D01*
X0194614Y0083129D02*
X0191329Y0083129D01*
X0192115Y0083915D02*
X0194614Y0083915D01*
X0194614Y0084700D02*
X0192521Y0084700D01*
X0192847Y0085486D02*
X0194614Y0085486D01*
X0194614Y0086272D02*
X0192882Y0086272D01*
X0192882Y0087058D02*
X0194614Y0087058D01*
X0194614Y0087844D02*
X0192622Y0087844D01*
X0192296Y0088630D02*
X0194614Y0088630D01*
X0194614Y0089416D02*
X0191572Y0089416D01*
X0202882Y0089416D02*
X0203748Y0089416D01*
X0203748Y0088630D02*
X0202882Y0088630D01*
X0202882Y0087844D02*
X0203748Y0087844D01*
X0203748Y0087058D02*
X0202882Y0087058D01*
X0202882Y0086272D02*
X0203748Y0086272D01*
X0203748Y0085486D02*
X0202882Y0085486D01*
X0202882Y0084700D02*
X0203748Y0084700D01*
X0203748Y0083915D02*
X0202882Y0083915D01*
X0202882Y0083129D02*
X0203748Y0083129D01*
X0203748Y0082343D02*
X0202388Y0082343D01*
X0076681Y0053264D02*
X0071147Y0053264D01*
X0071319Y0052478D02*
X0076681Y0052478D01*
X0068439Y0045405D02*
X0065517Y0045405D01*
X0065461Y0044619D02*
X0068377Y0044619D01*
X0068314Y0043833D02*
X0065405Y0043833D01*
X0065314Y0043047D02*
X0068192Y0043047D01*
X0068017Y0042261D02*
X0065201Y0042261D01*
X0065076Y0041475D02*
X0067842Y0041475D01*
X0067667Y0040689D02*
X0064905Y0040689D01*
X0064734Y0039903D02*
X0067493Y0039903D01*
X0067318Y0039118D02*
X0064513Y0039118D01*
X0064283Y0038332D02*
X0067143Y0038332D01*
X0066903Y0037546D02*
X0064021Y0037546D01*
X0063728Y0036760D02*
X0066566Y0036760D01*
X0066229Y0035974D02*
X0063421Y0035974D01*
X0063062Y0035188D02*
X0065892Y0035188D01*
X0065555Y0034402D02*
X0062703Y0034402D01*
X0062274Y0033616D02*
X0065218Y0033616D01*
X0064881Y0032830D02*
X0061845Y0032830D01*
X0061350Y0032044D02*
X0064413Y0032044D01*
X0063886Y0031258D02*
X0060845Y0031258D01*
X0060271Y0030472D02*
X0063358Y0030472D01*
X0062831Y0029687D02*
X0059683Y0029687D01*
X0059014Y0028901D02*
X0062303Y0028901D01*
X0061776Y0028115D02*
X0058330Y0028115D01*
X0057544Y0027329D02*
X0061095Y0027329D01*
X0060322Y0026543D02*
X0056720Y0026543D01*
X0055813Y0025757D02*
X0059548Y0025757D01*
X0058775Y0024971D02*
X0054804Y0024971D01*
X0053709Y0024185D02*
X0058002Y0024185D01*
X0057080Y0023399D02*
X0052486Y0023399D01*
X0051059Y0022613D02*
X0055949Y0022613D01*
X0054818Y0021827D02*
X0049401Y0021827D01*
X0047384Y0021042D02*
X0053688Y0021042D01*
X0052453Y0020256D02*
X0044539Y0020256D01*
X0053275Y0016326D02*
X0080322Y0016326D01*
X0081089Y0015540D02*
X0052634Y0015540D01*
X0054381Y0017112D02*
X0079555Y0017112D01*
X0078788Y0017898D02*
X0055607Y0017898D01*
X0054650Y0017233D02*
X0054650Y0017233D01*
X0056738Y0018684D02*
X0078022Y0018684D01*
X0077255Y0019470D02*
X0057869Y0019470D01*
X0059000Y0020256D02*
X0076488Y0020256D01*
X0075721Y0021042D02*
X0060067Y0021042D01*
X0059929Y0020901D02*
X0059929Y0020901D01*
X0060840Y0021827D02*
X0074955Y0021827D01*
X0074188Y0022613D02*
X0061614Y0022613D01*
X0062387Y0023399D02*
X0073421Y0023399D01*
X0072654Y0024185D02*
X0063160Y0024185D01*
X0063934Y0024971D02*
X0070555Y0024971D01*
X0069449Y0025757D02*
X0064622Y0025757D01*
X0065149Y0026543D02*
X0069027Y0026543D01*
X0068893Y0027329D02*
X0065677Y0027329D01*
X0066204Y0028115D02*
X0068986Y0028115D01*
X0069350Y0028901D02*
X0066732Y0028901D01*
X0067259Y0029687D02*
X0070318Y0029687D01*
X0074204Y0026543D02*
X0076650Y0026543D01*
X0077436Y0025757D02*
X0074971Y0025757D01*
X0075738Y0024971D02*
X0078222Y0024971D01*
X0079008Y0024185D02*
X0076505Y0024185D01*
X0077271Y0023399D02*
X0079794Y0023399D01*
X0080580Y0022613D02*
X0078038Y0022613D01*
X0078805Y0021827D02*
X0081366Y0021827D01*
X0082151Y0021042D02*
X0079572Y0021042D01*
X0080338Y0020256D02*
X0082937Y0020256D01*
X0083723Y0019470D02*
X0081105Y0019470D01*
X0081872Y0018684D02*
X0084509Y0018684D01*
X0085295Y0017898D02*
X0082639Y0017898D01*
X0083405Y0017112D02*
X0086081Y0017112D01*
X0086867Y0016326D02*
X0084172Y0016326D01*
X0084939Y0015540D02*
X0087653Y0015540D01*
X0088439Y0014754D02*
X0085705Y0014754D01*
X0086472Y0013968D02*
X0089225Y0013968D01*
X0090011Y0013182D02*
X0087239Y0013182D01*
X0086456Y0010039D02*
X0080750Y0010039D01*
X0081735Y0009253D02*
X0085761Y0009253D01*
X0085132Y0008467D02*
X0082364Y0008467D01*
X0082689Y0007681D02*
X0084807Y0007681D01*
X0084614Y0006895D02*
X0082882Y0006895D01*
X0082882Y0006109D02*
X0084614Y0006109D01*
X0084717Y0005323D02*
X0082779Y0005323D01*
X0082454Y0004537D02*
X0085042Y0004537D01*
X0085544Y0003751D02*
X0081952Y0003751D01*
X0075544Y0003751D02*
X0071952Y0003751D01*
X0072454Y0004537D02*
X0075042Y0004537D01*
X0074717Y0005323D02*
X0072779Y0005323D01*
X0072882Y0006109D02*
X0074614Y0006109D01*
X0074614Y0006895D02*
X0072882Y0006895D01*
X0072689Y0007681D02*
X0074807Y0007681D01*
X0075132Y0008467D02*
X0072364Y0008467D01*
X0071735Y0009253D02*
X0075761Y0009253D01*
X0076746Y0010039D02*
X0070750Y0010039D01*
X0066746Y0010039D02*
X0060750Y0010039D01*
X0061735Y0009253D02*
X0065761Y0009253D01*
X0065132Y0008467D02*
X0062364Y0008467D01*
X0062689Y0007681D02*
X0064807Y0007681D01*
X0064614Y0006895D02*
X0062882Y0006895D01*
X0062882Y0006109D02*
X0064614Y0006109D01*
X0064717Y0005323D02*
X0062779Y0005323D01*
X0062454Y0004537D02*
X0065042Y0004537D01*
X0065544Y0003751D02*
X0061952Y0003751D01*
X0055544Y0003751D02*
X0052882Y0003751D01*
X0052882Y0004537D02*
X0055042Y0004537D01*
X0054717Y0005323D02*
X0052882Y0005323D01*
X0052882Y0006109D02*
X0054614Y0006109D01*
X0054614Y0006895D02*
X0052882Y0006895D01*
X0052882Y0007681D02*
X0054807Y0007681D01*
X0055132Y0008467D02*
X0052882Y0008467D01*
X0052882Y0009253D02*
X0055761Y0009253D01*
X0056746Y0010039D02*
X0052794Y0010039D01*
X0093512Y0020685D02*
X0093906Y0020291D01*
X0100205Y0014386D01*
X0108866Y0021827D02*
X0109654Y0021827D01*
X0109654Y0022613D02*
X0108866Y0022613D01*
X0108866Y0023399D02*
X0109654Y0023399D01*
X0106458Y0027329D02*
X0079762Y0027329D01*
X0078976Y0028115D02*
X0107959Y0028115D01*
X0107882Y0028901D02*
X0078190Y0028901D01*
X0141952Y0003751D02*
X0145544Y0003751D01*
X0145042Y0004537D02*
X0142454Y0004537D01*
X0142779Y0005323D02*
X0144717Y0005323D01*
X0151952Y0003751D02*
X0155544Y0003751D01*
X0155042Y0004537D02*
X0152454Y0004537D01*
X0152779Y0005323D02*
X0154717Y0005323D01*
X0154614Y0006109D02*
X0152882Y0006109D01*
X0152882Y0006895D02*
X0154614Y0006895D01*
X0154807Y0007681D02*
X0152689Y0007681D01*
X0152364Y0008467D02*
X0155132Y0008467D01*
X0155761Y0009253D02*
X0151735Y0009253D01*
X0150750Y0010039D02*
X0156746Y0010039D01*
X0161735Y0009253D02*
X0165761Y0009253D01*
X0165132Y0008467D02*
X0162364Y0008467D01*
X0162689Y0007681D02*
X0164807Y0007681D01*
X0164614Y0006895D02*
X0162882Y0006895D01*
X0162882Y0006109D02*
X0164614Y0006109D01*
X0164717Y0005323D02*
X0162779Y0005323D01*
X0162454Y0004537D02*
X0165042Y0004537D01*
X0165544Y0003751D02*
X0161952Y0003751D01*
X0007059Y0063481D02*
X0005717Y0063481D01*
X0005717Y0062695D02*
X0005910Y0062695D01*
D24*
X0012748Y0046394D02*
X0012760Y0045771D01*
X0012787Y0045148D01*
X0012830Y0044526D01*
X0012887Y0043905D01*
X0012960Y0043285D01*
X0013047Y0042668D01*
X0013149Y0042053D01*
X0013266Y0041440D01*
X0013398Y0040831D01*
X0013545Y0040225D01*
X0013706Y0039622D01*
X0013881Y0039024D01*
X0014071Y0038430D01*
X0014276Y0037841D01*
X0014494Y0037257D01*
X0014727Y0036678D01*
X0014973Y0036106D01*
X0015234Y0035539D01*
X0015508Y0034979D01*
X0015795Y0034425D01*
X0016095Y0033879D01*
X0016409Y0033340D01*
X0016736Y0032809D01*
X0017075Y0032286D01*
X0017427Y0031771D01*
X0017791Y0031265D01*
X0018168Y0030768D01*
X0018556Y0030280D01*
X0018956Y0029802D01*
X0019368Y0029333D01*
X0019790Y0028874D01*
X0020224Y0028426D01*
X0020668Y0027989D01*
X0021123Y0027562D01*
X0021588Y0027146D01*
X0022062Y0026742D01*
X0022547Y0026350D01*
X0023041Y0025969D01*
X0023543Y0025600D01*
X0024055Y0025244D01*
X0024575Y0024899D01*
X0025103Y0024568D01*
X0025639Y0024250D01*
X0026183Y0023944D01*
X0026734Y0023652D01*
X0027292Y0023373D01*
X0027856Y0023108D01*
X0028427Y0022856D01*
X0029003Y0022618D01*
X0029585Y0022395D01*
X0030172Y0022185D01*
X0030765Y0021990D01*
X0031361Y0021809D01*
X0031962Y0021642D01*
X0032567Y0021490D01*
X0033175Y0021353D01*
X0033787Y0021231D01*
X0034401Y0021123D01*
X0035017Y0021030D01*
X0035636Y0020952D01*
X0036257Y0020889D01*
X0036878Y0020841D01*
X0037501Y0020808D01*
X0038124Y0020791D01*
X0038748Y0020788D01*
X0012748Y0046394D02*
X0012760Y0047017D01*
X0012787Y0047640D01*
X0012830Y0048262D01*
X0012887Y0048883D01*
X0012960Y0049503D01*
X0013047Y0050120D01*
X0013149Y0050735D01*
X0013266Y0051348D01*
X0013398Y0051957D01*
X0013545Y0052563D01*
X0013706Y0053166D01*
X0013881Y0053764D01*
X0014071Y0054358D01*
X0014276Y0054947D01*
X0014494Y0055531D01*
X0014727Y0056110D01*
X0014973Y0056682D01*
X0015234Y0057249D01*
X0015508Y0057809D01*
X0015795Y0058363D01*
X0016095Y0058909D01*
X0016409Y0059448D01*
X0016736Y0059979D01*
X0017075Y0060502D01*
X0017427Y0061017D01*
X0017791Y0061523D01*
X0018168Y0062020D01*
X0018556Y0062508D01*
X0018956Y0062986D01*
X0019368Y0063455D01*
X0019790Y0063914D01*
X0020224Y0064362D01*
X0020668Y0064799D01*
X0021123Y0065226D01*
X0021588Y0065642D01*
X0022062Y0066046D01*
X0022547Y0066438D01*
X0023041Y0066819D01*
X0023543Y0067188D01*
X0024055Y0067544D01*
X0024575Y0067889D01*
X0025103Y0068220D01*
X0025639Y0068538D01*
X0026183Y0068844D01*
X0026734Y0069136D01*
X0027292Y0069415D01*
X0027856Y0069680D01*
X0028427Y0069932D01*
X0029003Y0070170D01*
X0029585Y0070393D01*
X0030172Y0070603D01*
X0030765Y0070798D01*
X0031361Y0070979D01*
X0031962Y0071146D01*
X0032567Y0071298D01*
X0033175Y0071435D01*
X0033787Y0071557D01*
X0034401Y0071665D01*
X0035017Y0071758D01*
X0035636Y0071836D01*
X0036257Y0071899D01*
X0036878Y0071947D01*
X0037501Y0071980D01*
X0038124Y0071997D01*
X0038748Y0072000D01*
X0064748Y0046394D02*
X0064736Y0045771D01*
X0064709Y0045148D01*
X0064666Y0044526D01*
X0064609Y0043905D01*
X0064536Y0043285D01*
X0064449Y0042668D01*
X0064347Y0042053D01*
X0064230Y0041440D01*
X0064098Y0040831D01*
X0063951Y0040225D01*
X0063790Y0039622D01*
X0063615Y0039024D01*
X0063425Y0038430D01*
X0063220Y0037841D01*
X0063002Y0037257D01*
X0062769Y0036678D01*
X0062523Y0036106D01*
X0062262Y0035539D01*
X0061988Y0034979D01*
X0061701Y0034425D01*
X0061401Y0033879D01*
X0061087Y0033340D01*
X0060760Y0032809D01*
X0060421Y0032286D01*
X0060069Y0031771D01*
X0059705Y0031265D01*
X0059328Y0030768D01*
X0058940Y0030280D01*
X0058540Y0029802D01*
X0058128Y0029333D01*
X0057706Y0028874D01*
X0057272Y0028426D01*
X0056828Y0027989D01*
X0056373Y0027562D01*
X0055908Y0027146D01*
X0055434Y0026742D01*
X0054949Y0026350D01*
X0054455Y0025969D01*
X0053953Y0025600D01*
X0053441Y0025244D01*
X0052921Y0024899D01*
X0052393Y0024568D01*
X0051857Y0024250D01*
X0051313Y0023944D01*
X0050762Y0023652D01*
X0050204Y0023373D01*
X0049640Y0023108D01*
X0049069Y0022856D01*
X0048493Y0022618D01*
X0047911Y0022395D01*
X0047324Y0022185D01*
X0046731Y0021990D01*
X0046135Y0021809D01*
X0045534Y0021642D01*
X0044929Y0021490D01*
X0044321Y0021353D01*
X0043709Y0021231D01*
X0043095Y0021123D01*
X0042479Y0021030D01*
X0041860Y0020952D01*
X0041239Y0020889D01*
X0040618Y0020841D01*
X0039995Y0020808D01*
X0039372Y0020791D01*
X0038748Y0020788D01*
X0064748Y0046394D02*
X0064736Y0047017D01*
X0064709Y0047640D01*
X0064666Y0048262D01*
X0064609Y0048883D01*
X0064536Y0049503D01*
X0064449Y0050120D01*
X0064347Y0050735D01*
X0064230Y0051348D01*
X0064098Y0051957D01*
X0063951Y0052563D01*
X0063790Y0053166D01*
X0063615Y0053764D01*
X0063425Y0054358D01*
X0063220Y0054947D01*
X0063002Y0055531D01*
X0062769Y0056110D01*
X0062523Y0056682D01*
X0062262Y0057249D01*
X0061988Y0057809D01*
X0061701Y0058363D01*
X0061401Y0058909D01*
X0061087Y0059448D01*
X0060760Y0059979D01*
X0060421Y0060502D01*
X0060069Y0061017D01*
X0059705Y0061523D01*
X0059328Y0062020D01*
X0058940Y0062508D01*
X0058540Y0062986D01*
X0058128Y0063455D01*
X0057706Y0063914D01*
X0057272Y0064362D01*
X0056828Y0064799D01*
X0056373Y0065226D01*
X0055908Y0065642D01*
X0055434Y0066046D01*
X0054949Y0066438D01*
X0054455Y0066819D01*
X0053953Y0067188D01*
X0053441Y0067544D01*
X0052921Y0067889D01*
X0052393Y0068220D01*
X0051857Y0068538D01*
X0051313Y0068844D01*
X0050762Y0069136D01*
X0050204Y0069415D01*
X0049640Y0069680D01*
X0049069Y0069932D01*
X0048493Y0070170D01*
X0047911Y0070393D01*
X0047324Y0070603D01*
X0046731Y0070798D01*
X0046135Y0070979D01*
X0045534Y0071146D01*
X0044929Y0071298D01*
X0044321Y0071435D01*
X0043709Y0071557D01*
X0043095Y0071665D01*
X0042479Y0071758D01*
X0041860Y0071836D01*
X0041239Y0071899D01*
X0040618Y0071947D01*
X0039995Y0071980D01*
X0039372Y0071997D01*
X0038748Y0072000D01*
D25*
X0080520Y0046276D02*
X0090362Y0046276D01*
X0113197Y0046276D01*
X0122252Y0046276D01*
X0138787Y0046276D01*
X0139181Y0045882D01*
X0139181Y0032299D01*
X0138000Y0031118D01*
X0115559Y0024622D02*
X0115497Y0024624D01*
X0115436Y0024630D01*
X0115375Y0024639D01*
X0115314Y0024653D01*
X0115255Y0024670D01*
X0115197Y0024691D01*
X0115140Y0024716D01*
X0115085Y0024744D01*
X0115032Y0024775D01*
X0114981Y0024810D01*
X0114932Y0024848D01*
X0114885Y0024889D01*
X0114842Y0024932D01*
X0114801Y0024979D01*
X0114763Y0025028D01*
X0114728Y0025079D01*
X0114697Y0025132D01*
X0114669Y0025187D01*
X0114644Y0025244D01*
X0114623Y0025302D01*
X0114606Y0025361D01*
X0114592Y0025422D01*
X0114583Y0025483D01*
X0114577Y0025544D01*
X0114575Y0025606D01*
X0114575Y0029740D01*
X0114575Y0035843D01*
X0114573Y0035915D01*
X0114567Y0035987D01*
X0114558Y0036059D01*
X0114545Y0036130D01*
X0114528Y0036200D01*
X0114508Y0036269D01*
X0114483Y0036337D01*
X0114456Y0036403D01*
X0114425Y0036469D01*
X0114390Y0036532D01*
X0114353Y0036594D01*
X0114312Y0036653D01*
X0114268Y0036710D01*
X0114221Y0036765D01*
X0114171Y0036817D01*
X0114119Y0036867D01*
X0114064Y0036914D01*
X0114007Y0036958D01*
X0113948Y0036999D01*
X0113886Y0037036D01*
X0113823Y0037071D01*
X0113757Y0037102D01*
X0113691Y0037129D01*
X0113623Y0037154D01*
X0113554Y0037174D01*
X0113484Y0037191D01*
X0113413Y0037204D01*
X0113341Y0037213D01*
X0113269Y0037219D01*
X0113197Y0037221D01*
X0122252Y0045882D02*
X0122252Y0046276D01*
X0122252Y0045882D01*
X0139181Y0045882D02*
X0139181Y0058087D01*
X0139181Y0046276D01*
X0139181Y0058087D02*
X0142134Y0061039D01*
X0162213Y0061039D01*
D26*
X0113197Y0037220D02*
X0079142Y0037220D01*
X0068748Y0037220D01*
X0068748Y0037394D01*
X0070283Y0037394D01*
X0070283Y0046276D01*
X0075402Y0046276D02*
X0080520Y0046276D01*
X0070284Y0046276D02*
X0070248Y0045484D01*
X0070193Y0044692D01*
X0070119Y0043903D01*
X0070026Y0043115D01*
X0069914Y0042330D01*
X0069783Y0041548D01*
X0069633Y0040769D01*
X0069464Y0039994D01*
X0069276Y0039224D01*
X0069070Y0038458D01*
X0068845Y0037698D01*
X0068601Y0036943D01*
X0068340Y0036194D01*
X0068060Y0035452D01*
X0067762Y0034717D01*
X0067447Y0033989D01*
X0067114Y0033270D01*
X0066763Y0032558D01*
X0066396Y0031855D01*
X0066011Y0031162D01*
X0065610Y0030478D01*
X0065192Y0029804D01*
X0064758Y0029140D01*
X0064309Y0028487D01*
X0063843Y0027845D01*
X0063362Y0027214D01*
X0062865Y0026596D01*
X0062354Y0025989D01*
X0061829Y0025396D01*
X0061289Y0024815D01*
X0060735Y0024247D01*
X0060167Y0023693D01*
X0059586Y0023154D01*
X0058992Y0022628D01*
X0058386Y0022117D01*
X0057767Y0021620D01*
X0057137Y0021139D01*
X0056495Y0020674D01*
X0055842Y0020224D01*
X0055178Y0019790D01*
X0054504Y0019372D01*
X0053820Y0018971D01*
X0053126Y0018586D01*
X0052424Y0018219D01*
X0051712Y0017869D01*
X0050992Y0017536D01*
X0070283Y0046276D02*
X0070250Y0047072D01*
X0070197Y0047867D01*
X0070125Y0048661D01*
X0070034Y0049452D01*
X0069924Y0050241D01*
X0069795Y0051027D01*
X0069646Y0051810D01*
X0069479Y0052589D01*
X0069293Y0053364D01*
X0069088Y0054134D01*
X0068864Y0054899D01*
X0068622Y0055658D01*
X0068362Y0056411D01*
X0068083Y0057157D01*
X0067786Y0057897D01*
X0067471Y0058629D01*
X0067139Y0059353D01*
X0066789Y0060069D01*
X0066422Y0060776D01*
X0066038Y0061474D01*
X0065637Y0062163D01*
X0065220Y0062842D01*
X0064786Y0063510D01*
X0064336Y0064167D01*
X0063870Y0064814D01*
X0063389Y0065449D01*
X0062892Y0066072D01*
X0062380Y0066683D01*
X0061854Y0067281D01*
X0061313Y0067866D01*
X0060759Y0068438D01*
X0060190Y0068997D01*
X0059608Y0069541D01*
X0059013Y0070071D01*
X0058406Y0070586D01*
X0057786Y0071087D01*
X0057154Y0071572D01*
X0056510Y0072042D01*
X0055856Y0072496D01*
X0055190Y0072934D01*
X0054514Y0073356D01*
X0053828Y0073761D01*
X0053132Y0074150D01*
X0052427Y0074521D01*
X0051714Y0074876D01*
X0050992Y0075212D01*
D27*
X0027913Y0018717D02*
X0021071Y0018717D01*
X0008748Y0006394D01*
M02*
