G75*
%MOIN*%
%OFA0B0*%
%FSLAX25Y25*%
%IPPOS*%
%LPD*%
%AMOC8*
5,1,8,0,0,1.08239X$1,22.5*
%
%ADD10C,0.00472*%
%ADD11R,0.19291X0.19291*%
%ADD12C,0.04362*%
%ADD13R,0.04528X0.04134*%
%ADD14R,0.03150X0.03150*%
%ADD15R,0.04921X0.04331*%
%ADD16R,0.03150X0.03150*%
%ADD17R,0.04331X0.04921*%
%ADD18R,0.07874X0.04724*%
%ADD19R,0.03937X0.03740*%
%ADD20R,0.03071X0.02756*%
%ADD21R,0.02165X0.03937*%
%ADD22R,0.03150X0.11024*%
%ADD23R,0.10236X0.03780*%
%ADD24R,0.06102X0.02362*%
%ADD25R,0.07087X0.06299*%
%ADD26R,0.06890X0.08268*%
%ADD27C,0.07874*%
%ADD28C,0.12598*%
%ADD29R,0.03150X0.04724*%
%ADD30R,0.02559X0.04724*%
%ADD31R,0.07087X0.07087*%
%ADD32C,0.07087*%
D10*
X0137508Y0037063D02*
X0140382Y0037063D01*
X0137508Y0037063D02*
X0137508Y0038165D01*
X0140382Y0038165D01*
X0140382Y0037063D01*
X0140382Y0037534D02*
X0137508Y0037534D01*
X0137508Y0038005D02*
X0140382Y0038005D01*
X0140382Y0038638D02*
X0137508Y0038638D01*
X0137508Y0039740D01*
X0140382Y0039740D01*
X0140382Y0038638D01*
X0140382Y0039109D02*
X0137508Y0039109D01*
X0137508Y0039580D02*
X0140382Y0039580D01*
X0140382Y0040213D02*
X0137508Y0040213D01*
X0137508Y0041315D01*
X0140382Y0041315D01*
X0140382Y0040213D01*
X0140382Y0040684D02*
X0137508Y0040684D01*
X0137508Y0041155D02*
X0140382Y0041155D01*
X0140382Y0041788D02*
X0137508Y0041788D01*
X0137508Y0042890D01*
X0140382Y0042890D01*
X0140382Y0041788D01*
X0140382Y0042259D02*
X0137508Y0042259D01*
X0137508Y0042730D02*
X0140382Y0042730D01*
X0140382Y0043362D02*
X0137508Y0043362D01*
X0137508Y0044464D01*
X0140382Y0044464D01*
X0140382Y0043362D01*
X0140382Y0043833D02*
X0137508Y0043833D01*
X0137508Y0044304D02*
X0140382Y0044304D01*
X0140382Y0044937D02*
X0137508Y0044937D01*
X0137508Y0046039D01*
X0140382Y0046039D01*
X0140382Y0044937D01*
X0140382Y0045408D02*
X0137508Y0045408D01*
X0137508Y0045879D02*
X0140382Y0045879D01*
X0140382Y0046512D02*
X0137508Y0046512D01*
X0137508Y0047614D01*
X0140382Y0047614D01*
X0140382Y0046512D01*
X0140382Y0046983D02*
X0137508Y0046983D01*
X0137508Y0047454D02*
X0140382Y0047454D01*
X0140382Y0048087D02*
X0137508Y0048087D01*
X0137508Y0049189D01*
X0140382Y0049189D01*
X0140382Y0048087D01*
X0140382Y0048558D02*
X0137508Y0048558D01*
X0137508Y0049029D02*
X0140382Y0049029D01*
X0140382Y0049662D02*
X0137508Y0049662D01*
X0137508Y0050764D01*
X0140382Y0050764D01*
X0140382Y0049662D01*
X0140382Y0050133D02*
X0137508Y0050133D01*
X0137508Y0050604D02*
X0140382Y0050604D01*
X0140382Y0051236D02*
X0137508Y0051236D01*
X0137508Y0052338D01*
X0140382Y0052338D01*
X0140382Y0051236D01*
X0140382Y0051707D02*
X0137508Y0051707D01*
X0137508Y0052178D02*
X0140382Y0052178D01*
X0140382Y0052811D02*
X0137508Y0052811D01*
X0137508Y0053913D01*
X0140382Y0053913D01*
X0140382Y0052811D01*
X0140382Y0053282D02*
X0137508Y0053282D01*
X0137508Y0053753D02*
X0140382Y0053753D01*
X0140382Y0054386D02*
X0137508Y0054386D01*
X0137508Y0055488D01*
X0140382Y0055488D01*
X0140382Y0054386D01*
X0140382Y0054857D02*
X0137508Y0054857D01*
X0137508Y0055328D02*
X0140382Y0055328D01*
X0141543Y0056650D02*
X0141543Y0059524D01*
X0142645Y0059524D01*
X0142645Y0056650D01*
X0141543Y0056650D01*
X0141543Y0057121D02*
X0142645Y0057121D01*
X0142645Y0057592D02*
X0141543Y0057592D01*
X0141543Y0058063D02*
X0142645Y0058063D01*
X0142645Y0058534D02*
X0141543Y0058534D01*
X0141543Y0059005D02*
X0142645Y0059005D01*
X0142645Y0059476D02*
X0141543Y0059476D01*
X0143118Y0059524D02*
X0143118Y0056650D01*
X0143118Y0059524D02*
X0144220Y0059524D01*
X0144220Y0056650D01*
X0143118Y0056650D01*
X0143118Y0057121D02*
X0144220Y0057121D01*
X0144220Y0057592D02*
X0143118Y0057592D01*
X0143118Y0058063D02*
X0144220Y0058063D01*
X0144220Y0058534D02*
X0143118Y0058534D01*
X0143118Y0059005D02*
X0144220Y0059005D01*
X0144220Y0059476D02*
X0143118Y0059476D01*
X0144693Y0059524D02*
X0144693Y0056650D01*
X0144693Y0059524D02*
X0145795Y0059524D01*
X0145795Y0056650D01*
X0144693Y0056650D01*
X0144693Y0057121D02*
X0145795Y0057121D01*
X0145795Y0057592D02*
X0144693Y0057592D01*
X0144693Y0058063D02*
X0145795Y0058063D01*
X0145795Y0058534D02*
X0144693Y0058534D01*
X0144693Y0059005D02*
X0145795Y0059005D01*
X0145795Y0059476D02*
X0144693Y0059476D01*
X0146268Y0059524D02*
X0146268Y0056650D01*
X0146268Y0059524D02*
X0147370Y0059524D01*
X0147370Y0056650D01*
X0146268Y0056650D01*
X0146268Y0057121D02*
X0147370Y0057121D01*
X0147370Y0057592D02*
X0146268Y0057592D01*
X0146268Y0058063D02*
X0147370Y0058063D01*
X0147370Y0058534D02*
X0146268Y0058534D01*
X0146268Y0059005D02*
X0147370Y0059005D01*
X0147370Y0059476D02*
X0146268Y0059476D01*
X0147843Y0059524D02*
X0147843Y0056650D01*
X0147843Y0059524D02*
X0148945Y0059524D01*
X0148945Y0056650D01*
X0147843Y0056650D01*
X0147843Y0057121D02*
X0148945Y0057121D01*
X0148945Y0057592D02*
X0147843Y0057592D01*
X0147843Y0058063D02*
X0148945Y0058063D01*
X0148945Y0058534D02*
X0147843Y0058534D01*
X0147843Y0059005D02*
X0148945Y0059005D01*
X0148945Y0059476D02*
X0147843Y0059476D01*
X0149418Y0059524D02*
X0149418Y0056650D01*
X0149418Y0059524D02*
X0150520Y0059524D01*
X0150520Y0056650D01*
X0149418Y0056650D01*
X0149418Y0057121D02*
X0150520Y0057121D01*
X0150520Y0057592D02*
X0149418Y0057592D01*
X0149418Y0058063D02*
X0150520Y0058063D01*
X0150520Y0058534D02*
X0149418Y0058534D01*
X0149418Y0059005D02*
X0150520Y0059005D01*
X0150520Y0059476D02*
X0149418Y0059476D01*
X0150992Y0059524D02*
X0150992Y0056650D01*
X0150992Y0059524D02*
X0152094Y0059524D01*
X0152094Y0056650D01*
X0150992Y0056650D01*
X0150992Y0057121D02*
X0152094Y0057121D01*
X0152094Y0057592D02*
X0150992Y0057592D01*
X0150992Y0058063D02*
X0152094Y0058063D01*
X0152094Y0058534D02*
X0150992Y0058534D01*
X0150992Y0059005D02*
X0152094Y0059005D01*
X0152094Y0059476D02*
X0150992Y0059476D01*
X0152567Y0059524D02*
X0152567Y0056650D01*
X0152567Y0059524D02*
X0153669Y0059524D01*
X0153669Y0056650D01*
X0152567Y0056650D01*
X0152567Y0057121D02*
X0153669Y0057121D01*
X0153669Y0057592D02*
X0152567Y0057592D01*
X0152567Y0058063D02*
X0153669Y0058063D01*
X0153669Y0058534D02*
X0152567Y0058534D01*
X0152567Y0059005D02*
X0153669Y0059005D01*
X0153669Y0059476D02*
X0152567Y0059476D01*
X0154142Y0059524D02*
X0154142Y0056650D01*
X0154142Y0059524D02*
X0155244Y0059524D01*
X0155244Y0056650D01*
X0154142Y0056650D01*
X0154142Y0057121D02*
X0155244Y0057121D01*
X0155244Y0057592D02*
X0154142Y0057592D01*
X0154142Y0058063D02*
X0155244Y0058063D01*
X0155244Y0058534D02*
X0154142Y0058534D01*
X0154142Y0059005D02*
X0155244Y0059005D01*
X0155244Y0059476D02*
X0154142Y0059476D01*
X0155717Y0059524D02*
X0155717Y0056650D01*
X0155717Y0059524D02*
X0156819Y0059524D01*
X0156819Y0056650D01*
X0155717Y0056650D01*
X0155717Y0057121D02*
X0156819Y0057121D01*
X0156819Y0057592D02*
X0155717Y0057592D01*
X0155717Y0058063D02*
X0156819Y0058063D01*
X0156819Y0058534D02*
X0155717Y0058534D01*
X0155717Y0059005D02*
X0156819Y0059005D01*
X0156819Y0059476D02*
X0155717Y0059476D01*
X0157292Y0059524D02*
X0157292Y0056650D01*
X0157292Y0059524D02*
X0158394Y0059524D01*
X0158394Y0056650D01*
X0157292Y0056650D01*
X0157292Y0057121D02*
X0158394Y0057121D01*
X0158394Y0057592D02*
X0157292Y0057592D01*
X0157292Y0058063D02*
X0158394Y0058063D01*
X0158394Y0058534D02*
X0157292Y0058534D01*
X0157292Y0059005D02*
X0158394Y0059005D01*
X0158394Y0059476D02*
X0157292Y0059476D01*
X0158866Y0059524D02*
X0158866Y0056650D01*
X0158866Y0059524D02*
X0159968Y0059524D01*
X0159968Y0056650D01*
X0158866Y0056650D01*
X0158866Y0057121D02*
X0159968Y0057121D01*
X0159968Y0057592D02*
X0158866Y0057592D01*
X0158866Y0058063D02*
X0159968Y0058063D01*
X0159968Y0058534D02*
X0158866Y0058534D01*
X0158866Y0059005D02*
X0159968Y0059005D01*
X0159968Y0059476D02*
X0158866Y0059476D01*
X0161130Y0055488D02*
X0164004Y0055488D01*
X0164004Y0054386D01*
X0161130Y0054386D01*
X0161130Y0055488D01*
X0161130Y0054857D02*
X0164004Y0054857D01*
X0164004Y0055328D02*
X0161130Y0055328D01*
X0161130Y0053913D02*
X0164004Y0053913D01*
X0164004Y0052811D01*
X0161130Y0052811D01*
X0161130Y0053913D01*
X0161130Y0053282D02*
X0164004Y0053282D01*
X0164004Y0053753D02*
X0161130Y0053753D01*
X0161130Y0052338D02*
X0164004Y0052338D01*
X0164004Y0051236D01*
X0161130Y0051236D01*
X0161130Y0052338D01*
X0161130Y0051707D02*
X0164004Y0051707D01*
X0164004Y0052178D02*
X0161130Y0052178D01*
X0161130Y0050764D02*
X0164004Y0050764D01*
X0164004Y0049662D01*
X0161130Y0049662D01*
X0161130Y0050764D01*
X0161130Y0050133D02*
X0164004Y0050133D01*
X0164004Y0050604D02*
X0161130Y0050604D01*
X0161130Y0049189D02*
X0164004Y0049189D01*
X0164004Y0048087D01*
X0161130Y0048087D01*
X0161130Y0049189D01*
X0161130Y0048558D02*
X0164004Y0048558D01*
X0164004Y0049029D02*
X0161130Y0049029D01*
X0161130Y0047614D02*
X0164004Y0047614D01*
X0164004Y0046512D01*
X0161130Y0046512D01*
X0161130Y0047614D01*
X0161130Y0046983D02*
X0164004Y0046983D01*
X0164004Y0047454D02*
X0161130Y0047454D01*
X0161130Y0046039D02*
X0164004Y0046039D01*
X0164004Y0044937D01*
X0161130Y0044937D01*
X0161130Y0046039D01*
X0161130Y0045408D02*
X0164004Y0045408D01*
X0164004Y0045879D02*
X0161130Y0045879D01*
X0161130Y0044464D02*
X0164004Y0044464D01*
X0164004Y0043362D01*
X0161130Y0043362D01*
X0161130Y0044464D01*
X0161130Y0043833D02*
X0164004Y0043833D01*
X0164004Y0044304D02*
X0161130Y0044304D01*
X0161130Y0042890D02*
X0164004Y0042890D01*
X0164004Y0041788D01*
X0161130Y0041788D01*
X0161130Y0042890D01*
X0161130Y0042259D02*
X0164004Y0042259D01*
X0164004Y0042730D02*
X0161130Y0042730D01*
X0161130Y0041315D02*
X0164004Y0041315D01*
X0164004Y0040213D01*
X0161130Y0040213D01*
X0161130Y0041315D01*
X0161130Y0040684D02*
X0164004Y0040684D01*
X0164004Y0041155D02*
X0161130Y0041155D01*
X0161130Y0039740D02*
X0164004Y0039740D01*
X0164004Y0038638D01*
X0161130Y0038638D01*
X0161130Y0039740D01*
X0161130Y0039109D02*
X0164004Y0039109D01*
X0164004Y0039580D02*
X0161130Y0039580D01*
X0161130Y0038165D02*
X0164004Y0038165D01*
X0164004Y0037063D01*
X0161130Y0037063D01*
X0161130Y0038165D01*
X0161130Y0037534D02*
X0164004Y0037534D01*
X0164004Y0038005D02*
X0161130Y0038005D01*
X0159968Y0035902D02*
X0159968Y0033028D01*
X0158866Y0033028D01*
X0158866Y0035902D01*
X0159968Y0035902D01*
X0159968Y0033499D02*
X0158866Y0033499D01*
X0158866Y0033970D02*
X0159968Y0033970D01*
X0159968Y0034441D02*
X0158866Y0034441D01*
X0158866Y0034912D02*
X0159968Y0034912D01*
X0159968Y0035383D02*
X0158866Y0035383D01*
X0158866Y0035854D02*
X0159968Y0035854D01*
X0158394Y0035902D02*
X0158394Y0033028D01*
X0157292Y0033028D01*
X0157292Y0035902D01*
X0158394Y0035902D01*
X0158394Y0033499D02*
X0157292Y0033499D01*
X0157292Y0033970D02*
X0158394Y0033970D01*
X0158394Y0034441D02*
X0157292Y0034441D01*
X0157292Y0034912D02*
X0158394Y0034912D01*
X0158394Y0035383D02*
X0157292Y0035383D01*
X0157292Y0035854D02*
X0158394Y0035854D01*
X0156819Y0035902D02*
X0156819Y0033028D01*
X0155717Y0033028D01*
X0155717Y0035902D01*
X0156819Y0035902D01*
X0156819Y0033499D02*
X0155717Y0033499D01*
X0155717Y0033970D02*
X0156819Y0033970D01*
X0156819Y0034441D02*
X0155717Y0034441D01*
X0155717Y0034912D02*
X0156819Y0034912D01*
X0156819Y0035383D02*
X0155717Y0035383D01*
X0155717Y0035854D02*
X0156819Y0035854D01*
X0155244Y0035902D02*
X0155244Y0033028D01*
X0154142Y0033028D01*
X0154142Y0035902D01*
X0155244Y0035902D01*
X0155244Y0033499D02*
X0154142Y0033499D01*
X0154142Y0033970D02*
X0155244Y0033970D01*
X0155244Y0034441D02*
X0154142Y0034441D01*
X0154142Y0034912D02*
X0155244Y0034912D01*
X0155244Y0035383D02*
X0154142Y0035383D01*
X0154142Y0035854D02*
X0155244Y0035854D01*
X0153669Y0035902D02*
X0153669Y0033028D01*
X0152567Y0033028D01*
X0152567Y0035902D01*
X0153669Y0035902D01*
X0153669Y0033499D02*
X0152567Y0033499D01*
X0152567Y0033970D02*
X0153669Y0033970D01*
X0153669Y0034441D02*
X0152567Y0034441D01*
X0152567Y0034912D02*
X0153669Y0034912D01*
X0153669Y0035383D02*
X0152567Y0035383D01*
X0152567Y0035854D02*
X0153669Y0035854D01*
X0152094Y0035902D02*
X0152094Y0033028D01*
X0150992Y0033028D01*
X0150992Y0035902D01*
X0152094Y0035902D01*
X0152094Y0033499D02*
X0150992Y0033499D01*
X0150992Y0033970D02*
X0152094Y0033970D01*
X0152094Y0034441D02*
X0150992Y0034441D01*
X0150992Y0034912D02*
X0152094Y0034912D01*
X0152094Y0035383D02*
X0150992Y0035383D01*
X0150992Y0035854D02*
X0152094Y0035854D01*
X0150520Y0035902D02*
X0150520Y0033028D01*
X0149418Y0033028D01*
X0149418Y0035902D01*
X0150520Y0035902D01*
X0150520Y0033499D02*
X0149418Y0033499D01*
X0149418Y0033970D02*
X0150520Y0033970D01*
X0150520Y0034441D02*
X0149418Y0034441D01*
X0149418Y0034912D02*
X0150520Y0034912D01*
X0150520Y0035383D02*
X0149418Y0035383D01*
X0149418Y0035854D02*
X0150520Y0035854D01*
X0148945Y0035902D02*
X0148945Y0033028D01*
X0147843Y0033028D01*
X0147843Y0035902D01*
X0148945Y0035902D01*
X0148945Y0033499D02*
X0147843Y0033499D01*
X0147843Y0033970D02*
X0148945Y0033970D01*
X0148945Y0034441D02*
X0147843Y0034441D01*
X0147843Y0034912D02*
X0148945Y0034912D01*
X0148945Y0035383D02*
X0147843Y0035383D01*
X0147843Y0035854D02*
X0148945Y0035854D01*
X0147370Y0035902D02*
X0147370Y0033028D01*
X0146268Y0033028D01*
X0146268Y0035902D01*
X0147370Y0035902D01*
X0147370Y0033499D02*
X0146268Y0033499D01*
X0146268Y0033970D02*
X0147370Y0033970D01*
X0147370Y0034441D02*
X0146268Y0034441D01*
X0146268Y0034912D02*
X0147370Y0034912D01*
X0147370Y0035383D02*
X0146268Y0035383D01*
X0146268Y0035854D02*
X0147370Y0035854D01*
X0145795Y0035902D02*
X0145795Y0033028D01*
X0144693Y0033028D01*
X0144693Y0035902D01*
X0145795Y0035902D01*
X0145795Y0033499D02*
X0144693Y0033499D01*
X0144693Y0033970D02*
X0145795Y0033970D01*
X0145795Y0034441D02*
X0144693Y0034441D01*
X0144693Y0034912D02*
X0145795Y0034912D01*
X0145795Y0035383D02*
X0144693Y0035383D01*
X0144693Y0035854D02*
X0145795Y0035854D01*
X0144220Y0035902D02*
X0144220Y0033028D01*
X0143118Y0033028D01*
X0143118Y0035902D01*
X0144220Y0035902D01*
X0144220Y0033499D02*
X0143118Y0033499D01*
X0143118Y0033970D02*
X0144220Y0033970D01*
X0144220Y0034441D02*
X0143118Y0034441D01*
X0143118Y0034912D02*
X0144220Y0034912D01*
X0144220Y0035383D02*
X0143118Y0035383D01*
X0143118Y0035854D02*
X0144220Y0035854D01*
X0142645Y0035902D02*
X0142645Y0033028D01*
X0141543Y0033028D01*
X0141543Y0035902D01*
X0142645Y0035902D01*
X0142645Y0033499D02*
X0141543Y0033499D01*
X0141543Y0033970D02*
X0142645Y0033970D01*
X0142645Y0034441D02*
X0141543Y0034441D01*
X0141543Y0034912D02*
X0142645Y0034912D01*
X0142645Y0035383D02*
X0141543Y0035383D01*
X0141543Y0035854D02*
X0142645Y0035854D01*
D11*
X0150756Y0046276D03*
D12*
X0153118Y0043913D03*
X0157843Y0043913D03*
X0157843Y0039189D03*
X0153118Y0039189D03*
X0148394Y0039189D03*
X0143669Y0039189D03*
X0143669Y0043913D03*
X0148394Y0043913D03*
X0148394Y0048638D03*
X0143669Y0048638D03*
X0143669Y0053362D03*
X0148394Y0053362D03*
X0153118Y0053362D03*
X0157843Y0053362D03*
X0157843Y0048638D03*
X0153118Y0048638D03*
D13*
X0170736Y0064484D03*
X0176445Y0064484D03*
X0176445Y0069012D03*
X0170736Y0069012D03*
D14*
X0165717Y0068913D03*
X0161780Y0068913D03*
X0161780Y0064583D03*
X0165717Y0064583D03*
X0171425Y0059268D03*
X0175756Y0059268D03*
X0175756Y0055331D03*
X0171425Y0055331D03*
X0171228Y0048441D03*
X0171228Y0044110D03*
X0175362Y0044110D03*
X0179693Y0044110D03*
X0183827Y0043717D03*
X0183827Y0039386D03*
X0201937Y0043913D03*
X0201937Y0048244D03*
X0181465Y0064583D03*
X0181465Y0068913D03*
X0134024Y0071866D03*
X0129693Y0071866D03*
X0110205Y0069701D03*
X0106268Y0069701D03*
X0106268Y0065370D03*
X0110205Y0065370D03*
X0110205Y0059858D03*
X0106268Y0059858D03*
X0106268Y0055528D03*
X0110205Y0055528D03*
X0130480Y0055724D03*
X0134811Y0055724D03*
X0130677Y0035843D03*
X0126740Y0035843D03*
X0126740Y0031512D03*
X0130677Y0031512D03*
X0130677Y0027575D03*
X0126740Y0027575D03*
X0126740Y0023244D03*
X0130677Y0023244D03*
X0060047Y0028756D03*
X0060047Y0033087D03*
X0060047Y0037024D03*
X0060047Y0041354D03*
X0060047Y0051984D03*
X0060047Y0056315D03*
X0060047Y0064189D03*
X0060047Y0068520D03*
X0066937Y0074228D03*
X0071268Y0074228D03*
X0079535Y0074228D03*
X0083866Y0074228D03*
X0043118Y0069504D03*
X0038787Y0069504D03*
X0028551Y0069504D03*
X0024220Y0069504D03*
X0016150Y0073441D03*
X0011819Y0073441D03*
D15*
X0009654Y0068323D03*
X0015953Y0068323D03*
X0128709Y0066748D03*
X0135008Y0066748D03*
X0135008Y0060843D03*
X0128709Y0060843D03*
D16*
G36*
X0138249Y0028515D02*
X0140476Y0030742D01*
X0142703Y0028515D01*
X0140476Y0026288D01*
X0138249Y0028515D01*
G37*
G36*
X0135187Y0025453D02*
X0137414Y0027680D01*
X0139641Y0025453D01*
X0137414Y0023226D01*
X0135187Y0025453D01*
G37*
D17*
X0089969Y0029740D03*
X0089969Y0036039D03*
X0089969Y0056512D03*
X0089969Y0062811D03*
X0143669Y0063992D03*
X0143669Y0070291D03*
D18*
X0116898Y0065370D03*
X0116898Y0055528D03*
D19*
X0189142Y0048146D03*
X0196622Y0048146D03*
X0196622Y0040075D03*
X0189142Y0040075D03*
D20*
X0188315Y0044110D03*
X0197449Y0044110D03*
D21*
X0111268Y0036197D03*
X0109299Y0036197D03*
X0107331Y0036197D03*
X0105362Y0036197D03*
X0103394Y0036197D03*
D22*
X0099850Y0027142D03*
X0114811Y0027142D03*
D23*
X0049181Y0036394D03*
X0049181Y0041394D03*
X0049181Y0046394D03*
X0049181Y0051394D03*
X0049181Y0056394D03*
X0033827Y0056394D03*
X0033827Y0051394D03*
X0033827Y0046394D03*
X0033827Y0041394D03*
X0033827Y0036394D03*
D24*
X0019535Y0041276D03*
X0019535Y0043835D03*
X0019535Y0046394D03*
X0019535Y0048953D03*
X0019535Y0051512D03*
D25*
X0018650Y0058992D03*
X0018650Y0033795D03*
D26*
X0009004Y0041669D03*
X0009004Y0051118D03*
D27*
X0009004Y0059386D03*
X0009004Y0033402D03*
D28*
X0038748Y0013185D03*
X0038748Y0079602D03*
D29*
X0067331Y0069110D03*
X0081898Y0069110D03*
X0081898Y0051787D03*
X0067331Y0051787D03*
X0067331Y0041551D03*
X0081898Y0041551D03*
X0081898Y0024228D03*
X0067331Y0024228D03*
D30*
X0064673Y0032890D03*
X0084555Y0032890D03*
X0084555Y0060449D03*
X0064673Y0060449D03*
D31*
X0008748Y0006394D03*
X0048748Y0006394D03*
X0028748Y0086394D03*
X0198748Y0086394D03*
D32*
X0188748Y0086394D03*
X0178748Y0086394D03*
X0168748Y0086394D03*
X0158748Y0086394D03*
X0148748Y0086394D03*
X0138748Y0086394D03*
X0128748Y0086394D03*
X0118748Y0086394D03*
X0108748Y0086394D03*
X0098748Y0086394D03*
X0088748Y0086394D03*
X0078748Y0086394D03*
X0068748Y0086394D03*
X0058748Y0086394D03*
X0048748Y0086394D03*
X0018748Y0086394D03*
X0008748Y0086394D03*
X0018748Y0006394D03*
X0028748Y0006394D03*
X0058748Y0006394D03*
X0068748Y0006394D03*
X0078748Y0006394D03*
X0088748Y0006394D03*
X0098748Y0006394D03*
X0108748Y0006394D03*
X0118748Y0006394D03*
X0128748Y0006394D03*
X0138748Y0006394D03*
X0148748Y0006394D03*
X0158748Y0006394D03*
X0168748Y0006394D03*
X0178748Y0006394D03*
X0188748Y0006394D03*
X0198748Y0006394D03*
M02*
