%
M48
M72
T01C0.01575
T02C0.03543
T03C0.04724
T04C0.07283
%
T01
X7685Y12417
X20283Y12811
X28157Y14780
X27913Y18717
X27370Y22654
X19102Y25803
X7685Y26197
X7685Y19110
X15953Y19110
X32882Y28165
X40362Y27378
X37606Y31709
X27764Y31709
X14378Y41157
X14378Y46276
X14378Y51394
X30520Y60843
X36031Y60843
X27764Y65567
X20677Y64386
X13591Y63598
X20677Y73441
X29339Y80134
X35244Y87614
X42724Y87614
X59417Y80134
X63197Y81945
X69260Y80921
X74220Y80921
X75795Y73835
X63197Y73835
X50992Y75213
X50205Y63598
X74614Y60449
X86031Y67929
X113748Y69898
X123433Y66748
X123591Y60843
X113748Y60449
X126740Y56118
X139181Y58087
X143669Y53362
X148394Y53362
X153118Y53362
X157843Y53362
X157843Y48638
X153118Y48638
X148394Y48638
X143669Y48638
X143669Y43913
X148394Y43913
X153118Y43913
X157843Y43913
X157843Y39189
X153118Y39189
X148394Y39189
X143669Y39189
X138000Y31118
X123197Y33677
X122409Y38008
X104535Y29740
X93906Y24622
X86425Y24622
X93512Y20685
X79496Y12024
X70441Y12811
X61386Y13992
X50992Y17535
X47449Y15173
X45480Y18323
X48787Y12024
X42724Y5331
X34850Y5331
X71465Y27378
X71858Y33283
X80520Y34071
X64772Y37614
X75402Y46276
X123197Y25409
X134417Y23441
X152567Y15961
X162409Y12811
X167685Y12417
X162961Y17142
X174772Y20685
X179102Y17142
X185008Y17142
X190913Y17142
X195638Y13992
X200756Y15173
X200756Y21079
X200756Y26984
X190913Y26984
X183039Y26984
X173197Y25803
X162961Y25016
X162567Y30134
X162606Y34268
X173197Y37220
X179102Y37220
X183827Y35646
X188945Y36039
X196819Y36039
X200756Y32890
X173197Y31315
X182252Y48244
X188945Y52181
X184850Y56512
X179496Y55331
X179496Y59268
X190913Y60449
X185008Y64386
X190913Y68323
X200756Y68323
X200756Y74228
X194850Y78165
X200756Y80134
X187370Y80134
X178315Y80921
X183039Y73835
X190913Y74228
X173197Y73835
X162173Y72654
X148394Y80921
X138551Y80528
X133669Y76197
X128315Y80528
X117685Y80528
X113354Y75409
X121858Y74622
X107449Y80921
X143669Y74622
X162213Y61039
X196819Y52181
X201937Y51787
X200756Y56512
X200756Y62417
T02
X8748Y6394
X18748Y6394
X28748Y6394
X48748Y6394
X58748Y6394
X68748Y6394
X78748Y6394
X88748Y6394
X98748Y6394
X108748Y6394
X118748Y6394
X128748Y6394
X138748Y6394
X148748Y6394
X158748Y6394
X168748Y6394
X178748Y6394
X188748Y6394
X198748Y6394
X198748Y86394
X188748Y86394
X178748Y86394
X168748Y86394
X158748Y86394
X148748Y86394
X138748Y86394
X128748Y86394
X118748Y86394
X108748Y86394
X98748Y86394
X88748Y86394
X78748Y86394
X68748Y86394
X58748Y86394
X48748Y86394
X28748Y86394
X18748Y86394
X8748Y86394
T03
X9004Y59386
X9004Y33402
T04
X38748Y13185
X38748Y79602
M30
