G75*
%MOIN*%
%OFA0B0*%
%FSLAX25Y25*%
%IPPOS*%
%LPD*%
%AMOC8*
5,1,8,0,0,1.08239X$1,22.5*
%
%ADD10C,0.00236*%
%ADD11R,0.18504X0.18504*%
%ADD12R,0.03740X0.03346*%
%ADD13R,0.02362X0.02362*%
%ADD14R,0.04134X0.03543*%
%ADD15R,0.02362X0.02362*%
%ADD16R,0.03543X0.04134*%
%ADD17R,0.07087X0.03937*%
%ADD18R,0.03150X0.02953*%
%ADD19R,0.02283X0.01969*%
%ADD20R,0.01378X0.03150*%
%ADD21R,0.02362X0.10236*%
%ADD22R,0.09449X0.02992*%
%ADD23R,0.05315X0.01575*%
%ADD24R,0.06299X0.05512*%
%ADD25R,0.06102X0.07480*%
%ADD26R,0.02362X0.03937*%
%ADD27R,0.01772X0.03937*%
D10*
X0137784Y0037339D02*
X0140106Y0037339D01*
X0137784Y0037339D02*
X0137784Y0037889D01*
X0140106Y0037889D01*
X0140106Y0037339D01*
X0140106Y0037574D02*
X0137784Y0037574D01*
X0137784Y0037809D02*
X0140106Y0037809D01*
X0140106Y0038914D02*
X0137784Y0038914D01*
X0137784Y0039464D01*
X0140106Y0039464D01*
X0140106Y0038914D01*
X0140106Y0039149D02*
X0137784Y0039149D01*
X0137784Y0039384D02*
X0140106Y0039384D01*
X0140106Y0040489D02*
X0137784Y0040489D01*
X0137784Y0041039D01*
X0140106Y0041039D01*
X0140106Y0040489D01*
X0140106Y0040724D02*
X0137784Y0040724D01*
X0137784Y0040959D02*
X0140106Y0040959D01*
X0140106Y0042064D02*
X0137784Y0042064D01*
X0137784Y0042614D01*
X0140106Y0042614D01*
X0140106Y0042064D01*
X0140106Y0042299D02*
X0137784Y0042299D01*
X0137784Y0042534D02*
X0140106Y0042534D01*
X0140106Y0043638D02*
X0137784Y0043638D01*
X0137784Y0044188D01*
X0140106Y0044188D01*
X0140106Y0043638D01*
X0140106Y0043873D02*
X0137784Y0043873D01*
X0137784Y0044108D02*
X0140106Y0044108D01*
X0140106Y0045213D02*
X0137784Y0045213D01*
X0137784Y0045763D01*
X0140106Y0045763D01*
X0140106Y0045213D01*
X0140106Y0045448D02*
X0137784Y0045448D01*
X0137784Y0045683D02*
X0140106Y0045683D01*
X0140106Y0046788D02*
X0137784Y0046788D01*
X0137784Y0047338D01*
X0140106Y0047338D01*
X0140106Y0046788D01*
X0140106Y0047023D02*
X0137784Y0047023D01*
X0137784Y0047258D02*
X0140106Y0047258D01*
X0140106Y0048363D02*
X0137784Y0048363D01*
X0137784Y0048913D01*
X0140106Y0048913D01*
X0140106Y0048363D01*
X0140106Y0048598D02*
X0137784Y0048598D01*
X0137784Y0048833D02*
X0140106Y0048833D01*
X0140106Y0049938D02*
X0137784Y0049938D01*
X0137784Y0050488D01*
X0140106Y0050488D01*
X0140106Y0049938D01*
X0140106Y0050173D02*
X0137784Y0050173D01*
X0137784Y0050408D02*
X0140106Y0050408D01*
X0140106Y0051512D02*
X0137784Y0051512D01*
X0137784Y0052062D01*
X0140106Y0052062D01*
X0140106Y0051512D01*
X0140106Y0051747D02*
X0137784Y0051747D01*
X0137784Y0051982D02*
X0140106Y0051982D01*
X0140106Y0053087D02*
X0137784Y0053087D01*
X0137784Y0053637D01*
X0140106Y0053637D01*
X0140106Y0053087D01*
X0140106Y0053322D02*
X0137784Y0053322D01*
X0137784Y0053557D02*
X0140106Y0053557D01*
X0140106Y0054662D02*
X0137784Y0054662D01*
X0137784Y0055212D01*
X0140106Y0055212D01*
X0140106Y0054662D01*
X0140106Y0054897D02*
X0137784Y0054897D01*
X0137784Y0055132D02*
X0140106Y0055132D01*
X0141819Y0056926D02*
X0141819Y0059248D01*
X0142369Y0059248D01*
X0142369Y0056926D01*
X0141819Y0056926D01*
X0141819Y0057161D02*
X0142369Y0057161D01*
X0142369Y0057396D02*
X0141819Y0057396D01*
X0141819Y0057631D02*
X0142369Y0057631D01*
X0142369Y0057866D02*
X0141819Y0057866D01*
X0141819Y0058101D02*
X0142369Y0058101D01*
X0142369Y0058336D02*
X0141819Y0058336D01*
X0141819Y0058571D02*
X0142369Y0058571D01*
X0142369Y0058806D02*
X0141819Y0058806D01*
X0141819Y0059041D02*
X0142369Y0059041D01*
X0143394Y0059248D02*
X0143394Y0056926D01*
X0143394Y0059248D02*
X0143944Y0059248D01*
X0143944Y0056926D01*
X0143394Y0056926D01*
X0143394Y0057161D02*
X0143944Y0057161D01*
X0143944Y0057396D02*
X0143394Y0057396D01*
X0143394Y0057631D02*
X0143944Y0057631D01*
X0143944Y0057866D02*
X0143394Y0057866D01*
X0143394Y0058101D02*
X0143944Y0058101D01*
X0143944Y0058336D02*
X0143394Y0058336D01*
X0143394Y0058571D02*
X0143944Y0058571D01*
X0143944Y0058806D02*
X0143394Y0058806D01*
X0143394Y0059041D02*
X0143944Y0059041D01*
X0144969Y0059248D02*
X0144969Y0056926D01*
X0144969Y0059248D02*
X0145519Y0059248D01*
X0145519Y0056926D01*
X0144969Y0056926D01*
X0144969Y0057161D02*
X0145519Y0057161D01*
X0145519Y0057396D02*
X0144969Y0057396D01*
X0144969Y0057631D02*
X0145519Y0057631D01*
X0145519Y0057866D02*
X0144969Y0057866D01*
X0144969Y0058101D02*
X0145519Y0058101D01*
X0145519Y0058336D02*
X0144969Y0058336D01*
X0144969Y0058571D02*
X0145519Y0058571D01*
X0145519Y0058806D02*
X0144969Y0058806D01*
X0144969Y0059041D02*
X0145519Y0059041D01*
X0146544Y0059248D02*
X0146544Y0056926D01*
X0146544Y0059248D02*
X0147094Y0059248D01*
X0147094Y0056926D01*
X0146544Y0056926D01*
X0146544Y0057161D02*
X0147094Y0057161D01*
X0147094Y0057396D02*
X0146544Y0057396D01*
X0146544Y0057631D02*
X0147094Y0057631D01*
X0147094Y0057866D02*
X0146544Y0057866D01*
X0146544Y0058101D02*
X0147094Y0058101D01*
X0147094Y0058336D02*
X0146544Y0058336D01*
X0146544Y0058571D02*
X0147094Y0058571D01*
X0147094Y0058806D02*
X0146544Y0058806D01*
X0146544Y0059041D02*
X0147094Y0059041D01*
X0148119Y0059248D02*
X0148119Y0056926D01*
X0148119Y0059248D02*
X0148669Y0059248D01*
X0148669Y0056926D01*
X0148119Y0056926D01*
X0148119Y0057161D02*
X0148669Y0057161D01*
X0148669Y0057396D02*
X0148119Y0057396D01*
X0148119Y0057631D02*
X0148669Y0057631D01*
X0148669Y0057866D02*
X0148119Y0057866D01*
X0148119Y0058101D02*
X0148669Y0058101D01*
X0148669Y0058336D02*
X0148119Y0058336D01*
X0148119Y0058571D02*
X0148669Y0058571D01*
X0148669Y0058806D02*
X0148119Y0058806D01*
X0148119Y0059041D02*
X0148669Y0059041D01*
X0149694Y0059248D02*
X0149694Y0056926D01*
X0149694Y0059248D02*
X0150244Y0059248D01*
X0150244Y0056926D01*
X0149694Y0056926D01*
X0149694Y0057161D02*
X0150244Y0057161D01*
X0150244Y0057396D02*
X0149694Y0057396D01*
X0149694Y0057631D02*
X0150244Y0057631D01*
X0150244Y0057866D02*
X0149694Y0057866D01*
X0149694Y0058101D02*
X0150244Y0058101D01*
X0150244Y0058336D02*
X0149694Y0058336D01*
X0149694Y0058571D02*
X0150244Y0058571D01*
X0150244Y0058806D02*
X0149694Y0058806D01*
X0149694Y0059041D02*
X0150244Y0059041D01*
X0151268Y0059248D02*
X0151268Y0056926D01*
X0151268Y0059248D02*
X0151818Y0059248D01*
X0151818Y0056926D01*
X0151268Y0056926D01*
X0151268Y0057161D02*
X0151818Y0057161D01*
X0151818Y0057396D02*
X0151268Y0057396D01*
X0151268Y0057631D02*
X0151818Y0057631D01*
X0151818Y0057866D02*
X0151268Y0057866D01*
X0151268Y0058101D02*
X0151818Y0058101D01*
X0151818Y0058336D02*
X0151268Y0058336D01*
X0151268Y0058571D02*
X0151818Y0058571D01*
X0151818Y0058806D02*
X0151268Y0058806D01*
X0151268Y0059041D02*
X0151818Y0059041D01*
X0152843Y0059248D02*
X0152843Y0056926D01*
X0152843Y0059248D02*
X0153393Y0059248D01*
X0153393Y0056926D01*
X0152843Y0056926D01*
X0152843Y0057161D02*
X0153393Y0057161D01*
X0153393Y0057396D02*
X0152843Y0057396D01*
X0152843Y0057631D02*
X0153393Y0057631D01*
X0153393Y0057866D02*
X0152843Y0057866D01*
X0152843Y0058101D02*
X0153393Y0058101D01*
X0153393Y0058336D02*
X0152843Y0058336D01*
X0152843Y0058571D02*
X0153393Y0058571D01*
X0153393Y0058806D02*
X0152843Y0058806D01*
X0152843Y0059041D02*
X0153393Y0059041D01*
X0154418Y0059248D02*
X0154418Y0056926D01*
X0154418Y0059248D02*
X0154968Y0059248D01*
X0154968Y0056926D01*
X0154418Y0056926D01*
X0154418Y0057161D02*
X0154968Y0057161D01*
X0154968Y0057396D02*
X0154418Y0057396D01*
X0154418Y0057631D02*
X0154968Y0057631D01*
X0154968Y0057866D02*
X0154418Y0057866D01*
X0154418Y0058101D02*
X0154968Y0058101D01*
X0154968Y0058336D02*
X0154418Y0058336D01*
X0154418Y0058571D02*
X0154968Y0058571D01*
X0154968Y0058806D02*
X0154418Y0058806D01*
X0154418Y0059041D02*
X0154968Y0059041D01*
X0155993Y0059248D02*
X0155993Y0056926D01*
X0155993Y0059248D02*
X0156543Y0059248D01*
X0156543Y0056926D01*
X0155993Y0056926D01*
X0155993Y0057161D02*
X0156543Y0057161D01*
X0156543Y0057396D02*
X0155993Y0057396D01*
X0155993Y0057631D02*
X0156543Y0057631D01*
X0156543Y0057866D02*
X0155993Y0057866D01*
X0155993Y0058101D02*
X0156543Y0058101D01*
X0156543Y0058336D02*
X0155993Y0058336D01*
X0155993Y0058571D02*
X0156543Y0058571D01*
X0156543Y0058806D02*
X0155993Y0058806D01*
X0155993Y0059041D02*
X0156543Y0059041D01*
X0157568Y0059248D02*
X0157568Y0056926D01*
X0157568Y0059248D02*
X0158118Y0059248D01*
X0158118Y0056926D01*
X0157568Y0056926D01*
X0157568Y0057161D02*
X0158118Y0057161D01*
X0158118Y0057396D02*
X0157568Y0057396D01*
X0157568Y0057631D02*
X0158118Y0057631D01*
X0158118Y0057866D02*
X0157568Y0057866D01*
X0157568Y0058101D02*
X0158118Y0058101D01*
X0158118Y0058336D02*
X0157568Y0058336D01*
X0157568Y0058571D02*
X0158118Y0058571D01*
X0158118Y0058806D02*
X0157568Y0058806D01*
X0157568Y0059041D02*
X0158118Y0059041D01*
X0159142Y0059248D02*
X0159142Y0056926D01*
X0159142Y0059248D02*
X0159692Y0059248D01*
X0159692Y0056926D01*
X0159142Y0056926D01*
X0159142Y0057161D02*
X0159692Y0057161D01*
X0159692Y0057396D02*
X0159142Y0057396D01*
X0159142Y0057631D02*
X0159692Y0057631D01*
X0159692Y0057866D02*
X0159142Y0057866D01*
X0159142Y0058101D02*
X0159692Y0058101D01*
X0159692Y0058336D02*
X0159142Y0058336D01*
X0159142Y0058571D02*
X0159692Y0058571D01*
X0159692Y0058806D02*
X0159142Y0058806D01*
X0159142Y0059041D02*
X0159692Y0059041D01*
X0161406Y0055212D02*
X0163728Y0055212D01*
X0163728Y0054662D01*
X0161406Y0054662D01*
X0161406Y0055212D01*
X0161406Y0054897D02*
X0163728Y0054897D01*
X0163728Y0055132D02*
X0161406Y0055132D01*
X0161406Y0053637D02*
X0163728Y0053637D01*
X0163728Y0053087D01*
X0161406Y0053087D01*
X0161406Y0053637D01*
X0161406Y0053322D02*
X0163728Y0053322D01*
X0163728Y0053557D02*
X0161406Y0053557D01*
X0161406Y0052062D02*
X0163728Y0052062D01*
X0163728Y0051512D01*
X0161406Y0051512D01*
X0161406Y0052062D01*
X0161406Y0051747D02*
X0163728Y0051747D01*
X0163728Y0051982D02*
X0161406Y0051982D01*
X0161406Y0050488D02*
X0163728Y0050488D01*
X0163728Y0049938D01*
X0161406Y0049938D01*
X0161406Y0050488D01*
X0161406Y0050173D02*
X0163728Y0050173D01*
X0163728Y0050408D02*
X0161406Y0050408D01*
X0161406Y0048913D02*
X0163728Y0048913D01*
X0163728Y0048363D01*
X0161406Y0048363D01*
X0161406Y0048913D01*
X0161406Y0048598D02*
X0163728Y0048598D01*
X0163728Y0048833D02*
X0161406Y0048833D01*
X0161406Y0047338D02*
X0163728Y0047338D01*
X0163728Y0046788D01*
X0161406Y0046788D01*
X0161406Y0047338D01*
X0161406Y0047023D02*
X0163728Y0047023D01*
X0163728Y0047258D02*
X0161406Y0047258D01*
X0161406Y0045763D02*
X0163728Y0045763D01*
X0163728Y0045213D01*
X0161406Y0045213D01*
X0161406Y0045763D01*
X0161406Y0045448D02*
X0163728Y0045448D01*
X0163728Y0045683D02*
X0161406Y0045683D01*
X0161406Y0044188D02*
X0163728Y0044188D01*
X0163728Y0043638D01*
X0161406Y0043638D01*
X0161406Y0044188D01*
X0161406Y0043873D02*
X0163728Y0043873D01*
X0163728Y0044108D02*
X0161406Y0044108D01*
X0161406Y0042614D02*
X0163728Y0042614D01*
X0163728Y0042064D01*
X0161406Y0042064D01*
X0161406Y0042614D01*
X0161406Y0042299D02*
X0163728Y0042299D01*
X0163728Y0042534D02*
X0161406Y0042534D01*
X0161406Y0041039D02*
X0163728Y0041039D01*
X0163728Y0040489D01*
X0161406Y0040489D01*
X0161406Y0041039D01*
X0161406Y0040724D02*
X0163728Y0040724D01*
X0163728Y0040959D02*
X0161406Y0040959D01*
X0161406Y0039464D02*
X0163728Y0039464D01*
X0163728Y0038914D01*
X0161406Y0038914D01*
X0161406Y0039464D01*
X0161406Y0039149D02*
X0163728Y0039149D01*
X0163728Y0039384D02*
X0161406Y0039384D01*
X0161406Y0037889D02*
X0163728Y0037889D01*
X0163728Y0037339D01*
X0161406Y0037339D01*
X0161406Y0037889D01*
X0161406Y0037574D02*
X0163728Y0037574D01*
X0163728Y0037809D02*
X0161406Y0037809D01*
X0159692Y0035626D02*
X0159692Y0033304D01*
X0159142Y0033304D01*
X0159142Y0035626D01*
X0159692Y0035626D01*
X0159692Y0033539D02*
X0159142Y0033539D01*
X0159142Y0033774D02*
X0159692Y0033774D01*
X0159692Y0034009D02*
X0159142Y0034009D01*
X0159142Y0034244D02*
X0159692Y0034244D01*
X0159692Y0034479D02*
X0159142Y0034479D01*
X0159142Y0034714D02*
X0159692Y0034714D01*
X0159692Y0034949D02*
X0159142Y0034949D01*
X0159142Y0035184D02*
X0159692Y0035184D01*
X0159692Y0035419D02*
X0159142Y0035419D01*
X0158118Y0035626D02*
X0158118Y0033304D01*
X0157568Y0033304D01*
X0157568Y0035626D01*
X0158118Y0035626D01*
X0158118Y0033539D02*
X0157568Y0033539D01*
X0157568Y0033774D02*
X0158118Y0033774D01*
X0158118Y0034009D02*
X0157568Y0034009D01*
X0157568Y0034244D02*
X0158118Y0034244D01*
X0158118Y0034479D02*
X0157568Y0034479D01*
X0157568Y0034714D02*
X0158118Y0034714D01*
X0158118Y0034949D02*
X0157568Y0034949D01*
X0157568Y0035184D02*
X0158118Y0035184D01*
X0158118Y0035419D02*
X0157568Y0035419D01*
X0156543Y0035626D02*
X0156543Y0033304D01*
X0155993Y0033304D01*
X0155993Y0035626D01*
X0156543Y0035626D01*
X0156543Y0033539D02*
X0155993Y0033539D01*
X0155993Y0033774D02*
X0156543Y0033774D01*
X0156543Y0034009D02*
X0155993Y0034009D01*
X0155993Y0034244D02*
X0156543Y0034244D01*
X0156543Y0034479D02*
X0155993Y0034479D01*
X0155993Y0034714D02*
X0156543Y0034714D01*
X0156543Y0034949D02*
X0155993Y0034949D01*
X0155993Y0035184D02*
X0156543Y0035184D01*
X0156543Y0035419D02*
X0155993Y0035419D01*
X0154968Y0035626D02*
X0154968Y0033304D01*
X0154418Y0033304D01*
X0154418Y0035626D01*
X0154968Y0035626D01*
X0154968Y0033539D02*
X0154418Y0033539D01*
X0154418Y0033774D02*
X0154968Y0033774D01*
X0154968Y0034009D02*
X0154418Y0034009D01*
X0154418Y0034244D02*
X0154968Y0034244D01*
X0154968Y0034479D02*
X0154418Y0034479D01*
X0154418Y0034714D02*
X0154968Y0034714D01*
X0154968Y0034949D02*
X0154418Y0034949D01*
X0154418Y0035184D02*
X0154968Y0035184D01*
X0154968Y0035419D02*
X0154418Y0035419D01*
X0153393Y0035626D02*
X0153393Y0033304D01*
X0152843Y0033304D01*
X0152843Y0035626D01*
X0153393Y0035626D01*
X0153393Y0033539D02*
X0152843Y0033539D01*
X0152843Y0033774D02*
X0153393Y0033774D01*
X0153393Y0034009D02*
X0152843Y0034009D01*
X0152843Y0034244D02*
X0153393Y0034244D01*
X0153393Y0034479D02*
X0152843Y0034479D01*
X0152843Y0034714D02*
X0153393Y0034714D01*
X0153393Y0034949D02*
X0152843Y0034949D01*
X0152843Y0035184D02*
X0153393Y0035184D01*
X0153393Y0035419D02*
X0152843Y0035419D01*
X0151818Y0035626D02*
X0151818Y0033304D01*
X0151268Y0033304D01*
X0151268Y0035626D01*
X0151818Y0035626D01*
X0151818Y0033539D02*
X0151268Y0033539D01*
X0151268Y0033774D02*
X0151818Y0033774D01*
X0151818Y0034009D02*
X0151268Y0034009D01*
X0151268Y0034244D02*
X0151818Y0034244D01*
X0151818Y0034479D02*
X0151268Y0034479D01*
X0151268Y0034714D02*
X0151818Y0034714D01*
X0151818Y0034949D02*
X0151268Y0034949D01*
X0151268Y0035184D02*
X0151818Y0035184D01*
X0151818Y0035419D02*
X0151268Y0035419D01*
X0150244Y0035626D02*
X0150244Y0033304D01*
X0149694Y0033304D01*
X0149694Y0035626D01*
X0150244Y0035626D01*
X0150244Y0033539D02*
X0149694Y0033539D01*
X0149694Y0033774D02*
X0150244Y0033774D01*
X0150244Y0034009D02*
X0149694Y0034009D01*
X0149694Y0034244D02*
X0150244Y0034244D01*
X0150244Y0034479D02*
X0149694Y0034479D01*
X0149694Y0034714D02*
X0150244Y0034714D01*
X0150244Y0034949D02*
X0149694Y0034949D01*
X0149694Y0035184D02*
X0150244Y0035184D01*
X0150244Y0035419D02*
X0149694Y0035419D01*
X0148669Y0035626D02*
X0148669Y0033304D01*
X0148119Y0033304D01*
X0148119Y0035626D01*
X0148669Y0035626D01*
X0148669Y0033539D02*
X0148119Y0033539D01*
X0148119Y0033774D02*
X0148669Y0033774D01*
X0148669Y0034009D02*
X0148119Y0034009D01*
X0148119Y0034244D02*
X0148669Y0034244D01*
X0148669Y0034479D02*
X0148119Y0034479D01*
X0148119Y0034714D02*
X0148669Y0034714D01*
X0148669Y0034949D02*
X0148119Y0034949D01*
X0148119Y0035184D02*
X0148669Y0035184D01*
X0148669Y0035419D02*
X0148119Y0035419D01*
X0147094Y0035626D02*
X0147094Y0033304D01*
X0146544Y0033304D01*
X0146544Y0035626D01*
X0147094Y0035626D01*
X0147094Y0033539D02*
X0146544Y0033539D01*
X0146544Y0033774D02*
X0147094Y0033774D01*
X0147094Y0034009D02*
X0146544Y0034009D01*
X0146544Y0034244D02*
X0147094Y0034244D01*
X0147094Y0034479D02*
X0146544Y0034479D01*
X0146544Y0034714D02*
X0147094Y0034714D01*
X0147094Y0034949D02*
X0146544Y0034949D01*
X0146544Y0035184D02*
X0147094Y0035184D01*
X0147094Y0035419D02*
X0146544Y0035419D01*
X0145519Y0035626D02*
X0145519Y0033304D01*
X0144969Y0033304D01*
X0144969Y0035626D01*
X0145519Y0035626D01*
X0145519Y0033539D02*
X0144969Y0033539D01*
X0144969Y0033774D02*
X0145519Y0033774D01*
X0145519Y0034009D02*
X0144969Y0034009D01*
X0144969Y0034244D02*
X0145519Y0034244D01*
X0145519Y0034479D02*
X0144969Y0034479D01*
X0144969Y0034714D02*
X0145519Y0034714D01*
X0145519Y0034949D02*
X0144969Y0034949D01*
X0144969Y0035184D02*
X0145519Y0035184D01*
X0145519Y0035419D02*
X0144969Y0035419D01*
X0143944Y0035626D02*
X0143944Y0033304D01*
X0143394Y0033304D01*
X0143394Y0035626D01*
X0143944Y0035626D01*
X0143944Y0033539D02*
X0143394Y0033539D01*
X0143394Y0033774D02*
X0143944Y0033774D01*
X0143944Y0034009D02*
X0143394Y0034009D01*
X0143394Y0034244D02*
X0143944Y0034244D01*
X0143944Y0034479D02*
X0143394Y0034479D01*
X0143394Y0034714D02*
X0143944Y0034714D01*
X0143944Y0034949D02*
X0143394Y0034949D01*
X0143394Y0035184D02*
X0143944Y0035184D01*
X0143944Y0035419D02*
X0143394Y0035419D01*
X0142369Y0035626D02*
X0142369Y0033304D01*
X0141819Y0033304D01*
X0141819Y0035626D01*
X0142369Y0035626D01*
X0142369Y0033539D02*
X0141819Y0033539D01*
X0141819Y0033774D02*
X0142369Y0033774D01*
X0142369Y0034009D02*
X0141819Y0034009D01*
X0141819Y0034244D02*
X0142369Y0034244D01*
X0142369Y0034479D02*
X0141819Y0034479D01*
X0141819Y0034714D02*
X0142369Y0034714D01*
X0142369Y0034949D02*
X0141819Y0034949D01*
X0141819Y0035184D02*
X0142369Y0035184D01*
X0142369Y0035419D02*
X0141819Y0035419D01*
D11*
X0150756Y0046276D03*
D12*
X0170736Y0064484D03*
X0176445Y0064484D03*
X0176445Y0069012D03*
X0170736Y0069012D03*
D13*
X0165717Y0068913D03*
X0161780Y0068913D03*
X0161780Y0064583D03*
X0165717Y0064583D03*
X0171425Y0059268D03*
X0175756Y0059268D03*
X0175756Y0055331D03*
X0171425Y0055331D03*
X0171228Y0048441D03*
X0171228Y0044110D03*
X0175362Y0044110D03*
X0179693Y0044110D03*
X0183827Y0043717D03*
X0183827Y0039386D03*
X0201937Y0043913D03*
X0201937Y0048244D03*
X0181465Y0064583D03*
X0181465Y0068913D03*
X0134024Y0071866D03*
X0129693Y0071866D03*
X0110205Y0069701D03*
X0106268Y0069701D03*
X0106268Y0065370D03*
X0110205Y0065370D03*
X0110205Y0059858D03*
X0106268Y0059858D03*
X0106268Y0055528D03*
X0110205Y0055528D03*
X0130480Y0055724D03*
X0134811Y0055724D03*
X0130677Y0035843D03*
X0126740Y0035843D03*
X0126740Y0031512D03*
X0130677Y0031512D03*
X0130677Y0027575D03*
X0126740Y0027575D03*
X0126740Y0023244D03*
X0130677Y0023244D03*
X0060047Y0028756D03*
X0060047Y0033087D03*
X0060047Y0037024D03*
X0060047Y0041354D03*
X0060047Y0051984D03*
X0060047Y0056315D03*
X0060047Y0064189D03*
X0060047Y0068520D03*
X0066937Y0074228D03*
X0071268Y0074228D03*
X0079535Y0074228D03*
X0083866Y0074228D03*
X0043118Y0069504D03*
X0038787Y0069504D03*
X0028551Y0069504D03*
X0024220Y0069504D03*
X0016150Y0073441D03*
X0011819Y0073441D03*
D14*
X0009654Y0068323D03*
X0015953Y0068323D03*
X0128709Y0066748D03*
X0135008Y0066748D03*
X0135008Y0060843D03*
X0128709Y0060843D03*
D15*
G36*
X0138806Y0028515D02*
X0140476Y0030185D01*
X0142146Y0028515D01*
X0140476Y0026845D01*
X0138806Y0028515D01*
G37*
G36*
X0135744Y0025453D02*
X0137414Y0027123D01*
X0139084Y0025453D01*
X0137414Y0023783D01*
X0135744Y0025453D01*
G37*
D16*
X0089969Y0029740D03*
X0089969Y0036039D03*
X0089969Y0056512D03*
X0089969Y0062811D03*
X0143669Y0063992D03*
X0143669Y0070291D03*
D17*
X0116898Y0065370D03*
X0116898Y0055528D03*
D18*
X0189142Y0048146D03*
X0196622Y0048146D03*
X0196622Y0040075D03*
X0189142Y0040075D03*
D19*
X0188315Y0044110D03*
X0197449Y0044110D03*
D20*
X0111268Y0036197D03*
X0109299Y0036197D03*
X0107331Y0036197D03*
X0105362Y0036197D03*
X0103394Y0036197D03*
D21*
X0099850Y0027142D03*
X0114811Y0027142D03*
D22*
X0049181Y0036394D03*
X0049181Y0041394D03*
X0049181Y0046394D03*
X0049181Y0051394D03*
X0049181Y0056394D03*
X0033827Y0056394D03*
X0033827Y0051394D03*
X0033827Y0046394D03*
X0033827Y0041394D03*
X0033827Y0036394D03*
D23*
X0019535Y0041276D03*
X0019535Y0043835D03*
X0019535Y0046394D03*
X0019535Y0048953D03*
X0019535Y0051512D03*
D24*
X0018650Y0058992D03*
X0018650Y0033795D03*
D25*
X0009004Y0041669D03*
X0009004Y0051118D03*
D26*
X0067331Y0024228D03*
X0081898Y0024228D03*
X0081898Y0041551D03*
X0067331Y0041551D03*
X0067331Y0051787D03*
X0081898Y0051787D03*
X0081898Y0069110D03*
X0067331Y0069110D03*
D27*
X0064673Y0060449D03*
X0084555Y0060449D03*
X0084555Y0032890D03*
X0064673Y0032890D03*
M02*
