G75*
%MOIN*%
%OFA0B0*%
%FSLAX25Y25*%
%IPPOS*%
%LPD*%
%AMOC8*
5,1,8,0,0,1.08239X$1,22.5*
%
%ADD10C,0.04362*%
%ADD11R,0.09252X0.13583*%
%ADD12R,0.09252X0.04528*%
%ADD13R,0.04921X0.04331*%
%ADD14R,0.04331X0.04921*%
%ADD15R,0.03150X0.03150*%
%ADD16R,0.06102X0.05512*%
%ADD17C,0.07874*%
%ADD18C,0.51969*%
%ADD19C,0.12598*%
%ADD20R,0.07087X0.07087*%
%ADD21C,0.07087*%
D10*
X0143669Y0039189D03*
X0148394Y0039189D03*
X0153118Y0039189D03*
X0157843Y0039189D03*
X0157843Y0043913D03*
X0153118Y0043913D03*
X0148394Y0043913D03*
X0143669Y0043913D03*
X0143669Y0048638D03*
X0148394Y0048638D03*
X0153118Y0048638D03*
X0157843Y0048638D03*
X0157843Y0053362D03*
X0153118Y0053362D03*
X0148394Y0053362D03*
X0143669Y0053362D03*
D11*
X0090362Y0046276D03*
D12*
X0113197Y0046276D03*
X0113197Y0037220D03*
X0113197Y0055331D03*
D13*
X0115559Y0024622D03*
X0109260Y0024622D03*
D14*
X0122252Y0046276D03*
X0122252Y0052575D03*
D15*
X0114575Y0029740D03*
X0110244Y0029740D03*
D16*
X0080520Y0046276D03*
X0080520Y0054543D03*
D17*
X0009004Y0059386D03*
X0009004Y0033402D03*
D18*
X0038748Y0046394D03*
D19*
X0038748Y0079602D03*
X0038748Y0013185D03*
D20*
X0008748Y0006394D03*
X0048748Y0006394D03*
X0028748Y0086394D03*
X0198748Y0086394D03*
D21*
X0188748Y0086394D03*
X0178748Y0086394D03*
X0168748Y0086394D03*
X0158748Y0086394D03*
X0148748Y0086394D03*
X0138748Y0086394D03*
X0128748Y0086394D03*
X0118748Y0086394D03*
X0108748Y0086394D03*
X0098748Y0086394D03*
X0088748Y0086394D03*
X0078748Y0086394D03*
X0068748Y0086394D03*
X0058748Y0086394D03*
X0048748Y0086394D03*
X0018748Y0086394D03*
X0008748Y0086394D03*
X0018748Y0006394D03*
X0028748Y0006394D03*
X0058748Y0006394D03*
X0068748Y0006394D03*
X0078748Y0006394D03*
X0088748Y0006394D03*
X0098748Y0006394D03*
X0108748Y0006394D03*
X0118748Y0006394D03*
X0128748Y0006394D03*
X0138748Y0006394D03*
X0148748Y0006394D03*
X0158748Y0006394D03*
X0168748Y0006394D03*
X0178748Y0006394D03*
X0188748Y0006394D03*
X0198748Y0006394D03*
M02*
