G75*
%MOIN*%
%OFA0B0*%
%FSLAX25Y25*%
%IPPOS*%
%LPD*%
%AMOC8*
5,1,8,0,0,1.08239X$1,22.5*
%
%ADD10C,0.00600*%
%ADD11C,0.01200*%
%ADD12C,0.00787*%
D10*
X0007001Y0012250D02*
X0007557Y0011694D01*
X0007001Y0012250D02*
X0007001Y0013364D01*
X0007557Y0013920D01*
X0008671Y0013920D01*
X0009227Y0013364D01*
X0009227Y0012807D01*
X0008671Y0011694D01*
X0010341Y0011694D01*
X0010341Y0013920D01*
X0010341Y0015319D02*
X0008114Y0015319D01*
X0007001Y0016432D01*
X0008114Y0017545D01*
X0010341Y0017545D01*
X0009784Y0018944D02*
X0007557Y0018944D01*
X0009784Y0021171D01*
X0007557Y0021171D01*
X0007001Y0020614D01*
X0007001Y0019501D01*
X0007557Y0018944D01*
X0009784Y0018944D02*
X0010341Y0019501D01*
X0010341Y0020614D01*
X0009784Y0021171D01*
X0017080Y0020614D02*
X0017080Y0019501D01*
X0017636Y0018944D01*
X0018749Y0020057D02*
X0018749Y0020614D01*
X0018193Y0021171D01*
X0017636Y0021171D01*
X0017080Y0020614D01*
X0018749Y0020614D02*
X0019306Y0021171D01*
X0019863Y0021171D01*
X0020419Y0020614D01*
X0020419Y0019501D01*
X0019863Y0018944D01*
X0020419Y0017545D02*
X0018193Y0017545D01*
X0017080Y0016432D01*
X0018193Y0015319D01*
X0020419Y0015319D01*
X0019863Y0013920D02*
X0019306Y0013920D01*
X0018749Y0013364D01*
X0018193Y0013920D01*
X0017636Y0013920D01*
X0017080Y0013364D01*
X0017080Y0012250D01*
X0017636Y0011694D01*
X0018749Y0012807D02*
X0018749Y0013364D01*
X0019863Y0013920D02*
X0020419Y0013364D01*
X0020419Y0012250D01*
X0019863Y0011694D01*
X0027158Y0012250D02*
X0027715Y0011694D01*
X0029941Y0011694D01*
X0030498Y0012250D01*
X0030498Y0013364D01*
X0029941Y0013920D01*
X0028828Y0013920D02*
X0028828Y0012807D01*
X0027715Y0013920D02*
X0027158Y0013364D01*
X0027158Y0012250D01*
X0027715Y0013920D02*
X0028828Y0013920D01*
X0027158Y0015319D02*
X0030498Y0015319D01*
X0027158Y0017545D01*
X0030498Y0017545D01*
X0030498Y0018944D02*
X0027158Y0018944D01*
X0027158Y0020614D01*
X0027715Y0021171D01*
X0029941Y0021171D01*
X0030498Y0020614D01*
X0030498Y0018944D01*
X0047080Y0016989D02*
X0047080Y0015875D01*
X0047636Y0015319D01*
X0048749Y0015875D02*
X0049306Y0015319D01*
X0049863Y0015319D01*
X0050419Y0015875D01*
X0050419Y0016989D01*
X0049863Y0017545D01*
X0047636Y0017545D01*
X0047080Y0016989D01*
X0048749Y0017545D02*
X0048749Y0015875D01*
X0047636Y0013920D02*
X0047080Y0013364D01*
X0047080Y0012250D01*
X0047636Y0011694D01*
X0049863Y0013920D01*
X0047636Y0013920D01*
X0049863Y0013920D02*
X0050419Y0013364D01*
X0050419Y0012250D01*
X0049863Y0011694D01*
X0047636Y0011694D01*
X0057080Y0011694D02*
X0057080Y0013920D01*
X0057636Y0015319D02*
X0059863Y0017545D01*
X0057636Y0017545D01*
X0057080Y0016989D01*
X0057080Y0015875D01*
X0057636Y0015319D01*
X0059863Y0015319D01*
X0060419Y0015875D01*
X0060419Y0016989D01*
X0059863Y0017545D01*
X0067080Y0017545D02*
X0067080Y0015319D01*
X0067080Y0016432D02*
X0070419Y0016432D01*
X0069306Y0015319D01*
X0067080Y0013920D02*
X0067080Y0011694D01*
X0067080Y0012807D02*
X0070419Y0012807D01*
X0069306Y0011694D01*
X0077080Y0011694D02*
X0077080Y0013920D01*
X0077080Y0015319D02*
X0079306Y0017545D01*
X0079863Y0017545D01*
X0080419Y0016989D01*
X0080419Y0015875D01*
X0079863Y0015319D01*
X0077080Y0015319D02*
X0077080Y0017545D01*
X0087080Y0016989D02*
X0087080Y0015875D01*
X0087636Y0015319D01*
X0087080Y0013920D02*
X0087080Y0011694D01*
X0087080Y0012807D02*
X0090419Y0012807D01*
X0089306Y0011694D01*
X0089863Y0015319D02*
X0090419Y0015875D01*
X0090419Y0016989D01*
X0089863Y0017545D01*
X0089306Y0017545D01*
X0088749Y0016989D01*
X0088193Y0017545D01*
X0087636Y0017545D01*
X0087080Y0016989D01*
X0088749Y0016989D02*
X0088749Y0016432D01*
X0097080Y0016989D02*
X0100419Y0016989D01*
X0098749Y0015319D01*
X0098749Y0017545D01*
X0097080Y0013920D02*
X0097080Y0011694D01*
X0097080Y0012807D02*
X0100419Y0012807D01*
X0099306Y0011694D01*
X0107080Y0011694D02*
X0107080Y0013920D01*
X0107636Y0015319D02*
X0107080Y0015875D01*
X0107080Y0016989D01*
X0107636Y0017545D01*
X0108749Y0017545D01*
X0109306Y0016989D01*
X0109306Y0016432D01*
X0108749Y0015319D01*
X0110419Y0015319D01*
X0110419Y0017545D01*
X0117080Y0016989D02*
X0117080Y0015875D01*
X0117636Y0015319D01*
X0118749Y0015319D01*
X0118749Y0016989D01*
X0118193Y0017545D01*
X0117636Y0017545D01*
X0117080Y0016989D01*
X0118749Y0015319D02*
X0119863Y0016432D01*
X0120419Y0017545D01*
X0117080Y0013920D02*
X0117080Y0011694D01*
X0117080Y0012807D02*
X0120419Y0012807D01*
X0119306Y0011694D01*
X0127080Y0011694D02*
X0127080Y0013920D01*
X0127080Y0015319D02*
X0127636Y0015319D01*
X0129863Y0017545D01*
X0130419Y0017545D01*
X0130419Y0015319D01*
X0130419Y0012807D02*
X0127080Y0012807D01*
X0129306Y0011694D02*
X0130419Y0012807D01*
X0137080Y0012807D02*
X0140419Y0012807D01*
X0139306Y0011694D01*
X0137080Y0011694D02*
X0137080Y0013920D01*
X0137636Y0015319D02*
X0138193Y0015319D01*
X0138749Y0015875D01*
X0138749Y0016989D01*
X0138193Y0017545D01*
X0137636Y0017545D01*
X0137080Y0016989D01*
X0137080Y0015875D01*
X0137636Y0015319D01*
X0138749Y0015875D02*
X0139306Y0015319D01*
X0139863Y0015319D01*
X0140419Y0015875D01*
X0140419Y0016989D01*
X0139863Y0017545D01*
X0139306Y0017545D01*
X0138749Y0016989D01*
X0147080Y0016989D02*
X0147080Y0015875D01*
X0147636Y0015319D01*
X0148749Y0015875D02*
X0148749Y0017545D01*
X0147636Y0017545D02*
X0149863Y0017545D01*
X0150419Y0016989D01*
X0150419Y0015875D01*
X0149863Y0015319D01*
X0149306Y0015319D01*
X0148749Y0015875D01*
X0147080Y0016989D02*
X0147636Y0017545D01*
X0147080Y0013920D02*
X0147080Y0011694D01*
X0147080Y0012807D02*
X0150419Y0012807D01*
X0149306Y0011694D01*
X0157080Y0011694D02*
X0157080Y0013920D01*
X0157636Y0015319D02*
X0159863Y0017545D01*
X0157636Y0017545D01*
X0157080Y0016989D01*
X0157080Y0015875D01*
X0157636Y0015319D01*
X0159863Y0015319D01*
X0160419Y0015875D01*
X0160419Y0016989D01*
X0159863Y0017545D01*
X0159863Y0013920D02*
X0159306Y0013920D01*
X0157080Y0011694D01*
X0159863Y0011694D02*
X0160419Y0012250D01*
X0160419Y0013364D01*
X0159863Y0013920D01*
X0167080Y0013920D02*
X0167080Y0011694D01*
X0169306Y0013920D01*
X0169863Y0013920D01*
X0170419Y0013364D01*
X0170419Y0012250D01*
X0169863Y0011694D01*
X0177080Y0011694D02*
X0177080Y0013920D01*
X0177080Y0015319D02*
X0179306Y0017545D01*
X0179863Y0017545D01*
X0180419Y0016989D01*
X0180419Y0015875D01*
X0179863Y0015319D01*
X0179863Y0013920D02*
X0180419Y0013364D01*
X0180419Y0012250D01*
X0179863Y0011694D01*
X0179306Y0013920D02*
X0177080Y0011694D01*
X0179306Y0013920D02*
X0179863Y0013920D01*
X0177080Y0015319D02*
X0177080Y0017545D01*
X0170419Y0016432D02*
X0169306Y0015319D01*
X0170419Y0016432D02*
X0167080Y0016432D01*
X0167080Y0015319D02*
X0167080Y0017545D01*
X0187080Y0016989D02*
X0187080Y0015875D01*
X0187636Y0015319D01*
X0187080Y0013920D02*
X0187080Y0011694D01*
X0189306Y0013920D01*
X0189863Y0013920D01*
X0190419Y0013364D01*
X0190419Y0012250D01*
X0189863Y0011694D01*
X0197080Y0011694D02*
X0197080Y0013920D01*
X0198749Y0015319D02*
X0198749Y0017545D01*
X0197080Y0016989D02*
X0200419Y0016989D01*
X0198749Y0015319D01*
X0199306Y0013920D02*
X0199863Y0013920D01*
X0200419Y0013364D01*
X0200419Y0012250D01*
X0199863Y0011694D01*
X0199306Y0013920D02*
X0197080Y0011694D01*
X0190419Y0015875D02*
X0189863Y0015319D01*
X0190419Y0015875D02*
X0190419Y0016989D01*
X0189863Y0017545D01*
X0189306Y0017545D01*
X0188749Y0016989D01*
X0188193Y0017545D01*
X0187636Y0017545D01*
X0187080Y0016989D01*
X0188749Y0016989D02*
X0188749Y0016432D01*
X0110419Y0012807D02*
X0107080Y0012807D01*
X0109306Y0011694D02*
X0110419Y0012807D01*
X0089412Y0025912D02*
X0088855Y0025355D01*
X0087742Y0025355D01*
X0087185Y0025912D01*
X0085786Y0026468D02*
X0084116Y0026468D01*
X0083560Y0027025D01*
X0083560Y0028138D01*
X0084116Y0028695D01*
X0085786Y0028695D01*
X0085786Y0025355D01*
X0084673Y0026468D02*
X0083560Y0025355D01*
X0082161Y0025355D02*
X0079935Y0025355D01*
X0081048Y0025355D02*
X0081048Y0028695D01*
X0082161Y0027582D01*
X0078536Y0027025D02*
X0078536Y0025912D01*
X0077979Y0025355D01*
X0076866Y0025355D01*
X0076310Y0025912D01*
X0076310Y0026468D01*
X0076866Y0027025D01*
X0078536Y0027025D01*
X0077423Y0028138D01*
X0076310Y0028695D01*
X0074911Y0028138D02*
X0074354Y0028695D01*
X0073241Y0028695D01*
X0072684Y0028138D01*
X0072684Y0027582D01*
X0073241Y0027025D01*
X0072684Y0026468D01*
X0072684Y0025912D01*
X0073241Y0025355D01*
X0074354Y0025355D01*
X0074911Y0025912D01*
X0073798Y0027025D02*
X0073241Y0027025D01*
X0071286Y0028138D02*
X0070729Y0028695D01*
X0069616Y0028695D01*
X0069059Y0028138D01*
X0069059Y0027582D01*
X0071286Y0025355D01*
X0069059Y0025355D01*
X0087185Y0028138D02*
X0087742Y0028695D01*
X0088855Y0028695D01*
X0089412Y0028138D01*
X0089412Y0025912D01*
X0080419Y0012807D02*
X0077080Y0012807D01*
X0079306Y0011694D02*
X0080419Y0012807D01*
X0060419Y0012807D02*
X0059306Y0011694D01*
X0060419Y0012807D02*
X0057080Y0012807D01*
X0029784Y0071369D02*
X0027557Y0071369D01*
X0027001Y0071926D01*
X0027001Y0073039D01*
X0027557Y0073596D01*
X0028671Y0073596D01*
X0028671Y0072483D01*
X0029784Y0073596D02*
X0030341Y0073039D01*
X0030341Y0071926D01*
X0029784Y0071369D01*
X0030341Y0074995D02*
X0027001Y0074995D01*
X0027001Y0077221D02*
X0030341Y0074995D01*
X0030341Y0077221D02*
X0027001Y0077221D01*
X0027001Y0078620D02*
X0027001Y0080290D01*
X0027557Y0080846D01*
X0029784Y0080846D01*
X0030341Y0080290D01*
X0030341Y0078620D01*
X0027001Y0078620D01*
X0020341Y0078783D02*
X0020341Y0079896D01*
X0019784Y0080453D01*
X0019227Y0080453D01*
X0018671Y0079896D01*
X0018114Y0080453D01*
X0017557Y0080453D01*
X0017001Y0079896D01*
X0017001Y0078783D01*
X0017557Y0078226D01*
X0018671Y0079339D02*
X0018671Y0079896D01*
X0019784Y0078226D02*
X0020341Y0078783D01*
X0020341Y0076827D02*
X0018114Y0076827D01*
X0017001Y0075714D01*
X0018114Y0074601D01*
X0020341Y0074601D01*
X0019784Y0073202D02*
X0019227Y0073202D01*
X0018671Y0072646D01*
X0018114Y0073202D01*
X0017557Y0073202D01*
X0017001Y0072646D01*
X0017001Y0071532D01*
X0017557Y0070976D01*
X0018671Y0072089D02*
X0018671Y0072646D01*
X0019784Y0073202D02*
X0020341Y0072646D01*
X0020341Y0071532D01*
X0019784Y0070976D01*
X0010341Y0070976D02*
X0008671Y0070976D01*
X0009227Y0072089D01*
X0009227Y0072646D01*
X0008671Y0073202D01*
X0007557Y0073202D01*
X0007001Y0072646D01*
X0007001Y0071532D01*
X0007557Y0070976D01*
X0010341Y0070976D02*
X0010341Y0073202D01*
X0010341Y0074601D02*
X0008114Y0074601D01*
X0007001Y0075714D01*
X0008114Y0076827D01*
X0010341Y0076827D01*
X0009784Y0078226D02*
X0007557Y0078226D01*
X0009784Y0080453D01*
X0007557Y0080453D01*
X0007001Y0079896D01*
X0007001Y0078783D01*
X0007557Y0078226D01*
X0009784Y0078226D02*
X0010341Y0078783D01*
X0010341Y0079896D01*
X0009784Y0080453D01*
X0047080Y0079738D02*
X0047080Y0078625D01*
X0047636Y0078069D01*
X0048193Y0078069D01*
X0048749Y0078625D01*
X0048749Y0079738D01*
X0048193Y0080295D01*
X0047636Y0080295D01*
X0047080Y0079738D01*
X0048749Y0079738D02*
X0049306Y0080295D01*
X0049863Y0080295D01*
X0050419Y0079738D01*
X0050419Y0078625D01*
X0049863Y0078069D01*
X0049306Y0078069D01*
X0048749Y0078625D01*
X0047636Y0076670D02*
X0047080Y0076113D01*
X0047080Y0075000D01*
X0047636Y0074443D01*
X0049863Y0076670D01*
X0047636Y0076670D01*
X0049863Y0076670D02*
X0050419Y0076113D01*
X0050419Y0075000D01*
X0049863Y0074443D01*
X0047636Y0074443D01*
X0057080Y0075000D02*
X0057636Y0074443D01*
X0059863Y0076670D01*
X0057636Y0076670D01*
X0057080Y0076113D01*
X0057080Y0075000D01*
X0057636Y0074443D02*
X0059863Y0074443D01*
X0060419Y0075000D01*
X0060419Y0076113D01*
X0059863Y0076670D01*
X0060419Y0078069D02*
X0060419Y0080295D01*
X0059863Y0080295D01*
X0057636Y0078069D01*
X0057080Y0078069D01*
X0067080Y0078625D02*
X0067080Y0079738D01*
X0067636Y0080295D01*
X0068193Y0080295D01*
X0068749Y0079738D01*
X0068749Y0078069D01*
X0067636Y0078069D01*
X0067080Y0078625D01*
X0068749Y0078069D02*
X0069863Y0079182D01*
X0070419Y0080295D01*
X0077080Y0079738D02*
X0077080Y0078625D01*
X0077636Y0078069D01*
X0078749Y0078069D02*
X0079306Y0079182D01*
X0079306Y0079738D01*
X0078749Y0080295D01*
X0077636Y0080295D01*
X0077080Y0079738D01*
X0078749Y0078069D02*
X0080419Y0078069D01*
X0080419Y0080295D01*
X0087080Y0079738D02*
X0090419Y0079738D01*
X0088749Y0078069D01*
X0088749Y0080295D01*
X0087636Y0076670D02*
X0087080Y0076113D01*
X0087080Y0075000D01*
X0087636Y0074443D01*
X0089863Y0076670D01*
X0087636Y0076670D01*
X0089863Y0076670D02*
X0090419Y0076113D01*
X0090419Y0075000D01*
X0089863Y0074443D01*
X0087636Y0074443D01*
X0080419Y0075000D02*
X0080419Y0076113D01*
X0079863Y0076670D01*
X0077636Y0074443D01*
X0077080Y0075000D01*
X0077080Y0076113D01*
X0077636Y0076670D01*
X0079863Y0076670D01*
X0080419Y0075000D02*
X0079863Y0074443D01*
X0077636Y0074443D01*
X0070419Y0075000D02*
X0070419Y0076113D01*
X0069863Y0076670D01*
X0067636Y0074443D01*
X0067080Y0075000D01*
X0067080Y0076113D01*
X0067636Y0076670D01*
X0069863Y0076670D01*
X0070419Y0075000D02*
X0069863Y0074443D01*
X0067636Y0074443D01*
X0097080Y0075000D02*
X0097636Y0074443D01*
X0099863Y0076670D01*
X0097636Y0076670D01*
X0097080Y0076113D01*
X0097080Y0075000D01*
X0097636Y0074443D02*
X0099863Y0074443D01*
X0100419Y0075000D01*
X0100419Y0076113D01*
X0099863Y0076670D01*
X0099863Y0078069D02*
X0100419Y0078625D01*
X0100419Y0079738D01*
X0099863Y0080295D01*
X0099306Y0080295D01*
X0098749Y0079738D01*
X0098193Y0080295D01*
X0097636Y0080295D01*
X0097080Y0079738D01*
X0097080Y0078625D01*
X0097636Y0078069D01*
X0098749Y0079182D02*
X0098749Y0079738D01*
X0107080Y0080295D02*
X0107080Y0078069D01*
X0109306Y0080295D01*
X0109863Y0080295D01*
X0110419Y0079738D01*
X0110419Y0078625D01*
X0109863Y0078069D01*
X0109863Y0076670D02*
X0107636Y0076670D01*
X0107080Y0076113D01*
X0107080Y0075000D01*
X0107636Y0074443D01*
X0109863Y0076670D01*
X0110419Y0076113D01*
X0110419Y0075000D01*
X0109863Y0074443D01*
X0107636Y0074443D01*
X0117080Y0075000D02*
X0117636Y0074443D01*
X0119863Y0076670D01*
X0117636Y0076670D01*
X0117080Y0076113D01*
X0117080Y0075000D01*
X0117636Y0074443D02*
X0119863Y0074443D01*
X0120419Y0075000D01*
X0120419Y0076113D01*
X0119863Y0076670D01*
X0119306Y0078069D02*
X0120419Y0079182D01*
X0117080Y0079182D01*
X0117080Y0078069D02*
X0117080Y0080295D01*
X0127080Y0079738D02*
X0127080Y0078625D01*
X0127636Y0078069D01*
X0129863Y0080295D01*
X0127636Y0080295D01*
X0127080Y0079738D01*
X0127636Y0078069D02*
X0129863Y0078069D01*
X0130419Y0078625D01*
X0130419Y0079738D01*
X0129863Y0080295D01*
X0137080Y0080295D02*
X0137080Y0078069D01*
X0137080Y0079182D02*
X0140419Y0079182D01*
X0139306Y0078069D01*
X0139306Y0076670D02*
X0138749Y0076113D01*
X0138193Y0076670D01*
X0137636Y0076670D01*
X0137080Y0076113D01*
X0137080Y0075000D01*
X0137636Y0074443D01*
X0138749Y0075557D02*
X0138749Y0076113D01*
X0139306Y0076670D02*
X0139863Y0076670D01*
X0140419Y0076113D01*
X0140419Y0075000D01*
X0139863Y0074443D01*
X0147080Y0075000D02*
X0147636Y0074443D01*
X0147080Y0075000D02*
X0147080Y0076113D01*
X0147636Y0076670D01*
X0148193Y0076670D01*
X0148749Y0076113D01*
X0148749Y0075557D01*
X0148749Y0076113D02*
X0149306Y0076670D01*
X0149863Y0076670D01*
X0150419Y0076113D01*
X0150419Y0075000D01*
X0149863Y0074443D01*
X0157080Y0074443D02*
X0159306Y0076670D01*
X0159863Y0076670D01*
X0160419Y0076113D01*
X0160419Y0075000D01*
X0159863Y0074443D01*
X0157080Y0074443D02*
X0157080Y0076670D01*
X0157636Y0078069D02*
X0157080Y0078625D01*
X0157080Y0079738D01*
X0157636Y0080295D01*
X0159863Y0080295D01*
X0160419Y0079738D01*
X0160419Y0078625D01*
X0159863Y0078069D01*
X0159306Y0078069D01*
X0158749Y0078625D01*
X0158749Y0080295D01*
X0150419Y0079738D02*
X0150419Y0078625D01*
X0149863Y0078069D01*
X0147636Y0078069D01*
X0149863Y0080295D01*
X0147636Y0080295D01*
X0147080Y0079738D01*
X0147080Y0078625D01*
X0147636Y0078069D01*
X0149863Y0080295D02*
X0150419Y0079738D01*
X0167080Y0079738D02*
X0167080Y0078625D01*
X0167636Y0078069D01*
X0168193Y0078069D01*
X0168749Y0078625D01*
X0168749Y0079738D01*
X0168193Y0080295D01*
X0167636Y0080295D01*
X0167080Y0079738D01*
X0168749Y0079738D02*
X0169306Y0080295D01*
X0169863Y0080295D01*
X0170419Y0079738D01*
X0170419Y0078625D01*
X0169863Y0078069D01*
X0169306Y0078069D01*
X0168749Y0078625D01*
X0169306Y0076670D02*
X0169863Y0076670D01*
X0170419Y0076113D01*
X0170419Y0075000D01*
X0169863Y0074443D01*
X0169306Y0076670D02*
X0167080Y0074443D01*
X0167080Y0076670D01*
X0177080Y0076670D02*
X0177080Y0074443D01*
X0179306Y0076670D01*
X0179863Y0076670D01*
X0180419Y0076113D01*
X0180419Y0075000D01*
X0179863Y0074443D01*
X0180419Y0078069D02*
X0180419Y0080295D01*
X0179863Y0080295D01*
X0177636Y0078069D01*
X0177080Y0078069D01*
X0187080Y0078625D02*
X0187080Y0079738D01*
X0187636Y0080295D01*
X0188193Y0080295D01*
X0188749Y0079738D01*
X0188749Y0078069D01*
X0187636Y0078069D01*
X0187080Y0078625D01*
X0188749Y0078069D02*
X0189863Y0079182D01*
X0190419Y0080295D01*
X0197080Y0079738D02*
X0197080Y0078625D01*
X0197636Y0078069D01*
X0198749Y0078069D02*
X0199306Y0079182D01*
X0199306Y0079738D01*
X0198749Y0080295D01*
X0197636Y0080295D01*
X0197080Y0079738D01*
X0198749Y0078069D02*
X0200419Y0078069D01*
X0200419Y0080295D01*
X0199863Y0076670D02*
X0200419Y0076113D01*
X0200419Y0075000D01*
X0199863Y0074443D01*
X0199306Y0076670D02*
X0197080Y0074443D01*
X0197080Y0076670D01*
X0199306Y0076670D02*
X0199863Y0076670D01*
X0190419Y0076113D02*
X0190419Y0075000D01*
X0189863Y0074443D01*
X0189306Y0076670D02*
X0187080Y0074443D01*
X0187080Y0076670D01*
X0189306Y0076670D02*
X0189863Y0076670D01*
X0190419Y0076113D01*
X0130419Y0076113D02*
X0130419Y0075000D01*
X0129863Y0074443D01*
X0127636Y0074443D01*
X0129863Y0076670D01*
X0127636Y0076670D01*
X0127080Y0076113D01*
X0127080Y0075000D01*
X0127636Y0074443D01*
X0129863Y0076670D02*
X0130419Y0076113D01*
D11*
X0131474Y0072059D02*
X0131474Y0065380D01*
X0128677Y0066493D02*
X0127563Y0065380D01*
X0125337Y0065380D01*
X0124224Y0066493D01*
X0121426Y0066493D02*
X0120313Y0065380D01*
X0118087Y0065380D01*
X0116973Y0066493D01*
X0116973Y0072059D01*
X0121426Y0072059D02*
X0121426Y0066493D01*
X0114176Y0064266D02*
X0109723Y0064266D01*
X0106926Y0065380D02*
X0103586Y0065380D01*
X0102473Y0066493D01*
X0102473Y0067606D01*
X0103586Y0068719D01*
X0106926Y0068719D01*
X0103586Y0068719D02*
X0102473Y0069833D01*
X0102473Y0070946D01*
X0103586Y0072059D01*
X0106926Y0072059D01*
X0106926Y0065380D01*
X0099676Y0066493D02*
X0098562Y0065380D01*
X0096336Y0065380D01*
X0095222Y0066493D01*
X0095222Y0068719D01*
X0096336Y0069833D01*
X0098562Y0069833D01*
X0099676Y0068719D01*
X0099676Y0066493D01*
X0092425Y0066493D02*
X0091312Y0067606D01*
X0087972Y0067606D01*
X0087972Y0068719D02*
X0087972Y0065380D01*
X0091312Y0065380D01*
X0092425Y0066493D01*
X0089085Y0069833D02*
X0087972Y0068719D01*
X0089085Y0069833D02*
X0091312Y0069833D01*
X0085175Y0069833D02*
X0085175Y0065380D01*
X0085175Y0067606D02*
X0082948Y0069833D01*
X0081835Y0069833D01*
X0079133Y0068719D02*
X0078020Y0069833D01*
X0074680Y0069833D01*
X0074680Y0072059D02*
X0074680Y0065380D01*
X0078020Y0065380D01*
X0079133Y0066493D01*
X0079133Y0068719D01*
X0124224Y0070946D02*
X0125337Y0072059D01*
X0127563Y0072059D01*
X0128677Y0070946D01*
X0128677Y0066493D01*
X0135927Y0065380D02*
X0135927Y0072059D01*
X0133700Y0069833D01*
X0131474Y0072059D01*
X0145974Y0070946D02*
X0145974Y0069833D01*
X0150428Y0065380D01*
X0145974Y0065380D01*
X0143177Y0064266D02*
X0138724Y0064266D01*
X0145974Y0070946D02*
X0147088Y0072059D01*
X0149314Y0072059D01*
X0150428Y0070946D01*
X0153225Y0070946D02*
X0153225Y0069833D01*
X0154338Y0068719D01*
X0153225Y0067606D01*
X0153225Y0066493D01*
X0154338Y0065380D01*
X0156565Y0065380D01*
X0157678Y0066493D01*
X0160475Y0066493D02*
X0161588Y0065380D01*
X0163815Y0065380D01*
X0164928Y0066493D01*
X0164928Y0067606D01*
X0163815Y0068719D01*
X0161588Y0068719D01*
X0160475Y0067606D01*
X0160475Y0066493D01*
X0161588Y0068719D02*
X0160475Y0069833D01*
X0160475Y0070946D01*
X0161588Y0072059D01*
X0163815Y0072059D01*
X0164928Y0070946D01*
X0164928Y0069833D01*
X0163815Y0068719D01*
X0167725Y0069833D02*
X0167725Y0070946D01*
X0168839Y0072059D01*
X0171065Y0072059D01*
X0172178Y0070946D01*
X0174976Y0072059D02*
X0179429Y0072059D01*
X0179429Y0068719D01*
X0177202Y0069833D01*
X0176089Y0069833D01*
X0174976Y0068719D01*
X0174976Y0066493D01*
X0176089Y0065380D01*
X0178315Y0065380D01*
X0179429Y0066493D01*
X0184452Y0068719D02*
X0186679Y0068719D01*
X0189476Y0068719D02*
X0190589Y0067606D01*
X0193929Y0067606D01*
X0191703Y0067606D02*
X0189476Y0065380D01*
X0186679Y0065380D02*
X0186679Y0072059D01*
X0182226Y0072059D01*
X0189476Y0070946D02*
X0189476Y0068719D01*
X0189476Y0070946D02*
X0190589Y0072059D01*
X0193929Y0072059D01*
X0193929Y0065380D01*
X0196726Y0065380D02*
X0196726Y0068719D01*
X0197840Y0069833D01*
X0201180Y0069833D01*
X0201180Y0065380D01*
X0172178Y0065380D02*
X0167725Y0069833D01*
X0157678Y0070946D02*
X0156565Y0072059D01*
X0154338Y0072059D01*
X0153225Y0070946D01*
X0154338Y0068719D02*
X0155451Y0068719D01*
X0167725Y0065380D02*
X0172178Y0065380D01*
D12*
X0112803Y0059268D02*
X0112805Y0059307D01*
X0112811Y0059346D01*
X0112821Y0059384D01*
X0112834Y0059421D01*
X0112851Y0059456D01*
X0112871Y0059490D01*
X0112895Y0059521D01*
X0112922Y0059550D01*
X0112951Y0059576D01*
X0112983Y0059599D01*
X0113017Y0059619D01*
X0113053Y0059635D01*
X0113090Y0059647D01*
X0113129Y0059656D01*
X0113168Y0059661D01*
X0113207Y0059662D01*
X0113246Y0059659D01*
X0113285Y0059652D01*
X0113322Y0059641D01*
X0113359Y0059627D01*
X0113394Y0059609D01*
X0113427Y0059588D01*
X0113458Y0059563D01*
X0113486Y0059536D01*
X0113511Y0059506D01*
X0113533Y0059473D01*
X0113552Y0059439D01*
X0113567Y0059403D01*
X0113579Y0059365D01*
X0113587Y0059327D01*
X0113591Y0059288D01*
X0113591Y0059248D01*
X0113587Y0059209D01*
X0113579Y0059171D01*
X0113567Y0059133D01*
X0113552Y0059097D01*
X0113533Y0059063D01*
X0113511Y0059030D01*
X0113486Y0059000D01*
X0113458Y0058973D01*
X0113427Y0058948D01*
X0113394Y0058927D01*
X0113359Y0058909D01*
X0113322Y0058895D01*
X0113285Y0058884D01*
X0113246Y0058877D01*
X0113207Y0058874D01*
X0113168Y0058875D01*
X0113129Y0058880D01*
X0113090Y0058889D01*
X0113053Y0058901D01*
X0113017Y0058917D01*
X0112983Y0058937D01*
X0112951Y0058960D01*
X0112922Y0058986D01*
X0112895Y0059015D01*
X0112871Y0059046D01*
X0112851Y0059080D01*
X0112834Y0059115D01*
X0112821Y0059152D01*
X0112811Y0059190D01*
X0112805Y0059229D01*
X0112803Y0059268D01*
X0107291Y0059268D02*
X0096268Y0059268D01*
X0096268Y0033283D01*
X0107291Y0033283D01*
X0107291Y0059268D01*
M02*
