G75*
%MOIN*%
%OFA0B0*%
%FSLAX25Y25*%
%IPPOS*%
%LPD*%
%AMOC8*
5,1,8,0,0,1.08239X$1,22.5*
%
%ADD10C,0.00000*%
%ADD11C,0.00236*%
%ADD12R,0.18504X0.18504*%
%ADD13C,0.03575*%
%ADD14R,0.03740X0.03346*%
%ADD15C,0.01000*%
%ADD16C,0.01000*%
%ADD17R,0.02362X0.02362*%
%ADD18R,0.04134X0.03543*%
%ADD19R,0.02362X0.02362*%
%ADD20R,0.03543X0.04134*%
%ADD21R,0.07087X0.03937*%
%ADD22R,0.03150X0.02953*%
%ADD23R,0.02283X0.01969*%
%ADD24R,0.01378X0.03150*%
%ADD25R,0.02362X0.10236*%
%ADD26R,0.09449X0.02992*%
%ADD27R,0.05315X0.01575*%
%ADD28R,0.06299X0.05512*%
%ADD29R,0.06102X0.07480*%
%ADD30C,0.07087*%
%ADD31C,0.11811*%
%ADD32R,0.02362X0.03937*%
%ADD33R,0.01772X0.03937*%
%ADD34R,0.06299X0.06299*%
%ADD35C,0.06299*%
%ADD36C,0.00787*%
%ADD37C,0.03175*%
%ADD38C,0.02362*%
%ADD39C,0.00591*%
%ADD40C,0.01575*%
%ADD41C,0.01600*%
D10*
X0003748Y0001394D02*
X0003748Y0091394D01*
X0222882Y0091394D01*
X0222882Y0001394D01*
X0003748Y0001394D01*
D11*
X0137784Y0037339D02*
X0140106Y0037339D01*
X0137784Y0037339D02*
X0137784Y0037889D01*
X0140106Y0037889D01*
X0140106Y0037339D01*
X0140106Y0037574D02*
X0137784Y0037574D01*
X0137784Y0037809D02*
X0140106Y0037809D01*
X0140106Y0038914D02*
X0137784Y0038914D01*
X0137784Y0039464D01*
X0140106Y0039464D01*
X0140106Y0038914D01*
X0140106Y0039149D02*
X0137784Y0039149D01*
X0137784Y0039384D02*
X0140106Y0039384D01*
X0140106Y0040489D02*
X0137784Y0040489D01*
X0137784Y0041039D01*
X0140106Y0041039D01*
X0140106Y0040489D01*
X0140106Y0040724D02*
X0137784Y0040724D01*
X0137784Y0040959D02*
X0140106Y0040959D01*
X0140106Y0042064D02*
X0137784Y0042064D01*
X0137784Y0042614D01*
X0140106Y0042614D01*
X0140106Y0042064D01*
X0140106Y0042299D02*
X0137784Y0042299D01*
X0137784Y0042534D02*
X0140106Y0042534D01*
X0140106Y0043638D02*
X0137784Y0043638D01*
X0137784Y0044188D01*
X0140106Y0044188D01*
X0140106Y0043638D01*
X0140106Y0043873D02*
X0137784Y0043873D01*
X0137784Y0044108D02*
X0140106Y0044108D01*
X0140106Y0045213D02*
X0137784Y0045213D01*
X0137784Y0045763D01*
X0140106Y0045763D01*
X0140106Y0045213D01*
X0140106Y0045448D02*
X0137784Y0045448D01*
X0137784Y0045683D02*
X0140106Y0045683D01*
X0140106Y0046788D02*
X0137784Y0046788D01*
X0137784Y0047338D01*
X0140106Y0047338D01*
X0140106Y0046788D01*
X0140106Y0047023D02*
X0137784Y0047023D01*
X0137784Y0047258D02*
X0140106Y0047258D01*
X0140106Y0048363D02*
X0137784Y0048363D01*
X0137784Y0048913D01*
X0140106Y0048913D01*
X0140106Y0048363D01*
X0140106Y0048598D02*
X0137784Y0048598D01*
X0137784Y0048833D02*
X0140106Y0048833D01*
X0140106Y0049938D02*
X0137784Y0049938D01*
X0137784Y0050488D01*
X0140106Y0050488D01*
X0140106Y0049938D01*
X0140106Y0050173D02*
X0137784Y0050173D01*
X0137784Y0050408D02*
X0140106Y0050408D01*
X0140106Y0051512D02*
X0137784Y0051512D01*
X0137784Y0052062D01*
X0140106Y0052062D01*
X0140106Y0051512D01*
X0140106Y0051747D02*
X0137784Y0051747D01*
X0137784Y0051982D02*
X0140106Y0051982D01*
X0140106Y0053087D02*
X0137784Y0053087D01*
X0137784Y0053637D01*
X0140106Y0053637D01*
X0140106Y0053087D01*
X0140106Y0053322D02*
X0137784Y0053322D01*
X0137784Y0053557D02*
X0140106Y0053557D01*
X0140106Y0054662D02*
X0137784Y0054662D01*
X0137784Y0055212D01*
X0140106Y0055212D01*
X0140106Y0054662D01*
X0140106Y0054897D02*
X0137784Y0054897D01*
X0137784Y0055132D02*
X0140106Y0055132D01*
X0141819Y0056926D02*
X0141819Y0059248D01*
X0142369Y0059248D01*
X0142369Y0056926D01*
X0141819Y0056926D01*
X0141819Y0057161D02*
X0142369Y0057161D01*
X0142369Y0057396D02*
X0141819Y0057396D01*
X0141819Y0057631D02*
X0142369Y0057631D01*
X0142369Y0057866D02*
X0141819Y0057866D01*
X0141819Y0058101D02*
X0142369Y0058101D01*
X0142369Y0058336D02*
X0141819Y0058336D01*
X0141819Y0058571D02*
X0142369Y0058571D01*
X0142369Y0058806D02*
X0141819Y0058806D01*
X0141819Y0059041D02*
X0142369Y0059041D01*
X0143394Y0059248D02*
X0143394Y0056926D01*
X0143394Y0059248D02*
X0143944Y0059248D01*
X0143944Y0056926D01*
X0143394Y0056926D01*
X0143394Y0057161D02*
X0143944Y0057161D01*
X0143944Y0057396D02*
X0143394Y0057396D01*
X0143394Y0057631D02*
X0143944Y0057631D01*
X0143944Y0057866D02*
X0143394Y0057866D01*
X0143394Y0058101D02*
X0143944Y0058101D01*
X0143944Y0058336D02*
X0143394Y0058336D01*
X0143394Y0058571D02*
X0143944Y0058571D01*
X0143944Y0058806D02*
X0143394Y0058806D01*
X0143394Y0059041D02*
X0143944Y0059041D01*
X0144969Y0059248D02*
X0144969Y0056926D01*
X0144969Y0059248D02*
X0145519Y0059248D01*
X0145519Y0056926D01*
X0144969Y0056926D01*
X0144969Y0057161D02*
X0145519Y0057161D01*
X0145519Y0057396D02*
X0144969Y0057396D01*
X0144969Y0057631D02*
X0145519Y0057631D01*
X0145519Y0057866D02*
X0144969Y0057866D01*
X0144969Y0058101D02*
X0145519Y0058101D01*
X0145519Y0058336D02*
X0144969Y0058336D01*
X0144969Y0058571D02*
X0145519Y0058571D01*
X0145519Y0058806D02*
X0144969Y0058806D01*
X0144969Y0059041D02*
X0145519Y0059041D01*
X0146544Y0059248D02*
X0146544Y0056926D01*
X0146544Y0059248D02*
X0147094Y0059248D01*
X0147094Y0056926D01*
X0146544Y0056926D01*
X0146544Y0057161D02*
X0147094Y0057161D01*
X0147094Y0057396D02*
X0146544Y0057396D01*
X0146544Y0057631D02*
X0147094Y0057631D01*
X0147094Y0057866D02*
X0146544Y0057866D01*
X0146544Y0058101D02*
X0147094Y0058101D01*
X0147094Y0058336D02*
X0146544Y0058336D01*
X0146544Y0058571D02*
X0147094Y0058571D01*
X0147094Y0058806D02*
X0146544Y0058806D01*
X0146544Y0059041D02*
X0147094Y0059041D01*
X0148119Y0059248D02*
X0148119Y0056926D01*
X0148119Y0059248D02*
X0148669Y0059248D01*
X0148669Y0056926D01*
X0148119Y0056926D01*
X0148119Y0057161D02*
X0148669Y0057161D01*
X0148669Y0057396D02*
X0148119Y0057396D01*
X0148119Y0057631D02*
X0148669Y0057631D01*
X0148669Y0057866D02*
X0148119Y0057866D01*
X0148119Y0058101D02*
X0148669Y0058101D01*
X0148669Y0058336D02*
X0148119Y0058336D01*
X0148119Y0058571D02*
X0148669Y0058571D01*
X0148669Y0058806D02*
X0148119Y0058806D01*
X0148119Y0059041D02*
X0148669Y0059041D01*
X0149694Y0059248D02*
X0149694Y0056926D01*
X0149694Y0059248D02*
X0150244Y0059248D01*
X0150244Y0056926D01*
X0149694Y0056926D01*
X0149694Y0057161D02*
X0150244Y0057161D01*
X0150244Y0057396D02*
X0149694Y0057396D01*
X0149694Y0057631D02*
X0150244Y0057631D01*
X0150244Y0057866D02*
X0149694Y0057866D01*
X0149694Y0058101D02*
X0150244Y0058101D01*
X0150244Y0058336D02*
X0149694Y0058336D01*
X0149694Y0058571D02*
X0150244Y0058571D01*
X0150244Y0058806D02*
X0149694Y0058806D01*
X0149694Y0059041D02*
X0150244Y0059041D01*
X0151268Y0059248D02*
X0151268Y0056926D01*
X0151268Y0059248D02*
X0151818Y0059248D01*
X0151818Y0056926D01*
X0151268Y0056926D01*
X0151268Y0057161D02*
X0151818Y0057161D01*
X0151818Y0057396D02*
X0151268Y0057396D01*
X0151268Y0057631D02*
X0151818Y0057631D01*
X0151818Y0057866D02*
X0151268Y0057866D01*
X0151268Y0058101D02*
X0151818Y0058101D01*
X0151818Y0058336D02*
X0151268Y0058336D01*
X0151268Y0058571D02*
X0151818Y0058571D01*
X0151818Y0058806D02*
X0151268Y0058806D01*
X0151268Y0059041D02*
X0151818Y0059041D01*
X0152843Y0059248D02*
X0152843Y0056926D01*
X0152843Y0059248D02*
X0153393Y0059248D01*
X0153393Y0056926D01*
X0152843Y0056926D01*
X0152843Y0057161D02*
X0153393Y0057161D01*
X0153393Y0057396D02*
X0152843Y0057396D01*
X0152843Y0057631D02*
X0153393Y0057631D01*
X0153393Y0057866D02*
X0152843Y0057866D01*
X0152843Y0058101D02*
X0153393Y0058101D01*
X0153393Y0058336D02*
X0152843Y0058336D01*
X0152843Y0058571D02*
X0153393Y0058571D01*
X0153393Y0058806D02*
X0152843Y0058806D01*
X0152843Y0059041D02*
X0153393Y0059041D01*
X0154418Y0059248D02*
X0154418Y0056926D01*
X0154418Y0059248D02*
X0154968Y0059248D01*
X0154968Y0056926D01*
X0154418Y0056926D01*
X0154418Y0057161D02*
X0154968Y0057161D01*
X0154968Y0057396D02*
X0154418Y0057396D01*
X0154418Y0057631D02*
X0154968Y0057631D01*
X0154968Y0057866D02*
X0154418Y0057866D01*
X0154418Y0058101D02*
X0154968Y0058101D01*
X0154968Y0058336D02*
X0154418Y0058336D01*
X0154418Y0058571D02*
X0154968Y0058571D01*
X0154968Y0058806D02*
X0154418Y0058806D01*
X0154418Y0059041D02*
X0154968Y0059041D01*
X0155993Y0059248D02*
X0155993Y0056926D01*
X0155993Y0059248D02*
X0156543Y0059248D01*
X0156543Y0056926D01*
X0155993Y0056926D01*
X0155993Y0057161D02*
X0156543Y0057161D01*
X0156543Y0057396D02*
X0155993Y0057396D01*
X0155993Y0057631D02*
X0156543Y0057631D01*
X0156543Y0057866D02*
X0155993Y0057866D01*
X0155993Y0058101D02*
X0156543Y0058101D01*
X0156543Y0058336D02*
X0155993Y0058336D01*
X0155993Y0058571D02*
X0156543Y0058571D01*
X0156543Y0058806D02*
X0155993Y0058806D01*
X0155993Y0059041D02*
X0156543Y0059041D01*
X0157568Y0059248D02*
X0157568Y0056926D01*
X0157568Y0059248D02*
X0158118Y0059248D01*
X0158118Y0056926D01*
X0157568Y0056926D01*
X0157568Y0057161D02*
X0158118Y0057161D01*
X0158118Y0057396D02*
X0157568Y0057396D01*
X0157568Y0057631D02*
X0158118Y0057631D01*
X0158118Y0057866D02*
X0157568Y0057866D01*
X0157568Y0058101D02*
X0158118Y0058101D01*
X0158118Y0058336D02*
X0157568Y0058336D01*
X0157568Y0058571D02*
X0158118Y0058571D01*
X0158118Y0058806D02*
X0157568Y0058806D01*
X0157568Y0059041D02*
X0158118Y0059041D01*
X0159142Y0059248D02*
X0159142Y0056926D01*
X0159142Y0059248D02*
X0159692Y0059248D01*
X0159692Y0056926D01*
X0159142Y0056926D01*
X0159142Y0057161D02*
X0159692Y0057161D01*
X0159692Y0057396D02*
X0159142Y0057396D01*
X0159142Y0057631D02*
X0159692Y0057631D01*
X0159692Y0057866D02*
X0159142Y0057866D01*
X0159142Y0058101D02*
X0159692Y0058101D01*
X0159692Y0058336D02*
X0159142Y0058336D01*
X0159142Y0058571D02*
X0159692Y0058571D01*
X0159692Y0058806D02*
X0159142Y0058806D01*
X0159142Y0059041D02*
X0159692Y0059041D01*
X0161406Y0055212D02*
X0163728Y0055212D01*
X0163728Y0054662D01*
X0161406Y0054662D01*
X0161406Y0055212D01*
X0161406Y0054897D02*
X0163728Y0054897D01*
X0163728Y0055132D02*
X0161406Y0055132D01*
X0161406Y0053637D02*
X0163728Y0053637D01*
X0163728Y0053087D01*
X0161406Y0053087D01*
X0161406Y0053637D01*
X0161406Y0053322D02*
X0163728Y0053322D01*
X0163728Y0053557D02*
X0161406Y0053557D01*
X0161406Y0052062D02*
X0163728Y0052062D01*
X0163728Y0051512D01*
X0161406Y0051512D01*
X0161406Y0052062D01*
X0161406Y0051747D02*
X0163728Y0051747D01*
X0163728Y0051982D02*
X0161406Y0051982D01*
X0161406Y0050488D02*
X0163728Y0050488D01*
X0163728Y0049938D01*
X0161406Y0049938D01*
X0161406Y0050488D01*
X0161406Y0050173D02*
X0163728Y0050173D01*
X0163728Y0050408D02*
X0161406Y0050408D01*
X0161406Y0048913D02*
X0163728Y0048913D01*
X0163728Y0048363D01*
X0161406Y0048363D01*
X0161406Y0048913D01*
X0161406Y0048598D02*
X0163728Y0048598D01*
X0163728Y0048833D02*
X0161406Y0048833D01*
X0161406Y0047338D02*
X0163728Y0047338D01*
X0163728Y0046788D01*
X0161406Y0046788D01*
X0161406Y0047338D01*
X0161406Y0047023D02*
X0163728Y0047023D01*
X0163728Y0047258D02*
X0161406Y0047258D01*
X0161406Y0045763D02*
X0163728Y0045763D01*
X0163728Y0045213D01*
X0161406Y0045213D01*
X0161406Y0045763D01*
X0161406Y0045448D02*
X0163728Y0045448D01*
X0163728Y0045683D02*
X0161406Y0045683D01*
X0161406Y0044188D02*
X0163728Y0044188D01*
X0163728Y0043638D01*
X0161406Y0043638D01*
X0161406Y0044188D01*
X0161406Y0043873D02*
X0163728Y0043873D01*
X0163728Y0044108D02*
X0161406Y0044108D01*
X0161406Y0042614D02*
X0163728Y0042614D01*
X0163728Y0042064D01*
X0161406Y0042064D01*
X0161406Y0042614D01*
X0161406Y0042299D02*
X0163728Y0042299D01*
X0163728Y0042534D02*
X0161406Y0042534D01*
X0161406Y0041039D02*
X0163728Y0041039D01*
X0163728Y0040489D01*
X0161406Y0040489D01*
X0161406Y0041039D01*
X0161406Y0040724D02*
X0163728Y0040724D01*
X0163728Y0040959D02*
X0161406Y0040959D01*
X0161406Y0039464D02*
X0163728Y0039464D01*
X0163728Y0038914D01*
X0161406Y0038914D01*
X0161406Y0039464D01*
X0161406Y0039149D02*
X0163728Y0039149D01*
X0163728Y0039384D02*
X0161406Y0039384D01*
X0161406Y0037889D02*
X0163728Y0037889D01*
X0163728Y0037339D01*
X0161406Y0037339D01*
X0161406Y0037889D01*
X0161406Y0037574D02*
X0163728Y0037574D01*
X0163728Y0037809D02*
X0161406Y0037809D01*
X0159692Y0035626D02*
X0159692Y0033304D01*
X0159142Y0033304D01*
X0159142Y0035626D01*
X0159692Y0035626D01*
X0159692Y0033539D02*
X0159142Y0033539D01*
X0159142Y0033774D02*
X0159692Y0033774D01*
X0159692Y0034009D02*
X0159142Y0034009D01*
X0159142Y0034244D02*
X0159692Y0034244D01*
X0159692Y0034479D02*
X0159142Y0034479D01*
X0159142Y0034714D02*
X0159692Y0034714D01*
X0159692Y0034949D02*
X0159142Y0034949D01*
X0159142Y0035184D02*
X0159692Y0035184D01*
X0159692Y0035419D02*
X0159142Y0035419D01*
X0158118Y0035626D02*
X0158118Y0033304D01*
X0157568Y0033304D01*
X0157568Y0035626D01*
X0158118Y0035626D01*
X0158118Y0033539D02*
X0157568Y0033539D01*
X0157568Y0033774D02*
X0158118Y0033774D01*
X0158118Y0034009D02*
X0157568Y0034009D01*
X0157568Y0034244D02*
X0158118Y0034244D01*
X0158118Y0034479D02*
X0157568Y0034479D01*
X0157568Y0034714D02*
X0158118Y0034714D01*
X0158118Y0034949D02*
X0157568Y0034949D01*
X0157568Y0035184D02*
X0158118Y0035184D01*
X0158118Y0035419D02*
X0157568Y0035419D01*
X0156543Y0035626D02*
X0156543Y0033304D01*
X0155993Y0033304D01*
X0155993Y0035626D01*
X0156543Y0035626D01*
X0156543Y0033539D02*
X0155993Y0033539D01*
X0155993Y0033774D02*
X0156543Y0033774D01*
X0156543Y0034009D02*
X0155993Y0034009D01*
X0155993Y0034244D02*
X0156543Y0034244D01*
X0156543Y0034479D02*
X0155993Y0034479D01*
X0155993Y0034714D02*
X0156543Y0034714D01*
X0156543Y0034949D02*
X0155993Y0034949D01*
X0155993Y0035184D02*
X0156543Y0035184D01*
X0156543Y0035419D02*
X0155993Y0035419D01*
X0154968Y0035626D02*
X0154968Y0033304D01*
X0154418Y0033304D01*
X0154418Y0035626D01*
X0154968Y0035626D01*
X0154968Y0033539D02*
X0154418Y0033539D01*
X0154418Y0033774D02*
X0154968Y0033774D01*
X0154968Y0034009D02*
X0154418Y0034009D01*
X0154418Y0034244D02*
X0154968Y0034244D01*
X0154968Y0034479D02*
X0154418Y0034479D01*
X0154418Y0034714D02*
X0154968Y0034714D01*
X0154968Y0034949D02*
X0154418Y0034949D01*
X0154418Y0035184D02*
X0154968Y0035184D01*
X0154968Y0035419D02*
X0154418Y0035419D01*
X0153393Y0035626D02*
X0153393Y0033304D01*
X0152843Y0033304D01*
X0152843Y0035626D01*
X0153393Y0035626D01*
X0153393Y0033539D02*
X0152843Y0033539D01*
X0152843Y0033774D02*
X0153393Y0033774D01*
X0153393Y0034009D02*
X0152843Y0034009D01*
X0152843Y0034244D02*
X0153393Y0034244D01*
X0153393Y0034479D02*
X0152843Y0034479D01*
X0152843Y0034714D02*
X0153393Y0034714D01*
X0153393Y0034949D02*
X0152843Y0034949D01*
X0152843Y0035184D02*
X0153393Y0035184D01*
X0153393Y0035419D02*
X0152843Y0035419D01*
X0151818Y0035626D02*
X0151818Y0033304D01*
X0151268Y0033304D01*
X0151268Y0035626D01*
X0151818Y0035626D01*
X0151818Y0033539D02*
X0151268Y0033539D01*
X0151268Y0033774D02*
X0151818Y0033774D01*
X0151818Y0034009D02*
X0151268Y0034009D01*
X0151268Y0034244D02*
X0151818Y0034244D01*
X0151818Y0034479D02*
X0151268Y0034479D01*
X0151268Y0034714D02*
X0151818Y0034714D01*
X0151818Y0034949D02*
X0151268Y0034949D01*
X0151268Y0035184D02*
X0151818Y0035184D01*
X0151818Y0035419D02*
X0151268Y0035419D01*
X0150244Y0035626D02*
X0150244Y0033304D01*
X0149694Y0033304D01*
X0149694Y0035626D01*
X0150244Y0035626D01*
X0150244Y0033539D02*
X0149694Y0033539D01*
X0149694Y0033774D02*
X0150244Y0033774D01*
X0150244Y0034009D02*
X0149694Y0034009D01*
X0149694Y0034244D02*
X0150244Y0034244D01*
X0150244Y0034479D02*
X0149694Y0034479D01*
X0149694Y0034714D02*
X0150244Y0034714D01*
X0150244Y0034949D02*
X0149694Y0034949D01*
X0149694Y0035184D02*
X0150244Y0035184D01*
X0150244Y0035419D02*
X0149694Y0035419D01*
X0148669Y0035626D02*
X0148669Y0033304D01*
X0148119Y0033304D01*
X0148119Y0035626D01*
X0148669Y0035626D01*
X0148669Y0033539D02*
X0148119Y0033539D01*
X0148119Y0033774D02*
X0148669Y0033774D01*
X0148669Y0034009D02*
X0148119Y0034009D01*
X0148119Y0034244D02*
X0148669Y0034244D01*
X0148669Y0034479D02*
X0148119Y0034479D01*
X0148119Y0034714D02*
X0148669Y0034714D01*
X0148669Y0034949D02*
X0148119Y0034949D01*
X0148119Y0035184D02*
X0148669Y0035184D01*
X0148669Y0035419D02*
X0148119Y0035419D01*
X0147094Y0035626D02*
X0147094Y0033304D01*
X0146544Y0033304D01*
X0146544Y0035626D01*
X0147094Y0035626D01*
X0147094Y0033539D02*
X0146544Y0033539D01*
X0146544Y0033774D02*
X0147094Y0033774D01*
X0147094Y0034009D02*
X0146544Y0034009D01*
X0146544Y0034244D02*
X0147094Y0034244D01*
X0147094Y0034479D02*
X0146544Y0034479D01*
X0146544Y0034714D02*
X0147094Y0034714D01*
X0147094Y0034949D02*
X0146544Y0034949D01*
X0146544Y0035184D02*
X0147094Y0035184D01*
X0147094Y0035419D02*
X0146544Y0035419D01*
X0145519Y0035626D02*
X0145519Y0033304D01*
X0144969Y0033304D01*
X0144969Y0035626D01*
X0145519Y0035626D01*
X0145519Y0033539D02*
X0144969Y0033539D01*
X0144969Y0033774D02*
X0145519Y0033774D01*
X0145519Y0034009D02*
X0144969Y0034009D01*
X0144969Y0034244D02*
X0145519Y0034244D01*
X0145519Y0034479D02*
X0144969Y0034479D01*
X0144969Y0034714D02*
X0145519Y0034714D01*
X0145519Y0034949D02*
X0144969Y0034949D01*
X0144969Y0035184D02*
X0145519Y0035184D01*
X0145519Y0035419D02*
X0144969Y0035419D01*
X0143944Y0035626D02*
X0143944Y0033304D01*
X0143394Y0033304D01*
X0143394Y0035626D01*
X0143944Y0035626D01*
X0143944Y0033539D02*
X0143394Y0033539D01*
X0143394Y0033774D02*
X0143944Y0033774D01*
X0143944Y0034009D02*
X0143394Y0034009D01*
X0143394Y0034244D02*
X0143944Y0034244D01*
X0143944Y0034479D02*
X0143394Y0034479D01*
X0143394Y0034714D02*
X0143944Y0034714D01*
X0143944Y0034949D02*
X0143394Y0034949D01*
X0143394Y0035184D02*
X0143944Y0035184D01*
X0143944Y0035419D02*
X0143394Y0035419D01*
X0142369Y0035626D02*
X0142369Y0033304D01*
X0141819Y0033304D01*
X0141819Y0035626D01*
X0142369Y0035626D01*
X0142369Y0033539D02*
X0141819Y0033539D01*
X0141819Y0033774D02*
X0142369Y0033774D01*
X0142369Y0034009D02*
X0141819Y0034009D01*
X0141819Y0034244D02*
X0142369Y0034244D01*
X0142369Y0034479D02*
X0141819Y0034479D01*
X0141819Y0034714D02*
X0142369Y0034714D01*
X0142369Y0034949D02*
X0141819Y0034949D01*
X0141819Y0035184D02*
X0142369Y0035184D01*
X0142369Y0035419D02*
X0141819Y0035419D01*
D12*
X0150756Y0046276D03*
D13*
X0153118Y0043913D03*
X0157843Y0043913D03*
X0157843Y0039189D03*
X0153118Y0039189D03*
X0148394Y0039189D03*
X0143669Y0039189D03*
X0143669Y0043913D03*
X0148394Y0043913D03*
X0148394Y0048638D03*
X0143669Y0048638D03*
X0143669Y0053362D03*
X0148394Y0053362D03*
X0153118Y0053362D03*
X0157843Y0053362D03*
X0157843Y0048638D03*
X0153118Y0048638D03*
D14*
X0170736Y0064484D03*
X0176445Y0064484D03*
X0176445Y0069012D03*
X0170736Y0069012D03*
D15*
X0208236Y0067732D02*
X0208236Y0075606D01*
X0220047Y0075606D01*
X0220047Y0083480D01*
X0208236Y0083480D01*
X0208236Y0067732D02*
X0220047Y0067732D01*
X0220047Y0059858D01*
X0208236Y0059858D01*
X0208236Y0051984D01*
X0220047Y0051984D01*
X0220047Y0044110D01*
X0204299Y0044110D01*
D16*
X0204299Y0044110D03*
D17*
X0201937Y0043913D03*
X0201937Y0048244D03*
X0183827Y0043717D03*
X0179693Y0044110D03*
X0175362Y0044110D03*
X0171228Y0044110D03*
X0171228Y0048441D03*
X0171425Y0055331D03*
X0175756Y0055331D03*
X0175756Y0059268D03*
X0171425Y0059268D03*
X0165717Y0064583D03*
X0161780Y0064583D03*
X0161780Y0068913D03*
X0165717Y0068913D03*
X0181465Y0068913D03*
X0181465Y0064583D03*
X0134811Y0055724D03*
X0130480Y0055724D03*
X0110205Y0055528D03*
X0106268Y0055528D03*
X0106268Y0059858D03*
X0110205Y0059858D03*
X0110205Y0065370D03*
X0106268Y0065370D03*
X0106268Y0069701D03*
X0110205Y0069701D03*
X0129693Y0071866D03*
X0134024Y0071866D03*
X0083866Y0074228D03*
X0079535Y0074228D03*
X0071268Y0074228D03*
X0066937Y0074228D03*
X0060047Y0068520D03*
X0060047Y0064189D03*
X0043118Y0069504D03*
X0038787Y0069504D03*
X0028551Y0069504D03*
X0024220Y0069504D03*
X0016150Y0073441D03*
X0011819Y0073441D03*
X0060047Y0056315D03*
X0060047Y0051984D03*
X0060047Y0041354D03*
X0060047Y0037024D03*
X0060047Y0033087D03*
X0060047Y0028756D03*
X0126740Y0027575D03*
X0130677Y0027575D03*
X0130677Y0031512D03*
X0126740Y0031512D03*
X0126740Y0035843D03*
X0130677Y0035843D03*
X0130677Y0023244D03*
X0126740Y0023244D03*
X0183827Y0039386D03*
D18*
X0135008Y0060843D03*
X0128709Y0060843D03*
X0128709Y0066748D03*
X0135008Y0066748D03*
X0015953Y0068323D03*
X0009654Y0068323D03*
D19*
G36*
X0135744Y0025453D02*
X0137414Y0027123D01*
X0139084Y0025453D01*
X0137414Y0023783D01*
X0135744Y0025453D01*
G37*
G36*
X0138806Y0028515D02*
X0140476Y0030185D01*
X0142146Y0028515D01*
X0140476Y0026845D01*
X0138806Y0028515D01*
G37*
D20*
X0089969Y0029740D03*
X0089969Y0036039D03*
X0089969Y0056512D03*
X0089969Y0062811D03*
X0143669Y0063992D03*
X0143669Y0070291D03*
D21*
X0116898Y0065370D03*
X0116898Y0055528D03*
D22*
X0189142Y0048146D03*
X0196622Y0048146D03*
X0196622Y0040075D03*
X0189142Y0040075D03*
D23*
X0188315Y0044110D03*
X0197449Y0044110D03*
D24*
X0111268Y0036197D03*
X0109299Y0036197D03*
X0107331Y0036197D03*
X0105362Y0036197D03*
X0103394Y0036197D03*
D25*
X0099850Y0027142D03*
X0114811Y0027142D03*
D26*
X0049181Y0036394D03*
X0049181Y0041394D03*
X0049181Y0046394D03*
X0049181Y0051394D03*
X0049181Y0056394D03*
X0033827Y0056394D03*
X0033827Y0051394D03*
X0033827Y0046394D03*
X0033827Y0041394D03*
X0033827Y0036394D03*
D27*
X0019535Y0041276D03*
X0019535Y0043835D03*
X0019535Y0046394D03*
X0019535Y0048953D03*
X0019535Y0051512D03*
D28*
X0018650Y0058992D03*
X0018650Y0033795D03*
D29*
X0009004Y0041669D03*
X0009004Y0051118D03*
D30*
X0009004Y0059386D03*
X0009004Y0033402D03*
D31*
X0038748Y0013185D03*
X0038748Y0079602D03*
D32*
X0067331Y0069110D03*
X0081898Y0069110D03*
X0081898Y0051787D03*
X0067331Y0051787D03*
X0067331Y0041551D03*
X0081898Y0041551D03*
X0081898Y0024228D03*
X0067331Y0024228D03*
D33*
X0064673Y0032890D03*
X0084555Y0032890D03*
X0084555Y0060449D03*
X0064673Y0060449D03*
D34*
X0028748Y0086394D03*
X0198748Y0086394D03*
X0048748Y0006394D03*
X0008748Y0006394D03*
D35*
X0018748Y0006394D03*
X0028748Y0006394D03*
X0058748Y0006394D03*
X0068748Y0006394D03*
X0078748Y0006394D03*
X0088748Y0006394D03*
X0098748Y0006394D03*
X0108748Y0006394D03*
X0118748Y0006394D03*
X0128748Y0006394D03*
X0138748Y0006394D03*
X0148748Y0006394D03*
X0158748Y0006394D03*
X0168748Y0006394D03*
X0178748Y0006394D03*
X0188748Y0006394D03*
X0198748Y0006394D03*
X0188748Y0086394D03*
X0178748Y0086394D03*
X0168748Y0086394D03*
X0158748Y0086394D03*
X0148748Y0086394D03*
X0138748Y0086394D03*
X0128748Y0086394D03*
X0118748Y0086394D03*
X0108748Y0086394D03*
X0098748Y0086394D03*
X0088748Y0086394D03*
X0078748Y0086394D03*
X0068748Y0086394D03*
X0058748Y0086394D03*
X0048748Y0086394D03*
X0018748Y0086394D03*
X0008748Y0086394D03*
D36*
X0005717Y0083579D02*
X0006406Y0082889D01*
X0006964Y0082658D01*
X0006964Y0082072D01*
X0007910Y0081126D01*
X0006701Y0079917D01*
X0006701Y0070601D01*
X0006602Y0070502D01*
X0006602Y0066143D01*
X0007179Y0065567D01*
X0012128Y0065567D01*
X0012705Y0066143D01*
X0012705Y0070502D01*
X0012128Y0071079D01*
X0009457Y0071079D01*
X0009457Y0078776D01*
X0009867Y0079186D01*
X0012463Y0076591D01*
X0020928Y0076591D01*
X0026406Y0071113D01*
X0026386Y0071093D01*
X0026386Y0067915D01*
X0026962Y0067339D01*
X0028211Y0067339D01*
X0031898Y0063652D01*
X0032935Y0062614D01*
X0046214Y0062614D01*
X0051726Y0068126D01*
X0052764Y0069164D01*
X0052764Y0073347D01*
X0052764Y0073347D01*
X0052764Y0061433D01*
X0049471Y0061433D01*
X0039628Y0061433D01*
X0038591Y0060395D01*
X0037069Y0058874D01*
X0028695Y0058874D01*
X0028118Y0058297D01*
X0028118Y0057027D01*
X0027948Y0056857D01*
X0025992Y0054901D01*
X0025992Y0067521D01*
X0026386Y0067915D01*
X0026386Y0071093D01*
X0025809Y0071669D01*
X0022632Y0071669D01*
X0022055Y0071093D01*
X0022055Y0067915D01*
X0022449Y0067521D01*
X0022449Y0062490D01*
X0022207Y0062732D01*
X0015092Y0062732D01*
X0014516Y0062156D01*
X0014516Y0055829D01*
X0015092Y0055252D01*
X0022207Y0055252D01*
X0022449Y0055494D01*
X0022449Y0054096D01*
X0021636Y0053283D01*
X0016470Y0053283D01*
X0015894Y0052707D01*
X0015894Y0050317D01*
X0015978Y0050232D01*
X0015894Y0050148D01*
X0015894Y0047758D01*
X0015978Y0047673D01*
X0015894Y0047589D01*
X0015894Y0045199D01*
X0015978Y0045114D01*
X0015894Y0045030D01*
X0015894Y0042720D01*
X0015777Y0042519D01*
X0015697Y0042218D01*
X0015697Y0041276D01*
X0019535Y0041276D01*
X0019535Y0041276D01*
X0015697Y0041276D01*
X0015697Y0040333D01*
X0015777Y0040032D01*
X0015933Y0039763D01*
X0016153Y0039543D01*
X0016422Y0039388D01*
X0016722Y0039307D01*
X0019535Y0039307D01*
X0019535Y0041275D01*
X0019535Y0041275D01*
X0019535Y0039307D01*
X0022055Y0039307D01*
X0022055Y0037535D01*
X0015092Y0037535D01*
X0014516Y0036959D01*
X0014516Y0030632D01*
X0015092Y0030055D01*
X0022055Y0030055D01*
X0022055Y0012224D01*
X0020128Y0010297D01*
X0019570Y0010528D01*
X0017926Y0010528D01*
X0016406Y0009898D01*
X0015244Y0008735D01*
X0014614Y0007216D01*
X0014614Y0005571D01*
X0015244Y0004052D01*
X0015933Y0003362D01*
X0012882Y0003362D01*
X0012882Y0009951D01*
X0012305Y0010528D01*
X0005717Y0010528D01*
X0005717Y0030286D01*
X0006439Y0029563D01*
X0008103Y0028874D01*
X0009905Y0028874D01*
X0011569Y0029563D01*
X0012842Y0030837D01*
X0013531Y0032501D01*
X0013531Y0034302D01*
X0012842Y0035966D01*
X0011864Y0036945D01*
X0012463Y0036945D01*
X0013039Y0037521D01*
X0013039Y0045817D01*
X0012463Y0046394D01*
X0013039Y0046970D01*
X0013039Y0055266D01*
X0012463Y0055843D01*
X0011864Y0055843D01*
X0012842Y0056821D01*
X0013531Y0058485D01*
X0013531Y0060286D01*
X0012842Y0061950D01*
X0011569Y0063224D01*
X0009905Y0063913D01*
X0008103Y0063913D01*
X0006439Y0063224D01*
X0005717Y0062501D01*
X0005717Y0083579D01*
X0005717Y0083129D02*
X0006167Y0083129D01*
X0005717Y0082343D02*
X0006964Y0082343D01*
X0007479Y0081557D02*
X0005717Y0081557D01*
X0005717Y0080771D02*
X0007554Y0080771D01*
X0006769Y0079985D02*
X0005717Y0079985D01*
X0005717Y0079199D02*
X0006701Y0079199D01*
X0006701Y0078413D02*
X0005717Y0078413D01*
X0005717Y0077627D02*
X0006701Y0077627D01*
X0006701Y0076841D02*
X0005717Y0076841D01*
X0005717Y0076055D02*
X0006701Y0076055D01*
X0006701Y0075270D02*
X0005717Y0075270D01*
X0005717Y0074484D02*
X0006701Y0074484D01*
X0006701Y0073698D02*
X0005717Y0073698D01*
X0005717Y0072912D02*
X0006701Y0072912D01*
X0006701Y0072126D02*
X0005717Y0072126D01*
X0005717Y0071340D02*
X0006701Y0071340D01*
X0006654Y0070554D02*
X0005717Y0070554D01*
X0005717Y0069768D02*
X0006602Y0069768D01*
X0006602Y0068982D02*
X0005717Y0068982D01*
X0005717Y0068196D02*
X0006602Y0068196D01*
X0006602Y0067410D02*
X0005717Y0067410D01*
X0005717Y0066624D02*
X0006602Y0066624D01*
X0006907Y0065839D02*
X0005717Y0065839D01*
X0005717Y0065053D02*
X0022449Y0065053D01*
X0022449Y0065839D02*
X0018699Y0065839D01*
X0018427Y0065567D02*
X0019004Y0066143D01*
X0019004Y0070502D01*
X0018427Y0071079D01*
X0017528Y0071079D01*
X0017528Y0071276D01*
X0017738Y0071276D01*
X0018315Y0071852D01*
X0018315Y0075030D01*
X0017738Y0075606D01*
X0014561Y0075606D01*
X0014076Y0075121D01*
X0013945Y0075347D01*
X0013725Y0075567D01*
X0013456Y0075723D01*
X0013155Y0075803D01*
X0012016Y0075803D01*
X0012016Y0073638D01*
X0011622Y0073638D01*
X0011622Y0075803D01*
X0010482Y0075803D01*
X0010182Y0075723D01*
X0009913Y0075567D01*
X0009693Y0075347D01*
X0009537Y0075078D01*
X0009457Y0074778D01*
X0009457Y0073638D01*
X0011622Y0073638D01*
X0011622Y0073244D01*
X0012016Y0073244D01*
X0012016Y0071079D01*
X0013155Y0071079D01*
X0013456Y0071159D01*
X0013725Y0071315D01*
X0013945Y0071535D01*
X0014076Y0071761D01*
X0014561Y0071276D01*
X0014772Y0071276D01*
X0014772Y0071079D01*
X0013478Y0071079D01*
X0012902Y0070502D01*
X0012902Y0066143D01*
X0013478Y0065567D01*
X0018427Y0065567D01*
X0019004Y0066624D02*
X0022449Y0066624D01*
X0022449Y0067410D02*
X0019004Y0067410D01*
X0019004Y0068196D02*
X0022055Y0068196D01*
X0022055Y0068982D02*
X0019004Y0068982D01*
X0019004Y0069768D02*
X0022055Y0069768D01*
X0022055Y0070554D02*
X0018952Y0070554D01*
X0017803Y0071340D02*
X0022302Y0071340D01*
X0025392Y0072126D02*
X0018315Y0072126D01*
X0018315Y0072912D02*
X0024606Y0072912D01*
X0023820Y0073698D02*
X0018315Y0073698D01*
X0018315Y0074484D02*
X0023035Y0074484D01*
X0022249Y0075270D02*
X0018075Y0075270D01*
X0021463Y0076055D02*
X0009457Y0076055D01*
X0009457Y0075270D02*
X0009648Y0075270D01*
X0009457Y0074484D02*
X0009457Y0074484D01*
X0009457Y0073698D02*
X0009457Y0073698D01*
X0009457Y0073244D02*
X0009457Y0072104D01*
X0009537Y0071804D01*
X0009693Y0071535D01*
X0009913Y0071315D01*
X0010182Y0071159D01*
X0010482Y0071079D01*
X0011622Y0071079D01*
X0011622Y0073244D01*
X0009457Y0073244D01*
X0009457Y0072912D02*
X0009457Y0072912D01*
X0009457Y0072126D02*
X0009457Y0072126D01*
X0009457Y0071340D02*
X0009887Y0071340D01*
X0011622Y0071340D02*
X0012016Y0071340D01*
X0012016Y0072126D02*
X0011622Y0072126D01*
X0011622Y0072912D02*
X0012016Y0072912D01*
X0012016Y0073698D02*
X0011622Y0073698D01*
X0011622Y0074484D02*
X0012016Y0074484D01*
X0012016Y0075270D02*
X0011622Y0075270D01*
X0012212Y0076841D02*
X0009457Y0076841D01*
X0009457Y0077627D02*
X0011426Y0077627D01*
X0010640Y0078413D02*
X0009457Y0078413D01*
X0008079Y0079346D02*
X0010146Y0081413D01*
X0008079Y0079346D02*
X0008079Y0069504D01*
X0008354Y0069228D01*
X0008748Y0069228D01*
X0009654Y0068323D01*
X0012705Y0068196D02*
X0012902Y0068196D01*
X0012902Y0067410D02*
X0012705Y0067410D01*
X0012705Y0066624D02*
X0012902Y0066624D01*
X0013206Y0065839D02*
X0012400Y0065839D01*
X0010949Y0063481D02*
X0022449Y0063481D01*
X0022449Y0064267D02*
X0005717Y0064267D01*
X0005717Y0063481D02*
X0007059Y0063481D01*
X0005910Y0062695D02*
X0005717Y0062695D01*
X0012098Y0062695D02*
X0015055Y0062695D01*
X0014516Y0061909D02*
X0012859Y0061909D01*
X0013185Y0061123D02*
X0014516Y0061123D01*
X0014516Y0060337D02*
X0013510Y0060337D01*
X0013531Y0059551D02*
X0014516Y0059551D01*
X0014516Y0058765D02*
X0013531Y0058765D01*
X0013322Y0057979D02*
X0014516Y0057979D01*
X0014516Y0057194D02*
X0012996Y0057194D01*
X0012429Y0056408D02*
X0014516Y0056408D01*
X0014723Y0055622D02*
X0012684Y0055622D01*
X0013039Y0054836D02*
X0022449Y0054836D01*
X0022403Y0054050D02*
X0013039Y0054050D01*
X0013039Y0053264D02*
X0016451Y0053264D01*
X0015894Y0052478D02*
X0013039Y0052478D01*
X0013039Y0051692D02*
X0015894Y0051692D01*
X0015894Y0050906D02*
X0013039Y0050906D01*
X0013039Y0050120D02*
X0015894Y0050120D01*
X0015894Y0049334D02*
X0013039Y0049334D01*
X0013039Y0048548D02*
X0015894Y0048548D01*
X0015894Y0047763D02*
X0013039Y0047763D01*
X0013039Y0046977D02*
X0015894Y0046977D01*
X0015894Y0046191D02*
X0012666Y0046191D01*
X0012463Y0046394D02*
X0005717Y0046394D01*
X0012463Y0046394D01*
X0013039Y0045405D02*
X0015894Y0045405D01*
X0015894Y0044619D02*
X0013039Y0044619D01*
X0013039Y0043833D02*
X0015894Y0043833D01*
X0015894Y0043047D02*
X0013039Y0043047D01*
X0013039Y0042261D02*
X0015708Y0042261D01*
X0015697Y0041475D02*
X0013039Y0041475D01*
X0013039Y0040689D02*
X0015697Y0040689D01*
X0015852Y0039903D02*
X0013039Y0039903D01*
X0013039Y0039118D02*
X0022055Y0039118D01*
X0022055Y0038332D02*
X0013039Y0038332D01*
X0013039Y0037546D02*
X0022055Y0037546D01*
X0025598Y0037546D02*
X0027921Y0037546D01*
X0027921Y0038045D02*
X0027921Y0036748D01*
X0033472Y0036748D01*
X0033472Y0036039D01*
X0027921Y0036039D01*
X0027921Y0034742D01*
X0028002Y0034442D01*
X0028157Y0034172D01*
X0028377Y0033953D01*
X0028646Y0033797D01*
X0028947Y0033717D01*
X0033472Y0033717D01*
X0033472Y0036039D01*
X0034181Y0036039D01*
X0034181Y0033717D01*
X0038707Y0033717D01*
X0039007Y0033797D01*
X0039276Y0033953D01*
X0039378Y0034054D01*
X0039378Y0031138D01*
X0047258Y0023258D01*
X0046936Y0023494D01*
X0042284Y0025150D01*
X0037353Y0025402D01*
X0032556Y0024230D01*
X0028298Y0021731D01*
X0027886Y0021288D01*
X0027402Y0021288D01*
X0026457Y0020897D01*
X0025733Y0020173D01*
X0025598Y0019848D01*
X0025598Y0047904D01*
X0026386Y0048691D01*
X0027921Y0050227D01*
X0027921Y0049742D01*
X0028002Y0049442D01*
X0028157Y0049172D01*
X0028377Y0048953D01*
X0028479Y0048894D01*
X0028377Y0048835D01*
X0028157Y0048615D01*
X0028002Y0048346D01*
X0027921Y0048045D01*
X0027921Y0046748D01*
X0033472Y0046748D01*
X0033472Y0046039D01*
X0027921Y0046039D01*
X0027921Y0044742D01*
X0028002Y0044442D01*
X0028157Y0044172D01*
X0028377Y0043953D01*
X0028628Y0043808D01*
X0028118Y0043297D01*
X0028118Y0039490D01*
X0028628Y0038980D01*
X0028377Y0038835D01*
X0028157Y0038615D01*
X0028002Y0038346D01*
X0027921Y0038045D01*
X0027998Y0038332D02*
X0025598Y0038332D01*
X0025598Y0039118D02*
X0028491Y0039118D01*
X0028118Y0039903D02*
X0025598Y0039903D01*
X0025598Y0040689D02*
X0028118Y0040689D01*
X0028118Y0041475D02*
X0025598Y0041475D01*
X0025598Y0042261D02*
X0028118Y0042261D01*
X0028118Y0043047D02*
X0025598Y0043047D01*
X0025598Y0043833D02*
X0028584Y0043833D01*
X0027954Y0044619D02*
X0025598Y0044619D01*
X0025598Y0045405D02*
X0027921Y0045405D01*
X0025598Y0046191D02*
X0033472Y0046191D01*
X0033472Y0046748D02*
X0033472Y0049071D01*
X0033472Y0051039D01*
X0034181Y0051039D01*
X0034181Y0046748D01*
X0033472Y0046748D01*
X0033472Y0046977D02*
X0034181Y0046977D01*
X0034181Y0047763D02*
X0033472Y0047763D01*
X0033472Y0048548D02*
X0034181Y0048548D01*
X0034181Y0049334D02*
X0033472Y0049334D01*
X0033472Y0050120D02*
X0034181Y0050120D01*
X0034181Y0050906D02*
X0033472Y0050906D01*
X0027921Y0050120D02*
X0027815Y0050120D01*
X0028064Y0049334D02*
X0027029Y0049334D01*
X0026243Y0048548D02*
X0028119Y0048548D01*
X0027921Y0047763D02*
X0025598Y0047763D01*
X0025598Y0046977D02*
X0027921Y0046977D01*
X0040756Y0051394D02*
X0040756Y0031709D01*
X0052961Y0019504D01*
X0091543Y0019504D01*
X0092331Y0019504D01*
X0093512Y0020685D01*
X0095377Y0022457D02*
X0095692Y0022142D01*
X0096083Y0021197D01*
X0096083Y0020173D01*
X0095725Y0019307D01*
X0097823Y0019307D01*
X0099555Y0021039D01*
X0098262Y0021039D01*
X0097685Y0021616D01*
X0097685Y0032668D01*
X0098262Y0033244D01*
X0101439Y0033244D01*
X0102016Y0032668D01*
X0102016Y0022063D01*
X0112646Y0022063D01*
X0112646Y0032102D01*
X0109280Y0032102D01*
X0108689Y0032693D01*
X0107882Y0033500D01*
X0107882Y0033638D01*
X0102297Y0033638D01*
X0101720Y0034214D01*
X0101720Y0038179D01*
X0102297Y0038756D01*
X0103984Y0038756D01*
X0103984Y0039012D01*
X0104358Y0039386D01*
X0101366Y0039386D01*
X0092311Y0048441D01*
X0091504Y0049248D01*
X0091504Y0053461D01*
X0091346Y0053461D01*
X0091346Y0048027D01*
X0094476Y0044898D01*
X0095283Y0044090D01*
X0095283Y0033106D01*
X0092724Y0030547D01*
X0092724Y0027266D01*
X0092148Y0026689D01*
X0087789Y0026689D01*
X0087213Y0027266D01*
X0087213Y0027969D01*
X0080343Y0027969D01*
X0079535Y0028776D01*
X0074369Y0033942D01*
X0074430Y0033795D01*
X0074430Y0032772D01*
X0074038Y0031827D01*
X0073315Y0031103D01*
X0072370Y0030712D01*
X0071347Y0030712D01*
X0071268Y0030744D01*
X0070134Y0029610D01*
X0070953Y0029950D01*
X0071976Y0029950D01*
X0072921Y0029558D01*
X0073645Y0028835D01*
X0074036Y0027889D01*
X0074036Y0026866D01*
X0073645Y0025921D01*
X0072921Y0025198D01*
X0071976Y0024806D01*
X0070953Y0024806D01*
X0070008Y0025198D01*
X0069496Y0025710D01*
X0069496Y0022457D01*
X0079535Y0022457D01*
X0079535Y0024031D01*
X0081701Y0024031D01*
X0081701Y0024425D01*
X0079535Y0024425D01*
X0079535Y0026352D01*
X0079616Y0026653D01*
X0079771Y0026922D01*
X0079991Y0027142D01*
X0080261Y0027297D01*
X0080561Y0027378D01*
X0081701Y0027378D01*
X0081701Y0024425D01*
X0082094Y0024425D01*
X0082094Y0027378D01*
X0083234Y0027378D01*
X0083535Y0027297D01*
X0083804Y0027142D01*
X0084024Y0026922D01*
X0084179Y0026653D01*
X0084260Y0026352D01*
X0084260Y0024425D01*
X0082095Y0024425D01*
X0082095Y0024031D01*
X0084260Y0024031D01*
X0084260Y0022457D01*
X0087429Y0022457D01*
X0090973Y0026000D01*
X0091693Y0026000D01*
X0091725Y0026079D01*
X0092449Y0026802D01*
X0093394Y0027194D01*
X0094417Y0027194D01*
X0095362Y0026802D01*
X0096086Y0026079D01*
X0096477Y0025134D01*
X0096477Y0024111D01*
X0096086Y0023165D01*
X0095377Y0022457D01*
X0095534Y0022613D02*
X0097685Y0022613D01*
X0097685Y0021827D02*
X0095822Y0021827D01*
X0096083Y0021042D02*
X0098259Y0021042D01*
X0098771Y0020256D02*
X0096083Y0020256D01*
X0095792Y0019470D02*
X0097986Y0019470D01*
X0098394Y0017929D02*
X0094457Y0017929D01*
X0060283Y0017929D01*
X0048748Y0006394D01*
X0044614Y0006109D02*
X0029142Y0006109D01*
X0029142Y0006000D02*
X0029142Y0006787D01*
X0033070Y0006787D01*
X0032972Y0007408D01*
X0032761Y0008056D01*
X0032452Y0008663D01*
X0032051Y0009215D01*
X0031569Y0009697D01*
X0031018Y0010098D01*
X0030410Y0010407D01*
X0029762Y0010618D01*
X0029142Y0010716D01*
X0029142Y0006787D01*
X0028354Y0006787D01*
X0028354Y0006000D01*
X0024426Y0006000D01*
X0024524Y0005380D01*
X0024735Y0004731D01*
X0025044Y0004124D01*
X0025445Y0003572D01*
X0025655Y0003362D01*
X0021563Y0003362D01*
X0022253Y0004052D01*
X0022882Y0005571D01*
X0022882Y0007216D01*
X0022651Y0007773D01*
X0025611Y0010733D01*
X0025611Y0012211D01*
X0025598Y0012224D01*
X0025598Y0017585D01*
X0025733Y0017260D01*
X0026457Y0016536D01*
X0027402Y0016145D01*
X0028425Y0016145D01*
X0029370Y0016536D01*
X0030094Y0017260D01*
X0030485Y0018205D01*
X0030485Y0018694D01*
X0030628Y0018827D01*
X0033955Y0020780D01*
X0037704Y0021696D01*
X0041557Y0021499D01*
X0045192Y0020204D01*
X0048303Y0017922D01*
X0048420Y0017789D01*
X0048420Y0017024D01*
X0048812Y0016079D01*
X0049535Y0015355D01*
X0050481Y0014964D01*
X0051504Y0014964D01*
X0052449Y0015355D01*
X0053172Y0016079D01*
X0053564Y0017024D01*
X0053564Y0018047D01*
X0053531Y0018126D01*
X0058532Y0018126D01*
X0050933Y0010528D01*
X0045191Y0010528D01*
X0045044Y0010381D01*
X0045638Y0011815D01*
X0045638Y0014555D01*
X0044589Y0017088D01*
X0042651Y0019026D01*
X0040118Y0020075D01*
X0037378Y0020075D01*
X0034845Y0019026D01*
X0032907Y0017088D01*
X0031858Y0014555D01*
X0031858Y0011815D01*
X0032907Y0009282D01*
X0034845Y0007344D01*
X0037378Y0006295D01*
X0040118Y0006295D01*
X0042651Y0007344D01*
X0044589Y0009282D01*
X0044614Y0009343D01*
X0044614Y0003362D01*
X0031841Y0003362D01*
X0032051Y0003572D01*
X0032452Y0004124D01*
X0032761Y0004731D01*
X0032972Y0005380D01*
X0033070Y0006000D01*
X0029142Y0006000D01*
X0028354Y0006109D02*
X0022882Y0006109D01*
X0022882Y0006895D02*
X0024443Y0006895D01*
X0024426Y0006787D02*
X0028354Y0006787D01*
X0028354Y0010716D01*
X0027734Y0010618D01*
X0027086Y0010407D01*
X0026478Y0010098D01*
X0025927Y0009697D01*
X0025445Y0009215D01*
X0025044Y0008663D01*
X0024735Y0008056D01*
X0024524Y0007408D01*
X0024426Y0006787D01*
X0024613Y0007681D02*
X0022689Y0007681D01*
X0023345Y0008467D02*
X0024944Y0008467D01*
X0025483Y0009253D02*
X0024130Y0009253D01*
X0024916Y0010039D02*
X0026397Y0010039D01*
X0025611Y0010825D02*
X0032268Y0010825D01*
X0031943Y0011611D02*
X0025611Y0011611D01*
X0025598Y0012396D02*
X0031858Y0012396D01*
X0031858Y0013182D02*
X0025598Y0013182D01*
X0025598Y0013968D02*
X0031858Y0013968D01*
X0031941Y0014754D02*
X0025598Y0014754D01*
X0025598Y0015540D02*
X0032266Y0015540D01*
X0032592Y0016326D02*
X0028862Y0016326D01*
X0029946Y0017112D02*
X0032931Y0017112D01*
X0033717Y0017898D02*
X0030358Y0017898D01*
X0030485Y0018684D02*
X0034503Y0018684D01*
X0035917Y0019470D02*
X0031723Y0019470D01*
X0033063Y0020256D02*
X0045048Y0020256D01*
X0046194Y0019470D02*
X0041579Y0019470D01*
X0042993Y0018684D02*
X0047265Y0018684D01*
X0048325Y0017898D02*
X0043779Y0017898D01*
X0044565Y0017112D02*
X0048420Y0017112D01*
X0048710Y0016326D02*
X0044904Y0016326D01*
X0045230Y0015540D02*
X0049351Y0015540D01*
X0045555Y0014754D02*
X0055160Y0014754D01*
X0054374Y0013968D02*
X0045638Y0013968D01*
X0045638Y0013182D02*
X0053588Y0013182D01*
X0052802Y0012396D02*
X0045638Y0012396D01*
X0045553Y0011611D02*
X0052016Y0011611D01*
X0051230Y0010825D02*
X0045228Y0010825D01*
X0044614Y0009253D02*
X0044559Y0009253D01*
X0044614Y0008467D02*
X0043773Y0008467D01*
X0042988Y0007681D02*
X0044614Y0007681D01*
X0044614Y0006895D02*
X0041567Y0006895D01*
X0044614Y0005323D02*
X0032954Y0005323D01*
X0032663Y0004537D02*
X0044614Y0004537D01*
X0044614Y0003751D02*
X0032181Y0003751D01*
X0033053Y0006895D02*
X0035929Y0006895D01*
X0034508Y0007681D02*
X0032883Y0007681D01*
X0032552Y0008467D02*
X0033723Y0008467D01*
X0032937Y0009253D02*
X0032013Y0009253D01*
X0032594Y0010039D02*
X0031099Y0010039D01*
X0029142Y0010039D02*
X0028354Y0010039D01*
X0028354Y0009253D02*
X0029142Y0009253D01*
X0029142Y0008467D02*
X0028354Y0008467D01*
X0028354Y0007681D02*
X0029142Y0007681D01*
X0029142Y0006895D02*
X0028354Y0006895D01*
X0024542Y0005323D02*
X0022779Y0005323D01*
X0022454Y0004537D02*
X0024833Y0004537D01*
X0025315Y0003751D02*
X0021952Y0003751D01*
X0015544Y0003751D02*
X0012882Y0003751D01*
X0012882Y0004537D02*
X0015042Y0004537D01*
X0014717Y0005323D02*
X0012882Y0005323D01*
X0012882Y0006109D02*
X0014614Y0006109D01*
X0014614Y0006895D02*
X0012882Y0006895D01*
X0012882Y0007681D02*
X0014807Y0007681D01*
X0015132Y0008467D02*
X0012882Y0008467D01*
X0012882Y0009253D02*
X0015761Y0009253D01*
X0016746Y0010039D02*
X0012794Y0010039D01*
X0005717Y0010825D02*
X0020656Y0010825D01*
X0021442Y0011611D02*
X0005717Y0011611D01*
X0005717Y0012396D02*
X0022055Y0012396D01*
X0022055Y0013182D02*
X0005717Y0013182D01*
X0005717Y0013968D02*
X0022055Y0013968D01*
X0022055Y0014754D02*
X0005717Y0014754D01*
X0005717Y0015540D02*
X0022055Y0015540D01*
X0022055Y0016326D02*
X0005717Y0016326D01*
X0005717Y0017112D02*
X0022055Y0017112D01*
X0022055Y0017898D02*
X0005717Y0017898D01*
X0005717Y0018684D02*
X0022055Y0018684D01*
X0022055Y0019470D02*
X0005717Y0019470D01*
X0005717Y0020256D02*
X0022055Y0020256D01*
X0022055Y0021042D02*
X0005717Y0021042D01*
X0005717Y0021827D02*
X0022055Y0021827D01*
X0022055Y0022613D02*
X0005717Y0022613D01*
X0005717Y0023399D02*
X0022055Y0023399D01*
X0022055Y0024185D02*
X0005717Y0024185D01*
X0005717Y0024971D02*
X0022055Y0024971D01*
X0022055Y0025757D02*
X0005717Y0025757D01*
X0005717Y0026543D02*
X0022055Y0026543D01*
X0022055Y0027329D02*
X0005717Y0027329D01*
X0005717Y0028115D02*
X0022055Y0028115D01*
X0022055Y0028901D02*
X0009969Y0028901D01*
X0011692Y0029687D02*
X0022055Y0029687D01*
X0025598Y0029687D02*
X0040829Y0029687D01*
X0040043Y0030472D02*
X0025598Y0030472D01*
X0025598Y0031258D02*
X0039378Y0031258D01*
X0039378Y0032044D02*
X0025598Y0032044D01*
X0025598Y0032830D02*
X0039378Y0032830D01*
X0039378Y0033616D02*
X0025598Y0033616D01*
X0025598Y0034402D02*
X0028025Y0034402D01*
X0027921Y0035188D02*
X0025598Y0035188D01*
X0025598Y0035974D02*
X0027921Y0035974D01*
X0027921Y0036760D02*
X0025598Y0036760D01*
X0033472Y0035974D02*
X0034181Y0035974D01*
X0034181Y0035188D02*
X0033472Y0035188D01*
X0033472Y0034402D02*
X0034181Y0034402D01*
X0042331Y0032496D02*
X0042331Y0048244D01*
X0045087Y0051000D01*
X0048787Y0051000D01*
X0049181Y0051394D01*
X0045756Y0056394D02*
X0041543Y0052181D01*
X0041150Y0051787D01*
X0040756Y0051394D01*
X0036819Y0056118D02*
X0034102Y0056118D01*
X0033827Y0056394D01*
X0028586Y0058765D02*
X0025992Y0058765D01*
X0025992Y0057979D02*
X0028118Y0057979D01*
X0028118Y0057194D02*
X0025992Y0057194D01*
X0025992Y0056408D02*
X0027498Y0056408D01*
X0026713Y0055622D02*
X0025992Y0055622D01*
X0025992Y0059551D02*
X0037747Y0059551D01*
X0038532Y0060337D02*
X0025992Y0060337D01*
X0025992Y0061123D02*
X0039318Y0061123D01*
X0032855Y0062695D02*
X0025992Y0062695D01*
X0025992Y0063481D02*
X0032069Y0063481D01*
X0031283Y0064267D02*
X0025992Y0064267D01*
X0025992Y0065053D02*
X0030497Y0065053D01*
X0029711Y0065839D02*
X0025992Y0065839D01*
X0025992Y0066624D02*
X0028925Y0066624D01*
X0026891Y0067410D02*
X0025992Y0067410D01*
X0026386Y0068196D02*
X0026386Y0068196D01*
X0026386Y0068982D02*
X0026386Y0068982D01*
X0026386Y0069768D02*
X0026386Y0069768D01*
X0026386Y0070554D02*
X0026386Y0070554D01*
X0026178Y0071340D02*
X0026139Y0071340D01*
X0032375Y0073698D02*
X0034999Y0073698D01*
X0034845Y0073762D02*
X0037016Y0072862D01*
X0037016Y0071486D01*
X0036622Y0071093D01*
X0036622Y0069450D01*
X0022136Y0083936D01*
X0022253Y0084052D01*
X0022882Y0085571D01*
X0022882Y0087216D01*
X0022253Y0088735D01*
X0021563Y0089425D01*
X0024417Y0089425D01*
X0024417Y0086787D01*
X0028354Y0086787D01*
X0028354Y0086000D01*
X0024417Y0086000D01*
X0024417Y0083089D01*
X0024498Y0082788D01*
X0024653Y0082519D01*
X0024873Y0082299D01*
X0025143Y0082143D01*
X0025443Y0082063D01*
X0028354Y0082063D01*
X0028354Y0086000D01*
X0029142Y0086000D01*
X0029142Y0086787D01*
X0033079Y0086787D01*
X0033079Y0089425D01*
X0045933Y0089425D01*
X0045244Y0088735D01*
X0044614Y0087216D01*
X0044614Y0085571D01*
X0045244Y0084052D01*
X0046406Y0082889D01*
X0047926Y0082260D01*
X0049570Y0082260D01*
X0050534Y0082659D01*
X0053461Y0079732D01*
X0052129Y0080328D01*
X0051636Y0080329D01*
X0051563Y0080390D01*
X0050914Y0080331D01*
X0050263Y0080333D01*
X0050196Y0080266D01*
X0049696Y0080220D01*
X0049696Y0080220D01*
X0047662Y0079185D01*
X0047662Y0079185D01*
X0046158Y0077469D01*
X0046158Y0077469D01*
X0045912Y0076772D01*
X0045677Y0076537D01*
X0045677Y0076107D01*
X0045534Y0075701D01*
X0045677Y0075401D01*
X0045677Y0072600D01*
X0044727Y0071649D01*
X0044707Y0071669D01*
X0041529Y0071669D01*
X0040953Y0071093D01*
X0040953Y0069057D01*
X0040953Y0069057D01*
X0040953Y0071093D01*
X0040559Y0071486D01*
X0040559Y0072895D01*
X0042651Y0073762D01*
X0044589Y0075700D01*
X0045638Y0078232D01*
X0045638Y0080973D01*
X0044589Y0083505D01*
X0042651Y0085443D01*
X0040118Y0086492D01*
X0037378Y0086492D01*
X0034845Y0085443D01*
X0033079Y0083677D01*
X0033079Y0086000D01*
X0029142Y0086000D01*
X0029142Y0082063D01*
X0032053Y0082063D01*
X0032342Y0082140D01*
X0031858Y0080973D01*
X0031858Y0078232D01*
X0032907Y0075700D01*
X0034845Y0073762D01*
X0034123Y0074484D02*
X0031589Y0074484D01*
X0030803Y0075270D02*
X0033337Y0075270D01*
X0032760Y0076055D02*
X0030017Y0076055D01*
X0029231Y0076841D02*
X0032434Y0076841D01*
X0032109Y0077627D02*
X0028445Y0077627D01*
X0027659Y0078413D02*
X0031858Y0078413D01*
X0031858Y0079199D02*
X0026873Y0079199D01*
X0026087Y0079985D02*
X0031858Y0079985D01*
X0031858Y0080771D02*
X0025301Y0080771D01*
X0024516Y0081557D02*
X0032100Y0081557D01*
X0029142Y0082343D02*
X0028354Y0082343D01*
X0028354Y0083129D02*
X0029142Y0083129D01*
X0029142Y0083915D02*
X0028354Y0083915D01*
X0028354Y0084700D02*
X0029142Y0084700D01*
X0029142Y0085486D02*
X0028354Y0085486D01*
X0028354Y0086272D02*
X0022882Y0086272D01*
X0022882Y0087058D02*
X0024417Y0087058D01*
X0024417Y0087844D02*
X0022622Y0087844D01*
X0022296Y0088630D02*
X0024417Y0088630D01*
X0024417Y0089416D02*
X0021572Y0089416D01*
X0022847Y0085486D02*
X0024417Y0085486D01*
X0024417Y0084700D02*
X0022521Y0084700D01*
X0022158Y0083915D02*
X0024417Y0083915D01*
X0024417Y0083129D02*
X0022944Y0083129D01*
X0023730Y0082343D02*
X0024829Y0082343D01*
X0033079Y0083915D02*
X0033317Y0083915D01*
X0033079Y0084700D02*
X0034103Y0084700D01*
X0034950Y0085486D02*
X0033079Y0085486D01*
X0033079Y0087058D02*
X0044614Y0087058D01*
X0044614Y0086272D02*
X0040649Y0086272D01*
X0042547Y0085486D02*
X0044649Y0085486D01*
X0044975Y0084700D02*
X0043394Y0084700D01*
X0044179Y0083915D02*
X0045381Y0083915D01*
X0044745Y0083129D02*
X0046167Y0083129D01*
X0045070Y0082343D02*
X0047726Y0082343D01*
X0049770Y0082343D02*
X0050850Y0082343D01*
X0051636Y0081557D02*
X0045396Y0081557D01*
X0045638Y0080771D02*
X0052422Y0080771D01*
X0052129Y0080328D02*
X0052129Y0080328D01*
X0052896Y0079985D02*
X0053208Y0079985D01*
X0055534Y0081557D02*
X0060625Y0081557D01*
X0060625Y0081433D02*
X0061017Y0080488D01*
X0061740Y0079765D01*
X0062685Y0079373D01*
X0063708Y0079373D01*
X0063787Y0079406D01*
X0065225Y0077968D01*
X0059122Y0077968D01*
X0052483Y0084608D01*
X0052882Y0085571D01*
X0052882Y0087216D01*
X0052253Y0088735D01*
X0051563Y0089425D01*
X0055933Y0089425D01*
X0055244Y0088735D01*
X0054614Y0087216D01*
X0054614Y0085571D01*
X0055244Y0084052D01*
X0056406Y0082889D01*
X0057926Y0082260D01*
X0059570Y0082260D01*
X0060534Y0082659D01*
X0060658Y0082535D01*
X0060625Y0082456D01*
X0060625Y0081433D01*
X0060900Y0080771D02*
X0056320Y0080771D01*
X0057105Y0079985D02*
X0061520Y0079985D01*
X0063994Y0079199D02*
X0057891Y0079199D01*
X0058677Y0078413D02*
X0064780Y0078413D01*
X0066976Y0078165D02*
X0063197Y0081945D01*
X0058748Y0086394D01*
X0062882Y0086272D02*
X0064614Y0086272D01*
X0064614Y0085571D02*
X0065244Y0084052D01*
X0066406Y0082889D01*
X0067926Y0082260D01*
X0069570Y0082260D01*
X0070534Y0082659D01*
X0071681Y0081512D01*
X0071649Y0081433D01*
X0071649Y0080410D01*
X0072008Y0079543D01*
X0067547Y0079543D01*
X0065736Y0081355D01*
X0065768Y0081433D01*
X0065768Y0082456D01*
X0065377Y0083402D01*
X0064654Y0084125D01*
X0063708Y0084517D01*
X0062685Y0084517D01*
X0062607Y0084484D01*
X0062483Y0084608D01*
X0062882Y0085571D01*
X0062882Y0087216D01*
X0062253Y0088735D01*
X0061563Y0089425D01*
X0065933Y0089425D01*
X0065244Y0088735D01*
X0064614Y0087216D01*
X0064614Y0085571D01*
X0064649Y0085486D02*
X0062847Y0085486D01*
X0062521Y0084700D02*
X0064975Y0084700D01*
X0064864Y0083915D02*
X0065381Y0083915D01*
X0065490Y0083129D02*
X0066167Y0083129D01*
X0065768Y0082343D02*
X0067726Y0082343D01*
X0069770Y0082343D02*
X0070850Y0082343D01*
X0071636Y0081557D02*
X0065768Y0081557D01*
X0066320Y0080771D02*
X0071649Y0080771D01*
X0071825Y0079985D02*
X0067105Y0079985D01*
X0066976Y0078165D02*
X0083433Y0078165D01*
X0089732Y0078165D01*
X0092094Y0075803D01*
X0094457Y0073441D01*
X0094457Y0050606D01*
X0102724Y0042339D01*
X0104693Y0042339D01*
X0138945Y0042339D01*
X0138945Y0043913D02*
X0105480Y0043913D01*
X0103512Y0043913D01*
X0096031Y0051787D01*
X0096031Y0074228D01*
X0092488Y0077772D01*
X0090520Y0079740D01*
X0083039Y0079740D01*
X0075402Y0079740D01*
X0074811Y0080331D01*
X0074220Y0080921D01*
X0074811Y0080331D01*
X0074220Y0080921D02*
X0068748Y0086394D01*
X0064874Y0087844D02*
X0062622Y0087844D01*
X0062882Y0087058D02*
X0064614Y0087058D01*
X0065200Y0088630D02*
X0062296Y0088630D01*
X0061572Y0089416D02*
X0065924Y0089416D01*
X0055924Y0089416D02*
X0051572Y0089416D01*
X0052296Y0088630D02*
X0055200Y0088630D01*
X0054874Y0087844D02*
X0052622Y0087844D01*
X0052882Y0087058D02*
X0054614Y0087058D01*
X0054614Y0086272D02*
X0052882Y0086272D01*
X0052847Y0085486D02*
X0054649Y0085486D01*
X0054975Y0084700D02*
X0052521Y0084700D01*
X0053176Y0083915D02*
X0055381Y0083915D01*
X0056167Y0083129D02*
X0053962Y0083129D01*
X0054748Y0082343D02*
X0057726Y0082343D01*
X0059770Y0082343D02*
X0060625Y0082343D01*
X0058551Y0076591D02*
X0048748Y0086394D01*
X0044874Y0087844D02*
X0033079Y0087844D01*
X0033079Y0088630D02*
X0045200Y0088630D01*
X0045924Y0089416D02*
X0033079Y0089416D01*
X0036847Y0086272D02*
X0029142Y0086272D01*
X0045638Y0079985D02*
X0049233Y0079985D01*
X0047690Y0079199D02*
X0045638Y0079199D01*
X0045638Y0078413D02*
X0046986Y0078413D01*
X0046297Y0077627D02*
X0045387Y0077627D01*
X0045062Y0076841D02*
X0045936Y0076841D01*
X0045659Y0076055D02*
X0044736Y0076055D01*
X0044159Y0075270D02*
X0045677Y0075270D01*
X0045677Y0074484D02*
X0043373Y0074484D01*
X0042497Y0073698D02*
X0045677Y0073698D01*
X0045677Y0072912D02*
X0040599Y0072912D01*
X0040559Y0072126D02*
X0045203Y0072126D01*
X0041200Y0071340D02*
X0040706Y0071340D01*
X0040953Y0070554D02*
X0040953Y0070554D01*
X0040953Y0069768D02*
X0040953Y0069768D01*
X0036622Y0069768D02*
X0036304Y0069768D01*
X0036622Y0070554D02*
X0035518Y0070554D01*
X0034732Y0071340D02*
X0036869Y0071340D01*
X0037016Y0072126D02*
X0033947Y0072126D01*
X0033161Y0072912D02*
X0036897Y0072912D01*
X0051010Y0067410D02*
X0052764Y0067410D01*
X0052764Y0066624D02*
X0050224Y0066624D01*
X0049439Y0065839D02*
X0052764Y0065839D01*
X0052764Y0065053D02*
X0048653Y0065053D01*
X0047867Y0064267D02*
X0052764Y0064267D01*
X0052764Y0063481D02*
X0047081Y0063481D01*
X0046295Y0062695D02*
X0052764Y0062695D01*
X0052764Y0061909D02*
X0025992Y0061909D01*
X0022449Y0062695D02*
X0022244Y0062695D01*
X0015953Y0068323D02*
X0016150Y0069307D01*
X0016150Y0073441D01*
X0014224Y0075270D02*
X0013990Y0075270D01*
X0013750Y0071340D02*
X0014496Y0071340D01*
X0012953Y0070554D02*
X0012653Y0070554D01*
X0012705Y0069768D02*
X0012902Y0069768D01*
X0012902Y0068982D02*
X0012705Y0068982D01*
X0045756Y0056394D02*
X0049181Y0056394D01*
X0060047Y0056315D02*
X0064575Y0051787D01*
X0067331Y0051787D01*
X0069496Y0051692D02*
X0081701Y0051692D01*
X0081701Y0051591D02*
X0079535Y0051591D01*
X0079535Y0049663D01*
X0079616Y0049363D01*
X0079771Y0049094D01*
X0079991Y0048874D01*
X0080261Y0048718D01*
X0080561Y0048638D01*
X0081701Y0048638D01*
X0081701Y0051590D01*
X0082094Y0051590D01*
X0082094Y0048638D01*
X0083234Y0048638D01*
X0083535Y0048718D01*
X0083804Y0048874D01*
X0084024Y0049094D01*
X0084179Y0049363D01*
X0084260Y0049663D01*
X0084260Y0051591D01*
X0082095Y0051591D01*
X0082095Y0051984D01*
X0084260Y0051984D01*
X0084260Y0053911D01*
X0084179Y0054212D01*
X0084024Y0054481D01*
X0083804Y0054701D01*
X0083535Y0054857D01*
X0083234Y0054937D01*
X0082094Y0054937D01*
X0082094Y0051984D01*
X0081701Y0051984D01*
X0081701Y0051591D01*
X0081701Y0051984D02*
X0079535Y0051984D01*
X0079535Y0053911D01*
X0079616Y0054212D01*
X0079771Y0054481D01*
X0079991Y0054701D01*
X0080261Y0054857D01*
X0080561Y0054937D01*
X0081701Y0054937D01*
X0081701Y0051984D01*
X0082095Y0051692D02*
X0085441Y0051692D01*
X0085441Y0050906D02*
X0084260Y0050906D01*
X0084260Y0050120D02*
X0085441Y0050120D01*
X0085441Y0049334D02*
X0084163Y0049334D01*
X0085441Y0048548D02*
X0076634Y0048548D01*
X0076858Y0048456D02*
X0075913Y0048847D01*
X0074890Y0048847D01*
X0073945Y0048456D01*
X0073536Y0048047D01*
X0061819Y0048047D01*
X0061819Y0050002D01*
X0062213Y0050395D01*
X0062213Y0052201D01*
X0063197Y0051217D01*
X0064004Y0050409D01*
X0065165Y0050409D01*
X0065165Y0049411D01*
X0065742Y0048835D01*
X0068920Y0048835D01*
X0069496Y0049411D01*
X0069496Y0054164D01*
X0068920Y0054740D01*
X0065742Y0054740D01*
X0065165Y0054164D01*
X0065165Y0053165D01*
X0065146Y0053165D01*
X0062213Y0056098D01*
X0062213Y0057904D01*
X0061636Y0058480D01*
X0061425Y0058480D01*
X0061425Y0062024D01*
X0061636Y0062024D01*
X0062213Y0062600D01*
X0062213Y0064406D01*
X0065165Y0067358D01*
X0065165Y0066734D01*
X0065742Y0066157D01*
X0068920Y0066157D01*
X0069496Y0066734D01*
X0069496Y0071486D01*
X0068920Y0072063D01*
X0065742Y0072063D01*
X0065165Y0071486D01*
X0065165Y0070488D01*
X0064398Y0070488D01*
X0063591Y0069681D01*
X0062213Y0068303D01*
X0062213Y0070108D01*
X0061636Y0070685D01*
X0061425Y0070685D01*
X0061425Y0071969D01*
X0061740Y0071655D01*
X0062685Y0071263D01*
X0063708Y0071263D01*
X0064654Y0071655D01*
X0065205Y0072206D01*
X0065348Y0072063D01*
X0068526Y0072063D01*
X0069102Y0072640D01*
X0069102Y0075213D01*
X0069102Y0072640D01*
X0069679Y0072063D01*
X0071484Y0072063D01*
X0078945Y0064602D01*
X0079752Y0063795D01*
X0083886Y0063795D01*
X0084083Y0063598D01*
X0083514Y0063598D01*
X0083213Y0063518D01*
X0082944Y0063362D01*
X0082724Y0063143D01*
X0082569Y0062873D01*
X0082488Y0062573D01*
X0082488Y0060498D01*
X0084506Y0060498D01*
X0084506Y0060400D01*
X0082488Y0060400D01*
X0082488Y0058325D01*
X0082569Y0058024D01*
X0082724Y0057755D01*
X0082944Y0057535D01*
X0083213Y0057380D01*
X0083514Y0057299D01*
X0084506Y0057299D01*
X0084506Y0060400D01*
X0084604Y0060400D01*
X0084604Y0057299D01*
X0085441Y0057299D01*
X0085441Y0038618D01*
X0087213Y0036847D01*
X0087213Y0033565D01*
X0087789Y0032988D01*
X0091268Y0032988D01*
X0091071Y0032791D01*
X0087789Y0032791D01*
X0087213Y0032215D01*
X0087213Y0030724D01*
X0086611Y0030724D01*
X0086622Y0030766D01*
X0086622Y0032841D01*
X0084604Y0032841D01*
X0084604Y0032939D01*
X0084506Y0032939D01*
X0084506Y0036039D01*
X0083514Y0036039D01*
X0083213Y0035959D01*
X0082944Y0035803D01*
X0082724Y0035583D01*
X0082569Y0035314D01*
X0082488Y0035014D01*
X0082488Y0032939D01*
X0084506Y0032939D01*
X0084506Y0032841D01*
X0082488Y0032841D01*
X0082488Y0030766D01*
X0082499Y0030724D01*
X0081484Y0030724D01*
X0076780Y0035429D01*
X0076780Y0044063D01*
X0076858Y0044095D01*
X0077582Y0044819D01*
X0077973Y0045764D01*
X0077973Y0046787D01*
X0077582Y0047732D01*
X0076858Y0048456D01*
X0077551Y0047763D02*
X0085441Y0047763D01*
X0085441Y0046977D02*
X0077895Y0046977D01*
X0077973Y0046191D02*
X0085441Y0046191D01*
X0085441Y0045405D02*
X0077824Y0045405D01*
X0077382Y0044619D02*
X0080258Y0044619D01*
X0080261Y0044620D02*
X0079991Y0044465D01*
X0079771Y0044245D01*
X0079616Y0043976D01*
X0079535Y0043675D01*
X0079535Y0041748D01*
X0081701Y0041748D01*
X0081701Y0044701D01*
X0080561Y0044701D01*
X0080261Y0044620D01*
X0079578Y0043833D02*
X0076780Y0043833D01*
X0076780Y0043047D02*
X0079535Y0043047D01*
X0079535Y0042261D02*
X0076780Y0042261D01*
X0076780Y0041475D02*
X0081701Y0041475D01*
X0081701Y0041354D02*
X0079535Y0041354D01*
X0079535Y0039427D01*
X0079616Y0039127D01*
X0079771Y0038857D01*
X0079991Y0038638D01*
X0080261Y0038482D01*
X0080561Y0038402D01*
X0081701Y0038402D01*
X0081701Y0041354D01*
X0082094Y0041354D01*
X0082094Y0038402D01*
X0083234Y0038402D01*
X0083535Y0038482D01*
X0083804Y0038638D01*
X0084024Y0038857D01*
X0084179Y0039127D01*
X0084260Y0039427D01*
X0084260Y0041354D01*
X0082095Y0041354D01*
X0082095Y0041748D01*
X0084260Y0041748D01*
X0084260Y0043675D01*
X0084179Y0043976D01*
X0084024Y0044245D01*
X0083804Y0044465D01*
X0083535Y0044620D01*
X0083234Y0044701D01*
X0082094Y0044701D01*
X0082094Y0041748D01*
X0081701Y0041748D01*
X0081701Y0041354D01*
X0082095Y0041475D02*
X0085441Y0041475D01*
X0085441Y0040689D02*
X0084260Y0040689D01*
X0084260Y0039903D02*
X0085441Y0039903D01*
X0085441Y0039118D02*
X0084174Y0039118D01*
X0085728Y0038332D02*
X0076780Y0038332D01*
X0076780Y0039118D02*
X0079621Y0039118D01*
X0079535Y0039903D02*
X0076780Y0039903D01*
X0076780Y0040689D02*
X0079535Y0040689D01*
X0081701Y0040689D02*
X0082094Y0040689D01*
X0082094Y0039903D02*
X0081701Y0039903D01*
X0081701Y0039118D02*
X0082094Y0039118D01*
X0086513Y0037546D02*
X0076780Y0037546D01*
X0076780Y0036760D02*
X0087213Y0036760D01*
X0087213Y0035974D02*
X0085841Y0035974D01*
X0085897Y0035959D02*
X0085596Y0036039D01*
X0084604Y0036039D01*
X0084604Y0032939D01*
X0086622Y0032939D01*
X0086622Y0035014D01*
X0086542Y0035314D01*
X0086386Y0035583D01*
X0086166Y0035803D01*
X0085897Y0035959D01*
X0086575Y0035188D02*
X0087213Y0035188D01*
X0087213Y0034402D02*
X0086622Y0034402D01*
X0086622Y0033616D02*
X0087213Y0033616D01*
X0086622Y0032830D02*
X0091110Y0032830D01*
X0093906Y0033677D02*
X0089969Y0029740D01*
X0089575Y0029346D01*
X0080913Y0029346D01*
X0075402Y0034858D01*
X0075402Y0046276D01*
X0073536Y0044504D02*
X0073945Y0044095D01*
X0074024Y0044063D01*
X0074024Y0034755D01*
X0073315Y0035464D01*
X0072370Y0035855D01*
X0071347Y0035855D01*
X0070402Y0035464D01*
X0069678Y0034740D01*
X0069287Y0033795D01*
X0069287Y0032772D01*
X0069319Y0032693D01*
X0066957Y0030331D01*
X0066582Y0030331D01*
X0066660Y0030465D01*
X0066740Y0030766D01*
X0066740Y0032841D01*
X0064723Y0032841D01*
X0064723Y0032939D01*
X0066740Y0032939D01*
X0066740Y0035014D01*
X0066660Y0035314D01*
X0066504Y0035583D01*
X0066284Y0035803D01*
X0066015Y0035959D01*
X0065715Y0036039D01*
X0064722Y0036039D01*
X0064722Y0032939D01*
X0064624Y0032939D01*
X0064624Y0036039D01*
X0063632Y0036039D01*
X0063332Y0035959D01*
X0063062Y0035803D01*
X0062842Y0035583D01*
X0062687Y0035314D01*
X0062606Y0035014D01*
X0062606Y0032939D01*
X0064624Y0032939D01*
X0064624Y0032841D01*
X0062606Y0032841D01*
X0062606Y0030766D01*
X0062687Y0030465D01*
X0062765Y0030331D01*
X0062213Y0030331D01*
X0062213Y0030345D01*
X0061636Y0030921D01*
X0059831Y0030921D01*
X0059831Y0030921D01*
X0061636Y0030921D01*
X0062213Y0031498D01*
X0062213Y0034675D01*
X0061833Y0035055D01*
X0062213Y0035435D01*
X0062213Y0037240D01*
X0065146Y0040173D01*
X0065165Y0040173D01*
X0065165Y0039175D01*
X0065742Y0038598D01*
X0068920Y0038598D01*
X0069496Y0039175D01*
X0069496Y0043927D01*
X0068920Y0044504D01*
X0065742Y0044504D01*
X0065165Y0043927D01*
X0065165Y0042929D01*
X0064004Y0042929D01*
X0063197Y0042122D01*
X0062213Y0041138D01*
X0062213Y0042943D01*
X0061819Y0043337D01*
X0061819Y0044504D01*
X0073536Y0044504D01*
X0074024Y0043833D02*
X0069496Y0043833D01*
X0069496Y0043047D02*
X0074024Y0043047D01*
X0074024Y0042261D02*
X0069496Y0042261D01*
X0069496Y0041475D02*
X0074024Y0041475D01*
X0074024Y0040689D02*
X0069496Y0040689D01*
X0069496Y0039903D02*
X0074024Y0039903D01*
X0074024Y0039118D02*
X0069439Y0039118D01*
X0067331Y0041551D02*
X0064575Y0041551D01*
X0060047Y0037024D01*
X0060047Y0033087D01*
X0062213Y0032830D02*
X0062606Y0032830D01*
X0062606Y0032044D02*
X0062213Y0032044D01*
X0061973Y0031258D02*
X0062606Y0031258D01*
X0062685Y0030472D02*
X0062085Y0030472D01*
X0060441Y0028953D02*
X0060047Y0028953D01*
X0060047Y0028756D01*
X0057685Y0031118D01*
X0057685Y0035252D01*
X0057685Y0043520D01*
X0054929Y0046276D01*
X0053354Y0046276D01*
X0049299Y0046276D01*
X0049181Y0046394D01*
X0060047Y0046276D02*
X0060047Y0041354D01*
X0062213Y0041475D02*
X0062550Y0041475D01*
X0062213Y0042261D02*
X0063336Y0042261D01*
X0062109Y0043047D02*
X0065165Y0043047D01*
X0065165Y0043833D02*
X0061819Y0043833D01*
X0064876Y0039903D02*
X0065165Y0039903D01*
X0065223Y0039118D02*
X0064090Y0039118D01*
X0063304Y0038332D02*
X0074024Y0038332D01*
X0074024Y0037546D02*
X0062518Y0037546D01*
X0062213Y0036760D02*
X0074024Y0036760D01*
X0074024Y0035974D02*
X0065959Y0035974D01*
X0066693Y0035188D02*
X0070126Y0035188D01*
X0069538Y0034402D02*
X0066740Y0034402D01*
X0066740Y0033616D02*
X0069287Y0033616D01*
X0069287Y0032830D02*
X0066740Y0032830D01*
X0066740Y0032044D02*
X0068670Y0032044D01*
X0067884Y0031258D02*
X0066740Y0031258D01*
X0066662Y0030472D02*
X0067099Y0030472D01*
X0067528Y0028953D02*
X0071858Y0033283D01*
X0074129Y0032044D02*
X0076267Y0032044D01*
X0077053Y0031258D02*
X0073470Y0031258D01*
X0070996Y0030472D02*
X0077839Y0030472D01*
X0078625Y0029687D02*
X0072611Y0029687D01*
X0073579Y0028901D02*
X0079410Y0028901D01*
X0080196Y0028115D02*
X0073943Y0028115D01*
X0074036Y0027329D02*
X0080378Y0027329D01*
X0079587Y0026543D02*
X0073902Y0026543D01*
X0073480Y0025757D02*
X0079535Y0025757D01*
X0079535Y0024971D02*
X0072374Y0024971D01*
X0070555Y0024971D02*
X0069496Y0024971D01*
X0069496Y0024185D02*
X0081701Y0024185D01*
X0082095Y0024185D02*
X0089158Y0024185D01*
X0089944Y0024971D02*
X0084260Y0024971D01*
X0084260Y0025757D02*
X0090730Y0025757D01*
X0091543Y0024622D02*
X0088787Y0021866D01*
X0088000Y0021079D01*
X0053748Y0021079D01*
X0042331Y0032496D01*
X0041615Y0028901D02*
X0025598Y0028901D01*
X0025598Y0028115D02*
X0042401Y0028115D01*
X0043187Y0027329D02*
X0025598Y0027329D01*
X0025598Y0026543D02*
X0043973Y0026543D01*
X0044759Y0025757D02*
X0025598Y0025757D01*
X0025598Y0024971D02*
X0035589Y0024971D01*
X0037353Y0025402D02*
X0037353Y0025402D01*
X0042284Y0025150D02*
X0042284Y0025150D01*
X0042787Y0024971D02*
X0045545Y0024971D01*
X0044994Y0024185D02*
X0046331Y0024185D01*
X0046936Y0023494D02*
X0046936Y0023494D01*
X0047065Y0023399D02*
X0047117Y0023399D01*
X0042841Y0021042D02*
X0035027Y0021042D01*
X0029802Y0022613D02*
X0025598Y0022613D01*
X0025598Y0021827D02*
X0028462Y0021827D01*
X0026806Y0021042D02*
X0025598Y0021042D01*
X0025598Y0020256D02*
X0025816Y0020256D01*
X0025881Y0017112D02*
X0025598Y0017112D01*
X0025598Y0016326D02*
X0026964Y0016326D01*
X0025598Y0023399D02*
X0031141Y0023399D01*
X0032480Y0024185D02*
X0025598Y0024185D01*
X0014675Y0030472D02*
X0012478Y0030472D01*
X0013017Y0031258D02*
X0014516Y0031258D01*
X0014516Y0032044D02*
X0013342Y0032044D01*
X0013531Y0032830D02*
X0014516Y0032830D01*
X0014516Y0033616D02*
X0013531Y0033616D01*
X0013490Y0034402D02*
X0014516Y0034402D01*
X0014516Y0035188D02*
X0013165Y0035188D01*
X0012835Y0035974D02*
X0014516Y0035974D01*
X0014516Y0036760D02*
X0012049Y0036760D01*
X0019535Y0039903D02*
X0019535Y0039903D01*
X0019535Y0040689D02*
X0019535Y0040689D01*
X0005717Y0046394D02*
X0005717Y0046394D01*
X0005717Y0029687D02*
X0006316Y0029687D01*
X0005717Y0028901D02*
X0008039Y0028901D01*
X0049181Y0028008D02*
X0052173Y0025016D01*
X0062016Y0025016D01*
X0064378Y0027378D01*
X0071465Y0027378D01*
X0070318Y0029687D02*
X0070210Y0029687D01*
X0067528Y0028953D02*
X0060441Y0028953D01*
X0062213Y0033616D02*
X0062606Y0033616D01*
X0062606Y0034402D02*
X0062213Y0034402D01*
X0061966Y0035188D02*
X0062653Y0035188D01*
X0062213Y0035974D02*
X0063387Y0035974D01*
X0064624Y0035974D02*
X0064722Y0035974D01*
X0064722Y0035188D02*
X0064624Y0035188D01*
X0064624Y0034402D02*
X0064722Y0034402D01*
X0064722Y0033616D02*
X0064624Y0033616D01*
X0073591Y0035188D02*
X0074024Y0035188D01*
X0074430Y0033616D02*
X0074695Y0033616D01*
X0074430Y0032830D02*
X0075481Y0032830D01*
X0078592Y0033616D02*
X0082488Y0033616D01*
X0082488Y0032830D02*
X0079378Y0032830D01*
X0080164Y0032044D02*
X0082488Y0032044D01*
X0082488Y0031258D02*
X0080950Y0031258D01*
X0084506Y0033616D02*
X0084604Y0033616D01*
X0084604Y0034402D02*
X0084506Y0034402D01*
X0084506Y0035188D02*
X0084604Y0035188D01*
X0084604Y0035974D02*
X0084506Y0035974D01*
X0083269Y0035974D02*
X0076780Y0035974D01*
X0077021Y0035188D02*
X0082535Y0035188D01*
X0082488Y0034402D02*
X0077807Y0034402D01*
X0086622Y0032044D02*
X0087213Y0032044D01*
X0087213Y0031258D02*
X0086622Y0031258D01*
X0092724Y0030472D02*
X0097685Y0030472D01*
X0097685Y0029687D02*
X0092724Y0029687D01*
X0092724Y0028901D02*
X0097685Y0028901D01*
X0097685Y0028115D02*
X0092724Y0028115D01*
X0092724Y0027329D02*
X0097685Y0027329D01*
X0097685Y0026543D02*
X0095621Y0026543D01*
X0096219Y0025757D02*
X0097685Y0025757D01*
X0097685Y0024971D02*
X0096477Y0024971D01*
X0096477Y0024185D02*
X0097685Y0024185D01*
X0097685Y0023399D02*
X0096183Y0023399D01*
X0093906Y0024622D02*
X0091543Y0024622D01*
X0088372Y0023399D02*
X0084260Y0023399D01*
X0084260Y0022613D02*
X0087586Y0022613D01*
X0082094Y0024971D02*
X0081701Y0024971D01*
X0081701Y0025757D02*
X0082094Y0025757D01*
X0082094Y0026543D02*
X0081701Y0026543D01*
X0081701Y0027329D02*
X0082094Y0027329D01*
X0083418Y0027329D02*
X0087213Y0027329D01*
X0084209Y0026543D02*
X0092190Y0026543D01*
X0093435Y0031258D02*
X0097685Y0031258D01*
X0097685Y0032044D02*
X0094221Y0032044D01*
X0095007Y0032830D02*
X0097848Y0032830D01*
X0095283Y0033616D02*
X0107882Y0033616D01*
X0108552Y0032830D02*
X0101853Y0032830D01*
X0102016Y0032044D02*
X0112646Y0032044D01*
X0112646Y0031258D02*
X0102016Y0031258D01*
X0102016Y0030472D02*
X0112646Y0030472D01*
X0112646Y0029687D02*
X0102016Y0029687D01*
X0102016Y0028901D02*
X0112646Y0028901D01*
X0112646Y0028115D02*
X0102016Y0028115D01*
X0102016Y0027329D02*
X0112646Y0027329D01*
X0112646Y0026543D02*
X0102016Y0026543D01*
X0102016Y0025757D02*
X0112646Y0025757D01*
X0112646Y0024971D02*
X0102016Y0024971D01*
X0102016Y0024185D02*
X0112646Y0024185D01*
X0112646Y0023399D02*
X0102016Y0023399D01*
X0102016Y0022613D02*
X0112646Y0022613D01*
X0116346Y0020685D02*
X0119496Y0023835D01*
X0119654Y0023835D01*
X0121622Y0023835D01*
X0123197Y0025409D01*
X0125559Y0022260D02*
X0126543Y0023244D01*
X0126740Y0023244D01*
X0125559Y0022260D02*
X0120441Y0022260D01*
X0117291Y0019110D01*
X0108472Y0019110D01*
X0101937Y0019110D01*
X0101543Y0018717D01*
X0099181Y0016354D01*
X0095244Y0016354D01*
X0068709Y0016354D01*
X0058748Y0006394D01*
X0062483Y0008180D02*
X0062882Y0007216D01*
X0062882Y0005571D01*
X0062253Y0004052D01*
X0061563Y0003362D01*
X0065933Y0003362D01*
X0065244Y0004052D01*
X0064614Y0005571D01*
X0064614Y0007216D01*
X0065244Y0008735D01*
X0066406Y0009898D01*
X0067926Y0010528D01*
X0069570Y0010528D01*
X0070534Y0010128D01*
X0075382Y0014976D01*
X0069279Y0014976D01*
X0062483Y0008180D01*
X0062770Y0008467D02*
X0065132Y0008467D01*
X0064807Y0007681D02*
X0062689Y0007681D01*
X0062882Y0006895D02*
X0064614Y0006895D01*
X0064614Y0006109D02*
X0062882Y0006109D01*
X0062779Y0005323D02*
X0064717Y0005323D01*
X0065042Y0004537D02*
X0062454Y0004537D01*
X0061952Y0003751D02*
X0065544Y0003751D01*
X0068748Y0006394D02*
X0077134Y0014780D01*
X0096031Y0014780D01*
X0099969Y0014780D01*
X0102724Y0017535D01*
X0118079Y0017535D01*
X0121228Y0020685D01*
X0136583Y0020685D01*
X0138945Y0023047D01*
X0143669Y0027772D01*
X0143669Y0034465D01*
X0142094Y0034465D02*
X0142094Y0030134D01*
X0140476Y0028515D01*
X0138000Y0030991D01*
X0138000Y0031118D01*
X0135795Y0029721D02*
X0135820Y0029661D01*
X0136543Y0028938D01*
X0137488Y0028546D01*
X0137821Y0028546D01*
X0137821Y0028237D01*
X0137569Y0028305D01*
X0137258Y0028305D01*
X0136958Y0028224D01*
X0136689Y0028069D01*
X0135883Y0027263D01*
X0137414Y0025732D01*
X0137135Y0025453D01*
X0137414Y0025175D01*
X0135883Y0023644D01*
X0136689Y0022838D01*
X0136751Y0022802D01*
X0136012Y0022063D01*
X0133039Y0022063D01*
X0133039Y0023047D01*
X0130874Y0023047D01*
X0130874Y0023441D01*
X0130677Y0023244D01*
X0130874Y0023399D02*
X0136127Y0023399D01*
X0135604Y0023922D02*
X0137135Y0025453D01*
X0135604Y0026984D01*
X0134798Y0026178D01*
X0134643Y0025909D01*
X0134562Y0025609D01*
X0134562Y0025298D01*
X0134643Y0024997D01*
X0134798Y0024728D01*
X0135604Y0023922D01*
X0135341Y0024185D02*
X0133039Y0024185D01*
X0133039Y0024581D02*
X0132959Y0024881D01*
X0132803Y0025150D01*
X0132583Y0025370D01*
X0132357Y0025501D01*
X0132843Y0025986D01*
X0132843Y0026984D01*
X0133059Y0026984D01*
X0133866Y0027791D01*
X0135795Y0029721D01*
X0135809Y0029687D02*
X0135761Y0029687D01*
X0134975Y0028901D02*
X0136633Y0028901D01*
X0136769Y0028115D02*
X0134189Y0028115D01*
X0133404Y0027329D02*
X0135949Y0027329D01*
X0136046Y0026543D02*
X0136602Y0026543D01*
X0136831Y0025757D02*
X0137388Y0025757D01*
X0137414Y0025453D02*
X0136429Y0025453D01*
X0134417Y0023441D01*
X0130874Y0023441D01*
X0133039Y0023441D01*
X0133039Y0024581D01*
X0132907Y0024971D02*
X0134658Y0024971D01*
X0134602Y0025757D02*
X0132613Y0025757D01*
X0132843Y0026543D02*
X0135163Y0026543D01*
X0136653Y0024971D02*
X0137210Y0024971D01*
X0136424Y0024185D02*
X0135867Y0024185D01*
X0136562Y0022613D02*
X0133039Y0022613D01*
X0137370Y0019110D02*
X0139732Y0021472D01*
X0145244Y0026984D01*
X0145244Y0034465D01*
X0146819Y0034465D02*
X0146819Y0026197D01*
X0143276Y0022654D01*
X0138157Y0017535D01*
X0131465Y0017535D01*
X0123197Y0017535D01*
X0122646Y0017535D01*
X0119496Y0014386D01*
X0104299Y0014386D01*
X0103118Y0013205D01*
X0101543Y0011630D01*
X0096819Y0011630D01*
X0093984Y0011630D01*
X0088748Y0006394D01*
X0085559Y0013205D02*
X0078748Y0006394D01*
X0075933Y0003362D02*
X0075244Y0004052D01*
X0074614Y0005571D01*
X0074614Y0007216D01*
X0075244Y0008735D01*
X0076406Y0009898D01*
X0077926Y0010528D01*
X0079570Y0010528D01*
X0080534Y0010128D01*
X0083807Y0013402D01*
X0077705Y0013402D01*
X0072483Y0008180D01*
X0072882Y0007216D01*
X0072882Y0005571D01*
X0072253Y0004052D01*
X0071563Y0003362D01*
X0075933Y0003362D01*
X0075544Y0003751D02*
X0071952Y0003751D01*
X0072454Y0004537D02*
X0075042Y0004537D01*
X0074717Y0005323D02*
X0072779Y0005323D01*
X0072882Y0006109D02*
X0074614Y0006109D01*
X0074614Y0006895D02*
X0072882Y0006895D01*
X0072689Y0007681D02*
X0074807Y0007681D01*
X0075132Y0008467D02*
X0072770Y0008467D01*
X0073556Y0009253D02*
X0075761Y0009253D01*
X0076746Y0010039D02*
X0074342Y0010039D01*
X0075128Y0010825D02*
X0081230Y0010825D01*
X0082016Y0011611D02*
X0075914Y0011611D01*
X0076700Y0012396D02*
X0082802Y0012396D01*
X0083588Y0013182D02*
X0077485Y0013182D01*
X0075160Y0014754D02*
X0069057Y0014754D01*
X0068271Y0013968D02*
X0074374Y0013968D01*
X0073588Y0013182D02*
X0067485Y0013182D01*
X0066700Y0012396D02*
X0072802Y0012396D01*
X0072016Y0011611D02*
X0065914Y0011611D01*
X0065128Y0010825D02*
X0071230Y0010825D01*
X0066746Y0010039D02*
X0064342Y0010039D01*
X0063556Y0009253D02*
X0065761Y0009253D01*
X0061230Y0010825D02*
X0055128Y0010825D01*
X0055914Y0011611D02*
X0062016Y0011611D01*
X0062802Y0012396D02*
X0056700Y0012396D01*
X0057485Y0013182D02*
X0063588Y0013182D01*
X0064374Y0013968D02*
X0058271Y0013968D01*
X0059057Y0014754D02*
X0065160Y0014754D01*
X0065946Y0015540D02*
X0059843Y0015540D01*
X0060629Y0016326D02*
X0066732Y0016326D01*
X0066957Y0016551D02*
X0060534Y0010128D01*
X0059570Y0010528D01*
X0057926Y0010528D01*
X0056406Y0009898D01*
X0055244Y0008735D01*
X0054614Y0007216D01*
X0054614Y0005571D01*
X0055244Y0004052D01*
X0055933Y0003362D01*
X0052882Y0003362D01*
X0052882Y0008579D01*
X0060854Y0016551D01*
X0066957Y0016551D01*
X0058303Y0017898D02*
X0053564Y0017898D01*
X0053564Y0017112D02*
X0057518Y0017112D01*
X0056732Y0016326D02*
X0053275Y0016326D01*
X0052634Y0015540D02*
X0055946Y0015540D01*
X0056746Y0010039D02*
X0054342Y0010039D01*
X0053556Y0009253D02*
X0055761Y0009253D01*
X0055132Y0008467D02*
X0052882Y0008467D01*
X0052882Y0007681D02*
X0054807Y0007681D01*
X0054614Y0006895D02*
X0052882Y0006895D01*
X0052882Y0006109D02*
X0054614Y0006109D01*
X0054717Y0005323D02*
X0052882Y0005323D01*
X0052882Y0004537D02*
X0055042Y0004537D01*
X0055544Y0003751D02*
X0052882Y0003751D01*
X0085559Y0013205D02*
X0096031Y0013205D01*
X0100756Y0013205D01*
X0103512Y0015961D01*
X0118709Y0015961D01*
X0121858Y0019110D01*
X0137370Y0019110D01*
X0138945Y0015961D02*
X0141701Y0018717D01*
X0148394Y0025409D01*
X0148394Y0034465D01*
X0149969Y0034465D02*
X0149969Y0024622D01*
X0139732Y0014386D01*
X0128551Y0014386D01*
X0124220Y0014386D01*
X0121071Y0011236D01*
X0113591Y0011236D01*
X0108748Y0006394D01*
X0118748Y0006394D02*
X0125165Y0012811D01*
X0140520Y0012811D01*
X0145244Y0017535D01*
X0151543Y0023835D01*
X0151543Y0034465D01*
X0153118Y0034465D02*
X0153118Y0023047D01*
X0142882Y0012811D01*
X0141307Y0011236D01*
X0136189Y0011236D01*
X0133591Y0011236D01*
X0128748Y0006394D01*
X0138748Y0006394D02*
X0154693Y0022339D01*
X0154693Y0034465D01*
X0156268Y0034465D02*
X0156268Y0013913D01*
X0148748Y0006394D01*
X0145933Y0003362D02*
X0145244Y0004052D01*
X0144614Y0005571D01*
X0144614Y0007216D01*
X0145244Y0008735D01*
X0146406Y0009898D01*
X0147926Y0010528D01*
X0149570Y0010528D01*
X0150534Y0010128D01*
X0154890Y0014484D01*
X0154890Y0020587D01*
X0142483Y0008180D01*
X0142882Y0007216D01*
X0142882Y0005571D01*
X0142253Y0004052D01*
X0141563Y0003362D01*
X0145933Y0003362D01*
X0145544Y0003751D02*
X0141952Y0003751D01*
X0142454Y0004537D02*
X0145042Y0004537D01*
X0144717Y0005323D02*
X0142779Y0005323D01*
X0142882Y0006109D02*
X0144614Y0006109D01*
X0144614Y0006895D02*
X0142882Y0006895D01*
X0142689Y0007681D02*
X0144807Y0007681D01*
X0145132Y0008467D02*
X0142770Y0008467D01*
X0143556Y0009253D02*
X0145761Y0009253D01*
X0146746Y0010039D02*
X0144342Y0010039D01*
X0145128Y0010825D02*
X0151230Y0010825D01*
X0152016Y0011611D02*
X0145914Y0011611D01*
X0146700Y0012396D02*
X0152802Y0012396D01*
X0153588Y0013182D02*
X0147485Y0013182D01*
X0148271Y0013968D02*
X0154374Y0013968D01*
X0154890Y0014754D02*
X0149057Y0014754D01*
X0149843Y0015540D02*
X0154890Y0015540D01*
X0154890Y0016326D02*
X0150629Y0016326D01*
X0151415Y0017112D02*
X0154890Y0017112D01*
X0154890Y0017898D02*
X0152201Y0017898D01*
X0152987Y0018684D02*
X0154890Y0018684D01*
X0154890Y0019470D02*
X0153773Y0019470D01*
X0154559Y0020256D02*
X0154890Y0020256D01*
X0160795Y0020256D02*
X0165520Y0020256D01*
X0165520Y0021042D02*
X0160795Y0021042D01*
X0160795Y0021827D02*
X0165520Y0021827D01*
X0165520Y0022613D02*
X0160795Y0022613D01*
X0160795Y0023399D02*
X0165520Y0023399D01*
X0165520Y0024185D02*
X0160795Y0024185D01*
X0160795Y0024971D02*
X0165520Y0024971D01*
X0165520Y0025757D02*
X0160795Y0025757D01*
X0160795Y0026543D02*
X0165520Y0026543D01*
X0165520Y0027329D02*
X0160795Y0027329D01*
X0161110Y0027954D02*
X0162055Y0027562D01*
X0163078Y0027562D01*
X0164024Y0027954D01*
X0164747Y0028677D01*
X0165139Y0029622D01*
X0165139Y0030645D01*
X0165106Y0030724D01*
X0165520Y0031138D01*
X0165520Y0018500D01*
X0165520Y0017358D01*
X0167508Y0015370D01*
X0174921Y0007957D01*
X0174614Y0007216D01*
X0174614Y0005571D01*
X0175244Y0004052D01*
X0175933Y0003362D01*
X0171563Y0003362D01*
X0172253Y0004052D01*
X0172882Y0005571D01*
X0172882Y0007216D01*
X0172253Y0008735D01*
X0171090Y0009898D01*
X0169570Y0010528D01*
X0167926Y0010528D01*
X0166986Y0010138D01*
X0164943Y0012207D01*
X0164981Y0012299D01*
X0164981Y0013323D01*
X0164590Y0014268D01*
X0163866Y0014991D01*
X0162921Y0015383D01*
X0161898Y0015383D01*
X0161788Y0015337D01*
X0160795Y0016302D01*
X0160795Y0028269D01*
X0161110Y0027954D01*
X0160949Y0028115D02*
X0160795Y0028115D01*
X0164185Y0028115D02*
X0165520Y0028115D01*
X0165520Y0028901D02*
X0164840Y0028901D01*
X0165139Y0029687D02*
X0165520Y0029687D01*
X0165520Y0030472D02*
X0165139Y0030472D01*
X0165323Y0032890D02*
X0162567Y0030134D01*
X0165323Y0032890D02*
X0165323Y0038008D01*
X0164929Y0038402D01*
X0164142Y0039189D01*
X0162567Y0039189D01*
X0162567Y0040764D02*
X0164929Y0040764D01*
X0166898Y0038795D01*
X0166898Y0017929D01*
X0168079Y0016748D01*
X0178709Y0006118D01*
X0178709Y0006354D01*
X0178748Y0006394D01*
X0174614Y0006109D02*
X0172882Y0006109D01*
X0172882Y0006895D02*
X0174614Y0006895D01*
X0174807Y0007681D02*
X0172689Y0007681D01*
X0172364Y0008467D02*
X0174411Y0008467D01*
X0173625Y0009253D02*
X0171735Y0009253D01*
X0170750Y0010039D02*
X0172839Y0010039D01*
X0172053Y0010825D02*
X0166308Y0010825D01*
X0165532Y0011611D02*
X0171267Y0011611D01*
X0170482Y0012396D02*
X0164981Y0012396D01*
X0164981Y0013182D02*
X0169696Y0013182D01*
X0168910Y0013968D02*
X0164714Y0013968D01*
X0164103Y0014754D02*
X0168124Y0014754D01*
X0167338Y0015540D02*
X0161579Y0015540D01*
X0160795Y0016326D02*
X0166552Y0016326D01*
X0165766Y0017112D02*
X0160795Y0017112D01*
X0160795Y0017898D02*
X0165520Y0017898D01*
X0165520Y0018684D02*
X0160795Y0018684D01*
X0160795Y0019470D02*
X0165520Y0019470D01*
X0168472Y0019504D02*
X0169654Y0018323D01*
X0172016Y0015961D01*
X0175953Y0012024D01*
X0177134Y0012024D01*
X0183118Y0012024D01*
X0188748Y0006394D01*
X0196962Y0010128D02*
X0192134Y0014957D01*
X0191327Y0015764D01*
X0177311Y0015764D01*
X0172606Y0020468D01*
X0171425Y0021650D01*
X0171425Y0038795D01*
X0178478Y0038795D01*
X0178709Y0039026D01*
X0178709Y0041945D01*
X0181844Y0041945D01*
X0182147Y0041643D01*
X0181920Y0041512D01*
X0181701Y0041292D01*
X0181545Y0041023D01*
X0181465Y0040722D01*
X0181465Y0039583D01*
X0183630Y0039583D01*
X0183630Y0039189D01*
X0184024Y0039189D01*
X0184024Y0039583D01*
X0186189Y0039583D01*
X0186189Y0040722D01*
X0186108Y0041023D01*
X0185953Y0041292D01*
X0185733Y0041512D01*
X0185507Y0041643D01*
X0185809Y0041945D01*
X0186450Y0041945D01*
X0186386Y0041707D01*
X0186386Y0040419D01*
X0188797Y0040419D01*
X0188797Y0039730D01*
X0189486Y0039730D01*
X0189486Y0037417D01*
X0190872Y0037417D01*
X0191172Y0037498D01*
X0191442Y0037653D01*
X0191662Y0037873D01*
X0191817Y0038143D01*
X0191898Y0038443D01*
X0191898Y0039730D01*
X0189486Y0039730D01*
X0189486Y0040419D01*
X0191898Y0040419D01*
X0191898Y0041707D01*
X0191817Y0042007D01*
X0191662Y0042276D01*
X0191442Y0042496D01*
X0191172Y0042652D01*
X0191110Y0042668D01*
X0191110Y0045552D01*
X0191172Y0045569D01*
X0191442Y0045724D01*
X0191662Y0045944D01*
X0191817Y0046213D01*
X0191898Y0046514D01*
X0191898Y0047801D01*
X0189486Y0047801D01*
X0189486Y0048490D01*
X0188797Y0048490D01*
X0188797Y0047801D01*
X0186386Y0047801D01*
X0186386Y0046514D01*
X0186450Y0046276D01*
X0178709Y0046276D01*
X0178709Y0054313D01*
X0178478Y0054543D01*
X0178118Y0054543D01*
X0178118Y0055134D01*
X0175953Y0055134D01*
X0175953Y0055528D01*
X0175559Y0055528D01*
X0175559Y0059071D01*
X0175953Y0059071D01*
X0175953Y0059465D01*
X0175559Y0059465D01*
X0175559Y0061630D01*
X0174968Y0061630D01*
X0176051Y0061630D01*
X0176051Y0064091D01*
X0176839Y0064091D01*
X0176839Y0064878D01*
X0179102Y0064878D01*
X0179102Y0064780D01*
X0181268Y0064780D01*
X0181268Y0064386D01*
X0181661Y0064386D01*
X0181661Y0062220D01*
X0182801Y0062220D01*
X0183102Y0062301D01*
X0183371Y0062456D01*
X0183591Y0062676D01*
X0183746Y0062946D01*
X0183827Y0063246D01*
X0183827Y0064386D01*
X0181661Y0064386D01*
X0181661Y0064780D01*
X0183827Y0064780D01*
X0183827Y0065919D01*
X0183746Y0066220D01*
X0183591Y0066489D01*
X0183371Y0066709D01*
X0183145Y0066839D01*
X0183630Y0067325D01*
X0183630Y0070502D01*
X0183053Y0071079D01*
X0179876Y0071079D01*
X0179299Y0070502D01*
X0179299Y0070291D01*
X0179299Y0071093D01*
X0178723Y0071669D01*
X0174167Y0071669D01*
X0173682Y0071184D01*
X0173551Y0071410D01*
X0173332Y0071630D01*
X0173062Y0071786D01*
X0172762Y0071866D01*
X0171130Y0071866D01*
X0171130Y0069406D01*
X0170343Y0069406D01*
X0170343Y0071866D01*
X0168711Y0071866D01*
X0168410Y0071786D01*
X0168141Y0071630D01*
X0167921Y0071410D01*
X0167766Y0071141D01*
X0167714Y0070948D01*
X0167623Y0071040D01*
X0167354Y0071195D01*
X0167053Y0071276D01*
X0165913Y0071276D01*
X0165913Y0069110D01*
X0165520Y0069110D01*
X0165520Y0071276D01*
X0164380Y0071276D01*
X0164080Y0071195D01*
X0163810Y0071040D01*
X0163748Y0070977D01*
X0163686Y0071040D01*
X0163417Y0071195D01*
X0163116Y0071276D01*
X0161976Y0071276D01*
X0161976Y0069110D01*
X0161583Y0069110D01*
X0161583Y0071276D01*
X0160795Y0071276D01*
X0160795Y0073658D01*
X0162350Y0075213D01*
X0189516Y0075213D01*
X0196563Y0082260D01*
X0202305Y0082260D01*
X0202882Y0082836D01*
X0202882Y0089425D01*
X0203748Y0089425D01*
X0203748Y0050425D01*
X0203574Y0050526D01*
X0203274Y0050606D01*
X0202134Y0050606D01*
X0202134Y0048441D01*
X0201740Y0048441D01*
X0201740Y0048047D01*
X0199575Y0048047D01*
X0199575Y0046907D01*
X0199655Y0046607D01*
X0199811Y0046338D01*
X0200031Y0046118D01*
X0200257Y0045987D01*
X0199772Y0045502D01*
X0199772Y0045488D01*
X0199575Y0045488D01*
X0199575Y0045502D01*
X0199137Y0045940D01*
X0199142Y0045944D01*
X0199297Y0046213D01*
X0199378Y0046514D01*
X0199378Y0047801D01*
X0196967Y0047801D01*
X0196967Y0048490D01*
X0199378Y0048490D01*
X0199378Y0049778D01*
X0199297Y0050078D01*
X0199142Y0050347D01*
X0198922Y0050567D01*
X0198653Y0050723D01*
X0198352Y0050803D01*
X0196967Y0050803D01*
X0196967Y0048490D01*
X0196278Y0048490D01*
X0196278Y0050803D01*
X0194892Y0050803D01*
X0194591Y0050723D01*
X0194322Y0050567D01*
X0194102Y0050347D01*
X0193947Y0050078D01*
X0193866Y0049778D01*
X0193866Y0048490D01*
X0196277Y0048490D01*
X0196277Y0047801D01*
X0193866Y0047801D01*
X0193866Y0046514D01*
X0193947Y0046213D01*
X0194102Y0045944D01*
X0194322Y0045724D01*
X0194591Y0045569D01*
X0194654Y0045552D01*
X0194654Y0042668D01*
X0194591Y0042652D01*
X0194322Y0042496D01*
X0194102Y0042276D01*
X0193947Y0042007D01*
X0193866Y0041707D01*
X0193866Y0040419D01*
X0196277Y0040419D01*
X0196277Y0039730D01*
X0193866Y0039730D01*
X0193866Y0038443D01*
X0193947Y0038143D01*
X0194102Y0037873D01*
X0194322Y0037653D01*
X0194591Y0037498D01*
X0194892Y0037417D01*
X0196278Y0037417D01*
X0196278Y0039730D01*
X0196967Y0039730D01*
X0196967Y0040419D01*
X0199378Y0040419D01*
X0199378Y0041707D01*
X0199297Y0042007D01*
X0199142Y0042276D01*
X0199137Y0042281D01*
X0199575Y0042718D01*
X0199575Y0042732D01*
X0199772Y0042732D01*
X0199772Y0042325D01*
X0200348Y0041748D01*
X0203526Y0041748D01*
X0203748Y0041970D01*
X0203748Y0003362D01*
X0201563Y0003362D01*
X0202253Y0004052D01*
X0202882Y0005571D01*
X0202882Y0007216D01*
X0202253Y0008735D01*
X0201090Y0009898D01*
X0199570Y0010528D01*
X0197926Y0010528D01*
X0196962Y0010128D01*
X0196266Y0010825D02*
X0203748Y0010825D01*
X0203748Y0011611D02*
X0195480Y0011611D01*
X0194694Y0012396D02*
X0203748Y0012396D01*
X0203748Y0013182D02*
X0193908Y0013182D01*
X0193122Y0013968D02*
X0203748Y0013968D01*
X0203748Y0014754D02*
X0192336Y0014754D01*
X0192134Y0014957D02*
X0192134Y0014957D01*
X0191550Y0015540D02*
X0203748Y0015540D01*
X0203748Y0016326D02*
X0176749Y0016326D01*
X0175963Y0017112D02*
X0203748Y0017112D01*
X0203748Y0017898D02*
X0175177Y0017898D01*
X0174391Y0018684D02*
X0203748Y0018684D01*
X0203748Y0019470D02*
X0173605Y0019470D01*
X0172819Y0020256D02*
X0203748Y0020256D01*
X0203748Y0021042D02*
X0172033Y0021042D01*
X0171425Y0021827D02*
X0203748Y0021827D01*
X0203748Y0022613D02*
X0171425Y0022613D01*
X0171425Y0023399D02*
X0203748Y0023399D01*
X0203748Y0024185D02*
X0171425Y0024185D01*
X0171425Y0024971D02*
X0203748Y0024971D01*
X0203748Y0025757D02*
X0171425Y0025757D01*
X0171425Y0026543D02*
X0203748Y0026543D01*
X0203748Y0027329D02*
X0171425Y0027329D01*
X0171425Y0028115D02*
X0203748Y0028115D01*
X0203748Y0028901D02*
X0171425Y0028901D01*
X0171425Y0029687D02*
X0203748Y0029687D01*
X0203748Y0030472D02*
X0171425Y0030472D01*
X0171425Y0031258D02*
X0203748Y0031258D01*
X0203748Y0032044D02*
X0171425Y0032044D01*
X0171425Y0032830D02*
X0203748Y0032830D01*
X0203748Y0033616D02*
X0171425Y0033616D01*
X0171425Y0034402D02*
X0203748Y0034402D01*
X0203748Y0035188D02*
X0171425Y0035188D01*
X0171425Y0035974D02*
X0203748Y0035974D01*
X0203748Y0036760D02*
X0171425Y0036760D01*
X0171425Y0037546D02*
X0181662Y0037546D01*
X0181701Y0037480D02*
X0181920Y0037260D01*
X0182190Y0037104D01*
X0182490Y0037024D01*
X0183630Y0037024D01*
X0183630Y0039189D01*
X0181465Y0039189D01*
X0181465Y0038049D01*
X0181545Y0037749D01*
X0181701Y0037480D01*
X0181465Y0038332D02*
X0171425Y0038332D01*
X0170047Y0040370D02*
X0170047Y0021079D01*
X0171228Y0019898D01*
X0176740Y0014386D01*
X0190756Y0014386D01*
X0198748Y0006394D01*
X0202882Y0006109D02*
X0203748Y0006109D01*
X0203748Y0005323D02*
X0202779Y0005323D01*
X0202454Y0004537D02*
X0203748Y0004537D01*
X0203748Y0003751D02*
X0201952Y0003751D01*
X0202882Y0006895D02*
X0203748Y0006895D01*
X0203748Y0007681D02*
X0202689Y0007681D01*
X0202364Y0008467D02*
X0203748Y0008467D01*
X0203748Y0009253D02*
X0201735Y0009253D01*
X0200750Y0010039D02*
X0203748Y0010039D01*
X0175544Y0003751D02*
X0171952Y0003751D01*
X0172454Y0004537D02*
X0175042Y0004537D01*
X0174717Y0005323D02*
X0172779Y0005323D01*
X0168748Y0006394D02*
X0162409Y0012811D01*
X0159575Y0015567D01*
X0162409Y0012811D01*
X0159575Y0015567D02*
X0159417Y0015724D01*
X0159417Y0034465D01*
X0157843Y0034465D02*
X0157843Y0007299D01*
X0158748Y0006394D01*
X0138945Y0015961D02*
X0128000Y0015961D01*
X0123433Y0015961D01*
X0121465Y0013992D01*
X0120283Y0012811D01*
X0115559Y0012811D01*
X0105165Y0012811D01*
X0098748Y0006394D01*
X0098394Y0017929D02*
X0101150Y0020685D01*
X0116346Y0020685D01*
X0125362Y0028756D02*
X0126740Y0027575D01*
X0130677Y0027575D01*
X0131465Y0028362D01*
X0132488Y0028362D01*
X0135244Y0031118D01*
X0135244Y0035252D01*
X0137606Y0037614D01*
X0138945Y0037614D01*
X0138945Y0039189D02*
X0136425Y0039189D01*
X0134457Y0037220D01*
X0133669Y0036433D01*
X0133669Y0033480D01*
X0132488Y0032299D01*
X0131465Y0032299D01*
X0130677Y0031512D01*
X0126740Y0031512D01*
X0125559Y0030331D01*
X0121661Y0030331D01*
X0119496Y0032496D01*
X0119496Y0034465D01*
X0119496Y0036827D01*
X0117134Y0039189D01*
X0106110Y0039189D01*
X0105362Y0038441D01*
X0105362Y0036197D01*
X0101720Y0035974D02*
X0095283Y0035974D01*
X0095283Y0036760D02*
X0101720Y0036760D01*
X0101720Y0037546D02*
X0095283Y0037546D01*
X0095283Y0038332D02*
X0101873Y0038332D01*
X0104090Y0039118D02*
X0095283Y0039118D01*
X0095283Y0039903D02*
X0100849Y0039903D01*
X0100063Y0040689D02*
X0095283Y0040689D01*
X0095283Y0041475D02*
X0099277Y0041475D01*
X0098491Y0042261D02*
X0095283Y0042261D01*
X0095283Y0043047D02*
X0097705Y0043047D01*
X0096919Y0043833D02*
X0095283Y0043833D01*
X0094755Y0044619D02*
X0096133Y0044619D01*
X0095347Y0045405D02*
X0093969Y0045405D01*
X0094561Y0046191D02*
X0093183Y0046191D01*
X0093775Y0046977D02*
X0092397Y0046977D01*
X0092989Y0047763D02*
X0091611Y0047763D01*
X0091346Y0048548D02*
X0092204Y0048548D01*
X0091504Y0049334D02*
X0091346Y0049334D01*
X0091346Y0050120D02*
X0091504Y0050120D01*
X0091504Y0050906D02*
X0091346Y0050906D01*
X0091346Y0051692D02*
X0091504Y0051692D01*
X0091504Y0052478D02*
X0091346Y0052478D01*
X0091346Y0053264D02*
X0091504Y0053264D01*
X0089969Y0056512D02*
X0089969Y0047457D01*
X0093906Y0043520D01*
X0093906Y0033677D01*
X0095283Y0034402D02*
X0101720Y0034402D01*
X0101720Y0035188D02*
X0095283Y0035188D01*
X0089969Y0036039D02*
X0086819Y0039189D01*
X0086819Y0060843D01*
X0086819Y0062811D01*
X0084457Y0065173D01*
X0083669Y0065173D01*
X0080323Y0065173D01*
X0071268Y0074228D01*
X0069102Y0074484D02*
X0069102Y0074484D01*
X0069102Y0075213D02*
X0069102Y0075213D01*
X0069102Y0073698D02*
X0069102Y0073698D01*
X0069102Y0072912D02*
X0069102Y0072912D01*
X0068589Y0072126D02*
X0069616Y0072126D01*
X0069496Y0071340D02*
X0072207Y0071340D01*
X0072993Y0070554D02*
X0069496Y0070554D01*
X0069496Y0069768D02*
X0073779Y0069768D01*
X0074565Y0068982D02*
X0069496Y0068982D01*
X0069496Y0068196D02*
X0075351Y0068196D01*
X0076137Y0067410D02*
X0069496Y0067410D01*
X0069386Y0066624D02*
X0076923Y0066624D01*
X0077709Y0065839D02*
X0063646Y0065839D01*
X0064431Y0066624D02*
X0065275Y0066624D01*
X0062860Y0065053D02*
X0078495Y0065053D01*
X0079281Y0064267D02*
X0062213Y0064267D01*
X0062213Y0063481D02*
X0063267Y0063481D01*
X0063332Y0063518D02*
X0063062Y0063362D01*
X0062842Y0063143D01*
X0062687Y0062873D01*
X0062606Y0062573D01*
X0062606Y0060498D01*
X0064624Y0060498D01*
X0064624Y0060400D01*
X0062606Y0060400D01*
X0062606Y0058325D01*
X0062687Y0058024D01*
X0062842Y0057755D01*
X0063062Y0057535D01*
X0063332Y0057380D01*
X0063632Y0057299D01*
X0064624Y0057299D01*
X0064624Y0060400D01*
X0064722Y0060400D01*
X0064722Y0057299D01*
X0065715Y0057299D01*
X0066015Y0057380D01*
X0066284Y0057535D01*
X0066504Y0057755D01*
X0066660Y0058024D01*
X0066740Y0058325D01*
X0066740Y0060400D01*
X0064723Y0060400D01*
X0064723Y0060498D01*
X0066740Y0060498D01*
X0066740Y0062573D01*
X0066660Y0062873D01*
X0066504Y0063143D01*
X0066284Y0063362D01*
X0066015Y0063518D01*
X0065715Y0063598D01*
X0064722Y0063598D01*
X0064722Y0060498D01*
X0064624Y0060498D01*
X0064624Y0063598D01*
X0063632Y0063598D01*
X0063332Y0063518D01*
X0062639Y0062695D02*
X0062213Y0062695D01*
X0062606Y0061909D02*
X0061425Y0061909D01*
X0061425Y0061123D02*
X0062606Y0061123D01*
X0062606Y0060337D02*
X0061425Y0060337D01*
X0061425Y0059551D02*
X0062606Y0059551D01*
X0062606Y0058765D02*
X0061425Y0058765D01*
X0062137Y0057979D02*
X0062713Y0057979D01*
X0062213Y0057194D02*
X0085441Y0057194D01*
X0085441Y0056408D02*
X0062213Y0056408D01*
X0062689Y0055622D02*
X0085441Y0055622D01*
X0085441Y0054836D02*
X0083571Y0054836D01*
X0084223Y0054050D02*
X0085441Y0054050D01*
X0085441Y0053264D02*
X0084260Y0053264D01*
X0084260Y0052478D02*
X0085441Y0052478D01*
X0082094Y0052478D02*
X0081701Y0052478D01*
X0081701Y0053264D02*
X0082094Y0053264D01*
X0082094Y0054050D02*
X0081701Y0054050D01*
X0081701Y0054836D02*
X0082094Y0054836D01*
X0080225Y0054836D02*
X0063475Y0054836D01*
X0064261Y0054050D02*
X0065165Y0054050D01*
X0065165Y0053264D02*
X0065047Y0053264D01*
X0062721Y0051692D02*
X0062213Y0051692D01*
X0062213Y0050906D02*
X0063507Y0050906D01*
X0061937Y0050120D02*
X0065165Y0050120D01*
X0065242Y0049334D02*
X0061819Y0049334D01*
X0061819Y0048548D02*
X0074169Y0048548D01*
X0069419Y0049334D02*
X0079632Y0049334D01*
X0079535Y0050120D02*
X0069496Y0050120D01*
X0069496Y0050906D02*
X0079535Y0050906D01*
X0081701Y0050906D02*
X0082094Y0050906D01*
X0082094Y0050120D02*
X0081701Y0050120D01*
X0081701Y0049334D02*
X0082094Y0049334D01*
X0079535Y0052478D02*
X0069496Y0052478D01*
X0069496Y0053264D02*
X0079535Y0053264D01*
X0079573Y0054050D02*
X0069496Y0054050D01*
X0066634Y0057979D02*
X0082595Y0057979D01*
X0082488Y0058765D02*
X0066740Y0058765D01*
X0066740Y0059551D02*
X0082488Y0059551D01*
X0082488Y0060337D02*
X0066740Y0060337D01*
X0066740Y0061123D02*
X0082488Y0061123D01*
X0082488Y0061909D02*
X0066740Y0061909D01*
X0066707Y0062695D02*
X0082521Y0062695D01*
X0083149Y0063481D02*
X0066079Y0063481D01*
X0064722Y0063481D02*
X0064624Y0063481D01*
X0064624Y0062695D02*
X0064722Y0062695D01*
X0064722Y0061909D02*
X0064624Y0061909D01*
X0064624Y0061123D02*
X0064722Y0061123D01*
X0064722Y0060337D02*
X0064624Y0060337D01*
X0064624Y0059551D02*
X0064722Y0059551D01*
X0064722Y0058765D02*
X0064624Y0058765D01*
X0064624Y0057979D02*
X0064722Y0057979D01*
X0060047Y0056315D02*
X0060047Y0064189D01*
X0064969Y0069110D01*
X0067331Y0069110D01*
X0063678Y0069768D02*
X0062213Y0069768D01*
X0062213Y0068982D02*
X0062892Y0068982D01*
X0060047Y0068520D02*
X0060047Y0076591D01*
X0058551Y0076591D01*
X0060047Y0076591D02*
X0084220Y0076591D01*
X0088945Y0076591D01*
X0091701Y0073835D01*
X0092882Y0072654D01*
X0092882Y0049819D01*
X0101937Y0040764D01*
X0103906Y0040764D01*
X0138945Y0040764D01*
X0134673Y0039386D02*
X0133886Y0038598D01*
X0133099Y0037811D01*
X0132889Y0037601D01*
X0132803Y0037749D01*
X0132583Y0037969D01*
X0132314Y0038124D01*
X0132014Y0038205D01*
X0130874Y0038205D01*
X0130874Y0036039D01*
X0130480Y0036039D01*
X0130480Y0038205D01*
X0129341Y0038205D01*
X0129040Y0038124D01*
X0128771Y0037969D01*
X0128569Y0037767D01*
X0128329Y0038008D01*
X0125151Y0038008D01*
X0124575Y0037431D01*
X0124575Y0037220D01*
X0124413Y0037220D01*
X0122768Y0036271D01*
X0122755Y0036249D01*
X0122685Y0036249D01*
X0121740Y0035857D01*
X0121017Y0035134D01*
X0120874Y0034789D01*
X0120874Y0037398D01*
X0120067Y0038205D01*
X0118886Y0039386D01*
X0134673Y0039386D01*
X0134405Y0039118D02*
X0119154Y0039118D01*
X0119940Y0038332D02*
X0133619Y0038332D01*
X0130874Y0037546D02*
X0130480Y0037546D01*
X0130480Y0036760D02*
X0130874Y0036760D01*
X0126740Y0035843D02*
X0125362Y0035843D01*
X0123615Y0036760D02*
X0120874Y0036760D01*
X0120874Y0035974D02*
X0122022Y0035974D01*
X0122768Y0036271D02*
X0122768Y0036271D01*
X0122768Y0036271D01*
X0124689Y0037546D02*
X0120726Y0037546D01*
X0120874Y0035188D02*
X0121071Y0035188D01*
X0117921Y0032890D02*
X0117331Y0033480D01*
X0109850Y0033480D01*
X0109260Y0034071D01*
X0109260Y0036157D01*
X0109299Y0036197D01*
X0109299Y0035606D01*
X0117921Y0032890D02*
X0117921Y0030921D01*
X0120087Y0028756D01*
X0120874Y0028756D01*
X0121268Y0028756D01*
X0125362Y0028756D01*
X0123197Y0033677D02*
X0123199Y0033769D01*
X0123205Y0033861D01*
X0123215Y0033952D01*
X0123228Y0034043D01*
X0123246Y0034133D01*
X0123267Y0034223D01*
X0123292Y0034311D01*
X0123321Y0034398D01*
X0123353Y0034484D01*
X0123389Y0034569D01*
X0123429Y0034652D01*
X0123472Y0034733D01*
X0123518Y0034812D01*
X0123568Y0034889D01*
X0123621Y0034964D01*
X0123678Y0035037D01*
X0123737Y0035107D01*
X0123799Y0035175D01*
X0123864Y0035240D01*
X0123932Y0035302D01*
X0124002Y0035361D01*
X0124075Y0035418D01*
X0124150Y0035471D01*
X0124227Y0035521D01*
X0124306Y0035567D01*
X0124387Y0035610D01*
X0124470Y0035650D01*
X0124555Y0035686D01*
X0124641Y0035718D01*
X0124728Y0035747D01*
X0124816Y0035772D01*
X0124906Y0035793D01*
X0124996Y0035811D01*
X0125087Y0035824D01*
X0125178Y0035834D01*
X0125270Y0035840D01*
X0125362Y0035842D01*
X0143669Y0039189D02*
X0143669Y0043913D01*
X0148394Y0043913D01*
X0153118Y0043913D01*
X0157843Y0043913D01*
X0157843Y0039189D01*
X0153118Y0039189D01*
X0148394Y0039189D02*
X0143669Y0039189D01*
X0157843Y0043914D02*
X0157892Y0043954D01*
X0157939Y0043997D01*
X0157983Y0044043D01*
X0158024Y0044091D01*
X0158063Y0044142D01*
X0158099Y0044195D01*
X0158131Y0044250D01*
X0158160Y0044306D01*
X0158186Y0044364D01*
X0158209Y0044424D01*
X0158227Y0044485D01*
X0158243Y0044547D01*
X0158255Y0044609D01*
X0158263Y0044672D01*
X0158267Y0044736D01*
X0158268Y0044800D01*
X0158265Y0044863D01*
X0158258Y0044927D01*
X0158248Y0044989D01*
X0158234Y0045052D01*
X0158216Y0045113D01*
X0158195Y0045173D01*
X0158171Y0045232D01*
X0158143Y0045289D01*
X0158111Y0045344D01*
X0158077Y0045398D01*
X0158039Y0045450D01*
X0158039Y0045449D02*
X0158039Y0047024D01*
X0162567Y0047063D01*
X0169850Y0047063D01*
X0171228Y0048441D01*
X0168866Y0051000D02*
X0170047Y0052181D01*
X0170047Y0052969D01*
X0170047Y0053953D01*
X0171425Y0055331D01*
X0168472Y0056512D02*
X0168472Y0052969D01*
X0167291Y0051787D01*
X0165717Y0050213D01*
X0162567Y0050213D01*
X0162567Y0051787D02*
X0164929Y0051787D01*
X0166504Y0053362D01*
X0166898Y0053756D01*
X0166898Y0056906D01*
X0166898Y0058874D01*
X0169654Y0061630D01*
X0173197Y0061630D01*
X0173591Y0062024D01*
X0174968Y0061630D02*
X0174968Y0061630D01*
X0175559Y0061123D02*
X0175953Y0061123D01*
X0175953Y0061630D02*
X0175953Y0059465D01*
X0178118Y0059465D01*
X0178118Y0060604D01*
X0178038Y0060905D01*
X0177882Y0061174D01*
X0177662Y0061394D01*
X0177393Y0061549D01*
X0177093Y0061630D01*
X0175953Y0061630D01*
X0176051Y0061909D02*
X0176839Y0061909D01*
X0176839Y0061630D02*
X0178470Y0061630D01*
X0178771Y0061710D01*
X0179040Y0061866D01*
X0179260Y0062086D01*
X0179416Y0062355D01*
X0179467Y0062548D01*
X0179558Y0062456D01*
X0179828Y0062301D01*
X0180128Y0062220D01*
X0181268Y0062220D01*
X0181268Y0064386D01*
X0179102Y0064386D01*
X0179102Y0064091D01*
X0176839Y0064091D01*
X0176839Y0061630D01*
X0176839Y0062695D02*
X0176051Y0062695D01*
X0176051Y0063481D02*
X0176839Y0063481D01*
X0176839Y0064267D02*
X0179102Y0064267D01*
X0181268Y0064267D02*
X0181661Y0064267D01*
X0181465Y0064583D02*
X0176543Y0064583D01*
X0176445Y0064484D01*
X0181268Y0063481D02*
X0181661Y0063481D01*
X0181661Y0062695D02*
X0181268Y0062695D01*
X0179083Y0061909D02*
X0203748Y0061909D01*
X0203748Y0062695D02*
X0183601Y0062695D01*
X0183827Y0063481D02*
X0203748Y0063481D01*
X0203748Y0064267D02*
X0183827Y0064267D01*
X0183827Y0065053D02*
X0203748Y0065053D01*
X0203748Y0065839D02*
X0183827Y0065839D01*
X0183455Y0066624D02*
X0203748Y0066624D01*
X0203748Y0067410D02*
X0183630Y0067410D01*
X0183630Y0068196D02*
X0203748Y0068196D01*
X0203748Y0068982D02*
X0183630Y0068982D01*
X0183630Y0069768D02*
X0203748Y0069768D01*
X0203748Y0070554D02*
X0183578Y0070554D01*
X0181465Y0068913D02*
X0176543Y0068913D01*
X0176445Y0069012D01*
X0179299Y0070291D02*
X0179299Y0070291D01*
X0179299Y0070554D02*
X0179351Y0070554D01*
X0179052Y0071340D02*
X0203748Y0071340D01*
X0203748Y0072126D02*
X0160795Y0072126D01*
X0160795Y0072912D02*
X0203748Y0072912D01*
X0203748Y0073698D02*
X0160835Y0073698D01*
X0161621Y0074484D02*
X0203748Y0074484D01*
X0203748Y0075270D02*
X0189573Y0075270D01*
X0190358Y0076055D02*
X0203748Y0076055D01*
X0203748Y0076841D02*
X0191144Y0076841D01*
X0191930Y0077627D02*
X0203748Y0077627D01*
X0203748Y0078413D02*
X0192716Y0078413D01*
X0193502Y0079199D02*
X0203748Y0079199D01*
X0203748Y0079985D02*
X0194288Y0079985D01*
X0195074Y0080771D02*
X0203748Y0080771D01*
X0203748Y0081557D02*
X0195860Y0081557D01*
X0193534Y0083129D02*
X0191329Y0083129D01*
X0191090Y0082889D02*
X0189570Y0082260D01*
X0187926Y0082260D01*
X0186962Y0082659D01*
X0182272Y0077968D01*
X0188374Y0077968D01*
X0194614Y0084209D01*
X0194614Y0089425D01*
X0191563Y0089425D01*
X0192253Y0088735D01*
X0192882Y0087216D01*
X0192882Y0085571D01*
X0192253Y0084052D01*
X0191090Y0082889D01*
X0189770Y0082343D02*
X0192748Y0082343D01*
X0191962Y0081557D02*
X0185860Y0081557D01*
X0186646Y0082343D02*
X0187726Y0082343D01*
X0185074Y0080771D02*
X0191177Y0080771D01*
X0190391Y0079985D02*
X0184288Y0079985D01*
X0183502Y0079199D02*
X0189605Y0079199D01*
X0188819Y0078413D02*
X0182716Y0078413D01*
X0180520Y0078165D02*
X0188748Y0086394D01*
X0184614Y0086272D02*
X0182882Y0086272D01*
X0182882Y0085571D02*
X0182882Y0087216D01*
X0182253Y0088735D01*
X0181563Y0089425D01*
X0185933Y0089425D01*
X0185244Y0088735D01*
X0184614Y0087216D01*
X0184614Y0085571D01*
X0185013Y0084608D01*
X0179949Y0079543D01*
X0173846Y0079543D01*
X0176962Y0082659D01*
X0177926Y0082260D01*
X0179570Y0082260D01*
X0181090Y0082889D01*
X0182253Y0084052D01*
X0182882Y0085571D01*
X0182847Y0085486D02*
X0184649Y0085486D01*
X0184975Y0084700D02*
X0182521Y0084700D01*
X0182115Y0083915D02*
X0184320Y0083915D01*
X0183534Y0083129D02*
X0181329Y0083129D01*
X0182748Y0082343D02*
X0179770Y0082343D01*
X0177726Y0082343D02*
X0176646Y0082343D01*
X0175860Y0081557D02*
X0181962Y0081557D01*
X0181177Y0080771D02*
X0175074Y0080771D01*
X0174288Y0079985D02*
X0180391Y0079985D01*
X0180520Y0078165D02*
X0166110Y0078165D01*
X0160598Y0078165D01*
X0159811Y0077378D01*
X0157843Y0075409D01*
X0157843Y0058087D01*
X0159417Y0058087D02*
X0159417Y0074228D01*
X0161780Y0076591D01*
X0188945Y0076591D01*
X0198748Y0086394D01*
X0194614Y0086272D02*
X0192882Y0086272D01*
X0192882Y0087058D02*
X0194614Y0087058D01*
X0194614Y0087844D02*
X0192622Y0087844D01*
X0192296Y0088630D02*
X0194614Y0088630D01*
X0194614Y0089416D02*
X0191572Y0089416D01*
X0185924Y0089416D02*
X0181572Y0089416D01*
X0182296Y0088630D02*
X0185200Y0088630D01*
X0184874Y0087844D02*
X0182622Y0087844D01*
X0182882Y0087058D02*
X0184614Y0087058D01*
X0178748Y0086394D02*
X0172094Y0079740D01*
X0162961Y0079740D01*
X0159417Y0079740D01*
X0156268Y0076591D01*
X0156268Y0058087D01*
X0154693Y0058087D02*
X0154693Y0077772D01*
X0158236Y0081315D01*
X0163669Y0081315D01*
X0168748Y0086394D01*
X0158748Y0086394D02*
X0153118Y0080764D01*
X0153118Y0058087D01*
X0151543Y0058087D02*
X0151543Y0083598D01*
X0148748Y0086394D01*
X0144614Y0086272D02*
X0142882Y0086272D01*
X0142882Y0085571D02*
X0142882Y0087216D01*
X0142253Y0088735D01*
X0141563Y0089425D01*
X0145933Y0089425D01*
X0145244Y0088735D01*
X0144614Y0087216D01*
X0144614Y0085571D01*
X0145244Y0084052D01*
X0146406Y0082889D01*
X0147926Y0082260D01*
X0149570Y0082260D01*
X0150165Y0082506D01*
X0150165Y0076925D01*
X0142483Y0084608D01*
X0142882Y0085571D01*
X0142847Y0085486D02*
X0144649Y0085486D01*
X0144975Y0084700D02*
X0142521Y0084700D01*
X0143176Y0083915D02*
X0145381Y0083915D01*
X0146167Y0083129D02*
X0143962Y0083129D01*
X0144748Y0082343D02*
X0147726Y0082343D01*
X0149770Y0082343D02*
X0150165Y0082343D01*
X0150165Y0081557D02*
X0145534Y0081557D01*
X0146320Y0080771D02*
X0150165Y0080771D01*
X0150165Y0079985D02*
X0147105Y0079985D01*
X0147891Y0079199D02*
X0150165Y0079199D01*
X0150165Y0078413D02*
X0148677Y0078413D01*
X0149463Y0077627D02*
X0150165Y0077627D01*
X0146352Y0076841D02*
X0121144Y0076841D01*
X0120358Y0076055D02*
X0147138Y0076055D01*
X0147923Y0075270D02*
X0119573Y0075270D01*
X0118787Y0074484D02*
X0148591Y0074484D01*
X0148591Y0074602D02*
X0148591Y0060350D01*
X0147784Y0060350D01*
X0147596Y0060459D01*
X0147266Y0060547D01*
X0146819Y0060547D01*
X0146819Y0058087D01*
X0146819Y0058087D01*
X0146819Y0060547D01*
X0146622Y0060547D01*
X0146622Y0061947D01*
X0146677Y0062439D01*
X0146622Y0062507D01*
X0146622Y0062594D01*
X0146425Y0062791D01*
X0146425Y0066467D01*
X0145849Y0067043D01*
X0142567Y0067043D01*
X0142567Y0067043D01*
X0143276Y0067043D01*
X0143276Y0069898D01*
X0144063Y0069898D01*
X0144063Y0070685D01*
X0146622Y0070685D01*
X0146622Y0072514D01*
X0146542Y0072814D01*
X0146386Y0073083D01*
X0146166Y0073303D01*
X0145897Y0073459D01*
X0145596Y0073539D01*
X0144063Y0073539D01*
X0144063Y0070685D01*
X0143276Y0070685D01*
X0143276Y0073539D01*
X0141742Y0073539D01*
X0141442Y0073459D01*
X0141172Y0073303D01*
X0140953Y0073083D01*
X0140797Y0072814D01*
X0140717Y0072514D01*
X0140717Y0070685D01*
X0143276Y0070685D01*
X0143276Y0069898D01*
X0140717Y0069898D01*
X0140717Y0068894D01*
X0140717Y0070862D01*
X0138335Y0073244D01*
X0136189Y0073244D01*
X0136189Y0073455D01*
X0135612Y0074031D01*
X0132435Y0074031D01*
X0131858Y0073455D01*
X0131282Y0074031D01*
X0128104Y0074031D01*
X0127528Y0073455D01*
X0127528Y0070277D01*
X0128104Y0069701D01*
X0128315Y0069701D01*
X0128315Y0069504D01*
X0126234Y0069504D01*
X0125657Y0068927D01*
X0125657Y0064569D01*
X0126234Y0063992D01*
X0131183Y0063992D01*
X0131760Y0064569D01*
X0131760Y0068927D01*
X0131183Y0069504D01*
X0131071Y0069504D01*
X0131071Y0069701D01*
X0131282Y0069701D01*
X0131858Y0070277D01*
X0131858Y0073455D01*
X0131858Y0070277D01*
X0132435Y0069701D01*
X0135612Y0069701D01*
X0136189Y0070277D01*
X0136189Y0070488D01*
X0137193Y0070488D01*
X0137961Y0069721D01*
X0137961Y0069026D01*
X0137482Y0069504D01*
X0132533Y0069504D01*
X0131957Y0068927D01*
X0131957Y0064569D01*
X0132533Y0063992D01*
X0136455Y0063992D01*
X0136786Y0063767D01*
X0136955Y0063598D01*
X0132533Y0063598D01*
X0131957Y0063022D01*
X0131957Y0058663D01*
X0132533Y0058087D01*
X0135815Y0058087D01*
X0136012Y0057890D01*
X0133222Y0057890D01*
X0132737Y0057405D01*
X0132607Y0057631D01*
X0132387Y0057851D01*
X0132117Y0058006D01*
X0131817Y0058087D01*
X0131433Y0058087D01*
X0131501Y0058126D01*
X0131721Y0058346D01*
X0131876Y0058615D01*
X0131957Y0058915D01*
X0131957Y0060449D01*
X0129102Y0060449D01*
X0129102Y0058076D01*
X0128843Y0058006D01*
X0128574Y0057851D01*
X0128354Y0057631D01*
X0128199Y0057361D01*
X0128118Y0057061D01*
X0128118Y0055921D01*
X0130283Y0055921D01*
X0130283Y0055528D01*
X0128118Y0055528D01*
X0128118Y0054740D01*
X0125342Y0054740D01*
X0123197Y0056886D01*
X0123197Y0058697D01*
X0121661Y0060232D01*
X0121465Y0060429D01*
X0121465Y0065941D01*
X0121425Y0065980D01*
X0121425Y0067746D01*
X0120849Y0068323D01*
X0112947Y0068323D01*
X0112370Y0067746D01*
X0112370Y0066748D01*
X0112370Y0066959D01*
X0111885Y0067444D01*
X0112111Y0067575D01*
X0112331Y0067794D01*
X0112486Y0068064D01*
X0112567Y0068364D01*
X0112567Y0069504D01*
X0110402Y0069504D01*
X0110402Y0069898D01*
X0112567Y0069898D01*
X0112567Y0071037D01*
X0112503Y0071276D01*
X0115579Y0071276D01*
X0126962Y0082659D01*
X0127926Y0082260D01*
X0129570Y0082260D01*
X0131090Y0082889D01*
X0132253Y0084052D01*
X0132882Y0085571D01*
X0132882Y0087216D01*
X0132253Y0088735D01*
X0131563Y0089425D01*
X0135933Y0089425D01*
X0135244Y0088735D01*
X0134614Y0087216D01*
X0134614Y0085571D01*
X0135244Y0084052D01*
X0136406Y0082889D01*
X0137926Y0082260D01*
X0139570Y0082260D01*
X0140534Y0082659D01*
X0148591Y0074602D01*
X0148591Y0073698D02*
X0135946Y0073698D01*
X0138667Y0072912D02*
X0140853Y0072912D01*
X0140717Y0072126D02*
X0139453Y0072126D01*
X0140239Y0071340D02*
X0140717Y0071340D01*
X0140717Y0070554D02*
X0143276Y0070554D01*
X0143276Y0069768D02*
X0144063Y0069768D01*
X0144063Y0069898D02*
X0144063Y0067043D01*
X0145596Y0067043D01*
X0145897Y0067124D01*
X0146166Y0067279D01*
X0146386Y0067499D01*
X0146542Y0067769D01*
X0146622Y0068069D01*
X0146622Y0069898D01*
X0144063Y0069898D01*
X0144063Y0070554D02*
X0148591Y0070554D01*
X0148591Y0069768D02*
X0146622Y0069768D01*
X0146622Y0068982D02*
X0148591Y0068982D01*
X0148591Y0068196D02*
X0146622Y0068196D01*
X0146297Y0067410D02*
X0148591Y0067410D01*
X0148591Y0066624D02*
X0146267Y0066624D01*
X0146425Y0065839D02*
X0148591Y0065839D01*
X0148591Y0065053D02*
X0146425Y0065053D01*
X0146425Y0064267D02*
X0148591Y0064267D01*
X0148591Y0063481D02*
X0146425Y0063481D01*
X0146522Y0062695D02*
X0148591Y0062695D01*
X0148591Y0061909D02*
X0146622Y0061909D01*
X0146622Y0061123D02*
X0148591Y0061123D01*
X0146819Y0060337D02*
X0146819Y0060337D01*
X0146819Y0059551D02*
X0146819Y0059551D01*
X0146819Y0058765D02*
X0146819Y0058765D01*
X0146819Y0058087D02*
X0146819Y0053362D01*
X0148394Y0053362D01*
X0153118Y0053362D01*
X0157843Y0053362D01*
X0157843Y0048638D01*
X0153118Y0048638D01*
X0148394Y0048638D01*
X0143669Y0048638D01*
X0138945Y0048638D02*
X0107843Y0048638D01*
X0106268Y0048638D01*
X0105874Y0048638D01*
X0100756Y0053756D01*
X0100756Y0079346D01*
X0098748Y0081354D01*
X0098748Y0086394D01*
X0105087Y0082732D02*
X0108748Y0086394D01*
X0112882Y0086272D02*
X0114614Y0086272D01*
X0114614Y0085571D02*
X0115013Y0084608D01*
X0103709Y0073303D01*
X0103709Y0079406D01*
X0105657Y0081354D01*
X0106962Y0082659D01*
X0107926Y0082260D01*
X0109570Y0082260D01*
X0111090Y0082889D01*
X0112253Y0084052D01*
X0112882Y0085571D01*
X0112882Y0087216D01*
X0112253Y0088735D01*
X0111563Y0089425D01*
X0115933Y0089425D01*
X0115244Y0088735D01*
X0114614Y0087216D01*
X0114614Y0085571D01*
X0114649Y0085486D02*
X0112847Y0085486D01*
X0112521Y0084700D02*
X0114975Y0084700D01*
X0114320Y0083915D02*
X0112115Y0083915D01*
X0111329Y0083129D02*
X0113534Y0083129D01*
X0112748Y0082343D02*
X0109770Y0082343D01*
X0107726Y0082343D02*
X0106646Y0082343D01*
X0105860Y0081557D02*
X0111962Y0081557D01*
X0111177Y0080771D02*
X0105074Y0080771D01*
X0104288Y0079985D02*
X0110391Y0079985D01*
X0109605Y0079199D02*
X0103709Y0079199D01*
X0103709Y0078413D02*
X0108819Y0078413D01*
X0108033Y0077627D02*
X0103709Y0077627D01*
X0103709Y0076841D02*
X0107247Y0076841D01*
X0106461Y0076055D02*
X0103709Y0076055D01*
X0103709Y0075270D02*
X0105675Y0075270D01*
X0104889Y0074484D02*
X0103709Y0074484D01*
X0103709Y0073698D02*
X0104103Y0073698D01*
X0106504Y0071866D02*
X0107291Y0072654D01*
X0108236Y0072654D01*
X0115008Y0072654D01*
X0128748Y0086394D01*
X0132622Y0087844D02*
X0134874Y0087844D01*
X0134614Y0087058D02*
X0132882Y0087058D01*
X0132882Y0086272D02*
X0134614Y0086272D01*
X0134649Y0085486D02*
X0132847Y0085486D01*
X0132521Y0084700D02*
X0134975Y0084700D01*
X0135381Y0083915D02*
X0132115Y0083915D01*
X0131329Y0083129D02*
X0136167Y0083129D01*
X0137726Y0082343D02*
X0129770Y0082343D01*
X0127726Y0082343D02*
X0126646Y0082343D01*
X0125860Y0081557D02*
X0141636Y0081557D01*
X0140850Y0082343D02*
X0139770Y0082343D01*
X0142422Y0080771D02*
X0125074Y0080771D01*
X0124288Y0079985D02*
X0143208Y0079985D01*
X0143994Y0079199D02*
X0123502Y0079199D01*
X0122716Y0078413D02*
X0144780Y0078413D01*
X0145566Y0077627D02*
X0121930Y0077627D01*
X0119605Y0079199D02*
X0113502Y0079199D01*
X0112716Y0078413D02*
X0118819Y0078413D01*
X0118033Y0077627D02*
X0111930Y0077627D01*
X0111144Y0076841D02*
X0117247Y0076841D01*
X0116461Y0076055D02*
X0110358Y0076055D01*
X0109573Y0075270D02*
X0115675Y0075270D01*
X0114889Y0074484D02*
X0108787Y0074484D01*
X0108335Y0074031D02*
X0116962Y0082659D01*
X0117926Y0082260D01*
X0119570Y0082260D01*
X0121090Y0082889D01*
X0122253Y0084052D01*
X0122882Y0085571D01*
X0122882Y0087216D01*
X0122253Y0088735D01*
X0121563Y0089425D01*
X0125933Y0089425D01*
X0125244Y0088735D01*
X0124614Y0087216D01*
X0124614Y0085571D01*
X0125013Y0084608D01*
X0114437Y0074031D01*
X0108335Y0074031D01*
X0106504Y0071866D02*
X0106268Y0071630D01*
X0106268Y0069701D01*
X0103906Y0071079D02*
X0103906Y0071551D01*
X0118748Y0086394D01*
X0114874Y0087844D02*
X0112622Y0087844D01*
X0112882Y0087058D02*
X0114614Y0087058D01*
X0115200Y0088630D02*
X0112296Y0088630D01*
X0111572Y0089416D02*
X0115924Y0089416D01*
X0121572Y0089416D02*
X0125924Y0089416D01*
X0125200Y0088630D02*
X0122296Y0088630D01*
X0122622Y0087844D02*
X0124874Y0087844D01*
X0124614Y0087058D02*
X0122882Y0087058D01*
X0122882Y0086272D02*
X0124614Y0086272D01*
X0124649Y0085486D02*
X0122847Y0085486D01*
X0122521Y0084700D02*
X0124975Y0084700D01*
X0124320Y0083915D02*
X0122115Y0083915D01*
X0121329Y0083129D02*
X0123534Y0083129D01*
X0122748Y0082343D02*
X0119770Y0082343D01*
X0117726Y0082343D02*
X0116646Y0082343D01*
X0115860Y0081557D02*
X0121962Y0081557D01*
X0121177Y0080771D02*
X0115074Y0080771D01*
X0114288Y0079985D02*
X0120391Y0079985D01*
X0118001Y0073698D02*
X0127770Y0073698D01*
X0127528Y0072912D02*
X0117215Y0072912D01*
X0116429Y0072126D02*
X0127528Y0072126D01*
X0127528Y0071340D02*
X0115643Y0071340D01*
X0112567Y0070554D02*
X0127528Y0070554D01*
X0128037Y0069768D02*
X0110402Y0069768D01*
X0112567Y0068982D02*
X0125712Y0068982D01*
X0125657Y0068196D02*
X0120975Y0068196D01*
X0121425Y0067410D02*
X0125657Y0067410D01*
X0125657Y0066624D02*
X0121425Y0066624D01*
X0121465Y0065839D02*
X0125657Y0065839D01*
X0125657Y0065053D02*
X0121465Y0065053D01*
X0121465Y0064267D02*
X0125959Y0064267D01*
X0126186Y0063715D02*
X0125917Y0063559D01*
X0125697Y0063339D01*
X0125541Y0063070D01*
X0125461Y0062770D01*
X0125461Y0061236D01*
X0128315Y0061236D01*
X0128315Y0060449D01*
X0125461Y0060449D01*
X0125461Y0058915D01*
X0125541Y0058615D01*
X0125697Y0058346D01*
X0125917Y0058126D01*
X0126186Y0057970D01*
X0126486Y0057890D01*
X0128315Y0057890D01*
X0128315Y0060449D01*
X0129102Y0060449D01*
X0129102Y0061236D01*
X0128315Y0061236D01*
X0128315Y0063795D01*
X0126486Y0063795D01*
X0126186Y0063715D01*
X0125838Y0063481D02*
X0121465Y0063481D01*
X0121465Y0062695D02*
X0125461Y0062695D01*
X0125461Y0061909D02*
X0121465Y0061909D01*
X0121465Y0061123D02*
X0128315Y0061123D01*
X0128709Y0060843D02*
X0130480Y0059858D01*
X0129102Y0059551D02*
X0128315Y0059551D01*
X0128315Y0058765D02*
X0129102Y0058765D01*
X0128797Y0057979D02*
X0128315Y0057979D01*
X0128154Y0057194D02*
X0123197Y0057194D01*
X0123197Y0057979D02*
X0126170Y0057979D01*
X0125501Y0058765D02*
X0123128Y0058765D01*
X0122342Y0059551D02*
X0125461Y0059551D01*
X0125461Y0060337D02*
X0121556Y0060337D01*
X0120283Y0059661D02*
X0120087Y0059858D01*
X0120087Y0063205D01*
X0120087Y0065370D01*
X0119063Y0065370D01*
X0117291Y0065370D01*
X0117291Y0064780D01*
X0118472Y0064780D01*
X0118866Y0065173D01*
X0117291Y0065370D02*
X0116898Y0065370D01*
X0110205Y0065370D01*
X0106268Y0065370D01*
X0105283Y0063205D02*
X0107857Y0063205D01*
X0108236Y0063584D01*
X0108616Y0063205D01*
X0111794Y0063205D01*
X0112370Y0063781D01*
X0112370Y0063992D01*
X0112370Y0062994D01*
X0112947Y0062417D01*
X0118709Y0062417D01*
X0118709Y0059287D01*
X0119516Y0058480D01*
X0112947Y0058480D01*
X0112370Y0057904D01*
X0112370Y0056905D01*
X0112370Y0057116D01*
X0111885Y0057602D01*
X0112111Y0057732D01*
X0112331Y0057952D01*
X0112486Y0058221D01*
X0112567Y0058522D01*
X0112567Y0059661D01*
X0110402Y0059661D01*
X0110402Y0060055D01*
X0112567Y0060055D01*
X0112567Y0061195D01*
X0112486Y0061495D01*
X0112331Y0061765D01*
X0112111Y0061984D01*
X0111842Y0062140D01*
X0111541Y0062220D01*
X0110402Y0062220D01*
X0110402Y0060055D01*
X0110008Y0060055D01*
X0110008Y0062220D01*
X0108868Y0062220D01*
X0108568Y0062140D01*
X0108298Y0061984D01*
X0108097Y0061783D01*
X0107857Y0062024D01*
X0106051Y0062024D01*
X0105283Y0062791D01*
X0105283Y0063205D01*
X0105380Y0062695D02*
X0112669Y0062695D01*
X0112370Y0063481D02*
X0112070Y0063481D01*
X0112370Y0063992D02*
X0112370Y0063992D01*
X0108340Y0063481D02*
X0108133Y0063481D01*
X0108223Y0061909D02*
X0107971Y0061909D01*
X0110008Y0061909D02*
X0110402Y0061909D01*
X0110402Y0061123D02*
X0110008Y0061123D01*
X0110008Y0060337D02*
X0110402Y0060337D01*
X0112567Y0060337D02*
X0118709Y0060337D01*
X0118709Y0059551D02*
X0112567Y0059551D01*
X0112567Y0058765D02*
X0119231Y0058765D01*
X0119516Y0058480D02*
X0119516Y0058480D01*
X0120283Y0059661D02*
X0121819Y0058126D01*
X0121819Y0056315D01*
X0124772Y0053362D01*
X0138945Y0053362D01*
X0138945Y0051787D02*
X0122409Y0051787D01*
X0120047Y0054150D01*
X0118866Y0054150D01*
X0118079Y0054937D01*
X0117685Y0055331D01*
X0118866Y0055331D01*
X0117685Y0055331D02*
X0117094Y0055331D01*
X0116898Y0055528D01*
X0110205Y0055528D01*
X0106268Y0055528D01*
X0102331Y0054543D02*
X0106661Y0050213D01*
X0108630Y0050213D01*
X0138945Y0050213D01*
X0143669Y0053362D02*
X0146819Y0053362D01*
X0147016Y0054110D02*
X0147036Y0054049D01*
X0147059Y0053989D01*
X0147087Y0053930D01*
X0147117Y0053873D01*
X0147151Y0053818D01*
X0147188Y0053765D01*
X0147227Y0053715D01*
X0147270Y0053666D01*
X0147316Y0053621D01*
X0147364Y0053577D01*
X0147414Y0053537D01*
X0147467Y0053500D01*
X0147522Y0053466D01*
X0147578Y0053435D01*
X0147637Y0053408D01*
X0147697Y0053384D01*
X0147758Y0053363D01*
X0147820Y0053347D01*
X0147883Y0053333D01*
X0147947Y0053324D01*
X0148011Y0053318D01*
X0148076Y0053316D01*
X0148140Y0053318D01*
X0148205Y0053323D01*
X0148268Y0053332D01*
X0148332Y0053345D01*
X0148394Y0053362D01*
X0138945Y0054937D02*
X0135598Y0054937D01*
X0134811Y0055724D01*
X0140126Y0062024D02*
X0140001Y0062230D01*
X0139871Y0062433D01*
X0139736Y0062633D01*
X0139597Y0062830D01*
X0139452Y0063023D01*
X0139304Y0063213D01*
X0139150Y0063399D01*
X0138992Y0063581D01*
X0138830Y0063760D01*
X0138664Y0063934D01*
X0138493Y0064105D01*
X0138319Y0064271D01*
X0138140Y0064433D01*
X0137958Y0064591D01*
X0137772Y0064745D01*
X0137582Y0064893D01*
X0137389Y0065038D01*
X0137192Y0065177D01*
X0136992Y0065312D01*
X0136789Y0065442D01*
X0136583Y0065567D01*
X0135008Y0066748D01*
X0131957Y0066624D02*
X0131760Y0066624D01*
X0131760Y0065839D02*
X0131957Y0065839D01*
X0131957Y0065053D02*
X0131760Y0065053D01*
X0131458Y0064267D02*
X0132259Y0064267D01*
X0132416Y0063481D02*
X0131579Y0063481D01*
X0131501Y0063559D02*
X0131231Y0063715D01*
X0130931Y0063795D01*
X0129102Y0063795D01*
X0129102Y0061236D01*
X0131957Y0061236D01*
X0131957Y0062770D01*
X0131876Y0063070D01*
X0131721Y0063339D01*
X0131501Y0063559D01*
X0131957Y0062695D02*
X0131957Y0062695D01*
X0131957Y0061909D02*
X0131957Y0061909D01*
X0131957Y0061123D02*
X0129102Y0061123D01*
X0129102Y0060337D02*
X0128315Y0060337D01*
X0128315Y0061909D02*
X0129102Y0061909D01*
X0129102Y0062695D02*
X0128315Y0062695D01*
X0128315Y0063481D02*
X0129102Y0063481D01*
X0128709Y0066748D02*
X0129693Y0066748D01*
X0129693Y0071866D01*
X0131858Y0072126D02*
X0131858Y0072126D01*
X0131858Y0072912D02*
X0131858Y0072912D01*
X0131616Y0073698D02*
X0132101Y0073698D01*
X0134024Y0071866D02*
X0137764Y0071866D01*
X0139339Y0070291D01*
X0139339Y0068323D01*
X0143669Y0063992D01*
X0145244Y0062024D01*
X0145244Y0058087D01*
X0143669Y0058087D02*
X0143669Y0059661D01*
X0143670Y0059662D02*
X0143662Y0059719D01*
X0143651Y0059775D01*
X0143636Y0059831D01*
X0143617Y0059885D01*
X0143595Y0059938D01*
X0143570Y0059990D01*
X0143541Y0060039D01*
X0143509Y0060087D01*
X0143474Y0060133D01*
X0143437Y0060176D01*
X0143396Y0060217D01*
X0143353Y0060254D01*
X0143307Y0060289D01*
X0143259Y0060321D01*
X0143210Y0060350D01*
X0143158Y0060375D01*
X0143105Y0060397D01*
X0143051Y0060416D01*
X0142995Y0060431D01*
X0142939Y0060442D01*
X0142882Y0060450D01*
X0141307Y0060843D02*
X0141224Y0060879D01*
X0141143Y0060919D01*
X0141064Y0060961D01*
X0140986Y0061007D01*
X0140911Y0061057D01*
X0140837Y0061109D01*
X0140766Y0061165D01*
X0140697Y0061223D01*
X0140631Y0061284D01*
X0140567Y0061348D01*
X0140506Y0061414D01*
X0140448Y0061483D01*
X0140392Y0061554D01*
X0140340Y0061628D01*
X0140290Y0061703D01*
X0140244Y0061781D01*
X0140202Y0061860D01*
X0140162Y0061941D01*
X0140126Y0062024D01*
X0137764Y0058087D02*
X0135008Y0060843D01*
X0131957Y0060337D02*
X0131957Y0060337D01*
X0131957Y0059551D02*
X0131957Y0059551D01*
X0131957Y0058765D02*
X0131916Y0058765D01*
X0132164Y0057979D02*
X0135922Y0057979D01*
X0137764Y0058087D02*
X0139181Y0058087D01*
X0137764Y0058087D01*
X0139181Y0058087D02*
X0142094Y0058087D01*
X0149969Y0058087D02*
X0149969Y0075173D01*
X0138748Y0086394D01*
X0142622Y0087844D02*
X0144874Y0087844D01*
X0144614Y0087058D02*
X0142882Y0087058D01*
X0142296Y0088630D02*
X0145200Y0088630D01*
X0145924Y0089416D02*
X0141572Y0089416D01*
X0135924Y0089416D02*
X0131572Y0089416D01*
X0132296Y0088630D02*
X0135200Y0088630D01*
X0105087Y0082732D02*
X0102331Y0079976D01*
X0102331Y0054543D01*
X0099181Y0052969D02*
X0099181Y0075961D01*
X0088748Y0086394D01*
X0083827Y0081315D02*
X0078748Y0086394D01*
X0083827Y0081315D02*
X0086583Y0081315D01*
X0091307Y0081315D01*
X0095638Y0076984D01*
X0097606Y0075016D01*
X0097606Y0052181D01*
X0104299Y0045488D01*
X0106268Y0045488D01*
X0138945Y0045488D01*
X0138945Y0047063D02*
X0107055Y0047063D01*
X0105087Y0047063D01*
X0099181Y0052969D01*
X0112370Y0056905D02*
X0112370Y0056905D01*
X0112370Y0057194D02*
X0112293Y0057194D01*
X0112347Y0057979D02*
X0112446Y0057979D01*
X0106268Y0059858D02*
X0103906Y0062220D01*
X0103906Y0071079D01*
X0111919Y0067410D02*
X0112370Y0067410D01*
X0112370Y0066748D02*
X0112370Y0066748D01*
X0112522Y0068196D02*
X0112820Y0068196D01*
X0112187Y0061909D02*
X0118709Y0061909D01*
X0118709Y0061123D02*
X0112567Y0061123D01*
X0123675Y0056408D02*
X0128118Y0056408D01*
X0128118Y0054836D02*
X0125247Y0054836D01*
X0124461Y0055622D02*
X0130283Y0055622D01*
X0148394Y0048638D02*
X0148396Y0048543D01*
X0148402Y0048448D01*
X0148411Y0048353D01*
X0148425Y0048259D01*
X0148442Y0048166D01*
X0148463Y0048073D01*
X0148487Y0047981D01*
X0148516Y0047890D01*
X0148547Y0047800D01*
X0148583Y0047712D01*
X0148622Y0047625D01*
X0148665Y0047540D01*
X0148710Y0047457D01*
X0148760Y0047376D01*
X0148812Y0047296D01*
X0148868Y0047219D01*
X0148926Y0047144D01*
X0148988Y0047072D01*
X0149053Y0047002D01*
X0149120Y0046935D01*
X0149190Y0046870D01*
X0149262Y0046808D01*
X0149337Y0046750D01*
X0149414Y0046694D01*
X0149494Y0046642D01*
X0149575Y0046592D01*
X0149658Y0046547D01*
X0149743Y0046504D01*
X0149830Y0046465D01*
X0149918Y0046429D01*
X0150008Y0046398D01*
X0150099Y0046369D01*
X0150191Y0046345D01*
X0150284Y0046324D01*
X0150377Y0046307D01*
X0150471Y0046293D01*
X0150566Y0046284D01*
X0150661Y0046278D01*
X0150756Y0046276D01*
X0158039Y0047023D02*
X0157988Y0047066D01*
X0157939Y0047112D01*
X0157893Y0047160D01*
X0157849Y0047211D01*
X0157809Y0047265D01*
X0157772Y0047320D01*
X0157739Y0047378D01*
X0157708Y0047438D01*
X0157681Y0047499D01*
X0157658Y0047562D01*
X0157639Y0047626D01*
X0157623Y0047691D01*
X0157611Y0047757D01*
X0157603Y0047823D01*
X0157599Y0047890D01*
X0157598Y0047957D01*
X0157602Y0048024D01*
X0157609Y0048090D01*
X0157621Y0048156D01*
X0157636Y0048221D01*
X0157655Y0048285D01*
X0157677Y0048348D01*
X0157703Y0048410D01*
X0157733Y0048470D01*
X0157766Y0048528D01*
X0157803Y0048584D01*
X0157842Y0048638D01*
X0162567Y0048638D02*
X0166504Y0048638D01*
X0168866Y0051000D01*
X0165323Y0054543D02*
X0164142Y0053362D01*
X0162567Y0053362D01*
X0165323Y0054543D02*
X0165323Y0057693D01*
X0165323Y0059465D01*
X0170441Y0064583D01*
X0170638Y0064583D01*
X0170736Y0064484D01*
X0170441Y0064583D02*
X0165717Y0064583D01*
X0162213Y0064150D02*
X0161780Y0064583D01*
X0162213Y0064150D02*
X0162213Y0061039D01*
X0162213Y0055291D01*
X0162567Y0054937D01*
X0168472Y0056512D02*
X0171031Y0059071D01*
X0171425Y0059268D01*
X0175559Y0059551D02*
X0175953Y0059551D01*
X0175953Y0059071D02*
X0178118Y0059071D01*
X0178118Y0057931D01*
X0178038Y0057631D01*
X0177882Y0057361D01*
X0177820Y0057299D01*
X0177882Y0057237D01*
X0178038Y0056968D01*
X0178118Y0056667D01*
X0178118Y0055528D01*
X0175953Y0055528D01*
X0175953Y0056906D01*
X0175953Y0059071D01*
X0175953Y0058765D02*
X0175559Y0058765D01*
X0175559Y0057979D02*
X0175953Y0057979D01*
X0175953Y0057194D02*
X0175559Y0057194D01*
X0175559Y0056408D02*
X0175953Y0056408D01*
X0175953Y0055622D02*
X0175559Y0055622D01*
X0178118Y0055622D02*
X0203748Y0055622D01*
X0203748Y0056408D02*
X0178118Y0056408D01*
X0177907Y0057194D02*
X0203748Y0057194D01*
X0203748Y0057979D02*
X0178118Y0057979D01*
X0178118Y0058765D02*
X0203748Y0058765D01*
X0203748Y0059551D02*
X0178118Y0059551D01*
X0178118Y0060337D02*
X0203748Y0060337D01*
X0203748Y0061123D02*
X0177912Y0061123D01*
X0175953Y0060337D02*
X0175559Y0060337D01*
X0178118Y0054836D02*
X0203748Y0054836D01*
X0203748Y0054050D02*
X0178709Y0054050D01*
X0178709Y0053264D02*
X0203748Y0053264D01*
X0203748Y0052478D02*
X0178709Y0052478D01*
X0178709Y0051692D02*
X0203748Y0051692D01*
X0203748Y0050906D02*
X0178709Y0050906D01*
X0178709Y0050120D02*
X0186491Y0050120D01*
X0186466Y0050078D02*
X0186622Y0050347D01*
X0186842Y0050567D01*
X0187111Y0050723D01*
X0187411Y0050803D01*
X0188797Y0050803D01*
X0188797Y0048490D01*
X0186386Y0048490D01*
X0186386Y0049778D01*
X0186466Y0050078D01*
X0186386Y0049334D02*
X0178709Y0049334D01*
X0178709Y0048548D02*
X0186386Y0048548D01*
X0186386Y0047763D02*
X0178709Y0047763D01*
X0178709Y0046977D02*
X0186386Y0046977D01*
X0188797Y0048548D02*
X0189486Y0048548D01*
X0189486Y0048490D02*
X0189486Y0050803D01*
X0190872Y0050803D01*
X0191172Y0050723D01*
X0191442Y0050567D01*
X0191662Y0050347D01*
X0191817Y0050078D01*
X0191898Y0049778D01*
X0191898Y0048490D01*
X0189486Y0048490D01*
X0189486Y0049334D02*
X0188797Y0049334D01*
X0188797Y0050120D02*
X0189486Y0050120D01*
X0191793Y0050120D02*
X0193971Y0050120D01*
X0193866Y0049334D02*
X0191898Y0049334D01*
X0191898Y0048548D02*
X0193866Y0048548D01*
X0193866Y0047763D02*
X0191898Y0047763D01*
X0191898Y0046977D02*
X0193866Y0046977D01*
X0193960Y0046191D02*
X0191804Y0046191D01*
X0191110Y0045405D02*
X0194654Y0045405D01*
X0194654Y0044619D02*
X0191110Y0044619D01*
X0191110Y0043833D02*
X0194654Y0043833D01*
X0194654Y0043047D02*
X0191110Y0043047D01*
X0191670Y0042261D02*
X0194093Y0042261D01*
X0193866Y0041475D02*
X0191898Y0041475D01*
X0191898Y0040689D02*
X0193866Y0040689D01*
X0193866Y0039118D02*
X0191898Y0039118D01*
X0191868Y0038332D02*
X0193896Y0038332D01*
X0194508Y0037546D02*
X0191255Y0037546D01*
X0189486Y0037546D02*
X0188797Y0037546D01*
X0188797Y0037417D02*
X0188797Y0039730D01*
X0186386Y0039730D01*
X0186386Y0038443D01*
X0186466Y0038143D01*
X0186622Y0037873D01*
X0186842Y0037653D01*
X0187111Y0037498D01*
X0187411Y0037417D01*
X0188797Y0037417D01*
X0188797Y0038332D02*
X0189486Y0038332D01*
X0189486Y0039118D02*
X0188797Y0039118D01*
X0188797Y0039903D02*
X0186189Y0039903D01*
X0186189Y0039189D02*
X0184024Y0039189D01*
X0184024Y0037024D01*
X0185163Y0037024D01*
X0185464Y0037104D01*
X0185733Y0037260D01*
X0185953Y0037480D01*
X0186108Y0037749D01*
X0186189Y0038049D01*
X0186189Y0039189D01*
X0186189Y0039118D02*
X0186386Y0039118D01*
X0186416Y0038332D02*
X0186189Y0038332D01*
X0185991Y0037546D02*
X0187028Y0037546D01*
X0184024Y0037546D02*
X0183630Y0037546D01*
X0183630Y0038332D02*
X0184024Y0038332D01*
X0184024Y0039118D02*
X0183630Y0039118D01*
X0181465Y0039118D02*
X0178709Y0039118D01*
X0178709Y0039903D02*
X0181465Y0039903D01*
X0181465Y0040689D02*
X0178709Y0040689D01*
X0178709Y0041475D02*
X0181884Y0041475D01*
X0185770Y0041475D02*
X0186386Y0041475D01*
X0186386Y0040689D02*
X0186189Y0040689D01*
X0189486Y0039903D02*
X0196277Y0039903D01*
X0196967Y0039903D02*
X0203748Y0039903D01*
X0203748Y0039118D02*
X0199378Y0039118D01*
X0199378Y0039730D02*
X0196967Y0039730D01*
X0196967Y0037417D01*
X0198352Y0037417D01*
X0198653Y0037498D01*
X0198922Y0037653D01*
X0199142Y0037873D01*
X0199297Y0038143D01*
X0199378Y0038443D01*
X0199378Y0039730D01*
X0199378Y0040689D02*
X0203748Y0040689D01*
X0203748Y0041475D02*
X0199378Y0041475D01*
X0199151Y0042261D02*
X0199835Y0042261D01*
X0201937Y0043913D02*
X0201937Y0044110D01*
X0204299Y0044110D01*
X0201937Y0044110D02*
X0201937Y0043913D01*
X0201937Y0044110D02*
X0197449Y0044110D01*
X0199284Y0046191D02*
X0199958Y0046191D01*
X0199575Y0046977D02*
X0199378Y0046977D01*
X0199378Y0047763D02*
X0199575Y0047763D01*
X0199575Y0048441D02*
X0201740Y0048441D01*
X0201740Y0050606D01*
X0200600Y0050606D01*
X0200300Y0050526D01*
X0200031Y0050370D01*
X0199811Y0050150D01*
X0199655Y0049881D01*
X0199575Y0049581D01*
X0199575Y0048441D01*
X0199575Y0048548D02*
X0199378Y0048548D01*
X0199378Y0049334D02*
X0199575Y0049334D01*
X0199793Y0050120D02*
X0199273Y0050120D01*
X0196967Y0050120D02*
X0196278Y0050120D01*
X0196278Y0049334D02*
X0196967Y0049334D01*
X0196967Y0048548D02*
X0196278Y0048548D01*
X0201740Y0048548D02*
X0202134Y0048548D01*
X0202134Y0049334D02*
X0201740Y0049334D01*
X0201740Y0050120D02*
X0202134Y0050120D01*
X0188315Y0044110D02*
X0186780Y0044110D01*
X0183827Y0044110D02*
X0183827Y0043717D01*
X0171425Y0044110D02*
X0171228Y0044110D01*
X0169850Y0045488D01*
X0162567Y0045488D01*
X0162567Y0043913D02*
X0166504Y0043913D01*
X0169260Y0041157D01*
X0169654Y0040764D01*
X0170047Y0040370D01*
X0168472Y0039583D02*
X0168472Y0019504D01*
X0162606Y0034268D02*
X0162567Y0034307D01*
X0162567Y0037614D01*
X0166110Y0041945D02*
X0168472Y0039583D01*
X0166110Y0041945D02*
X0165717Y0042339D01*
X0162567Y0042339D01*
X0196278Y0039118D02*
X0196967Y0039118D01*
X0196967Y0038332D02*
X0196278Y0038332D01*
X0196278Y0037546D02*
X0196967Y0037546D01*
X0198736Y0037546D02*
X0203748Y0037546D01*
X0203748Y0038332D02*
X0199348Y0038332D01*
X0142881Y0060449D02*
X0142734Y0060466D01*
X0142588Y0060486D01*
X0142442Y0060511D01*
X0142296Y0060539D01*
X0142152Y0060571D01*
X0142008Y0060607D01*
X0141865Y0060647D01*
X0141724Y0060690D01*
X0141583Y0060737D01*
X0141444Y0060788D01*
X0141307Y0060843D01*
X0143276Y0067410D02*
X0144063Y0067410D01*
X0144063Y0068196D02*
X0143276Y0068196D01*
X0143276Y0068982D02*
X0144063Y0068982D01*
X0144063Y0071340D02*
X0143276Y0071340D01*
X0143276Y0072126D02*
X0144063Y0072126D01*
X0144063Y0072912D02*
X0143276Y0072912D01*
X0146485Y0072912D02*
X0148591Y0072912D01*
X0148591Y0072126D02*
X0146622Y0072126D01*
X0146622Y0071340D02*
X0148591Y0071340D01*
X0140717Y0069768D02*
X0140717Y0069768D01*
X0140717Y0068982D02*
X0140717Y0068982D01*
X0140717Y0068894D02*
X0140717Y0068894D01*
X0137913Y0069768D02*
X0135680Y0069768D01*
X0132367Y0069768D02*
X0131349Y0069768D01*
X0131705Y0068982D02*
X0132012Y0068982D01*
X0131957Y0068196D02*
X0131760Y0068196D01*
X0131760Y0067410D02*
X0131957Y0067410D01*
X0131858Y0070554D02*
X0131858Y0070554D01*
X0131858Y0071340D02*
X0131858Y0071340D01*
X0160795Y0071340D02*
X0167880Y0071340D01*
X0165913Y0070554D02*
X0165520Y0070554D01*
X0165520Y0069768D02*
X0165913Y0069768D01*
X0165913Y0069110D02*
X0168079Y0069110D01*
X0168079Y0069405D01*
X0170342Y0069405D01*
X0170342Y0068618D01*
X0168079Y0068618D01*
X0168079Y0068717D01*
X0165913Y0068717D01*
X0165913Y0069110D01*
X0165913Y0068982D02*
X0170342Y0068982D01*
X0170638Y0068913D02*
X0170736Y0069012D01*
X0170638Y0068913D02*
X0165717Y0068913D01*
X0165520Y0068982D02*
X0161976Y0068982D01*
X0161976Y0069110D02*
X0163354Y0069110D01*
X0165520Y0069110D01*
X0165520Y0068717D01*
X0161976Y0068717D01*
X0161976Y0069110D01*
X0161976Y0069768D02*
X0161583Y0069768D01*
X0161583Y0070554D02*
X0161976Y0070554D01*
X0170343Y0070554D02*
X0171130Y0070554D01*
X0171130Y0069768D02*
X0170343Y0069768D01*
X0170343Y0071340D02*
X0171130Y0071340D01*
X0173592Y0071340D02*
X0173838Y0071340D01*
X0202388Y0082343D02*
X0203748Y0082343D01*
X0203748Y0083129D02*
X0202882Y0083129D01*
X0202882Y0083915D02*
X0203748Y0083915D01*
X0203748Y0084700D02*
X0202882Y0084700D01*
X0202882Y0085486D02*
X0203748Y0085486D01*
X0203748Y0086272D02*
X0202882Y0086272D01*
X0202882Y0087058D02*
X0203748Y0087058D01*
X0203748Y0087844D02*
X0202882Y0087844D01*
X0202882Y0088630D02*
X0203748Y0088630D01*
X0203748Y0089416D02*
X0202882Y0089416D01*
X0194614Y0085486D02*
X0192847Y0085486D01*
X0192521Y0084700D02*
X0194614Y0084700D01*
X0194320Y0083915D02*
X0192115Y0083915D01*
X0089969Y0068126D02*
X0089969Y0062811D01*
X0087213Y0064366D02*
X0085027Y0066551D01*
X0084102Y0066551D01*
X0084179Y0066686D01*
X0084260Y0066986D01*
X0084260Y0068913D01*
X0082095Y0068913D01*
X0082095Y0069307D01*
X0084260Y0069307D01*
X0084260Y0071234D01*
X0084179Y0071535D01*
X0084024Y0071804D01*
X0083804Y0072024D01*
X0083736Y0072063D01*
X0084083Y0072063D01*
X0088591Y0067555D01*
X0088591Y0065862D01*
X0087789Y0065862D01*
X0087213Y0065286D01*
X0087213Y0064366D01*
X0087213Y0065053D02*
X0086526Y0065053D01*
X0085740Y0065839D02*
X0087766Y0065839D01*
X0088591Y0066624D02*
X0084144Y0066624D01*
X0084260Y0067410D02*
X0088591Y0067410D01*
X0087949Y0068196D02*
X0084260Y0068196D01*
X0082095Y0068982D02*
X0087164Y0068982D01*
X0086378Y0069768D02*
X0084260Y0069768D01*
X0084260Y0070554D02*
X0085592Y0070554D01*
X0084806Y0071340D02*
X0084232Y0071340D01*
X0082094Y0071340D02*
X0081701Y0071340D01*
X0081701Y0072126D02*
X0082094Y0072126D01*
X0082094Y0072246D02*
X0082094Y0069307D01*
X0081701Y0069307D01*
X0081701Y0072260D01*
X0081321Y0072260D01*
X0081701Y0072640D01*
X0081701Y0075213D01*
X0081701Y0075213D01*
X0081701Y0072640D01*
X0082094Y0072246D01*
X0081701Y0072912D02*
X0081701Y0072912D01*
X0081701Y0073698D02*
X0081701Y0073698D01*
X0081701Y0074484D02*
X0081701Y0074484D01*
X0083866Y0074228D02*
X0089969Y0068126D01*
X0082094Y0069768D02*
X0081701Y0069768D01*
X0081701Y0069307D02*
X0079535Y0069307D01*
X0079535Y0071234D01*
X0079616Y0071535D01*
X0079771Y0071804D01*
X0079991Y0072024D01*
X0080059Y0072063D01*
X0077947Y0072063D01*
X0077804Y0072206D01*
X0077252Y0071655D01*
X0076307Y0071263D01*
X0076182Y0071263D01*
X0079535Y0067909D01*
X0079535Y0068913D01*
X0081701Y0068913D01*
X0081701Y0069307D01*
X0081701Y0068982D02*
X0078463Y0068982D01*
X0079248Y0068196D02*
X0079535Y0068196D01*
X0079535Y0069768D02*
X0077677Y0069768D01*
X0076891Y0070554D02*
X0079535Y0070554D01*
X0079564Y0071340D02*
X0076493Y0071340D01*
X0077723Y0072126D02*
X0077884Y0072126D01*
X0079142Y0073835D02*
X0075795Y0073835D01*
X0079142Y0073834D02*
X0079181Y0073836D01*
X0079219Y0073842D01*
X0079256Y0073851D01*
X0079293Y0073864D01*
X0079328Y0073881D01*
X0079361Y0073900D01*
X0079392Y0073923D01*
X0079421Y0073949D01*
X0079447Y0073978D01*
X0079470Y0074009D01*
X0079489Y0074042D01*
X0079506Y0074077D01*
X0079519Y0074114D01*
X0079528Y0074151D01*
X0079534Y0074189D01*
X0079536Y0074228D01*
X0081701Y0070554D02*
X0082094Y0070554D01*
X0066543Y0073835D02*
X0063197Y0073835D01*
X0066543Y0073834D02*
X0066582Y0073836D01*
X0066620Y0073842D01*
X0066657Y0073851D01*
X0066694Y0073864D01*
X0066729Y0073881D01*
X0066762Y0073900D01*
X0066793Y0073923D01*
X0066822Y0073949D01*
X0066848Y0073978D01*
X0066871Y0074009D01*
X0066890Y0074042D01*
X0066907Y0074077D01*
X0066920Y0074114D01*
X0066929Y0074151D01*
X0066935Y0074189D01*
X0066937Y0074228D01*
X0065285Y0072126D02*
X0065125Y0072126D01*
X0065165Y0071340D02*
X0063894Y0071340D01*
X0062500Y0071340D02*
X0061425Y0071340D01*
X0061767Y0070554D02*
X0065165Y0070554D01*
X0052764Y0070554D02*
X0052764Y0070554D01*
X0052764Y0069768D02*
X0052764Y0069768D01*
X0052764Y0068982D02*
X0052582Y0068982D01*
X0052764Y0068196D02*
X0051796Y0068196D01*
X0052764Y0071340D02*
X0052764Y0071340D01*
X0052764Y0072126D02*
X0052764Y0072126D01*
X0052764Y0072912D02*
X0052764Y0072912D01*
X0084506Y0060337D02*
X0084604Y0060337D01*
X0084604Y0059551D02*
X0084506Y0059551D01*
X0084506Y0058765D02*
X0084604Y0058765D01*
X0084604Y0057979D02*
X0084506Y0057979D01*
X0085441Y0044619D02*
X0083537Y0044619D01*
X0084218Y0043833D02*
X0085441Y0043833D01*
X0085441Y0043047D02*
X0084260Y0043047D01*
X0084260Y0042261D02*
X0085441Y0042261D01*
X0082094Y0042261D02*
X0081701Y0042261D01*
X0081701Y0043047D02*
X0082094Y0043047D01*
X0082094Y0043833D02*
X0081701Y0043833D01*
X0081701Y0044619D02*
X0082094Y0044619D01*
X0049181Y0036394D02*
X0049181Y0028008D01*
X0069496Y0023399D02*
X0079535Y0023399D01*
X0079535Y0022613D02*
X0069496Y0022613D01*
D37*
X0071465Y0027378D03*
X0071858Y0033283D03*
X0080520Y0034071D03*
X0064772Y0037614D03*
X0075402Y0046276D03*
X0074614Y0060449D03*
X0086031Y0067929D03*
X0075795Y0073835D03*
X0063197Y0073835D03*
X0050992Y0075213D03*
X0059417Y0080134D03*
X0063197Y0081945D03*
X0069260Y0080921D03*
X0074220Y0080921D03*
X0042724Y0087614D03*
X0035244Y0087614D03*
X0029339Y0080134D03*
X0020677Y0073441D03*
X0027764Y0065567D03*
X0020677Y0064386D03*
X0013591Y0063598D03*
X0030520Y0060843D03*
X0036031Y0060843D03*
X0050205Y0063598D03*
X0014378Y0051394D03*
X0014378Y0046276D03*
X0014378Y0041157D03*
X0027764Y0031709D03*
X0032882Y0028165D03*
X0040362Y0027378D03*
X0037606Y0031709D03*
X0019102Y0025803D03*
X0027370Y0022654D03*
X0027913Y0018717D03*
X0028157Y0014780D03*
X0020283Y0012811D03*
X0007685Y0012417D03*
X0007685Y0019110D03*
X0015953Y0019110D03*
X0007685Y0026197D03*
X0045480Y0018323D03*
X0050992Y0017535D03*
X0047449Y0015173D03*
X0048787Y0012024D03*
X0061386Y0013992D03*
X0070441Y0012811D03*
X0079496Y0012024D03*
X0093512Y0020685D03*
X0093906Y0024622D03*
X0086425Y0024622D03*
X0104535Y0029740D03*
X0123197Y0033677D03*
X0122409Y0038008D03*
X0138000Y0031118D03*
X0123197Y0025409D03*
X0134417Y0023441D03*
X0152567Y0015961D03*
X0162409Y0012811D03*
X0167685Y0012417D03*
X0162961Y0017142D03*
X0174772Y0020685D03*
X0179102Y0017142D03*
X0185008Y0017142D03*
X0190913Y0017142D03*
X0195638Y0013992D03*
X0200756Y0015173D03*
X0200756Y0021079D03*
X0200756Y0026984D03*
X0190913Y0026984D03*
X0183039Y0026984D03*
X0173197Y0025803D03*
X0162961Y0025016D03*
X0162567Y0030134D03*
X0162606Y0034268D03*
X0173197Y0037220D03*
X0179102Y0037220D03*
X0183827Y0035646D03*
X0188945Y0036039D03*
X0196819Y0036039D03*
X0200756Y0032890D03*
X0173197Y0031315D03*
X0182252Y0048244D03*
X0188945Y0052181D03*
X0184850Y0056512D03*
X0179496Y0055331D03*
X0179496Y0059268D03*
X0190913Y0060449D03*
X0185008Y0064386D03*
X0190913Y0068323D03*
X0200756Y0068323D03*
X0200756Y0074228D03*
X0194850Y0078165D03*
X0200756Y0080134D03*
X0187370Y0080134D03*
X0178315Y0080921D03*
X0183039Y0073835D03*
X0190913Y0074228D03*
X0173197Y0073835D03*
X0162173Y0072654D03*
X0148394Y0080921D03*
X0138551Y0080528D03*
X0133669Y0076197D03*
X0128315Y0080528D03*
X0117685Y0080528D03*
X0113354Y0075409D03*
X0121858Y0074622D03*
X0113748Y0069898D03*
X0123433Y0066748D03*
X0123591Y0060843D03*
X0113748Y0060449D03*
X0126740Y0056118D03*
X0139181Y0058087D03*
X0162213Y0061039D03*
X0143669Y0074622D03*
X0107449Y0080921D03*
X0196819Y0052181D03*
X0201937Y0051787D03*
X0200756Y0056512D03*
X0200756Y0062417D03*
X0042724Y0005331D03*
X0034850Y0005331D03*
D38*
X0171425Y0044110D02*
X0175362Y0044110D01*
X0179693Y0044110D02*
X0183827Y0044110D01*
X0186780Y0044110D01*
D39*
X0173591Y0062024D02*
X0173591Y0066551D01*
X0176051Y0069012D01*
X0176445Y0069012D01*
D40*
X0075402Y0046276D02*
X0060047Y0046276D01*
X0060047Y0041354D02*
X0060047Y0051984D01*
X0056504Y0055528D01*
X0056504Y0057496D01*
X0054339Y0059661D01*
X0054535Y0059858D01*
X0054535Y0074622D01*
X0050992Y0078559D02*
X0050865Y0078545D01*
X0050738Y0078528D01*
X0050611Y0078507D01*
X0050486Y0078481D01*
X0050361Y0078452D01*
X0050237Y0078419D01*
X0050114Y0078382D01*
X0049993Y0078342D01*
X0049872Y0078298D01*
X0049754Y0078250D01*
X0049636Y0078198D01*
X0049521Y0078143D01*
X0049407Y0078084D01*
X0049295Y0078022D01*
X0049185Y0077956D01*
X0049077Y0077887D01*
X0048971Y0077815D01*
X0048867Y0077739D01*
X0048766Y0077661D01*
X0048668Y0077579D01*
X0048571Y0077494D01*
X0048478Y0077407D01*
X0048387Y0077316D01*
X0048299Y0077223D01*
X0048214Y0077127D01*
X0048132Y0077028D01*
X0048054Y0076927D01*
X0047978Y0076824D01*
X0047905Y0076718D01*
X0047836Y0076610D01*
X0047770Y0076501D01*
X0047708Y0076389D01*
X0047649Y0076275D01*
X0047593Y0076159D01*
X0047542Y0076042D01*
X0047493Y0075923D01*
X0047449Y0075803D01*
X0047449Y0071866D01*
X0045087Y0069504D01*
X0043118Y0069504D01*
X0043118Y0068717D01*
X0041150Y0066748D01*
X0041937Y0067535D01*
X0043118Y0068717D01*
X0043118Y0069504D01*
X0038787Y0069504D02*
X0038787Y0079563D01*
X0038748Y0079602D01*
X0050992Y0075213D02*
X0050992Y0069898D01*
X0045480Y0064386D01*
X0041543Y0064386D01*
X0033669Y0064386D01*
X0028551Y0069504D01*
X0028551Y0071472D01*
X0021661Y0078362D01*
X0013197Y0078362D01*
X0010146Y0081413D01*
X0008748Y0082811D01*
X0018748Y0084819D02*
X0036819Y0066748D01*
X0039181Y0066748D01*
X0041150Y0066748D01*
X0028551Y0069504D02*
X0028551Y0071472D01*
X0024220Y0069504D02*
X0024220Y0053362D01*
X0022370Y0051512D01*
X0019535Y0051512D01*
X0023827Y0048638D02*
X0024614Y0049425D01*
X0026976Y0051787D01*
X0026976Y0053362D01*
X0023827Y0048638D02*
X0023827Y0011472D01*
X0027913Y0018716D02*
X0028166Y0018981D01*
X0028424Y0019239D01*
X0028689Y0019491D01*
X0028960Y0019737D01*
X0029236Y0019976D01*
X0029519Y0020208D01*
X0029807Y0020433D01*
X0030100Y0020652D01*
X0030399Y0020863D01*
X0030702Y0021067D01*
X0031011Y0021263D01*
X0031324Y0021452D01*
X0031641Y0021633D01*
X0031963Y0021806D01*
X0032289Y0021972D01*
X0032619Y0022130D01*
X0032953Y0022279D01*
X0033290Y0022421D01*
X0033630Y0022554D01*
X0033974Y0022679D01*
X0034320Y0022796D01*
X0034669Y0022904D01*
X0035021Y0023003D01*
X0035375Y0023095D01*
X0035731Y0023177D01*
X0036090Y0023251D01*
X0036449Y0023316D01*
X0036811Y0023372D01*
X0037173Y0023420D01*
X0037537Y0023459D01*
X0037901Y0023489D01*
X0038266Y0023510D01*
X0038631Y0023522D01*
X0038997Y0023526D01*
X0039363Y0023521D01*
X0039728Y0023506D01*
X0040093Y0023483D01*
X0040457Y0023451D01*
X0040820Y0023410D01*
X0041183Y0023361D01*
X0041543Y0023303D01*
X0041903Y0023236D01*
X0042261Y0023160D01*
X0042616Y0023075D01*
X0042970Y0022982D01*
X0043321Y0022881D01*
X0043670Y0022771D01*
X0044016Y0022652D01*
X0044359Y0022526D01*
X0044698Y0022391D01*
X0045035Y0022247D01*
X0045368Y0022096D01*
X0045697Y0021937D01*
X0046022Y0021769D01*
X0046343Y0021594D01*
X0046659Y0021411D01*
X0046971Y0021221D01*
X0047279Y0021023D01*
X0047581Y0020817D01*
X0047878Y0020605D01*
X0048171Y0020385D01*
X0048457Y0020158D01*
X0048739Y0019924D01*
X0049014Y0019684D01*
X0049283Y0019437D01*
X0049547Y0019183D01*
X0049804Y0018923D01*
X0050055Y0018657D01*
X0050299Y0018385D01*
X0050537Y0018108D01*
X0050768Y0017824D01*
X0050992Y0017535D01*
X0036819Y0056118D02*
X0040362Y0059661D01*
X0050205Y0059661D01*
X0054339Y0059661D01*
X0054535Y0074622D02*
X0054546Y0074741D01*
X0054552Y0074860D01*
X0054554Y0074979D01*
X0054552Y0075099D01*
X0054547Y0075218D01*
X0054537Y0075337D01*
X0054523Y0075455D01*
X0054506Y0075573D01*
X0054484Y0075691D01*
X0054459Y0075807D01*
X0054429Y0075923D01*
X0054396Y0076038D01*
X0054359Y0076151D01*
X0054318Y0076263D01*
X0054274Y0076374D01*
X0054226Y0076483D01*
X0054174Y0076591D01*
X0054119Y0076696D01*
X0054060Y0076800D01*
X0053997Y0076902D01*
X0053932Y0077001D01*
X0053863Y0077099D01*
X0053791Y0077194D01*
X0053715Y0077287D01*
X0053637Y0077377D01*
X0053556Y0077464D01*
X0053472Y0077548D01*
X0053385Y0077630D01*
X0053295Y0077709D01*
X0053203Y0077785D01*
X0053108Y0077857D01*
X0053011Y0077927D01*
X0052912Y0077993D01*
X0052810Y0078056D01*
X0052707Y0078115D01*
X0052601Y0078171D01*
X0052494Y0078223D01*
X0052385Y0078272D01*
X0052275Y0078317D01*
X0052163Y0078358D01*
X0052049Y0078396D01*
X0051935Y0078430D01*
X0051819Y0078459D01*
X0051703Y0078485D01*
X0051586Y0078508D01*
X0051468Y0078526D01*
X0051349Y0078540D01*
X0051230Y0078550D01*
X0051111Y0078557D01*
X0050992Y0078559D01*
D41*
X0018748Y0084819D02*
X0018748Y0086394D01*
X0008748Y0086394D02*
X0008748Y0082811D01*
X0029732Y0056118D02*
X0033551Y0056118D01*
X0033827Y0056394D01*
X0029732Y0056118D02*
X0026976Y0053362D01*
X0023827Y0011472D02*
X0018748Y0006394D01*
M02*
